<?xml version="1.0" encoding="UTF-8"?>
<svg width="1200pt" height="1200pt" version="1.1" viewBox="0 0 1200 1200" xmlns="http://www.w3.org/2000/svg">
 <path d="m469.16 207.42c-23.617 0.035156-46.484 8.2891-64.68 23.344-18.191 15.059-30.574 35.98-35.023 59.172 23.383-9.3438 48.336-14.141 73.516-14.133h310.55c26.297 0.003906 52.336 5.2148 76.609 15.328-4.207-23.445-16.512-44.672-34.773-59.973-18.258-15.301-41.312-23.703-65.133-23.738z"/>
 <path d="m518.52 939.99c0.007812 8.0312 3.1992 15.734 8.8789 21.414 5.6797 5.6758 13.379 8.8711 21.41 8.8828h43.855l1.0234-56.594h-52.855c-11.262 0-22.312 13.023-22.312 26.297z"/>
 <path d="m599.09 37.5c-30.395 0-56.703 22.715-63.383 52.148h0.003906c7.6953-1.0469 15.457-1.5742 23.227-1.5742h83.672c6.6758-0.003907 13.344 0.38672 19.973 1.1719-3.1016-14.57-11.086-27.641-22.633-37.055-11.547-9.4102-25.961-14.594-40.859-14.691z"/>
 <path d="m642.62 111.51h-83.672c-28.801 0-54.949 8.2812-73.625 23.324l-0.003906-0.003907c-15.57 12.312-25.828 30.125-28.664 49.77 4.1172-0.41016 8.2852-0.62891 12.508-0.62891l261.05 0.003906c4.2773 0 8.5508 0.21484 12.805 0.65234-6.0898-38.289-37.789-73.117-100.4-73.117z"/>
 <path d="m490.65 859.97c0.007812 8.0312 3.2031 15.73 8.8828 21.41 5.6797 5.6797 13.379 8.8711 21.41 8.8789h73.176l0.95312-52.586h-82.129c-5.9102 0.007813-11.578 2.3594-15.758 6.5391-4.1797 4.1797-6.5312 9.8477-6.5352 15.758z"/>
 <path d="m543.86 1016c0 17.078 16.914 26.293 32.828 26.293h14.676l0.87891-48.59-30.449 0.003906c-13.223 0.003906-17.934 11.512-17.934 22.293z"/>
 <path d="m465.31 783.94c0.007812 8.0312 3.1992 15.73 8.8789 21.41 5.6797 5.6797 13.379 8.875 21.41 8.8828h99.898l0.95312-52.59h-108.85c-5.9102 0.007813-11.574 2.3594-15.754 6.5391-4.1797 4.1797-6.5312 9.8438-6.5352 15.758z"/>
 <path d="m867.15 340.91c-31.746-26.902-72.008-41.668-113.62-41.672h-310.56c-46.609 0-91.309 18.516-124.27 51.473-32.957 32.957-51.473 77.656-51.473 124.27s18.516 91.312 51.473 124.27c32.961 32.957 77.66 51.473 124.27 51.473h145.11c-3.3789-11.402-7.6719-22.516-12.84-33.23-23.406-48.449-20.254-105.53 8.3438-151.11 28.602-45.578 78.629-73.246 132.44-73.246 6.4727 0 11.719 5.2461 11.719 11.719 0 6.4727-5.2461 11.719-11.719 11.719-45.738 0.003906-88.266 23.523-112.57 62.27-24.312 38.746-26.992 87.27-7.0938 128.45 7.9648 16.523 14.047 33.887 18.137 51.766 0.15625 0.52344 0.27734 1.0547 0.35938 1.5977 4.2109 18.891 6.168 38.219 5.832 57.57l-7.7852 429.2c-0.16797 4.7031 1.9492 9.1953 5.6758 12.066 4.0898 3.1289 9.5391 3.8477 14.301 1.8867 4.7617-1.9648 8.1211-6.3125 8.8203-11.414 6.3281-46.781 17.617-116.7 35.484-184.12 22.086-83.359 48.516-141 78.594-171.33 6.7031-6.7656 13.672-13.645 21.047-20.926 80.102-79.078 189.8-187.38 145.91-343.54-10.129-36.062-29.348-66.879-55.574-89.133zm-524.27 213.15c-2.8945 1.1289-6.1211 1.0625-8.9688-0.18359-2.8477-1.25-5.082-3.5781-6.2109-6.4727-17.43-44.852-18.098-94.488-1.8867-139.79 1.0234-2.9609 3.1914-5.3867 6.0156-6.7383 2.8281-1.3516 6.0742-1.5156 9.0234-0.45703 2.9453 1.0586 5.3477 3.2539 6.6641 6.0938 1.3203 2.8438 1.4453 6.0938 0.35156 9.0273-14.293 39.977-13.703 83.77 1.6641 123.34 2.3555 6.0312-0.625 12.824-6.6523 15.18zm31.211-186.35c-2.2812 2.957-4.5078 6.0391-6.6055 9.1523-3.6211 5.3672-10.91 6.7812-16.273 3.1602-5.3672-3.6211-6.7812-10.906-3.1602-16.273 2.3828-3.5156 4.9023-7.0156 7.5-10.371 1.8867-2.5 4.6914-4.1367 7.7969-4.5547 3.1016-0.41406 6.2422 0.42578 8.7188 2.3398 2.4766 1.9141 4.0859 4.7383 4.4688 7.8477 0.38281 3.1055-0.49609 6.2344-2.4375 8.6914z"/>
 <path d="m450.76 674.16c-6.5703 0.007813-12.871 2.625-17.516 7.2695-4.6484 4.6484-7.2617 10.949-7.2656 17.52 0.007812 10.406 4.1484 20.387 11.508 27.746 7.3594 7.3594 17.34 11.5 27.75 11.512h131.63l0.37109-20.402c0.25391-14.629-0.94141-29.25-3.5703-43.645z"/>
</svg>
