<?xml version="1.0" encoding="UTF-8"?>
<svg width="1200pt" height="1200pt" version="1.1" viewBox="0 0 1200 1200" xmlns="http://www.w3.org/2000/svg">
 <path d="m1046 184.31h-891.94c-18.703 0-34.031 15.281-34.031 34.031v603.74c0 18.703 15.328 34.031 34.031 34.031h891.98c18.703 0 34.031-15.328 34.031-34.031l-0.046875-603.79c0-18.703-15.328-34.031-34.031-34.031zm-24.094 582h-843.74v-523.92h843.79v523.87zm-104.02-362.9c0 12.609-10.219 22.875-22.875 22.875-12.609 0-22.875-10.219-22.875-22.875 0-12.609 10.219-22.875 22.875-22.875 12.609 0 22.875 10.219 22.875 22.875zm26.953-52.922c5.3438 5.3438 5.3438 14.062 0 19.406s-14.062 5.3438-19.406 0c-8.3906-8.3906-19.406-12.609-30.422-12.609s-22.031 4.2188-30.422 12.609c-5.3438 5.3438-14.062 5.3438-19.406 0s-5.3438-14.062 0-19.406c13.734-13.734 31.781-20.625 49.828-20.625s36.047 6.8906 49.828 20.625zm-135.79-16.781c-5.3438-5.3438-5.3438-14.062 0-19.406 23.766-23.766 54.844-35.625 85.969-35.625s62.25 11.859 85.969 35.625c5.3438 5.3438 5.3438 14.062 0 19.406s-14.062 5.3438-19.406 0c-18.375-18.375-42.469-27.562-66.609-27.562-24.094 0-48.188 9.1875-66.609 27.562-5.3438 5.3438-14.062 5.3438-19.406 0zm-189.28 227.11 149.86-40.172v99.094c-47.906 28.734-106.64 45.703-170.11 45.703-63.469 0-122.21-16.922-170.11-45.703v-99.094l149.86 40.172c13.641 3.6562 26.812 3.6562 40.5 0zm-297.42-102.05c0-5.2969 3.4219-9.75 8.5312-11.109l254.53-68.203c9.7031-2.625 18.609-2.625 28.312 0l254.53 68.203c5.1094 1.3594 8.5312 5.8594 8.5312 11.109 0 5.2969-3.4219 9.7031-8.4844 11.109v92.25c9.3281 4.9219 15.656 14.719 15.656 25.969 0 10.406-5.3906 19.547-13.594 24.797l7.7812 16.734c3.9375 8.4375 5.6719 16.359 5.6719 25.688v45.938c0 8.7656-7.1719 15.938-15.938 15.938h-24.656c-8.7656 0-15.938-7.1719-15.938-15.938v-45.938c0-9.2812 1.7812-17.25 5.6719-25.688l7.3594-15.797c-9.0469-5.0156-15.188-14.672-15.188-25.734 0-11.297 6.3281-21.094 15.656-25.969v-84.891l-227.16 60.844c-9.7031 2.625-18.609 2.625-28.312 0l-254.53-68.203c-5.1094-1.3594-8.5312-5.8594-8.5312-11.109zm484.92 543.47v13.5h-414.52v-13.5c0-30.656 25.031-55.688 55.688-55.688h95.719v-62.953h111.75v62.953h95.719c30.656 0 55.688 25.031 55.688 55.688z" fill-rule="evenodd"/>
</svg>
