<?xml version="1.0" encoding="UTF-8"?>
<svg width="1200pt" height="1200pt" version="1.1" viewBox="0 0 1200 1200" xmlns="http://www.w3.org/2000/svg">
 <path d="m607.63 567.72 316.83-124.79v284.65c-100.12 52.438-211.45 79.828-324.46 79.828s-224.35-27.391-324.46-79.828v-284.66l316.83 124.79 0.003907 0.003906c4.9062 1.9258 10.359 1.9258 15.266 0zm554.87-262.79-562.5-221.74-562.5 221.74 562.5 221.54zm-58.168 511.56v-444.32l-41.25 16.297v428.08c-23.09 7.125-40.773 25.809-46.613 49.254-5.8438 23.449 1.0078 48.246 18.059 65.367-12.883 12.953-20.109 30.48-20.109 48.75v116.25c0 5.4688 2.1719 10.715 6.043 14.586 3.8672 3.8672 9.1133 6.0391 14.582 6.0391h97.512c5.4727 0 10.719-2.1719 14.586-6.0391 3.8672-3.8711 6.0391-9.1172 6.0391-14.586v-116.25c0.003906-18.27-7.2266-35.797-20.109-48.75 17.078-17.148 23.922-41.988 18.039-65.461-5.8828-23.473-23.637-42.148-46.781-49.219z"/>
</svg>
