<?xml version="1.0" encoding="UTF-8"?>
<svg width="1200pt" height="1200pt" version="1.1" viewBox="0 0 1200 1200" xmlns="http://www.w3.org/2000/svg">
 <path d="m1128.5 370.92c2.4375-3.6562 2.4375-6.0469 1.2188-8.4844s-2.4375-4.8281-6.0469-7.2656c-3.6562-2.4375-6.0469-3.6562-9.7031-4.8281-1.2188 0-2.4375-1.2188-3.6562-1.2188h-3.6562c-1.2188 0-1.2188 0-2.4375-1.2188-3.6562-3.6562-8.4844-3.6562-12.141 0 0-1.2188 1.2188-2.4375 2.4375-2.4375 3.6562-1.2188 4.8281-3.6562 3.6562-7.2656 0-2.4375-1.2188-4.8281-2.4375-7.2656-2.4375-4.8281-6.0469-6.0469-12.141-2.4375 0-1.2188 1.2188-1.2188 2.4375-2.4375 4.8281-1.2188 3.6562-4.8281 2.4375-6.0469-1.2188-4.8281-4.8281-7.2656-7.2656-8.4844-3.6562-1.2188-7.2656-1.2188-10.922 1.2188s-8.4844 4.8281-12.141 7.2656l-4.875 4.875c-1.2188 2.4375-1.2188 2.4375-4.8281 1.2188-4.8281-2.4375-9.7031-3.6562-14.531-3.6562-1.2188 0-3.6562 0-4.8281-1.2188-8.4844-3.6562-13.312 0-15.75 3.6562-2.4375 2.4375-3.6562 4.8281-6.0469 8.4844-2.4375 4.8281-7.2656 7.2656-12.141 8.4844-4.8281 1.2188-9.7031 2.4375-13.312 4.8281-2.4375 1.2188-4.8281 3.6562-6.0469 6.0469-2.4375 4.8281-4.8281 8.4844-9.7031 10.922-4.8281 2.4375-7.2656 6.0469-4.8281 10.922v1.2188c-1.2188 3.6562-3.6562 4.8281-7.2656 4.8281-8.4844 0-14.531 2.4375-19.406 6.0469-3.6562 1.2188-4.8281 1.2188-7.2656 1.2188-3.6562 0-4.8281 2.4375-6.0469 4.8281-1.2188 3.6562-1.2188 8.4844 1.2188 10.922 1.2188 2.4375 4.8281 4.8281 9.7031 4.8281h6.0469v2.4375c-1.2188 3.6562-1.2188 7.2656 1.2188 10.922-2.4375 1.2188-3.6562 1.2188-6.0469 2.4375-2.4375 1.2188-4.8281 1.2188-7.2656 1.2188-3.6562 0-7.2656-1.2188-10.922 0-9.7031 3.6562-19.406 2.4375-29.109 0-6.0469-2.4375-10.922 0-14.531 3.6562-2.4375 3.6562-7.2656 4.8281-12.141 3.6562-7.2656-1.2188-14.531-3.6562-23.016-7.2656-4.8281-1.2188-7.2656-4.8281-7.2656-9.7031 0-3.6562 1.2188-7.2656 1.2188-10.922 1.2188-7.2656 1.2188-13.312 0-19.406-1.2188-4.8281-4.8281-7.2656-8.4844-8.4844s-7.2656 1.2188-10.922 3.6562c-4.8281 4.8281-8.4844 8.4844-13.312 10.922-3.6562 2.4375-6.0469 6.0469-3.6562 13.312 1.2188 2.4375 2.4375 3.6562 2.4375 4.8281l1.2188 2.4375c1.2188 1.2188 1.2188 3.6562 0 4.8281-4.8281 6.0469-3.6562 9.7031 0 15.75 1.2188 1.2188 1.2188 3.6562 1.2188 4.8281 0 3.6562-1.2188 6.0469-3.6562 7.2656s-4.8281 1.2188-8.4844 1.2188h-3.6562c-3.6562 0-8.4844-1.2188-12.141 2.4375-4.8281-6.0469-8.4844-7.2656-15.75-3.6562-3.6562 1.2188-6.0469 2.4375-8.4844 1.2188-1.2188 0-3.6562-1.2188-4.8281-1.2188-1.2188 0-3.6562-1.2188-4.8281-1.2188-4.8281-1.2188-9.7031-2.4375-14.531 1.2188h-1.2188l-1.2188-1.2188s0-1.2188-1.2188-1.2188v-1.2188c-1.2188-4.8281-3.6562-7.2656-7.2656-8.4844-3.6562-1.2188-6.0469 0-10.922 2.4375-2.4375 1.2188-4.8281 1.2188-7.2656-1.2188s-6.0469-6.0469-10.922-6.0469v-1.2188c1.2188-4.8281 0-8.4844-2.4375-10.922s-6.0469-4.8281-9.7031-4.8281h-6.0938c-1.2188 0-3.6562 0-4.8281-1.2188-3.6562-1.2188-8.4844-1.2188-12.141 1.2188-1.2188 1.2188-3.6562 1.2188-6.0469 0-1.2188 0-1.2188 0-2.4375-1.2188s-3.6562-1.2188-4.8281-2.4375c-2.4375-1.2188-4.8281-1.2188-6.0469 0s-2.4375 2.4375-2.4375 3.6562c-1.2188 0-1.2188-1.2188-2.4375-1.2188l-1.2188-1.2188c-2.4375-1.2188-3.6562-1.2188-6.0469-2.4375-2.4375 0-3.6562-1.2188-4.8281-3.6562 2.3906 0.046875 0-2.3906-4.875-2.3906h-4.8281c-2.4375 0-4.8281 0-6.0469-2.4375-1.2188-1.2188-3.6562-2.4375-4.8281-3.6562-3.6562-2.4375-7.2656-2.4375-8.4844 0-1.2188 1.2188-2.4375 1.2188-4.8281 0-1.2188-1.2188-3.6562-2.4375-4.8281-3.6562-2.4375-1.2188-3.6562-3.6562-6.0469-4.8281-1.2188-1.2188-3.6562-2.4375-6.0469-2.4375-1.2188 0-2.4375-1.2188-2.4375-2.4375-1.2188-3.6562-2.4375-6.0469-6.0469-7.2656l-4.8281-2.4375c-3.6562-1.2188-6.0469-2.4375-9.7031-3.6562-1.2188-1.2188-3.6562-1.2188-4.8281-2.4375-3.6562-3.6562-6.0469-7.2656-10.922-8.4844 0-2.4375 2.4375-3.6562 3.6562-6.0469 3.6562-3.6562 4.8281-7.2656 3.6562-12.141-1.2188-2.4375 0-3.6562 1.2188-3.6562 1.2188-1.2188 2.4375-2.4375 2.4375-4.8281 0-4.8281 2.4375-8.4844 7.2656-12.141l2.4375-2.4375c1.2188-1.2188 2.4375-2.4375 4.8281-3.6562l1.2188-1.2188c1.2188 0 1.2188-1.2188 2.4375-1.2188 2.4375-1.2188 3.6562-3.6562 2.4375-6.0469 0-2.4375-1.2188-3.6562-3.6562-4.8281-1.2188-1.2188-2.4375-2.4375-4.8281-3.6562l-2.4375-2.4375h-1.2188c-1.2188-1.2188-2.4375-2.4375-3.6562-2.4375-2.4375-1.2188-6.0469-2.4375-8.4844-2.4375l-2.4375-1.2188v-1.2188c0-6.0469-2.4375-8.4844-8.4844-8.4844h-1.2188c-2.4375-4.8281-6.0469-7.2656-12.141-6.0469-2.4375 0-3.6562 0-6.0469-2.4375v-1.2188c-1.2188-1.2188-2.4375-3.6562-4.8281-4.8281-1.2188-1.2188-2.4375-2.4375-2.4375-3.6562-2.4375-6.0469-6.0469-8.4844-12.141-7.2656-1.2188 0-2.4375 1.2188-3.6562 1.2188 1.2188-1.2188 2.4375-4.8281-1.2188-8.4844-1.2188-1.2188-1.2188-2.4375 0-3.6562 2.4375-6.0469 1.2188-9.7031-3.6562-13.312-2.4375-2.4375-3.6562-4.8281-3.6562-8.4844 0-1.2188 1.2188-4.8281-1.2188-6.0469l2.4375-2.4375 1.2188 1.2188c1.2188 1.2188 1.2188 2.4375 2.4375 3.6562 3.6562 4.8281 8.4844 4.8281 13.312 2.4375l1.2188-1.2188c1.2188-1.2188 2.4375-1.2188 3.6562-2.4375 1.2188 0 1.2188-1.2188 2.4375-1.2188l1.2188-1.2188c3.6562 0 6.0469-2.4375 6.0469-4.8281 1.2188-2.4375 0-4.8281-1.2188-7.2656-2.4375-2.4375-2.4375-3.6562-2.4375-7.2656v-2.4375c0-3.6562 0-6.0469-2.4375-8.4844-1.2188-1.2188-3.6562-2.4375-7.2656-2.4375-1.2188 0-1.2188 0-1.2188-1.2188s-1.2188-2.4375-2.4375-4.8281l-1.2188-1.2188c0-2.4375-1.2188-6.0469-2.4375-7.2656 0 0 0-1.2188-1.2188-1.2188 2.4375-2.4375 3.6562-4.8281 3.6562-8.4844 2.4375-1.2188 3.6562-1.2188 6.0469-1.2188 8.4844 0 12.141-2.4375 14.531-10.922 1.2188-4.8281 3.6562-7.2656 7.2656-9.7031 1.2188-1.2188 2.4375-1.2188 2.4375-2.4375 1.2188-1.2188 2.4375-1.2188 3.6562-2.4375 7.2656-3.6562 10.922-9.7031 10.922-18.188v-3.6562c0-1.2188 1.2188-3.6562 1.2188-4.8281 2.4375-3.6562 3.6562-7.2656 1.2188-10.922 3.5625-2.1562 1.125-4.5938-3.7031-4.5938-2.4375 0-6.0469-1.2188-8.4844-2.4375-4.8281-2.4375-8.4844-7.2656-12.141-12.141-3.6562-3.6562-7.2656-4.8281-12.141-3.6562-2.4375 0-3.6562 1.2188-6.0469 2.4375-1.2188 0-2.4375 1.2188-3.6562 1.2188h-1.2188c-1.2188 0-3.6562 1.2188-4.8281 1.2188-7.2656 1.2188-13.312 3.6562-18.188 7.2656-4.8281 3.6562-9.7031 4.8281-14.531 3.6562h-6.0938l-3.6562-1.2188c-6.0469-1.2188-12.141-2.4375-18.188-4.8281-2.4375-1.2188-4.8281-2.4375-6.0469-4.8281-2.4375-4.8281-4.8281-6.0469-9.7031-4.8281h-2.4375c-2.4375 0-4.8281 0-6.0469-1.2188s-1.2188-3.6562-1.2188-6.0469c0-2.4375 1.2188-6.0469 2.4375-9.7031s1.2188-7.2656 0-9.7031c-2.4375-6.0469-6.0469-9.7031-12.141-12.141-1.2188 0-1.2188-1.2188-2.4375-1.2188-6.0469-2.4375-10.922-3.6562-14.531-8.4844-1.2188-2.4375-4.8281-3.6562-7.2656-2.4375-1.2188 0-1.2188 0-2.4375 1.2188-1.2188 0-1.2188 1.2188-2.4375 1.2188h-2.4375c-3.6562-2.4375-9.7031-3.6562-13.312-1.2188-3.5625 4.8281-8.3906 6.0469-12.047 7.2656h-23.016c-4.8281 0-10.922 0-15.75 3.6562h-9.75c-4.8281 0-8.4844 2.4375-10.922 7.2656 0 1.2188-1.2188 2.4375-2.4375 3.6562-6.0469 3.6562-8.4844 8.4844-8.4844 14.531s3.6562 10.922 9.7031 14.531c1.2188 0 2.4375 1.2188 2.4375 1.2188 1.2188 0 3.6562 1.2188 4.8281 2.4375 6.0469 3.6562 12.141 7.2656 15.75 13.312l3.6562 3.6562s1.2188 0 1.2188 1.2188c0 0 1.2188 1.2188 2.4375 1.2188 0 0 1.2188 0 1.2188 1.2188 2.4375 3.6562 6.0469 6.0469 12.141 7.2656 1.2188 0 2.4375 1.2188 3.6562 1.2188s2.4375 1.2188 3.6562 1.2188 2.4375 1.2188 1.2188 3.6562c0 2.4375-1.2188 3.6562-1.2188 6.0469 0 1.2188-1.2188 3.6562-1.2188 4.8281-2.4375 8.4844-2.4375 15.75 1.2188 23.016 1.2188 2.4375 1.2188 6.0469 1.2188 8.4844v21.844c0 2.4375 0 4.8281-2.4375 6.0469-1.2188 1.2188-2.4375 3.6562-1.2188 4.8281 1.2188 2.4375 3.6562 7.2656 9.7031 8.4844h1.2188v1.2188c-1.2188 3.6562 1.2188 7.2656 3.6562 8.4844 1.2188 1.2188 3.6562 1.2188 4.8281 2.4375 0 0 1.2188 0 1.2188 1.2188v6.0469c0 1.2188 0 2.4375 1.2188 3.6562s2.4375 1.2188 3.6562 1.2188h8.4844c3.6562 0 6.0469 1.2188 8.4844 3.6562-1.2188 0-2.4375 1.2188-3.6562 1.2188-3.6562 1.2188-7.2656 3.6562-12.141 6.0469-6.0469 2.4375-10.922 6.0469-14.531 8.4844-2.4375 1.2188-2.4375 2.4375-2.4375 3.6562s0 2.4375 2.4375 3.6562c4.8281 2.4375 4.8281 4.8281 2.4375 8.4844-2.4375 3.6562-4.8281 7.2656-7.2656 10.922l-3.6562 3.6562c-8.4844 9.7031-16.969 20.625-19.406 33.938-10.922 1.2188-15.75 6.0469-20.625 15.75-1.2188 3.6562-2.4375 7.2656-3.6562 10.922-2.4375 6.0469-6.0469 10.922-12.141 13.312-3.6562 1.2188-6.0469 3.6562-9.7031 4.8281-6.0469 3.6562-10.922 8.4844-13.312 13.312-1.2188 2.4375-3.6562 6.0469-4.8281 9.7031-4.8281 7.2656-10.922 10.922-18.188 10.922s-13.312 1.2188-19.406 3.6562h-2.4375c-4.8281 1.2188-6.0469 0-8.4844-3.6562v-1.2188c-1.2188-1.2188-1.2188-2.4375-2.4375-3.6562-2.4375-3.6562-6.0469-4.8281-10.922-3.6562-1.2188 0-3.6562 1.2188-3.6562 3.6562 0 1.2188-1.2188 2.4375-1.2188 2.4375-6.0469 2.4375-7.2656 7.2656-8.4844 12.141-1.2188 4.8281-2.4375 7.2656-7.2656 8.4844-7.2656 2.4375-10.922 8.4844-12.141 15.75-1.2188 6.0469-1.2188 10.922 2.4375 14.531 2.4375 3.6562 7.2656 6.0469 13.312 7.2656h1.2188c1.2188 0 2.4375 0 3.6562 1.2188 0 0 1.2188 0 1.2188 1.2188s-1.2188 2.4375-1.2188 3.6562c-1.2188 3.6562-2.4375 7.2656-2.4375 12.141-1.2188 9.7031 2.4375 16.969 13.312 19.406h1.2188c1.2188 0 2.4375 0 3.6562 1.2188 2.4375 0 3.6562 2.4375 3.6562 4.8281v1.2188c0 3.6562 1.2188 8.4844 2.4375 12.141 2.4375 7.2656 3.6562 14.531 4.8281 23.016 0 6.0469 0 6.0469-6.0469 7.2656 0 0-1.2188 0-1.2188-1.2188-2.4375-3.6562-4.8281-4.8281-8.4844-4.8281-7.2656 0-13.312 1.2188-18.188 4.8281-2.4375 2.4375-4.8281 2.4375-8.4844 0-9.7031-4.8281-19.406-6.0469-27.891-7.2656-4.8281 0-7.2656 0-8.4844 2.4375-2.4375 2.4375-2.4375 4.8281-2.4375 9.7031v2.4375h-4.875c-6.0469 0-12.141 3.6562-13.312 9.7031-1.2188 4.8281 0 10.922 4.8281 14.531 1.2188 0 1.2188 1.2188 1.2188 2.4375 1.2188 8.4844 7.2656 12.141 12.141 14.531 2.4375 1.2188 4.8281 2.4375 7.2656 4.8281 1.2188 1.2188 2.4375 1.2188 3.6562 2.4375s3.6562 2.4375 4.8281 2.4375c2.4375 1.2188 4.8281 3.6562 8.4844 4.8281 4.8281 2.4375 8.4844 2.4375 13.312 0 2.4375-1.2188 3.6562-1.2188 6.0469-2.4375 3.6562-1.2188 7.2656-1.2188 9.7031 0-1.2188 1.2188-2.4375 1.2188-3.6562 1.2188-3.6562 0-7.2656 2.4375-9.7031 4.8281-2.4375 2.4375-4.8281 3.6562-8.4844 4.8281h-2.4375c-3.6562 0-7.2656 1.2188-10.922 2.4375-2.4375 1.2188-2.4375 1.2188-4.8281-2.4375-2.4375-3.6562-4.8281-4.8281-9.7031-3.6562-3.6562 1.2188-4.8281 3.6562-4.8281 8.4844s2.4375 9.7031 6.0469 13.312c1.3594 1.1719 1.3594 1.1719 2.5781 2.3906l3.6562 3.6562c6.0469 7.2656 10.922 14.531 15.75 20.625l9.7031 12.141c1.2188 2.4375 3.6562 3.6562 4.8281 6.0469 12.141 13.312 25.453 16.969 42.422 10.922 1.2188-1.2188 3.6562-1.2188 4.8281-2.4375 3.6562-1.2188 6.0469-2.4375 9.7031-3.6562 6.0469-1.2188 10.922-3.6562 15.75-6.0469 1.2188-1.2188 2.4375-1.2188 4.8281-2.4375 2.4375-1.2188 4.8281-3.6562 4.8281-7.2656v-8.4844c1.2188-4.8281 0-8.4844-2.4375-12.141v-1.2188l1.2188-1.2188c4.8281-2.4375 6.0469-7.2656 4.8281-12.141l3.6562 1.2188v8.4844c-2.4375 8.4844-2.4375 10.922 3.6562 14.531-4.8281 4.8281-6.0469 8.4844-2.4375 15.75 1.2188 2.4375 2.4375 4.8281 3.6562 7.2656 2.4375 3.6562 2.4375 7.2656 2.4375 12.141 0 1.2188 0 3.6562-1.2188 4.8281-1.2188 6.0469-2.4375 10.922-4.8281 16.969-2.4375 4.8281-3.6562 9.7031-2.4375 15.75 2.4375 9.7031 2.4375 20.625 2.4375 29.109 0 1.2188 0 4.8281 3.6562 6.0469v1.2188c-3.6562 6.0469-3.6562 10.922 0 18.188 1.2188 1.2188 1.2188 3.6562 1.2188 4.8281 0 7.2656 1.2188 13.312 2.4375 19.406v1.2188c1.2188 4.8281 2.4375 9.7031 2.4375 14.531v18.188c1.2188 9.7031 3.6562 20.625 4.8281 30.281v1.2188c1.2188 7.2656 3.6562 13.312 7.2656 16.969l1.2188 1.2188c2.4375 2.4375 3.6562 3.6562 2.4375 6.0469v2.4375c0 1.2188 0 1.2188 1.2188 2.4375 0 2.4375 1.2188 3.6562 1.2188 6.0469 1.2188 12.141 6.0469 23.016 14.531 30.281 3.6562 3.6562 4.8281 7.2656 6.0469 12.141 1.2188 4.8281 1.2188 10.922 3.6562 15.75 3.6562 7.2656 4.8281 14.531 4.8281 21.797 0 10.922 1.2188 20.625 6.0469 30.281 4.8281 9.7031 9.7031 19.406 14.531 30.281 1.2188 2.4375 3.6562 4.8281 6.0469 7.2656 2.4375 1.2188 3.6562 3.6562 3.6562 7.2656 1.2188 4.8281 2.4375 7.2656 3.6562 10.922 3.6562 6.0469 6.0469 12.141 8.4844 18.188 1.2188 3.6562 2.4375 6.0469 3.6562 9.7031 1.2188 2.4375 1.2188 3.6562 2.4375 6.0469 1.2188 2.4375 1.2188 6.0469 2.4375 8.4844 0 1.2188 1.2188 3.6562 1.2188 6.0469 0 2.4375 0 3.6562 1.2188 6.0469 1.2188 3.6562 1.2188 6.0469 2.4375 9.7031 1.2188 2.4375 1.2188 4.8281 1.2188 7.2656 1.2188 3.6562 1.2188 6.0469 2.4375 9.7031 1.2188 6.0469 2.4375 13.312 4.8281 19.406 3.6562 12.141 9.7031 20.625 19.406 24.234 6.0469 2.4375 10.922 4.8281 16.969 8.4844 2.4375 1.2188 6.0469 2.4375 9.7031 2.4375 1.2188 0 2.4375 0 4.8281-1.2188 6.0469-2.4375 12.141-4.8281 18.188-10.922 2.4375-2.4375 2.4375-6.0469 1.2188-8.4844v-1.2188c0-2.4375-1.2188-4.8281-1.2188-7.2656 0-3.6562 1.2188-6.0469 2.4375-9.7031v-1.2188c1.2188-3.6562 3.6562-4.8281 7.2656-4.8281 7.2656 1.2188 14.531-1.2188 20.625-2.4375 4.8281-1.2188 7.2656-3.6562 6.0469-9.7031-1.2188-4.8281 0-8.4844 3.6562-10.922 4.8281-6.0469 9.7031-12.141 12.141-19.406 0-1.2188 1.2188-2.4375 3.6562-2.4375 3.6562 0 7.2656 0 10.922 1.2188 1.2188 0 3.6562 0 3.6562-1.2188 0 0 1.2188-1.2188 1.2188-2.4375v-1.2188c0-3.6562 1.2188-6.0469 0-9.7031-1.2188-7.2656-1.2188-13.312-1.2188-19.406 1.2188-6.0469 1.2188-13.312-1.2188-19.406-2.4375-4.8281-1.2188-9.7031 2.4375-15.75 4.8281-7.2656 8.4844-14.531 12.141-20.625l1.2188-2.4375c2.4375-4.8281 3.6562-9.7031 2.4375-14.531 0-1.2188 0-3.6562 1.2188-6.0469 2.4375-4.8281 3.6562-9.7031 2.4375-14.531-1.2188-2.4375-1.2188-4.8281-2.4375-8.4844s-1.2188-6.0469 0-8.4844c2.4375-4.8281 2.4375-9.7031-1.2188-13.312-2.4375-2.4375-2.4375-4.8281-1.2188-8.4844 2.4375-7.2656 2.4375-14.531-1.2188-23.016-1.2188-3.6562-2.4375-6.0469-1.2188-8.4844 2.4375-4.8281 2.4375-8.4844 2.4375-14.531 0-2.4375 0-3.6562 2.4375-4.8281h1.2188c1.2188 0 1.2188 0 2.4375-1.2188 1.2188 0 2.4375-1.2188 2.4375-1.2188 2.4375-1.2188 3.6562-2.4375 6.0469-2.4375h1.2188l2.4375 2.4375c1.2188 1.2188 2.4375 2.4375 3.6562 2.4375 2.4375 1.2188 4.8281 1.2188 7.2656 1.2188 1.2188 0 2.4375-1.2188 3.6562-2.4375 1.2188-2.4375 1.2188-4.8281 2.4375-6.0469 1.2188-2.4375 1.2188-4.8281 2.4375-7.2656 0-1.2188 1.2188-2.4375 1.2188-2.4375 2.4375-1.2188 3.6562-2.4375 3.6562-4.8281v-2.4375h2.4375c1.2188 0 1.2188 0 2.4375 1.2188 1.2188 0 2.4375 1.2188 3.6562 1.2188 0 0 3.6562 0 4.8281-1.2188 1.2188-2.4375 3.6562-2.4375 6.0469-2.4375h7.3125c6.0469 0 10.922-2.4375 13.312-7.2656 2.4375-6.0469 3.6562-12.141 1.2188-18.188-1.2188-1.2188 0-2.4375 1.2188-3.6562l1.2188-1.2188c1.2188-1.2188 2.4375-1.2188 3.6562-2.4375 2.4375-2.4375 6.0469-4.8281 10.922-6.0469 9.7031-2.4375 15.75-7.2656 19.406-15.75 3.6562-7.2656 8.4844-12.141 16.969-14.531h2.4375c4.8281-2.4375 9.7031-4.8281 13.312-9.7031l3.6562-3.6562c1.2188-1.2188 2.4375-2.4375 3.6562-4.8281 0-1.2188 1.2188-1.2188 1.2188-2.4375 2.4375-2.4375 4.8281-6.0469 6.0469-9.7031 2.4375-7.2656 7.2656-13.312 12.141-18.188 6.0469-6.0469 13.312-12.141 21.797-16.969 1.2188-1.2188 3.6562-1.2188 6.0469-2.4375 4.8281-1.2188 9.7031-2.4375 15.75-3.6562l4.8281-1.2188c4.8281-1.2188 7.2656-3.6562 9.7031-7.2656 1.2188-2.4375 2.4375-3.6562 3.6562-4.8281 2.4375-2.4375 4.8281-4.8281 6.0469-8.4844 0-2.4375 1.2188-4.8281 4.8281-6.0469 1.2188-1.2188 2.4375-1.2188 3.6562-2.4375 2.4375-2.4375 4.8281-4.8281 4.8281-7.2656s0-6.0469-2.4375-8.4844c-1.2188-1.2188-1.2188-2.4375-2.4375-3.6562l-1.2188-1.2188c-1.2188-1.2188-1.2188-2.4375-1.2188-4.8281 0-1.2188 1.2188-2.4375 2.4375-3.6562 1.2188 0 1.2188-1.2188 2.4375-1.2188 3.6562-2.4375 6.0469-4.8281 7.2656-8.4844 0-1.2188 1.2188-2.4375 3.6562-2.4375 6.0469-1.2188 10.922-1.2188 16.969-2.4375h4.8281c1.2188 2.4375 3.6562 4.8281 7.2656 4.8281 3.6562 0 7.2656-2.4375 7.2656-6.0469h3.6562l2.4375 2.4375h1.2188c1.2188-1.2188 2.4375 0 4.8281 0h1.2188s2.4375 0 3.6562-1.2188 1.2188-1.2188 2.4375 0h1.2188c3.6562 1.2188 6.0469 0 7.2656-2.4375s1.2188-4.8281 0-8.4844c-2.4375-4.8281-2.4375-4.8281 1.2188-8.4844 1.2188-1.2188 2.4375-3.6562 2.4375-6.0469 0-1.2188-1.2188-2.4375-2.4375-3.6562-3.6562-2.4375-3.6562-4.8281-3.6562-10.922 0-3.6562-1.2188-8.4844-3.6562-14.531-1.2188-2.4375-2.4375-4.8281-1.2188-7.2656s1.2188-4.8281 0-6.0469-2.4375-2.4375-6.0469-3.6562h-1.2188c2.4375-4.8281 1.2188-7.2656-3.6562-10.922l-1.2188-1.2188c-1.2188-2.4375 0-3.6562 1.2188-6.0469 4.8281-3.6562 3.6562-6.0469 1.2188-9.7031 0-3.6562 0-6.0469-2.4375-9.7031s-6.0469-4.8281-10.922-6.0469c-1.2188 0-2.4375-1.2188-3.6562-2.4375-2.4375-1.2188-3.6562-3.6562-4.8281-4.8281l-2.4375-2.4375c0-1.2188 1.2188-2.4375 1.2188-2.4375 3.6562-1.2188 6.0469-2.4375 8.4844-4.8281 2.4375-2.4375 3.6562-3.6562 3.6562-7.2656v-1.2188h2.4375c3.6562 0 7.2656 0 9.7031-1.2188 2.4375 0 4.8281-2.4375 4.8281-4.8281 1.2188-2.4375 0-4.8281-1.2188-6.0469s-2.4375-1.2188-3.6562-2.4375c0-4.8281-2.4375-6.0469-7.2656-6.0469h-4.8281c-2.4375-4.8281-6.0469-6.0469-9.7031-7.2656-1.2188 0-2.4375-1.2188-3.6562-1.2188 2.4375-1.2188 3.6562-4.8281 2.4375-8.4844l1.2188-1.2188c3.6562-2.4375 4.8281-4.8281 6.0469-8.4844v-1.2188h1.2188s1.2188 0 1.2188 1.2188c1.2188 1.2188 2.4375 1.2188 3.6562 1.2188h1.2188c1.2188 1.2188 3.6562 2.4375 6.0469 2.4375 4.8281 0 4.8281-1.2188 6.0469-4.8281 0 1.2188 1.2188 1.2188 1.2188 2.4375 1.2188 2.4375 2.4375 6.0469 4.8281 7.2656 3.6562 1.2188 7.2656 2.4375 10.922 3.6562h4.8281c1.2188-1.2188 1.2188-3.6562 1.2188-4.8281v-1.2188h1.2188v1.2188c0 1.2188 1.2188 3.6562 1.2188 4.8281 1.2188 2.4375 1.2188 3.6562 0 4.8281-3.6562 4.8281-3.6562 12.141-1.2188 16.969 2.4375 6.0469 7.2656 9.7031 13.312 10.922 8.4844 1.2188 15.75 2.4375 23.016 2.4375s14.531-1.2188 20.625-1.2188c2.4375 0 3.6562 0 6.0469-1.2188h1.2188c4.8281 0 9.7031-1.2188 14.531 0s9.7031 1.2188 13.312 0h2.4375c-4.8281 3.6562-6.0469 8.4844-7.2656 12.141 0 1.2188 0 1.2188-1.2188 2.4375v2.4375c-1.2188 6.0469-6.0469 10.922-13.312 12.141-8.4844 2.4375-18.188 7.2656-19.406 20.625v4.875c0 4.8281-1.2188 9.7031 1.2188 13.312 3.6562 6.0469 8.4844 10.922 13.312 14.531 4.8281 3.6562 12.141 2.4375 16.969-2.4375 2.4375-2.4375 2.4375-6.0469 0-8.4844 0 0 0-1.2188-1.2188-1.2188 2.4375-3.6562 4.8281-8.4844 4.8281-13.312h4.8281v1.2188c0 1.2188 1.2188 3.6562 1.2188 4.8281 1.2188 9.7031 2.4375 16.969 7.2656 24.234 1.2188 1.2188 1.2188 3.6562 1.2188 4.8281v6.0938c0 2.4375 1.2188 6.0469 1.2188 9.7031 0 1.2188 2.4375 3.6562 3.6562 4.8281 2.4375 1.2188 6.0469 2.4375 8.4844 3.6562 3.6562 1.2188 6.0469 1.2188 8.4844-2.4375 4.8281-7.2656 9.7031-15.75 6.0469-27.891-1.2188-4.8281-1.2188-8.4844 1.2188-13.312 1.2188-1.2188 1.2188-2.4375 2.4375-3.6562 2.4375-3.6562 3.6562-8.4844 2.4375-13.312 0-3.6562-1.2188-7.2656-1.2188-10.922v-2.4375h1.2188c1.2188-1.2188 2.4375-1.2188 2.4375-2.4375s0-1.2188 1.2188-1.2188h2.4375c1.2188 0 2.4375 1.2188 4.8281 1.2188 2.4375 1.2188 3.6562 1.2188 6.0469 2.4375 4.8281 1.2188 8.4844 0 10.922-4.8281 1.2188-2.4375 2.4375-4.8281 2.4375-7.2656 1.2188-4.8281 2.4375-8.4844 3.6562-13.312 2.4375-12.141 6.0469-24.234 7.2656-36.375v-1.2188c7.2656-3.6562 10.922-10.922 14.531-18.188 3.6562-8.4844 4.8281-15.75 1.2188-23.016v-1.2188c0-2.4375 0-3.6562 1.2188-4.8281l3.6562-3.6562c1.2188-1.2188 1.2188-2.4375 2.4375-2.4375l1.2188-1.2188c1.2188-1.2188 2.4375-2.4375 4.8281-3.6562 4.8281-2.4375 8.4844-4.8281 10.922-10.922 1.2188-4.8281 4.8281-6.0469 9.7031-7.2656 6.0469 0 9.7031-1.2188 13.312-4.8281 1.2188-1.2188 2.4375-1.2188 2.4375-1.2188 1.2188 0 1.2188 1.2188 2.4375 2.4375 0 0 1.2188 1.2188 1.2188 2.4375v1.2188c1.2188 2.4375 2.4375 3.6562 4.8281 4.8281 2.4375 1.2188 3.6562 0 6.0469-1.2188 1.2188-1.2188 2.4375-1.2188 2.4375-3.6562 0-1.2188 0-2.4375-1.2188-3.6562l-4.875-4.875c-6.0469-7.2656-6.0469-8.4844 1.2188-14.531 10.547 1.4062 12.984-2.25 15.375-4.6406z"/>
</svg>
