<?xml version="1.0" encoding="UTF-8"?>
<svg width="1200pt" height="1200pt" version="1.1" viewBox="0 0 1200 1200" xmlns="http://www.w3.org/2000/svg">
 <path d="m1140 764.4c-1.1992-7.1992-7.1992-15.602-9.6016-22.801-2.3984-4.8008-3.6016-9.6016-7.1992-13.199-4.8008-4.8008-13.199-7.1992-18-13.199-6-6-1.1992-10.801-1.1992-16.801 0-7.1992-4.8008-12 0-18 6-7.1992 8.3984-7.1992 9.6016-16.801 2.3984-8.3984 3.6016-10.801 9.6016-16.801s9.6016-7.1992 4.8008-14.398c-3.6016-6-6-12-9.6016-18-3.6016-6-8.3984-9.6016-12-14.398-6-7.1992-12-31.199-22.801-25.199-7.1992 4.8008-7.1992 9.6016-15.602 9.6016-4.8008 0-12-1.1992-16.801 1.1992-6 2.3984-10.801 6-16.801 8.3984-4.8008 1.1992-13.199 7.1992-19.199 4.8008v-2.3984c14.398-9.6016-16.801-18-22.801-19.199-10.801-2.3984-8.3984-6-14.398-13.199-6-4.8008-10.801-4.8008-13.199-12-3.6016-8.3984-10.801-22.801-9.6016-32.398 0-6 6-10.801 10.801-14.398 4.8008-4.8008 6-7.1992 7.1992-14.398 1.1992-12-1.1992-25.199-2.3984-37.199-1.1992-6-2.3984-10.801 0-16.801 2.3984-4.8008 6-8.3984 4.8008-14.398-1.1992-10.801-16.801-16.801-26.398-18-7.1992-1.1992-12-1.1992-19.199-3.6016-7.1992-2.3984-9.6016-1.1992-16.801-1.1992-10.801 0-22.801-6-32.398-12-4.8008-2.3984-10.801-3.6016-15.602-6-6-3.6016-7.1992-9.6016-9.6016-15.602-3.6016 3.6016-4.8008 7.1992-9.6016 8.3984-6 1.1992-12-1.1992-18 0-7.1992 2.3984-13.199 15.602-18 20.398-4.8008 4.8008-8.3984 15.602-15.602 19.199-6 3.6016-18 2.3984-25.199 1.1992-18-1.1992-24-21.602-42-24-7.1992-2.3984-15.602 1.1992-24 1.1992-8.3984-1.1992-20.398-2.3984-27.602-6-9.6016-3.6016-13.199-10.801-22.801-6-4.8008 2.3984-7.1992 4.8008-12 6-2.3984 0-4.8008 0-6 1.1992-1.1992 1.1992-2.3984 2.3984-3.6016 3.6016-6-6-10.801-2.3984-18-3.6016-8.3984 0-15.602 1.1992-24 2.3984-7.1992 1.1992-12-1.1992-19.199-1.1992-7.1992 0-15.602 3.6016-20.398-3.6016-3.6016-6 0-14.398 2.3984-20.398 4.8008-10.801 18-30 0-37.199-4.8008-2.3984-10.801-1.1992-16.801-2.3984-9.6016-2.3984-19.199-4.8008-28.801-7.1992-13.199-2.3984-26.398-4.8008-39.602-6-9.6016-1.1992-19.199-2.3984-28.801-2.3984-7.1992-1.1992-7.1992 2.3984-13.199 7.1992-7.1992 6-12 4.8008-19.199 2.3984-8.3984-3.6016-7.1992 2.3984-13.199 8.3984-4.8008 4.8008-13.199 9.6016-18 15.602-3.6016 4.8008-1.1992 12-6 15.602-6 4.8008-14.398 6-22.801 7.1992-7.1992 1.1992-13.199 6-20.398 7.1992-2.3984 0-3.6016-1.1992-7.1992 0-2.3984 0-8.3984 3.6016-9.6016 4.8008-4.8008 3.6016-7.1992 12-12 16.801-4.8008 6-12 8.3984-18 14.398-3.6016 3.6016-6 8.3984-8.3984 13.199-8.3984 16.801-16.801 34.801-27.602 51.602-7.1992 12-21.602 18-33.602 25.199-7.1992 3.6016-8.3984 4.8008-10.801 10.801-4.8008 9.6016-8.3984 19.199-12 28.801-4.8008 12-16.801 24-16.801 37.199-1.1992 8.3984 3.6016 10.801-2.3984 16.801s-10.801 9.6016-18 13.199c-13.199 7.1992-25.199 13.199-28.801 28.801-3.6016 16.801-8.3984 31.199-13.199 46.801-1.1992 7.1992 0 13.199-7.1992 16.801-6 3.6016-14.398 3.6016-21.602 7.1992-8.3984 3.6016-8.3984 9.6016-12 16.801-2.3906 7.1953-3.5938 13.195-5.9922 21.594l1.1992 3.6016c3.6016 3.6016 8.3984 0 12 1.1992 3.6016 1.1992 7.1992 3.6016 9.6016 6 4.8008 2.3984 14.398 7.1992 16.801 13.199 3.6016 6 1.1992 18 2.3984 25.199 1.1992 6 0 18 3.6016 22.801 3.6016-6 7.1992-15.602 14.398-14.398 8.3984 1.1992 8.3984 9.6016 8.3984 15.602s6 9.6016 12 8.3984c6-1.1992 7.1992-6 14.398-3.6016 3.6016 1.1992 4.8008 3.6016 7.1992 6 2.3984 2.3984 6 2.3984 8.3984 4.8008 4.8008 3.6016 3.6016 12 7.1992 18 3.6016 6 8.3984 6 14.398 7.1992 6 0 12 1.1992 18 1.1992 4.8008 0 13.199-2.3984 19.199-4.8008 6-2.3984 8.3984-6 13.199-10.801 7.1992 2.3984 13.199-4.8008 20.398-3.6016 3.6016 0 8.3984 4.8008 10.801 6 6 3.6016 10.801 6 16.801 9.6016 6 3.6016 7.1992 4.8008 14.398 2.3984 10.801-2.3984 13.199-3.6016 22.801 0 6 2.3984 13.199 3.6016 19.199 7.1992 2.3984 1.1992 7.1992 3.6016 7.1992 7.1992 0 3.6016-6 4.8008-7.1992 8.3984-1.1992 6 7.1992 8.3984 12 6 3.6016-2.3984 3.6016-3.6016 8.3984-4.8008 4.8008 0 4.8008 0 8.3984 1.1992 8.3984 3.6016 13.199 8.3984 22.801 7.1992 7.1992-1.1992 14.398 0 21.602 0 2.3984-3.6016 1.1992-7.1992 0-10.801l2.3984-2.3984c14.398 6 22.801 2.3984 38.398-1.1992 10.801-2.3984 22.801-1.1992 33.602-3.6016 9.6016-2.3984 27.602-7.1992 31.199-16.801 2.3984-8.3984-1.1992-12 3.6016-18s7.1992-9.6016 14.398-10.801c6-1.1992 12 0 18-2.3984s7.1992-7.1992 12-10.801c8.3984-7.1992 19.199-8.3984 27.602-2.3984 4.8008 4.8008 9.6016 9.6016 14.398 13.199 3.6016 1.1992 7.1992 2.3984 10.801 3.6016 10.801 3.6016 21.602 9.6016 33.602 13.199 22.801 6 42 4.8008 66 2.3984 14.398-1.1992 30-3.6016 44.398-4.8008 8.3984-1.1992 19.199 1.1992 27.602-1.1992 9.6016-3.6016 13.199-13.199 25.199-12 13.199 2.3984 24 1.1992 37.199 1.1992 4.8008 0 8.3984 0 12 2.3984 6 4.8008 7.1992 7.1992 15.602 6 8.3984-1.1992 19.199-7.1992 24-15.602 2.3984-6 3.6016-14.398 7.1992-19.199 2.3984-3.6016 7.1992-2.3984 12-2.3984s10.801-3.6016 15.602 0c3.6016 3.6016 6 12 8.3984 15.602 7.1992 13.199 15.602 3.6016 27.602 1.1992 6-1.1992 9.6016 2.3984 15.602 3.6016 7.1992 1.1992 6-2.3984 12-3.6016 7.1992 9.6016 9.6016 0 16.801-4.8008 7.1992-3.6016 15.602-6 21.602-10.801 6-3.6016 13.199-7.1992 19.199 0 3.6016 3.6016 1.1992 16.801 10.801 14.398 0-2.3984 3.6016-7.1992 2.3984-9.6016-1.1992-2.3984-4.8008-3.6016-6-6 2.3984-3.6016 8.3984 0 8.3984-6-2.3984-2.3984-6-4.8008-4.8008-9.6016 14.398 3.6016 24 15.602 39.602 12 10.809-2.3828 24.008-15.582 21.609-29.984z"/>
</svg>
