<?xml version="1.0" encoding="UTF-8"?>
<svg width="1200pt" height="1200pt" version="1.1" viewBox="0 0 1200 1200" xmlns="http://www.w3.org/2000/svg">
 <path d="m801.15 375c-0.75-2.9883-2.1875-5.7656-4.1992-8.1016-3.9023-3.8203-6.2617-8.9492-6.6211-14.402-0.35938-5.4492 1.3047-10.844 4.6719-15.145 1.6406-2.1367 2.6797-4.6758 3-7.3516 0-3.6016-1.0508-8.3984 0-10.949 4.5-6.1484 0-10.352-1.9492-15-2.8477-4.8438-5.4023-9.8516-7.6523-15-2.5508-4.3867-1.3125-9.9961 2.8516-12.902 1.9492-1.3516 2.25-5.8516 1.9492-8.8516s-2.6992-3.4492-4.5-4.3516v0.003907c-1.5391-0.26562-3.1094-0.26562-4.6484 0v-31.801c0.40234-1.9414 1.5273-3.6562 3.1484-4.7969 3.1484-2.3984 3.1484-4.1992 0-7.1992v-0.003906c-3.0547-3.8672-5.8594-7.9258-8.3984-12.148-0.75-1.0508-1.9492-1.8008-2.6992-3-1.1914-1.6094-2.2461-3.3164-3.1523-5.1016-2.625-7.9531-8.0664-14.676-15.301-18.898-7.6484-3.6016-18.297 0-22.648-11.25 0 0-0.89844 0-1.5-0.89844-5.5273-2.9883-10.262-7.2578-13.801-12.453-4.6484-5.3984-7.5-12.301-15-15-0.89844 0-2.1016-2.6992-1.6484-3.6016 2.3984-5.3984-1.3516-7.1992-4.9492-9.4492v0.003906c-6.7539-2.3438-14.098-2.3438-20.852 0 15 16.352 6.3008 30-4.1992 43.801l7.6484 6-8.8516 10.949c-7.0508-3-13.949-5.6992-20.699-8.6992v-0.003906c-5.5273-2.8906-11.805-4.043-18-3.2969-2.5117-0.097656-4.9258-0.99219-6.8984-2.5508-7.0508-4.3516-13.352-1.5-13.648 6.8984-0.23828 4.0977 0.21875 8.207 1.3477 12.152 4.0508 11.398-3 19.5-6.75 28.352l-17.398-10.953c-4.1328 3.9023-8.4883 7.5586-13.051 10.949-4.2188 2.8398-7.0938 7.2852-7.9492 12.301-1.9492 7.0508-4.6484 13.949-7.1992 21-0.5625 1.4219-1.5586 2.6328-2.8516 3.4492-9.3008 5.1016-10.051 7.6484-3.8984 15.898v0.003906c3.9492 4.3672 5.9297 10.168 5.4766 16.039s-3.3047 11.301-7.8789 15.008c-2.9922 3.2812-5.6562 6.8516-7.9492 10.652-4.3516 7.0508-7.9492 15-12.75 21-3.2539 3.2031-4.3125 8.0273-2.6992 12.301 1.3086 2.5039 1.5 5.4453 0.52734 8.0977-0.96875 2.6562-3.0117 4.7812-5.6289 5.8516-4.3008 3.3633-9.543 5.3047-15 5.5508-3.1719 0.097657-6.332 0.44922-9.4492 1.0469 1.0508 5.8516 1.9492 11.102 2.6992 16.5 0.36719 3.4414 0.36719 6.9102 0 10.352-1.1055 7.9531-1.707 15.969-1.8008 24-0.67578 10.828-3.5859 21.402-8.5469 31.051-4.4375 9.7383-9.4453 19.203-15 28.348-4.0508 7.3516-4.3516 9 3.1484 11.551s9.3008 9.1484 9.3008 16.352c0.30078 2.3398 0.30078 4.7109 0 7.0508-1.043 4.4648-2.9258 8.6914-5.5508 12.449-1.0508 1.3516-6.1484 0-9.3008-1.1992-2.3047-0.37109-4.5664-0.97656-6.75-1.8008-3.75-1.6328-7.9336-1.9727-11.898-0.96875-3.9648 1.0039-7.4805 3.2969-10 6.5195-7.1992 8.8516-13.051 18.898-19.352 28.352v-0.003906c-0.29297 0.72266-0.29297 1.5273 0 2.25 0.81641 2.5938 0.91016 5.3555 0.27734 8-0.63281 2.6406-1.9727 5.0625-3.875 7-2.5469 3.7617-2.5469 8.6914 0 12.449 3 6 6.4492 12.148 1.1992 19.051-1.0508 1.1992 0 4.0508 0 6.1484v0.003906c-0.14844 2.5469-0.14844 5.1016 0 7.6484 0.015625 5.0625 0.66797 10.102 1.9492 15 4.1445 8.4688 5.3047 18.09 3.3008 27.301-1.2148 5.7461-2.1172 11.555-2.6992 17.398-0.24609 3.3203 0.40625 6.6406 1.8828 9.625 1.4766 2.9805 3.7266 5.5117 6.5156 7.3242 4.9688 1.6953 8.9609 5.4609 10.945 10.32 1.9844 4.8594 1.7695 10.344-0.59375 15.031 0 1.6484-1.3516 3.3008-1.9492 4.8008h-0.003906c-0.66797 2.7539-3.3516 4.5234-6.1484 4.0508-3.2617 0.35938-6.4492 1.2188-9.4492 2.5469 4.0508 10.5 7.9492 19.949 11.25 30 1.0664 2.9258 1.4766 6.0508 1.1992 9.1523-0.75 5.8516-2.25 11.852-3 17.699-1.0234 3.9648-3.2148 7.5312-6.293 10.23-3.0742 2.7031-6.8945 4.418-10.957 4.918-1.7539 0.5-3.4219 1.2578-4.9492 2.25 3.3008 7.6484 3.3008 9.8984-1.3516 12.898v0.003906c-3.0312 1.5977-4.2812 5.2852-2.8477 8.3984 2.5898 8.3516 3.1055 17.207 1.5 25.801-1.1992 7.8008-4.0508 12.148-9 12.602-1.1992-4.1992-2.25-8.3984-3.4492-12.602-7.9492 1.8008-9.3008 5.6992-5.8516 11.398 1.1055 2.6016 1.5195 5.4453 1.1992 8.25v4.9492 0.003906c0.83594 4.3945 1.0859 8.8867 0.75 13.348-1.3477 5.0273 1.3008 10.262 6.1484 12.152 4.0508 2.25 4.0508 3 1.5 6-0.68359 1.418-1.1367 2.9375-1.3477 4.5h12.148c-1.3516 8.1016-2.5508 15.75-3.75 23.699 12.148 3 3.4492 15 9.3008 20.25l2.6992-5.3984v-0.003906c0.52734 0.89453 0.92969 1.8516 1.1992 2.8516 0.39844 9.1641 3.0781 18.086 7.8008 25.949 0.81641 1.3477 1.7734 2.6055 2.8516 3.75 1.8008 2.5508 3.4492 5.25 5.3984 7.6484 1.9492 2.3984 3.4492 6.4492 5.3984 6.4492 6 0 4.5 4.8008 4.6484 7.5 0.14844 2.6992-1.8008 4.9492-5.3984 3.1484-0.75 0-3.1484 0-3.3008 1.1992l0.003906 0.003907c-0.14453 1.3398 0.23047 2.6836 1.0508 3.75 0 1.3516 2.25 2.25 3 3.4492v0.003906c0.59766 1.3164 0.90625 2.75 0.89844 4.1992-1.3398 0.23047-2.7109 0.23047-4.0508 0-1.9492 0-3.6016-1.5-6.4492-2.6992 0.89844 2.25 1.0508 3.3008 1.5 4.0508 4.9492 8.6992 9.75 17.398 15 25.949 1.9492 3.4492 3.3008 6.6016-0.89844 9.75-0.89844 0-1.1992 2.6992-1.0508 4.0508v-0.003906c0.62109 3.6289 2.9141 6.7578 6.1875 8.4375 3.2734 1.6836 7.1523 1.7227 10.461 0.11328 2.7969-1.9688 6.0781-3.1328 9.4883-3.3711s6.8203 0.46094 9.8633 2.0234c1.6055 0.42969 3.3203 0.097657 4.6484-0.90234 5.25-4.1992 6.1484-7.9492 2.25-13.352v0.003906c-3.5703-4.5-3.1836-10.965 0.90234-15 2.1445-2.8281 4.4453-5.5352 6.8984-8.1016l6.4492 2.25v-8.6992h12.898c2.8516 0 6.3008 1.5 8.5508 0 5.8516-2.6992 10.801-3.4492 15 4.9492 2.6992-6.4492 4.6484-10.801 6.3008-15 1.1523-5.8945 3.1211-11.602 5.8516-16.949 3.6875-5.2188 5.9141-11.332 6.4492-17.699 0-1.8008 0-4.3516 1.8008-5.3984 1.8008-1.0508 2.1016-3.75 0-6.1484-2.1016-2.3984-2.3984-11.852 0.75-13.5 7.1992-4.0508 4.9492-8.3984 1.0508-13.648 6-5.1016 4.1992-10.352 0-15.75v-0.007812c-1.1602-2-1.9688-4.1797-2.4023-6.4492h0.89844l5.4023 7.0508 1.5-1.3516-1.5-6.1484c2.7109-3.7539 4.168-8.2695 4.168-12.898 0-4.6328-1.457-9.1445-4.168-12.902l9.3008-4.8008-7.9492-7.8008h-2.3984l0.89844-1.3516 1.5 1.5v0.003906c2.4336 0.37891 4.9141 0.37891 7.3477 0 3.6016-0.89844 5.25-3.6016 3.4492-6.75 4.1953 0.82422 8.5391-0.17578 11.949-2.7539s5.5547-6.4883 5.9023-10.746l2.25 1.1992c-0.75-4.8008-1.3516-8.8516-1.9492-12.898h2.1016c1.3516 5.5508 2.5508 10.949 3.8984 16.352h1.6484v-0.003906c0.76953-3.6875 2.5977-7.0742 5.2617-9.7383 2.6641-2.6641 6.0508-4.4922 9.7383-5.2617v-8.8516l6.3008 3.4492c2.5508-5.6992 3.8984-10.648-3-13.051v4.6484l-3.1484-1.3516-7.9492 4.9492v-9.3008l7.5 4.3516-1.6484-3c4.6484-3.8984 10.5-6.4492 12.301-10.801l-0.003907 0.007813c1.7422-4.6641 6.2734-7.6836 11.25-7.5 0 0 1.1992-1.5 1.9492-2.6992l-6.1484-2.25c-0.074218-0.64844-0.074218-1.3008 0-1.9492l6.4492-0.75c-0.59375-1.3867-1.3477-2.6953-2.25-3.9023-2.0977-2.2891-3.8672-4.8672-5.25-7.6484-0.76172-4.7305-4.5469-8.3945-9.3008-9-2.7227-1.3477-5.2461-3.0625-7.5-5.1016l1.0508-1.0508 6 1.8008-4.9492-17.551h-1.6484v8.25c-3.8984 1.5-6.1484 0-7.6484-3.6016-1.5-3.6016-3-6-4.3516-9s-4.6484-3-7.0508-1.0508l-0.003906 0.003907c-1.418 1.5352-2.6289 3.25-3.5977 5.1016 0-2.25-1.9492-4.0508-1.5-5.1016 1.6484-4.1992-0.75-4.0508-3.6016-4.5l-9.6016-2.3984h0.003906c3.1172-4.5156 3.1172-10.488 0-15-0.54687-1.5391-0.75391-3.1758-0.60156-4.8008 0-6.75 1.5-13.5 2.3984-20.699l-4.9492-5.5508c5.5508-1.6484 4.1992-4.8008 2.5508-7.8008s-3.75-6.6016 1.6484-8.8516c0 0 0-2.8516 1.3516-5.5508l6.6016 7.0508 1.6484-0.75v0.003906c-0.28906-2.1914-1.0547-4.293-2.25-6.1523-1.8984-2.2969-3.0664-5.1055-3.3633-8.0742-0.29297-2.9648 0.30469-5.9492 1.7148-8.5742 1.1289-1.9766 1.9883-4.0938 2.5469-6.3008 1.1992-3.6016 2.25-7.3516 3.4492-11.398h0.003906c-3.6016-1.5273-6.3047-4.625-7.3281-8.4023-1.0234-3.7734-0.25781-7.8125 2.0781-10.949l6.1484 6.75c1.8008-2.1016 3.1484-4.8008 4.0508-4.6484 6.3008 1.1992 7.0508-4.6484 10.5-7.5l-4.3516-3.4492 6.75-4.8008-5.5508-1.8008c0-1.9492 1.5-3.8984 2.1016-5.8516 1.0508 1.5 1.9492 3 3.3008 5.25 3.6055-2.207 7.0156-4.7148 10.199-7.5 1.9844-2.0234 2.9727-4.8242 2.6992-7.6484-1.8008-7.3516-0.75-10.648 6.75-12.898 4.3516-1.3516 4.9492-3.1484 2.1016-7.0508h1.5l5.5508 6.75 8.3984-18.898h4.6484c0-2.8516 0-5.1016-0.75-7.5h1.5l6.6016 9.1484c0-1.1992 2.1016-2.1016 2.3984-3.3008 0.44531-3.6602 2.2188-7.0273 4.9844-9.4609 2.7656-2.4336 6.332-3.7656 10.016-3.7383 1.5 0 4.1992-1.0508 4.1992-1.8008 0-6.4492 5.3984-9 10.352-11.699 1.5703-1.125 2.6875-2.7773 3.1523-4.6523 1.3516-3.8984 2.25-7.9492 3.4492-11.852v0.003906c1.8906-6.9219 6.2031-12.938 12.148-16.953 4.0039-3.1719 7.625-6.7969 10.801-10.797l-9.6016-4.5h6.3008c-2.6992-6.75-12.75-5.8516-13.648-15l5.5508 4.5c0-4.3516 2.3984-8.6992-4.5-8.5508-1.1992 0-2.5508-2.1016-3.8984-3.1484 4.3516 1.9492 4.8008 0 6-3.4492l-0.003906-0.003906c0.83594-2.5469 2.3359-4.8281 4.3516-6.5977 3.3906-1.8242 5.9531-4.8789 7.1523-8.5391 1.1992-3.6562 0.94922-7.6367-0.70312-11.113 6-3.75 6-4.5 0-8.25-1.1992-0.75-1.5-2.6992-2.25-4.1992 1.4727-0.39453 2.9805-0.64453 4.5-0.75 1.8984 0.14453 3.8047 0.14453 5.6992 0 2.3398-0.98828 4.5547-2.2461 6.6016-3.75-1.1992-1.9492-2.25-3.8984-3.1484-5.5508 7.1992 0 8.3984-0.75 7.1992-5.5508l9.6016 3.8984c-1.5-3.6016-1.9492-7.5-3.4492-8.1016-1.5-0.60156-2.5508-3.3008-2.25-5.3984l-0.003906 0.003906c-0.15625-1.3477-0.15625-2.707 0-4.0508 0.89844-2.25 1.9492-4.5 3-6.75l6 3.8984c1.3789 0.94922 2.6836 2 3.8984 3.1523v-10.648l12.898 16.352c2.1016-3.3008 3.4492-5.6992 5.1016-8.1016l5.5508 2.3984c5.1016-5.6992 10.199-3 15 0l9.4492-4.3516c-1.9492-7.9492-3.8984-14.25-6-19.949zm-208.65 455.7c-0.082031-1.3477-0.082031-2.6992 0-4.0508l10.801 9.1484-8.25-1.1992c1.3516 3.3008 2.3984 5.5508 3.4492 7.9492-6.4492 0-8.5508-1.0508-10.051-6.6016 0-1.8008-3.75-2.8516-5.6992-4.1992l-1.0508 1.1992c0 1.3516 0 2.6992 1.6484 5.6992-4.3516-3.1484-7.1992-6.6016-10.801-7.5l0.003906 0.003907c-3.9492-0.21094-7.9062 0.24609-11.699 1.3516l4.1992-7.9492z"/>
 <path d="m630 928.95c-4.3516 4.6484-7.5 10.352-11.699 15-2.8242 3.1484-4.1836 7.3438-3.75 11.551 0 9.8984 6 19.5 1.1992 30 4.0508 0 5.5508-1.9492 6-5.5508 0.078125-2.4219 0.85938-4.7656 2.25-6.75 3.75-3.75 10.352-4.9492 10.051-12.301 0.16797-2.6875 0.62109-5.3516 1.3477-7.9492 0.54297-5.0664 1.4961-10.086 2.8516-15 1.4805-3.3711 3.2891-6.5859 5.3984-9.5977-1.8633-1.7852-4.375-2.7344-6.9531-2.6211-2.5781 0.11328-4.9961 1.2773-6.6953 3.2188z"/>
 <path d="m578.25 965.4c-2.0273 6.6875-4.7969 13.129-8.25 19.203-8.6562 11.59-11.98 26.312-9.1484 40.5h1.5c0.89844-1.8086 1.6992-3.6602 2.3984-5.5508 1.1992-4.5 2.1016-9.1484 3.6016-13.648 4.3516-13.352 9.1484-26.699 13.648-40.051 0.15234-2.1484 0.15234-4.3047 0-6.4531h-2.3984c0.14844 1.9531-0.60156 3.9023-1.3516 6z"/>
 <path d="m412.65 918.75-7.3516 1.1992 1.8008 5.25 6.3008-3.6016v0.003906c-0.17969-0.96875-0.42969-1.9219-0.75-2.8516z"/>
 <path d="m645 928.95s1.9492 1.0508 2.25 0 4.0508-4.1992 6-6.3008c-8.25-0.44922-8.25 0.15234-8.25 6.3008z"/>
</svg>
