<?xml version="1.0" encoding="UTF-8"?>
<svg width="1200pt" height="1200pt" version="1.1" viewBox="0 0 1200 1200" xmlns="http://www.w3.org/2000/svg">
 <path d="m1079.4 837c-0.12109-0.48047-0.12109-0.96094-0.35938-1.4414-0.48047-0.71875-1.0781-1.1992-1.8008-1.8008-0.35938-0.35937-0.60156-0.71875-0.96094-0.96094l-114.12-65.398 0.003906-132.36c0-0.83984-0.35938-1.5586-0.60156-2.1602-0.23828-0.60156-0.12109-1.0781-0.48047-1.5586-0.48047-0.60156-1.0781-1.1992-1.8008-1.8008-0.35938-0.23828-0.60156-0.60156-0.83984-0.83984h-0.12109l-117-67.199 0.003906-132.12c0-0.83984-0.35937-1.5586-0.60156-2.1602-0.12109-0.60156-0.12109-1.0781-0.35938-1.5586-0.48047-0.60156-1.0781-1.1992-1.8008-1.8008-0.35938-0.23828-0.60156-0.60156-0.96094-0.83984v-0.12109l-113.4-65.039v-132.96c0-0.83984-0.35938-1.4414-0.60156-2.1602-0.12109-0.48047-0.12109-1.0781-0.35938-1.4414-0.60156-1.0781-1.5586-2.0391-2.6406-2.7617l-116.16-67.559c-2.2812-1.3203-5.0391-1.3203-7.4414 0l-117.84 67.559c-0.35938 0.23828-0.60156 0.71875-0.96094 0.96094-0.60156 0.48047-1.3203 1.0781-1.6797 1.6797-0.23828 0.48047-0.23828 0.96094-0.35938 1.4414-0.23828 0.71875-0.60156 1.4414-0.60156 2.1602v132.96l-113.28 64.922v0.12109c-0.48047 0.23828-0.60156 0.60156-0.96094 0.83984-0.60156 0.60156-1.3203 1.0781-1.8008 1.8008-0.23828 0.48047-0.23828 0.96094-0.35938 1.5586-0.35938 0.60156-0.60156 1.3203-0.60156 2.1602v132.24l-117 67.199h-0.12109c-0.35938 0.23828-0.60156 0.60156-0.83984 0.83984-0.60156 0.60156-1.3203 1.0781-1.8008 1.8008-0.35937 0.48047-0.23828 0.96094-0.48047 1.5586-0.23828 0.60156-0.60156 1.3203-0.60156 2.1602v132.48l-114.12 65.398c-0.48047 0.23828-0.60156 0.60156-0.96094 0.96094-0.60156 0.60156-1.3203 0.96094-1.8008 1.8008-0.23828 0.48047-0.23828 0.96094-0.35938 1.4414 0.015625 0.71875-0.46484 1.4414-0.46484 2.1602v135.6c0 2.6406 1.4414 5.0391 3.7188 6.3594l117 67.922s0 0.12109 0.12109 0.12109c0.71875 0.48047 1.6797 0.60156 2.5195 0.60156 0.35938 0 0.60156 0.23828 1.0781 0.23828 1.1992 0 2.5195-0.23828 3.6016-0.83984 0-0.12109 0-0.12109 0.12109-0.12109l115.8-67.199h0.12109c0.60156-0.23828 1.3203-0.48047 1.9219-0.71875l117.12-67.922c0.23828-0.12109 0.48047-0.35938 0.60156-0.60156 0.96094 0 1.9219-0.35937 2.8789-0.83984v-0.12109l113.39-65.641 113.4 65.762v0.12109c0.83984 0.60156 1.9219 0.83984 2.8789 0.83984 0.23828 0.23828 0.48047 0.48047 0.60156 0.60156l117.12 67.922c0.60156 0.35938 1.1992 0.60156 1.9219 0.71875h0.12109l115.8 67.199c0.12109 0 0.12109 0 0.12109 0.12109 1.0781 0.60156 2.3984 0.83984 3.6016 0.83984 0.48047 0 0.71875-0.23828 1.0781-0.23828 0.83984-0.12109 1.8008-0.23828 2.5195-0.60156 0.12109 0 0.12109-0.12109 0.12109-0.12109l117-67.922c2.2812-1.3203 3.7188-3.7188 3.7188-6.3594v-135.6c-0.003906-0.83984-0.48438-1.5625-0.60547-2.2812zm-589.2-599.28 101.16 59.039 0.96094 118.8-102.12-59.281zm-355.44 732.84v-118.56l101.16 59.039 0.96094 118.8zm108.84-72.48-2.6406-1.5586-98.879-57.238 95.641-54.84 1.3203-0.71875 1.9219-1.0781 4.3203-2.3984 7.1992 4.1992 1.3203 0.71875 1.9219 1.0781 91.078 53.039-91.078 51.961zm110.52 63.602v8.8789l-1.9219 1.0781-1.3203 0.60156-0.12109 0.12109-99.121 57.48v-118.8l7.8008-4.4414-0.48047-0.35938 1.0781-0.60156 2.5195-1.4414 72.48-41.641 18.602-10.559 0.35938 43.801 0.003906 65.883zm-93.602-190.68-8.0391-4.5586v-118.44l95.762 55.801 5.3984 3.2383 0.12109 10.68 0.83984 108.12zm100.8-77.039-2.8789-1.6797-98.52-57.238 98.52-56.52 4.4414-2.6406 10.32 6 91.199 53.039-91.199 52.199zm110.52 196.44v12.121l-4.1992 2.3984-98.039 57v-119.28l10.078-5.7617 11.16-6.4805 62.16-35.641 18.719-10.801v106.44zm0-240.72v116.52l-4.1992 2.3984-0.83984 0.59766-2.8789 1.8008-72.359 41.879-18.359 10.559-3.7188 2.0391v-119.4l6.2383-3.6016 3.7188-2.0391 73.559-42 18.719-10.801v2.0469zm-90.602-84.48-7.9219-4.5586v-118.56l95.52 55.68 5.6406 3.2383 0.12109 10.68 0.71875 108.12zm100.8-76.918-101.4-58.922 103.08-59.16 101.4 59.039zm110.64 344.88-102.36 59.398v-119.28l21.238-12.238 62.16-35.641 18.84-10.801v118.56zm0-144.12v7.9219l-8.0391 4.5586-70.801 41.039-23.52 13.441v-119.04l6.3594-3.7188h0.12109l14.762-8.5195 62.16-35.641 18.84-10.801-0.003906 110.76zm0-136.32v7.9219l-8.0391 4.5586-70.801 41.039-23.641 13.441v-119.16l6.3594-3.6016 77.16-44.16 18.84-10.801v110.76zm6.3594-268.92-101.4-58.922 103.08-59.16 101.52 59.039zm8.1602 12.359 83.52-47.762 18.84-10.801v118.56l-102.36 59.398zm102.48 596.4-102.36-59.398v-118.56l18.84 10.801 62.16 35.641 21.238 12.238v119.28zm0-246v109.44l-23.641-13.441-70.801-41.039-8.0391-4.5586v-118.68l18.84 10.801 62.16 35.641 14.762 8.5195h0.12109l6.3594 3.7188v9.6016zm0-136.32v109.44l-23.641-13.441-70.801-41.039-8.0391-4.5586v-118.68l18.84 10.801 77.16 44.16 6.3594 3.6016v9.7188zm-94.918-81 101.4-59.039 103.08 59.16-101.4 58.922zm110.64 82.562 0.12109-10.68 5.6406-3.2383 95.52-55.68v118.56l-7.9219 4.5586-94.078 54.602zm105 336.24v113.88l-98.039-57-4.1992-2.3984v-118.56l18.719 10.801 62.16 35.641 11.16 6.4805 10.078 5.7617 0.003906 5.3984zm0-136.2v113.76l-3.7188-2.0391-18.359-10.559-72.359-41.879-2.7617-1.9258-0.83984-0.48047-4.1992-2.3984v-118.45l18.719 10.801 73.559 42 3.7188 2.0391 6.2383 3.6016zm8.2812-17.879-12-6.8398-91.199-52.199 91.199-53.039 10.32-6 4.4414 2.6406 98.52 56.52-98.52 57.238zm7.5586 23.52 0.12109-10.68 5.3984-3.2383 95.762-55.801v118.44l-8.0391 4.5586-94.078 54.602zm102 312.36-99.121-57.48-0.12109-0.12109-1.3203-0.60156-1.9219-1.0781v-74.641l0.35938-43.801 18.602 10.559 72.48 41.641 2.5195 1.4414 1.0781 0.60156-0.48047 0.35938 7.8008 4.4414 0.007813 118.68zm10.801-133.2-2.6406 1.5586-12.121-6.9609-91.078-51.961 91.078-53.039 1.9219-1.0781 1.3203-0.71875 7.1992-4.1992 4.3203 2.3984 1.9219 1.0781 1.3203 0.71875 95.641 54.84zm106.2 73.918-102.12 59.398 0.96094-118.8 101.16-59.156z"/>
</svg>
