<?xml version="1.0" encoding="UTF-8"?>
<svg width="1200pt" height="1200pt" version="1.1" viewBox="0 0 1200 1200" xmlns="http://www.w3.org/2000/svg">
 <defs>
  <clipPath id="a">
   <path d="m222.14 383h755.71v434h-755.71z"/>
  </clipPath>
 </defs>
 <g clip-path="url(#a)">
  <path d="m934.68 639.64c1.6133-0.53906 3.3633-0.53906 4.9766 0l32.82 10.902c3.9609 1.3125 6.2031 5.4805 5.1094 9.4961l-18.121 66.535 17.602 36.008c0.63281 1.293 0.89453 2.7305 0.76172 4.1641-3.4727 37.191-6.2539 49.734-17.289 49.734-3.8867 0-28.988-1.3047-76.527-3.9766-1.8477-0.10156-3.6016-0.85156-4.9531-2.1172-5.4922-5.1562-9.8281-8.9922-12.949-11.48-1.0508-0.83984-1.9375-1.5039-2.6328-1.9805-3.3047 0.93359-13.738 4.2578-28.172 9.2148-1.7344 0.59766-3.625 0.57031-5.3398-0.070313l-99.742-37.438-80.562-21.805c-1.2695-0.34375-2.4336-1-3.3867-1.9102l-45.859-43.836c-44.199 7.6328-68.16 11.332-74.008 11.332-5.3086 0-19.977-6.5742-62.91-26.926-0.63281-0.29688-0.63281-0.29688-1.2656-0.59766-3.0078-1.4258-17.02-8.082-20.703-9.8242-7.6172-3.6094-13.305-6.2891-18.168-8.5469-5.6914-2.6445-10.051-4.6211-13.191-5.9727-1.6289-0.69922-2.9023-1.2188-3.7891-1.5508-0.074219-0.027344-0.32422-0.097656 0.55859-0.10547-5.8281-0.10156-41.715-20.738-132.93-75.281l-47.738-25.77c-3.9336-2.125-5.3047-7.082-3.0156-10.914l24.16-40.445 9.6836-50.188c0.29297-1.5156 1.0273-2.9102 2.1094-4.0117l48.734-49.555c3.0625-3.1172 8.0898-3.1445 11.188-0.058593l18.496 18.434 26.367-34.488c1.7969-2.3516 4.7656-3.4961 7.6836-2.9648l48.734 8.9219c2.5352 0.46484 4.6797 2.1328 5.7461 4.4688l13.801 30.266 90.113 47.316c1.2383 0.64844 2.2812 1.6133 3.0195 2.7969l19.746 31.66 40.051-11.281c3.4062-0.95703 7.0312 0.46484 8.8672 3.4766l29.254 47.961 67.699 19.953c3.3477 0.98438 5.6406 4.0469 5.6406 7.5234v24.746l110.42 30.262c7.6406-4.2148 13.363-6.3594 17.965-6.3594 4.7734 0 26.066 7.3359 71.754 24.305z" fill-rule="evenodd"/>
 </g>
</svg>
