<?xml version="1.0" encoding="UTF-8"?>
<svg width="1200pt" height="1200pt" version="1.1" viewBox="0 0 1200 1200" xmlns="http://www.w3.org/2000/svg">
 <path d="m213.92 693.93c-5.418-3.5391-6.9414-10.801-3.4023-16.219 3.5391-5.418 10.801-6.9453 16.223-3.4023l210.29 137.37-8.1523-67.918v-0.003907c-7.9883-13.82-14.426-28.484-19.191-43.723-4.8984-15.801-7.8086-32.152-8.6719-48.676l-133.5-104.4c-5.0312-4.0078-5.8945-11.32-1.9336-16.391 3.9648-5.0664 11.273-5.9922 16.371-2.0703l119.66 93.578 0.003906-0.003907c1.2422-13.094 3.6367-26.055 7.1484-38.73l-0.77734 0.097656-12.688-99.801-91.809-79.809c-4.8828-4.2461-5.4023-11.648-1.1562-16.531 4.2461-4.8867 11.648-5.4062 16.531-1.1602l72.004 62.578-39.582-311.32c-25.941 79.613-84.664 144.11-141.91 206.95-48.473 53.203-98.594 108.22-127.62 171.41-32.605 70.977-34.98 142.53-7.4883 225.18 26.805 80.57 71.184 132.08 131.9 153.09 94.027 32.527 200.22-16.25 230.01-35.91 1.9023-1.2461 3.9297-2.2891 6.0469-3.1055l-1.5547-12.945zm30.469-347.95c3.1094-3.418 6.2148-6.8359 9.3203-10.254 2.0742-2.3438 5.0039-3.7617 8.1289-3.9336 3.1289-0.17578 6.1953 0.91016 8.5156 3.0156 2.3203 2.1016 3.7031 5.0469 3.8398 8.1758 0.13672 3.1289-0.98828 6.1836-3.1172 8.4805-3.1133 3.4375-6.2305 6.8711-9.3555 10.297-4.3594 4.7852-11.77 5.1328-16.559 0.77344-4.7852-4.3555-5.1289-11.77-0.77344-16.555zm-81.523 133.84c-8.4648 12.207-16.289 24.844-23.438 37.863-3.1016 5.6797-10.223 7.7734-15.902 4.6719-5.6836-3.1016-7.7734-10.223-4.6719-15.902 7.5352-13.73 15.781-27.059 24.699-39.926 22.766-33.047 49.234-63.516 74.445-91.504 4.332-4.8086 11.742-5.1992 16.551-0.86719 4.8125 4.332 5.1992 11.742 0.86719 16.551-24.672 27.406-50.547 57.172-72.551 89.113z"/>
 <path d="m456.16 369.98c3.2773-5.543 10.414-7.3984 15.98-4.1602 5.5664 3.2422 7.4727 10.363 4.2734 15.953l-57.816 99.289 7.2344 56.91c9.3203-19.293 20.297-37.746 32.801-55.145 54.215-76.234 115.65-114.39 180.54-131.86-21.363-15.09-43.859-29.824-65.797-44.188-75.254-49.277-152.46-99.871-198.81-172.05l39.172 308.11z"/>
 <path d="m459.77 804.44 7.5-9.5273c-3.3906-3.5938-6.7227-7.2656-9.9727-11.078z"/>
 <path d="m918.49 593.44 84.734-9.0273h0.003906c6.4336-0.6875 12.207 3.9766 12.895 10.41 0.68359 6.4375-3.9766 12.211-10.414 12.895l-115.38 12.289-106.88 100.84 157.5-3.4102h0.25781c6.4727-0.066407 11.777 5.1211 11.844 11.594 0.070312 6.4727-5.1211 11.777-11.59 11.844l-183.44 3.9727-103.68 97.824 156.91-3.2461-0.003906 0.003906c6.4727-0.13281 11.828 5.0039 11.965 11.477 0.13281 6.4727-5.0078 11.828-11.477 11.961l-182.79 3.7656-12.234 11.543c11.219 35.012 62.531 139.26 154.88 174.81 61.027 23.488 129.4 13.305 203.22-30.273 75.117-44.34 119.43-100.17 139.45-175.69 17.855-67.332 13.719-142.67 9.7188-215.53-4.6875-85.621-9.4883-173.47 20.703-251.47z"/>
 <path d="m609.38 568.66c3.1055-0.16797 6.1445 0.90625 8.457 2.9844 2.3125 2.0742 3.707 4.9844 3.875 8.0898l13.32 248.92 107.66-101.59 6.0391-189.84h-0.003907c0.10156-3.1094 1.4297-6.0508 3.6992-8.1797 2.2656-2.125 5.2852-3.2656 8.3945-3.168 6.4727 0.20703 11.551 5.6211 11.344 12.094l-5.2891 166.29 108.66-102.52 10.094-120.22c0.53906-6.4492 6.207-11.238 12.656-10.699 6.4492 0.54297 11.238 6.2109 10.699 12.66l-7.9062 94.16 228.08-215.2c-79.668 26.215-166.5 17.094-251.13 8.1719-42.75-4.5078-86.379-9.1055-129.1-9.1055-28.469-0.28516-56.895 2.3086-84.844 7.75-76.629 15.734-135.84 56.137-186.35 127.16-49.234 69.227-64.594 135.41-45.652 196.71h-0.003906c4.4727 14.293 10.559 28.031 18.141 40.949 0.13672 0.21875 0.26172 0.44922 0.38281 0.67969 41.035 69.891 118.23 111.84 146.48 122.26 1.8125 0.68359 3.5586 1.5273 5.2148 2.5273l10.379-9.793-14.371-268.75c-0.34375-6.457 4.6094-11.977 11.066-12.328z"/>
 <path d="m566.03 868.66c-29.719-15.379-57.289-34.598-81.996-57.164l-20.324 25.824 2.1406 17.855c17.965 5.8359 56.082 13.949 100.18 13.484z"/>
 <path d="m586.3 874.64-106.09 100.11-12.938-107.81-23.398 1.7461 20.961 174.63c0.71094 5.8828 5.6953 10.309 11.621 10.312 0.46875 0 0.94141-0.027344 1.4062-0.085938 3.0859-0.36719 5.8984-1.9492 7.8203-4.3945 1.918-2.4414 2.7891-5.5508 2.418-8.6367l-4.418-36.824 119.39-112.65z"/>
</svg>
