<?xml version="1.0" encoding="UTF-8"?>
<svg width="1200pt" height="1200pt" version="1.1" viewBox="0 0 1200 1200" xmlns="http://www.w3.org/2000/svg">
 <path d="m79.484 1154.4h85.496l90.254-829.05h-85.488zm102.32-705.94 0.70312-6.2773v-0.003907c0.71875-6.4297 6.5156-11.062 12.949-10.344 6.4297 0.72266 11.062 6.5195 10.34 12.949l-0.70312 6.2812c-0.66016 5.9258-5.668 10.41-11.629 10.418-0.44141 0-0.88281-0.023438-1.3203-0.074219-6.4258-0.71875-11.059-6.5117-10.34-12.941zm7.9023 34.758c6.4297 0.71875 11.059 6.5156 10.344 12.945l-22.586 201.97h-0.003906c-0.66016 5.9297-5.668 10.414-11.629 10.418-0.44141 0.003906-0.88281-0.023437-1.3203-0.074219-6.4297-0.71875-11.059-6.5156-10.34-12.945l22.59-201.97-0.003906-0.003906c0.72656-6.4258 6.5195-11.051 12.949-10.332z"/>
 <path d="m51.184 488.52h77.219l5.8555-53.781h-83.074z"/>
 <path d="m211.53 189.44h770.99v29.242h-770.99z"/>
 <path d="m90.176 242.12h1010.7v59.781h-1010.7z"/>
 <path d="m912.03 488.52-5.8594-53.781h-639.27l-5.8594 53.781h61.875v31.582c-10.059 4.0508-17.609 12.621-20.363 23.113-2.7539 10.488-0.38672 21.664 6.3828 30.137 6.7734 8.4688 17.148 13.242 27.988 12.871 10.84-0.375 20.863-5.8477 27.035-14.766 6.1719-8.918 7.7656-20.227 4.2969-30.504-3.4688-10.273-11.59-18.305-21.902-21.66v-30.773h97.148v31.582c-10.059 4.0508-17.609 12.621-20.363 23.113-2.7539 10.488-0.38672 21.664 6.3828 30.137 6.7734 8.4688 17.148 13.242 27.988 12.871 10.84-0.375 20.863-5.8477 27.035-14.766 6.1719-8.918 7.7656-20.227 4.2969-30.504-3.4688-10.273-11.59-18.305-21.902-21.66v-30.773h97.148v31.582c-10.059 4.0508-17.609 12.621-20.359 23.109-2.7539 10.492-0.38672 21.664 6.3828 30.137 6.7695 8.4688 17.145 13.242 27.984 12.871 10.836-0.375 20.859-5.8477 27.031-14.766 6.1719-8.918 7.7656-20.227 4.3008-30.5-3.4688-10.273-11.59-18.305-21.902-21.66v-30.773h97.148v31.582c-10.059 4.0508-17.609 12.621-20.359 23.109-2.7539 10.492-0.38672 21.664 6.3828 30.137 6.7695 8.4688 17.145 13.242 27.984 12.871 10.836-0.375 20.859-5.8477 27.031-14.766s7.7656-20.227 4.3008-30.5c-3.4688-10.273-11.59-18.305-21.902-21.66v-30.773h97.148v31.582c-10.059 4.0508-17.609 12.621-20.359 23.109-2.7539 10.492-0.38672 21.664 6.3828 30.137 6.7695 8.4688 17.145 13.242 27.984 12.871 10.836-0.375 20.859-5.8477 27.031-14.766 6.1719-8.918 7.7656-20.227 4.3008-30.5-3.4688-10.273-11.59-18.305-21.902-21.66v-30.773z"/>
 <path d="m413.45 87.246c-183.8-12.012-327.78-34.082-373.66-41.641l13.023 120.4h1085.8l21.582-119.13c-254.26 56.906-545.34 53.535-746.76 40.371z"/>
 <path d="m1044.7 488.52h93.57v-53.781h-99.426z"/>
 <path d="m917.84 325.34 90.266 829.05h85.496l-90.262-829.05z"/>
</svg>
