<?xml version="1.0" encoding="UTF-8"?>
<svg width="1200pt" height="1200pt" version="1.1" viewBox="0 0 1200 1200" xmlns="http://www.w3.org/2000/svg">
 <path d="m427.13 777.98-38.766 0.046875h-0.046875c-9.5625 0-18.562-3.75-25.406-10.547s-10.594-15.844-10.594-25.406l-0.32812-438.14h198.71c3.1875 0 5.7656-2.5781 5.7656-5.7656s-2.5781-5.7656-5.7656-5.7656h-198.71l-0.046875-33.234c0-9.5625 3.75-18.609 10.547-25.406 6.7969-6.8438 15.844-10.594 25.406-10.594l249.61-0.1875h0.046876c19.828 0 35.953 16.125 36 35.953l0.046874 64.172h-10.453c-4.2656 0-7.6875 3.4688-7.6875 7.6875l0.046874 57.141c0 2.0625 0.79688 3.9844 2.25 5.4375 1.4531 1.4531 3.4219 2.25 5.4375 2.25h10.453l0.14062 219.79c0 4.2656 3.4688 7.6875 7.6875 7.6875 4.2656 0 7.6875-3.4688 7.6875-7.6875l-0.14062-219.79h31.266c4.2656 0 7.6875-3.4688 7.6875-7.6875l-0.046874-57.141c0-2.0625-0.79688-3.9844-2.25-5.4375-1.4531-1.4531-3.4219-2.25-5.4375-2.25h-31.266l-0.046874-64.172c0-13.688-5.3906-26.578-15.094-36.281-9.75-9.7031-22.594-15.047-36.281-15.047h-0.046876l-249.61 0.1875c-13.688 0-26.578 5.3906-36.281 15.094-9.7031 9.75-15.094 22.641-15.047 36.328l0.375 482.95c0 13.688 5.3906 26.578 15.094 36.281 9.75 9.7031 22.594 15.047 36.281 15.047h0.046875l38.766-0.046875c4.2656 0 7.6875-3.4688 7.6875-7.6875 0-4.2656-3.4688-7.6875-7.6875-7.6875zm285.56-397.78-41.719 0.046875-0.046875-41.719h41.719l0.046875 41.719zm-169.26-130.69c4.2656 0 7.6875 3.4219 7.6875 7.6875s-3.4219 7.6875-7.6875 7.6875l-61.219 0.046875c-4.2656 0-7.6875-3.4219-7.6875-7.6875s3.4219-7.6875 7.6875-7.6875zm2.4844 191.9c0 2.0625 0.79688 3.9844 2.25 5.4375 1.4531 1.4531 3.4219 2.25 5.4375 2.25l69-0.046875c4.2656 0 7.6875-3.4688 7.6875-7.6875l-0.046874-69c0-2.0625-0.79688-3.9844-2.25-5.4375-1.4531-1.4531-3.4219-2.25-5.4375-2.25l-43.594 0.046875v-23.672c0-4.2656-3.4688-7.6875-7.6875-7.6875l-69 0.046875c-4.2656 0-7.6875 3.4688-7.6875 7.6875l0.046874 33.328-46.359 0.046875c-4.2656 0-7.6875 3.4688-7.6875 7.6875l0.046874 82.031c0 4.2656 3.4688 7.6875 7.6875 7.6875l82.031-0.046875c2.0625 0 3.9844-0.79688 5.4375-2.25 1.4531-1.4531 2.25-3.4219 2.25-5.4375l-0.046874-46.359h7.9219v23.672zm68.906-61.312 0.046876 53.578-53.578 0.046875v-15.984h9.9844c4.2656 0 7.6875-3.4688 7.6875-7.6875v-29.906l35.906-0.046875zm-53.578 0.046875h2.25v22.219h-2.25zm-38.672 76.266-66.609 0.046875-0.046876-66.609 38.625-0.046875v20.25c0 4.2656 3.4688 7.6875 7.6875 7.6875h20.25l0.046876 38.625zm-12.609-66.609h12.562v12.562h-12.562zm27.984 12.562v-20.25c0-2.0625-0.79687-3.9844-2.25-5.4375-1.4531-1.4531-3.4219-2.25-5.4375-2.25h-20.25v-25.594l53.578-0.046875v15.984h-9.9844c-4.2656 0-7.6875 3.4688-7.6875 7.6875v29.906zm116.44-51.047-0.046874-57.141c0-4.2656-3.4688-7.6875-7.6875-7.6875l-57.141 0.046875c-4.2656 0-7.6875 3.4688-7.6875 7.6875l0.046876 57.141c0 4.2656 3.4688 7.6875 7.6875 7.6875l57.141-0.046875c4.2656 0 7.6875-3.4688 7.6875-7.6875zm-57.141-7.6875-0.046876-41.719 41.719-0.046875 0.046876 41.719zm108.75-29.812 57.141-0.046875c4.2656 0 7.6875-3.4688 7.6875-7.6875l-0.046874-57.141c0-4.2656-3.4688-7.6875-7.6875-7.6875l-57.141 0.046875c-4.2656 0-7.6875 3.4688-7.6875 7.6875l0.046876 57.141c0 4.2656 3.4688 7.6875 7.6875 7.6875zm49.406-57.188 0.046874 41.719-41.719 0.046875-0.046874-41.719zm85.5-33.984-57.141 0.046875c-4.2656 0-7.6875 3.4688-7.6875 7.6875l0.046876 57.141c0 4.2656 3.4688 7.6875 7.6875 7.6875l57.141-0.046875c4.2656 0 7.6875-3.4688 7.6875-7.6875l-0.046874-57.141c0-4.2656-3.4688-7.6875-7.6875-7.6875zm-49.406 57.188-0.046876-41.719 41.719-0.046875 0.046876 41.719zm-78.141-54.938 57.141-0.046875c4.2656 0 7.6875-3.4688 7.6875-7.6875l-0.046876-57.141c0-4.2656-3.4688-7.6875-7.6875-7.6875l-57.141 0.046875c-4.2656 0-7.6875 3.4688-7.6875 7.6875l0.046874 57.141c0 4.2656 3.4688 7.6875 7.6875 7.6875zm49.406-57.188 0.046876 41.719-41.719 0.046875-0.046876-41.719zm100.59-35.578c0-2.0625-0.79687-3.9844-2.25-5.4375-1.4531-1.4531-3.4219-2.25-5.4375-2.25l-57.141 0.046875c-4.2656 0-7.6875 3.4688-7.6875 7.6875l0.046874 57.141c0 4.2656 3.4688 7.6875 7.6875 7.6875l57.141-0.046875c4.2656 0 7.6875-3.4688 7.6875-7.6875zm-57.094 49.5-0.046874-41.719 41.719-0.046875 0.046874 41.719zm-21.422 796.08c3.0469 7.4062 5.5781 13.547 7.1719 17.391-11.344 18.75-34.078 34.969-60.047 47.953-34.734 17.344-75.141 28.734-102.19 32.484-2.1094-5.1562-4.5938-11.344-7.3125-18.281-14.906-37.641-37.688-95.203-57.188-113.48-9.5156-8.8594-22.031-19.359-32.906-28.453-3.8906-3.2344-7.5469-6.3281-10.734-9l-63.141-63.984c-8.4375-8.5781-14.016-18.797-17.25-29.672-4.5469-15.422-4.4531-32.203-1.1719-47.391s9.6562-28.781 17.578-37.922c3.75-4.3125 7.8281-7.5938 12.047-9.5625l12.328 29.672c0.60937 1.5 2.25 2.1562 3.6094 1.5 1.3594-0.65625 1.9688-2.3906 1.3594-3.8906l-13.312-32.016c-0.046876-0.14062-0.09375-0.23438-0.14063-0.32812l-69-166.08c-3.1875-7.5938-3.1406-15.938-0.5625-23.203 2.5781-7.2656 7.6875-13.5 14.766-16.922 7.0781-3.4219 14.766-3.4219 21.516-0.60938 6.75 2.7656 12.516 8.2969 15.703 15.938l69.047 166.26c0.60938 1.5 2.25 2.1562 3.6094 1.5 1.3594-0.65625 1.9688-2.3906 1.3594-3.8906-3.1875-7.5938-3.1406-15.938-0.5625-23.203 2.5781-7.2656 7.6875-13.5 14.766-16.922 7.0781-3.4219 14.766-3.4219 21.516-0.60937 6.75 2.7656 12.516 8.2969 15.703 15.938l8.0625 19.406c0.60937 1.5 2.25 2.1562 3.6094 1.5 1.3594-0.65625 1.9688-2.3906 1.3594-3.8906-3.1875-7.6406-3.1406-15.938-0.5625-23.203 2.5781-7.2656 7.6875-13.5 14.766-16.922 7.0781-3.4219 14.766-3.375 21.516-0.60937 6.75 2.7656 12.516 8.2969 15.703 15.938l7.3125 17.625c0.60938 1.5 2.25 2.1562 3.6094 1.5 1.3594-0.65625 1.9688-2.3906 1.3594-3.8906-3.1875-7.7344-3.7969-15.844-2.1094-22.734 1.5938-6.6562 5.3438-12.094 10.781-14.719s11.672-2.0156 17.344 1.125c5.8594 3.2344 11.109 9.0938 14.344 16.828l32.156 77.438v0.046876c9.3281 21.984 8.9531 51.375 8.5781 80.812-0.42187 31.547-0.79687 63.141 10.547 87 2.9531 6.2344 22.969 54.703 34.969 83.766z"/>
</svg>
