<?xml version="1.0" encoding="UTF-8"?>
<svg width="1200pt" height="1200pt" version="1.1" viewBox="0 0 1200 1200" xmlns="http://www.w3.org/2000/svg">
 <path d="m625 450c0 13.809-11.191 25-25 25s-25-11.191-25-25 11.191-25 25-25 25 11.191 25 25z"/>
 <path d="m338.75 552.75 187.25-93.75c-0.57812-2.9688-0.91406-5.9766-1-9 0-19.891 7.9023-38.969 21.969-53.031 14.062-14.066 33.141-21.969 53.031-21.969s38.969 7.9023 53.031 21.969c14.066 14.062 21.969 33.141 21.969 53.031s-7.9023 38.969-21.969 53.031c-14.062 14.066-33.141 21.969-53.031 21.969-19.457 0.054688-38.148-7.5859-52-21.25l-169 84.75 221 86.5 575-225-575-225-575 225 301 117.75c2.0391-6.5234 6.6406-11.938 12.75-15z"/>
 <path d="m350 825c-13.262 0-25.98 5.2695-35.355 14.645s-14.645 22.094-14.645 35.355c0 50 50 100 50 100s50-50 50-100c0-13.262-5.2695-25.98-14.645-35.355s-22.094-14.645-35.355-14.645z"/>
 <path d="m325 621-89.5-35-60.5 264 75.25 17.75c1.6367-20.801 9.7109-40.574 23.109-56.57 13.398-16 31.449-27.422 51.641-32.68z"/>
 <path d="m609 725c-5.7383 2.5-12.262 2.5-18 0l-216-84.5v138c21.41 5.5273 40.387 18 53.957 35.461 13.57 17.457 20.973 38.926 21.043 61.039-0.12109 13.039-2.0586 25.996-5.75 38.5l155.75 36.5 425-100-60.5-264z"/>
</svg>
