<?xml version="1.0" encoding="UTF-8"?>
<svg width="1200pt" height="1200pt" version="1.1" viewBox="0 0 1200 1200" xmlns="http://www.w3.org/2000/svg">
 <path d="m929.2 966.09 26.551 26.582h-0.003906c4.25 4.2539 10.02 6.6484 16.035 6.6484s11.781-2.3945 16.031-6.6484c4.2539-4.2695 6.6406-10.047 6.6406-16.074 0-6.0234-2.3867-11.801-6.6406-16.07l-26.383-26.414c-10.254 11.137-21 21.797-32.23 31.977z"/>
 <path d="m960.56 264.66 27.25-27.281c4.25-4.2695 6.6406-10.047 6.6406-16.074 0-6.0234-2.3906-11.801-6.6406-16.07-4.25-4.2578-10.016-6.6484-16.031-6.6484s-11.785 2.3906-16.035 6.6484l-27.504 27.539c11.258 10.129 22.031 20.758 32.32 31.887z"/>
 <path d="m233.2 269.15c10.121-11.207 20.738-21.934 31.848-32.18l-31.637-31.746c-4.25-4.2539-10.016-6.6445-16.027-6.6445s-11.777 2.3906-16.027 6.6445c-4.25 4.2695-6.6367 10.051-6.6367 16.074 0 6.0234 2.3867 11.805 6.6367 16.07z"/>
 <path d="m201.37 960.52c-4.2539 4.2656-6.6406 10.047-6.6406 16.074 0 6.0234 2.3867 11.805 6.6406 16.074 4.25 4.2578 10.016 6.6484 16.031 6.6484 6.0156 0 11.781-2.3906 16.031-6.6484l30.84-30.656c-11.148-10.336-21.812-21.164-31.984-32.484z"/>
 <path d="m606.56 92.762c-0.27344 4.9727 1.4297 9.8477 4.7461 13.562 3.3125 3.7109 7.9648 5.9609 12.934 6.25 4.9688 0.27344 9.8438-1.4414 13.551-4.7656 3.707-3.3203 5.9414-7.9805 6.2109-12.949 0.27734-4.9688-1.4297-9.8477-4.7422-13.562-3.3125-3.7109-7.9648-5.9609-12.934-6.2461-0.35938-0.019531-0.70312-0.03125-1.0703-0.03125-4.793 0.011719-9.3984 1.8555-12.875 5.1523-3.4766 3.3008-5.5586 7.8047-5.8203 12.59z"/>
 <path d="m573.66 112.57c4.9688 0.27344 9.8438-1.4414 13.551-4.7617 3.707-3.3242 5.9414-7.9844 6.2148-12.953 0.27344-4.9688-1.4336-9.8477-4.7461-13.559-3.3125-3.7148-7.9648-5.9609-12.934-6.25-0.35547-0.019531-0.70312-0.03125-1.0664-0.03125-4.793 0.011719-9.4023 1.8555-12.879 5.1523-3.4766 3.3008-5.5586 7.8047-5.8164 12.59-0.27734 4.9727 1.4258 9.8477 4.7422 13.562 3.3125 3.7148 7.9648 5.9609 12.934 6.25z"/>
 <path d="m598.96 71.152c4.9688 0.27344 9.8438-1.4414 13.551-4.7656 3.707-3.3203 5.9414-7.9805 6.2109-12.953 0.27734-4.9688-1.4297-9.8438-4.7422-13.559-3.3125-3.7109-7.9648-5.9609-12.934-6.25-0.35547-0.019531-0.70312-0.03125-1.0664-0.03125-4.793 0.011719-9.3984 1.8594-12.875 5.1562-3.4766 3.3008-5.5586 7.8047-5.8203 12.59-0.27734 4.9688 1.4258 9.8477 4.7422 13.562 3.3125 3.7109 7.9648 5.9609 12.934 6.25z"/>
 <path d="m575.75 1087.4c-4.9727-0.27344-9.8438 1.4414-13.551 4.7656-3.707 3.3203-5.9414 7.9805-6.2109 12.949-0.27734 4.9688 1.4258 9.8477 4.7422 13.559 3.3125 3.7148 7.9648 5.9609 12.934 6.25 0.35938 0.019531 0.70313 0.03125 1.0703 0.03125h-0.003906c4.793-0.011719 9.4023-1.8555 12.879-5.1523 3.4766-3.3008 5.5586-7.8047 5.8203-12.59 0.27344-4.9727-1.4336-9.8477-4.7461-13.562-3.3125-3.7109-7.9648-5.9609-12.934-6.25z"/>
 <path d="m625.31 1125c4.793-0.011719 9.3984-1.8555 12.875-5.1523 3.4766-3.3008 5.5586-7.8047 5.8203-12.59 0.27734-4.9727-1.4297-9.8477-4.7422-13.562-3.3125-3.7148-7.9648-5.9609-12.934-6.25-4.9688-0.27344-9.8438 1.4414-13.551 4.7617-3.707 3.3242-5.9414 7.9844-6.2148 12.953-0.27344 4.9688 1.4297 9.8477 4.7461 13.559 3.3125 3.7148 7.9648 5.9609 12.934 6.25 0.36328 0.023437 0.71875 0.03125 1.0664 0.03125z"/>
 <path d="m587.51 1133.6c-3.7109 3.3203-5.9492 7.9805-6.2305 12.949-0.27734 4.9727 1.4258 9.8516 4.7383 13.57 3.3164 3.7148 7.9688 5.9648 12.938 6.2578 0.35547 0.019531 0.70312 0.03125 1.0664 0.03125 4.793-0.011719 9.3984-1.8555 12.875-5.1562 3.4766-3.3008 5.5586-7.8047 5.8203-12.59 0.27734-4.9688-1.4258-9.8477-4.7422-13.562-3.3125-3.7109-7.9648-5.9609-12.934-6.25-4.9648-0.29688-9.8398 1.4141-13.531 4.75z"/>
 <path d="m1105.1 644.01c4.9688 0.27734 9.8477-1.4258 13.559-4.7422 3.7148-3.3125 5.9609-7.9648 6.25-12.934 0.019531-0.35938 0.03125-0.70313 0.03125-1.0703v0.003906c-0.011719-4.793-1.8555-9.4023-5.1523-12.879-3.3008-3.4766-7.8047-5.5586-12.59-5.8203-4.9727-0.27344-9.8477 1.4336-13.562 4.7461-3.7109 3.3125-5.9609 7.9648-6.25 12.934-0.27344 4.9727 1.4414 9.8438 4.7656 13.551 3.3203 3.707 7.9805 5.9414 12.949 6.2109z"/>
 <path d="m1105.1 593.44c4.9688 0.27734 9.8477-1.4297 13.559-4.7461 3.7148-3.3125 5.9609-7.9648 6.25-12.934 0.019531-0.35547 0.03125-0.70312 0.03125-1.0664-0.011719-4.793-1.8555-9.3984-5.1523-12.875-3.3008-3.4766-7.8047-5.5586-12.59-5.8203-4.9727-0.27734-9.8477 1.4297-13.562 4.7422-3.7148 3.3125-5.9609 7.9648-6.25 12.934-0.27344 4.9727 1.4414 9.8477 4.7617 13.555 3.3242 3.7031 7.9844 5.9414 12.953 6.2109z"/>
 <path d="m1146.6 618.72c4.9688 0.27734 9.8438-1.4297 13.559-4.7422s5.9609-7.9648 6.25-12.934c0.019531-0.35938 0.03125-0.70312 0.03125-1.0703-0.011719-4.7891-1.8594-9.3984-5.1562-12.871-3.3008-3.4766-7.8047-5.5586-12.59-5.8203-4.9688-0.27734-9.8438 1.4258-13.559 4.7422-3.7148 3.3125-5.9609 7.9648-6.25 12.934-0.27344 4.9688 1.4414 9.8438 4.7617 13.551 3.3242 3.707 7.9844 5.9414 12.953 6.2109z"/>
 <path d="m92.762 593.44c4.9727 0.27344 9.8477-1.4297 13.562-4.7461 3.7109-3.3125 5.9609-7.9648 6.25-12.934 0.27344-4.9688-1.4414-9.8438-4.7656-13.551-3.3203-3.707-7.9805-5.9414-12.949-6.2109-4.9688-0.27734-9.8477 1.4297-13.559 4.7422-3.7148 3.3125-5.9609 7.9648-6.25 12.934-0.019531 0.35938-0.03125 0.70312-0.03125 1.0703 0.011719 4.793 1.8555 9.3984 5.1523 12.875 3.3008 3.4766 7.8047 5.5586 12.59 5.8203z"/>
 <path d="m92.762 644.01c4.9727 0.27734 9.8477-1.4258 13.562-4.7422 3.7148-3.3125 5.9609-7.9648 6.25-12.934 0.27344-4.9688-1.4414-9.8438-4.7617-13.551-3.3242-3.707-7.9844-5.9414-12.953-6.2148-4.9688-0.27344-9.8477 1.4336-13.559 4.7461-3.7148 3.3125-5.9609 7.9648-6.25 12.934-0.019531 0.35547-0.03125 0.70312-0.03125 1.0664 0.011719 4.793 1.8555 9.4023 5.1523 12.879 3.3008 3.4766 7.8047 5.5586 12.59 5.8164z"/>
 <path d="m51.34 618.72c4.9688 0.27734 9.8477-1.4258 13.562-4.7422 3.7109-3.3125 5.9609-7.9648 6.25-12.934 0.26953-4.9688-1.4414-9.8438-4.7656-13.551-3.3242-3.707-7.9805-5.9414-12.953-6.2109-4.9688-0.27734-9.8438 1.4297-13.559 4.7422-3.7109 3.3125-5.9609 7.9648-6.25 12.934-0.019531 0.35938-0.03125 0.70312-0.03125 1.0703 0.015625 4.7891 1.8594 9.3984 5.1602 12.871 3.2969 3.4766 7.8008 5.5586 12.586 5.8203z"/>
 <path d="m598.94 1070.1c258.95 0 469.63-210.94 469.63-470.21-0.003907-259.27-210.68-470.21-469.63-470.21s-469.63 210.94-469.63 470.21 210.68 470.21 469.63 470.21zm-279.65-134.98c-3.957 3.9727-10.168 4.5938-14.832 1.4844-4.6641-3.1055-6.4805-9.0781-4.3398-14.258 2.1445-5.1797 7.6484-8.125 13.145-7.0273 5.5 1.0938 9.4531 5.9219 9.4492 11.527-0.011719 3.1016-1.2422 6.0703-3.4219 8.2734zm262.27 108.77c-3.9531 3.9688-10.16 4.5938-14.828 1.4883-4.6641-3.1016-6.4844-9.0703-4.3477-14.25 2.1367-5.1797 7.6367-8.1289 13.133-7.043 5.4961 1.0859 9.4609 5.9062 9.4648 11.508-0.003906 3.1094-1.2344 6.0898-3.4219 8.2969zm52.734 0c-3.9492 3.9258-10.121 4.5195-14.746 1.418-4.625-3.1016-6.418-9.0391-4.2812-14.184s7.6055-8.0664 13.066-6.9766c5.4648 1.0859 9.4023 5.875 9.4062 11.445-0.003906 3.1133-1.2422 6.0977-3.4453 8.2969zm262.27-108.77c-3.9492 3.9297-10.125 4.5195-14.754 1.4141-4.625-3.1055-6.4141-9.0469-4.2695-14.191 2.1406-5.1445 7.6172-8.0586 13.082-6.9648 5.4609 1.0977 9.3906 5.8984 9.3867 11.469-0.015625 3.1016-1.2539 6.0742-3.4453 8.2734zm37.312-37.336c-3.9531 3.9688-10.16 4.5938-14.828 1.4883-4.6641-3.1016-6.4844-9.0703-4.3477-14.25 2.1367-5.1797 7.6367-8.1289 13.133-7.043 5.4961 1.0859 9.4609 5.9062 9.4648 11.508-0.003906 3.1094-1.2344 6.0898-3.4219 8.2969zm92.062-331.97c3.9492-3.9258 10.121-4.5195 14.746-1.418 4.625 3.1016 6.418 9.0391 4.2812 14.184s-7.6055 8.0664-13.066 6.9766c-5.4648-1.0859-9.4023-5.875-9.4062-11.445 0.007813-3.1133 1.2461-6.0938 3.4453-8.2969zm0 52.805c3.9492-3.9258 10.121-4.5195 14.746-1.418 4.625 3.1016 6.418 9.0391 4.2812 14.184-2.1367 5.1445-7.6055 8.0664-13.066 6.9766-5.4648-1.0859-9.4023-5.875-9.4062-11.445 0.007813-3.1133 1.2461-6.0938 3.4453-8.2969zm-108.63-315.38c3.9492-3.9297 10.125-4.5195 14.754-1.4141 4.625 3.1055 6.4141 9.0469 4.2695 14.191-2.1406 5.1445-7.6172 8.0586-13.082 6.9648-5.4609-1.0977-9.3906-5.8984-9.3867-11.469 0.011719-3.1055 1.25-6.0781 3.4453-8.2734zm-37.312-37.336c3.957-3.9727 10.168-4.5938 14.832-1.4844 4.6641 3.1055 6.4805 9.0781 4.3398 14.258-2.1445 5.1797-7.6484 8.125-13.145 7.0273-5.5-1.0938-9.4531-5.9219-9.4492-11.527 0.011719-3.1016 1.2422-6.0703 3.4219-8.2734zm-262.27-108.77c3.9531-3.9688 10.16-4.5938 14.828-1.4883 4.6641 3.1016 6.4844 9.0703 4.3477 14.25-2.1367 5.1797-7.6367 8.1289-13.133 7.043-5.4961-1.0859-9.4609-5.9062-9.4648-11.508 0.003906-3.1094 1.2344-6.0898 3.4219-8.2969zm-52.734 0c3.9492-3.9258 10.121-4.5195 14.746-1.418 4.625 3.1016 6.418 9.0391 4.2812 14.184-2.1367 5.1445-7.6055 8.0664-13.066 6.9766-5.4648-1.0859-9.4023-5.875-9.4062-11.445 0.007813-3.1133 1.2461-6.0938 3.4453-8.2969zm-262.27 108.77c3.9492-3.9297 10.125-4.5195 14.754-1.4141 4.625 3.1055 6.4141 9.0469 4.2695 14.191-2.1406 5.1445-7.6172 8.0586-13.082 6.9648-5.4609-1.0977-9.3906-5.8984-9.3867-11.469 0.015624-3.1016 1.2539-6.0742 3.4453-8.2734zm-37.312 37.336c2.1992-2.2031 5.1836-3.4414 8.2969-3.4414s6.0977 1.2383 8.2969 3.4414c3.3438 3.3555 4.3438 8.3906 2.5273 12.766-1.8164 4.3789-6.0859 7.2305-10.824 7.2305s-9.0078-2.8516-10.824-7.2305c-1.8164-4.375-0.81641-9.4102 2.5273-12.766zm-92.039 331.95c-2.7656 2.7734-6.7305 3.9805-10.574 3.2227-3.8398-0.75781-7.0469-3.3867-8.5469-7.0039-1.5039-3.6172-1.0977-7.7461 1.0781-11 2.1719-3.2578 5.832-5.2109 9.7461-5.2109 4.7344 0 9.0039 2.8516 10.82 7.2266s0.82031 9.4102-2.5234 12.766zm-0.023438-52.805c-3.9492 3.9297-10.125 4.5195-14.754 1.4141-4.625-3.1055-6.4141-9.0469-4.2695-14.191 2.1406-5.1445 7.6172-8.0586 13.082-6.9648 5.4609 1.0977 9.3906 5.8984 9.3867 11.469-0.011718 3.1055-1.25 6.0781-3.4453 8.2734zm426.66-384.72c106.71 0.003907 209.06 42.395 284.52 117.85 75.457 75.461 117.85 177.8 117.85 284.52 0 106.71-42.395 209.06-117.85 284.52s-177.8 117.85-284.52 117.85-209.05-42.395-284.52-117.85c-75.457-75.457-117.85-177.8-117.85-284.52s42.391-209.06 117.85-284.52c75.457-75.457 177.8-117.85 284.52-117.85zm-338.02 691.82c0.023437-6.4609 5.2578-11.695 11.719-11.719 3.1094 0.019531 6.0859 1.2578 8.2969 3.4453 2.7617 2.7695 3.9609 6.7383 3.1953 10.574-0.76953 3.8359-3.3984 7.0352-7.0156 8.5312-3.6172 1.4961-7.7383 1.0859-10.992-1.0898-3.25-2.1758-5.2031-5.8281-5.2031-9.7422z"/>
 <path d="m676.17 545.65 203.29-199.89v-0.003907c-10.117-11.188-20.891-21.766-32.262-31.68l-199.15 205.12c11.086 6.8008 20.656 15.801 28.125 26.449z"/>
 <path d="m598.94 505.38c6.0586 0.003906 12.102 0.58984 18.047 1.7539l4.5117-285.51c-7.4688-0.44141-14.984-0.70312-22.562-0.70312-7.5742 0-15.156 0.25391-22.648 0.70312l1.1289 286.26-0.003907-0.003906c7.0547-1.6602 14.277-2.5 21.527-2.5z"/>
 <path d="m669.88 599.86c0.019532-21.332-9.5508-41.539-26.07-55.031-16.52-13.496-38.23-18.844-59.125-14.566-4.8594 9.9883-11.645 28.969-6.4258 42.273 2.8945 7.3789 9.3945 12.52 19.871 15.703 37.266 11.348 53.852 32.043 59.875 50.902h-0.003906c7.7578-11.629 11.891-25.301 11.879-39.281z"/>
 <path d="m546.59 521.29-200.5-203.13c-11.188 10.078-21.77 20.809-31.691 32.137l204.55 199.51c7.1055-11.34 16.527-21.055 27.641-28.512z"/>
 <path d="m693.32 599.86c-0.007812 7.0391-0.80078 14.059-2.3633 20.922l285.8 0.86328c0.41016-7.2148 0.64062-14.473 0.64062-21.797 0-7.9375-0.27344-15.805-0.75781-23.621h-286.31c1.9883 7.7188 2.9922 15.66 2.9883 23.633z"/>
 <path d="m655.62 675.35c-0.33203 0.26953-0.67578 0.51562-1.0273 0.75-1.8477 1.3555-3.7461 2.6406-5.6914 3.8594l199.27 204.81c11.355-9.9688 22.109-20.605 32.203-31.852l-202.63-201.16c-5.9766 9.0703-13.461 17.051-22.129 23.598z"/>
 <path d="m570.66 664.99 0.23438 0.097657c0.13672 0.054687 0.26172 0.12891 0.39453 0.19141 21.598 9.1641 46.336 7.0156 66.035-5.7266 0.70312-10.062-2.1914-35.539-46.023-48.887-21.887-6.6641-31.059-19.809-34.898-29.664-4.1289-10.594-4.5391-22.992-1.3398-36.906-19.625 15.461-29.684 40.094-26.484 64.871 3.1953 24.777 19.176 46.051 42.082 56.023z"/>
 <path d="m598.94 694.33c-7.043-0.003906-14.062-0.80078-20.93-2.3711l-1.6836 286.13c7.4844 0.44141 15.02 0.70312 22.613 0.70312s15.082-0.25 22.543-0.70312l-3.543-285.68c-6.2539 1.2812-12.617 1.9258-19 1.9258z"/>
 <path d="m345.2 880.76 201.82-202.06v-0.003907c-11.324-7.5-20.91-17.336-28.113-28.852l-205.35 198.62h-0.003906c9.9062 11.379 20.473 22.164 31.648 32.297z"/>
 <path d="m504.56 599.86c-0.003906-6.4219 0.64844-12.824 1.9414-19.113l-285.28-4.3438c-0.46875 7.7617-0.74609 15.578-0.74609 23.453 0 7.2891 0.23438 14.531 0.63672 21.715l285.37-2.6992c-1.2812-6.2578-1.9258-12.625-1.9219-19.012z"/>
</svg>
