<?xml version="1.0" encoding="UTF-8"?>
<svg width="1200pt" height="1200pt" version="1.1" viewBox="0 0 1200 1200" xmlns="http://www.w3.org/2000/svg">
 <path d="m249.66 413.11c41.672 0 75.797 33.844 75.797 75.797s-34.125 75.797-75.797 75.797c-41.953 0-75.797-33.844-75.797-75.797-0.046875-41.953 33.844-75.797 75.797-75.797zm700.97 0c41.953 0 75.797 33.844 75.797 75.797s-33.844 75.797-75.797 75.797-75.797-33.844-75.797-75.797 33.844-75.797 75.797-75.797zm-108.89 297.19c0-9.6562 7.8281-17.438 17.438-17.438 9.8906 0 17.719 7.8281 17.719 17.438h147.42c0-9.6562 7.8281-17.438 17.438-17.438 9.8906 0 17.719 7.8281 17.719 17.438h42.188c-6.5156-65.906-62.766-117.98-130.26-117.98h-41.672c-67.734 0-123.74 52.078-130.26 117.98zm77.906-408.94h144.05c41.906 0 76.312-34.406 76.312-76.359v-88.547c0-41.953-34.406-76.312-76.312-76.312h-927.1c-42.188 0-76.594 34.359-76.594 76.312v88.547c0 41.953 34.406 76.312 76.594 76.312l144.05 0.046876v73.453l117.47-73.453h138.56l63.328 60.141 63.562-60.188h138.56l117.47 73.453zm-859.64 442.03h1080v35.438h-25.266v361.03h-1029.2v-361.03h-25.547zm540-330.28c41.953 0 75.797 33.844 75.797 75.797s-33.844 75.797-75.797 75.797c-41.672 0-75.797-33.844-75.797-75.797s34.125-75.797 75.797-75.797zm73.734 297.19c0-9.6562 8.0625-17.438 17.719-17.438s17.438 7.8281 17.719 17.438h41.953c-6.5156-65.906-62.531-117.98-130.26-117.98h-134.44l-91.453-101.34-15.094 13.547c-21.375 19.266-23.203 52.641-3.8906 73.969l67.734 75c6.75 7.5469 15.375 11.484 25.781 11.484h39.328v45.328zm-533.26 0c0-9.6562 8.0625-17.438 17.719-17.438s17.719 7.8281 17.719 17.438h147.42c0-9.6562 7.8281-17.438 17.438-17.438 9.8906 0 17.719 7.8281 17.719 17.438h41.953c-6.2344-65.906-62.531-117.98-130.26-117.98h-41.438c-67.734 0-123.74 52.078-130.26 117.98z" fill-rule="evenodd"/>
</svg>
