<?xml version="1.0" encoding="UTF-8"?>
<svg width="1200pt" height="1200pt" version="1.1" viewBox="0 0 1200 1200" xmlns="http://www.w3.org/2000/svg">
 <path d="m310.45 564.94v-342c0-19.875 16.125-36 36-36h507.61c19.875 0 36 16.125 36 36v342c0 19.922-16.125 36-36 36h-507.84c-19.922 0-36-16.078-36-36zm-172.78 104.86-0.046875 0.046875c19.406 0 36.938 11.672 44.344 29.625 7.4531 17.953 3.3281 38.578-10.406 52.312-13.688 13.734-34.359 17.812-52.312 10.406-17.906-7.4531-29.625-24.938-29.625-44.344 0-26.531 21.516-48 48-48zm924.71 0v0.046875c19.406 0 36.891 11.672 44.344 29.625 7.4062 17.953 3.3281 38.578-10.406 52.312-13.734 13.734-34.406 17.812-52.312 10.406-17.953-7.4531-29.625-24.938-29.625-44.344 0-26.531 21.469-48 48-48zm-462.37 0.046875c19.406 0 36.938 11.672 44.344 29.625 7.4531 17.953 3.3281 38.578-10.406 52.312s-34.359 17.812-52.312 10.406c-17.953-7.4531-29.625-24.938-29.625-44.344 0-26.531 21.469-48 48-48zm-506.16 420.94h87.703c7.4062 0 14.531 2.9531 19.734 8.2031 5.25 5.25 8.1562 12.375 8.1094 19.781v6c0.09375 3.9844-1.4062 7.875-4.2188 10.734-2.8125 2.9062-6.6562 4.5-10.641 4.5h-113.77c-8.25-0.046875-14.906-6.75-14.906-15v-6c-0.046876-7.4531 2.8594-14.625 8.1094-19.922s12.422-8.2969 19.875-8.2969zm924.61 0h87.703c15.469 0 27.984 12.516 27.984 27.984v6c0.046875 3.9844-1.5 7.875-4.2656 10.734-2.8125 2.8594-6.6562 4.4531-10.641 4.5h-113.77c-3.9375 0-7.7812-1.5938-10.547-4.4062-2.8125-2.8125-4.3594-6.6094-4.3125-10.594v-6c-0.046875-7.4062 2.8594-14.531 8.1094-19.781 5.2031-5.25 12.328-8.1562 19.734-8.1562zm-462.37 0h87.844c7.4531-0.046875 14.625 2.8594 19.875 8.1094 5.2969 5.2969 8.25 12.422 8.2031 19.875v6c0.09375 4.0312-1.4531 7.9688-4.3125 10.828-2.8594 2.9062-6.75 4.4531-10.828 4.4062h-113.72c-4.0781 0.046875-7.9688-1.5-10.828-4.4062-2.8594-2.8594-4.4062-6.7969-4.3125-10.828v-6c-0.046875-7.4062 2.9062-14.531 8.1094-19.781 5.25-5.25 12.328-8.2031 19.734-8.2031zm-187.22-168c-70.078 0-137.29-13.781-184.69-38.531l0.046874-51.562c42.938 31.547 118.31 45.844 184.69 45.844 66.328 0 141.71-14.531 184.55-45.844v51.844c-47.391 24.703-114.61 38.531-184.55 38.531zm462.24-44.531c66.375 0 141.71-14.297 184.69-45.844v51.844c-48 24.703-114.61 38.531-184.69 38.531-70.078 0-137.16-13.781-184.55-38.531v-51.562c42.844 31.547 118.22 45.844 184.55 45.844zm-367.87-713.39 109.08-94.219v0.046875c15.844-13.922 39.562-13.922 55.406 0l109.08 94.219-33.938-0.046875-89.625-77.391c-7.5938-6.5625-18.844-6.5625-26.438 0l-89.625 77.391zm-349.82 903.14v-283.55c15.703 5.7188 32.906 5.7188 48.609 0v283.55zm924.61 0v-283.55c15.75 5.7656 33 5.7656 48.703 0v283.55zm-462 0v-283.55c15.75 5.7656 33 5.7656 48.703 0v283.55zm-234.61-509.29c0 6.1875 5.0156 11.156 11.156 11.156h494.9c6.1406 0 11.156-4.9688 11.156-11.156v-329.48c0-2.9531-1.1719-5.8125-3.2812-7.875s-4.9219-3.2344-7.875-3.1875h-494.9c-2.9531-0.046875-5.7656 1.125-7.875 3.1875-2.1094 2.0625-3.2812 4.9219-3.2812 7.875zm22.219-318.71v243.71l146.76-122.86c17.531-14.719 43.125-14.719 60.703 0l52.922 45 53.625-45c17.578-14.719 43.172-14.719 60.75 0l98.391 84v-204.84zm472.78 233.76-112.78-96c-4.4062-3.6094-9.8906-5.6719-15.609-5.7656-5.8594 0.09375-11.531 2.1562-16.078 5.8594l-144 120c-4.7344 3.3281-11.203 2.4844-14.953-1.9688-3.7031-4.4062-3.4219-10.969 0.65625-15.047l72.75-60.844-49.688-42c-9.1406-8.1562-22.922-8.1562-32.062 0l-161.02 134.76v34.781h472.78z" fill-rule="evenodd"/>
</svg>
