<?xml version="1.0" encoding="UTF-8"?>
<svg width="1200pt" height="1200pt" version="1.1" viewBox="0 0 1200 1200" xmlns="http://www.w3.org/2000/svg">
 <path d="m327.98 620.95c-68.766 68.672-108.28 158.81-112.36 255.37-38.766 7.4531-68.156 41.625-68.156 82.547v7.7812c-20.391 7.8281-34.922 27.469-34.922 50.578v16.031c0 29.953 24.375 54.328 54.328 54.328h866.29c29.953 0 54.328-24.375 54.328-54.328v-16.031c0-23.109-14.578-42.75-34.922-50.578v-7.7812c0-40.922-29.391-75.047-68.156-82.547-4.0781-96.562-43.594-186.71-112.36-255.32-39.516-39.562-87.844-70.172-140.21-89.391v-60.984c24.234-6.2812 42.281-28.125 42.281-54.281v-7.1719c0-31.031-25.266-56.297-56.297-56.297h-5.3906l-74.203-213.24c-5.7188-16.5-20.719-27.141-38.156-27.141s-32.438 10.641-38.156 27.141l-74.203 213.24h-5.3906c-31.031 0-56.297 25.266-56.297 56.297v7.1719c0 26.156 18.047 48.047 42.281 54.281v60.984c-52.359 19.219-100.64 49.828-140.21 89.344zm705.14 378.42c9.8438 0 17.812 8.0156 17.812 17.812v16.031c0 9.8438-8.0156 17.812-17.812 17.812h-866.26c-9.8438 0-17.812-8.0156-17.812-17.812v-16.031c0-9.8438 8.0156-17.812 17.812-17.812h866.29zm-17.109-40.547v4.0312l-832.03 0.046875v-4.0312c0-26.25 21.375-47.625 47.625-47.625h736.82c26.25 0 47.625 21.375 47.625 47.625zm-419.72-807.24c0.23438-0.65625 0.9375-2.625 3.7031-2.625s3.4688 1.9688 3.7031 2.625l70.031 201.24h-147.47zm-133.87 264.71v-7.1719c0-10.922 8.8594-19.781 19.781-19.781h235.55c10.922 0 19.781 8.8594 19.781 19.781v7.1719c0 10.922-8.8594 19.781-19.781 19.781h-235.55c-10.922 0-19.781-8.8594-19.781-19.781zm232.87 56.297v47.719c-62.062-15.797-128.48-15.797-190.6 0v-47.766h190.6zm-203.21 89.156c69.234-22.594 146.58-22.594 215.76 0 51.844 16.922 99.656 46.359 138.32 85.031 61.5 61.406 97.172 141.74 101.58 227.95h-695.58c4.4062-86.203 40.078-166.55 101.58-227.95 38.672-38.672 86.531-68.062 138.32-85.031z"/>
</svg>
