<?xml version="1.0" encoding="UTF-8"?>
<svg width="1200pt" height="1200pt" version="1.1" viewBox="0 0 1200 1200" xmlns="http://www.w3.org/2000/svg">
 <path d="m673.97 215.53h-426.84v-26.016c0-7.3594 5.9531-13.312 13.312-13.312h391.5l27.609 18.797-5.4844 20.531zm202.18 200.68v480.89c13.688 0.28125 27.047 3.2344 39.328 8.5781v-492.14c-12.328 2.2969-25.828 3-39.328 2.7188zm-668.39-147.42h451.97l7.125-26.625h-472.4c-7.3594 0-13.312 5.9062-13.312 13.312v689.95l26.625-13.312zm615.14 141.84v486.42h26.625v-482.68c-9.2812-0.98438-18.281-2.2969-26.625-3.75zm-51.609 309.28h-287.68c-7.3125 0-13.312 5.9062-13.312 13.312 0 7.3125 5.9531 13.312 13.312 13.312h287.68c7.3125 0 13.312-5.9531 13.312-13.312s-5.9531-13.312-13.312-13.312zm0 131.21h-287.68c-7.3125 0-13.312 5.9062-13.312 13.266s5.9531 13.312 13.312 13.312h287.68c7.3125 0 13.312-5.9062 13.312-13.312 0-7.3125-5.9531-13.266-13.312-13.266zm0-65.578h-287.68c-7.3125 0-13.312 5.9062-13.312 13.312 0 7.3125 5.9531 13.312 13.312 13.312h287.68c7.3125 0 13.312-5.9531 13.312-13.312s-5.9531-13.312-13.312-13.312zm0-196.78h-159.52c-7.3594 0-13.312 5.9531-13.312 13.312s5.9062 13.312 13.312 13.312h159.52c7.3125 0 13.312-5.9062 13.312-13.312 0-7.3125-5.9531-13.312-13.312-13.312zm0 65.578h-287.68c-7.3125 0-13.312 5.9531-13.312 13.312 0 7.3125 5.9531 13.312 13.312 13.312h287.68c7.3125 0 13.312-5.9531 13.312-13.312 0-7.3125-5.9531-13.312-13.312-13.312zm0-196.69h-159.52c-7.3594 0-13.312 5.9062-13.312 13.266s5.9062 13.312 13.312 13.312h159.52c7.3125 0 13.312-5.9062 13.312-13.312 0-7.3125-5.9531-13.266-13.312-13.266zm12.844-55.688c-10.359-2.8125-20.953-6.0938-31.406-9.8438h-140.95c-7.3594 0-13.312 5.9062-13.312 13.312 0 7.3125 5.9062 13.312 13.312 13.312h159.52c7.3125 0 13.312-5.9531 13.312-13.312 0-1.1719-0.14062-2.3906-0.42188-3.4219zm-12.844 121.22h-159.52c-7.3594 0-13.312 5.9531-13.312 13.312s5.9062 13.312 13.312 13.312h159.52c7.3125 0 13.312-5.9062 13.312-13.312 0-7.3125-5.9531-13.312-13.312-13.312zm-112.27-196.69h-47.25c-7.3594 0-13.312 5.9062-13.312 13.312 0 7.3125 5.9062 13.312 13.312 13.312h68.906c-8.8125-7.6875-16.594-16.594-21.656-26.625zm-138.89 257.95c-30.328 30.328-70.641 47.016-113.53 47.016s-83.203-16.688-113.53-47.016-47.016-70.641-47.016-113.48 16.688-83.156 47.016-113.48 70.641-47.016 113.53-47.016 83.203 16.688 113.53 47.016 47.016 70.641 47.016 113.48-16.688 83.156-47.016 113.48zm-208.22-18.844 0.28125 0.28125c11.109-33.141 37.031-58.219 72.938-58.219h42.891c35.906 0 61.875 25.125 72.938 58.219l0.28125-0.28125c25.312-25.312 39.234-58.922 39.234-94.688s-13.922-69.375-39.234-94.688-58.922-39.234-94.688-39.234-69.422 13.922-94.688 39.234c-25.312 25.312-39.234 58.922-39.234 94.688s13.922 69.375 39.234 94.688zm147.94-139.74c0-29.297-23.906-53.25-53.25-53.25-29.297 0-53.297 23.906-53.297 53.25 0 96.984 106.55 96.984 106.55 0zm-29.625 241.78h-170.81v65.578h170.81zm-170.86 196.69h170.81v-65.531h-170.81zm443.39-653.39-22.359 83.344c-18.469 68.953 247.6 131.68 263.95 70.688l22.312-83.344-144.42 11.109zm337.03 38.438 16.078-1.2188-187.26-128.16-226.26 17.344 187.26 128.16 182.16-13.969-13.922 51.844c-1.4531 0.65625-2.625 1.7812-3.5156 3.3281l-20.812 38.672c-1.1719 2.1562-1.3125 4.4531-0.32812 6.75 0.98438 2.2031 2.7656 3.75 5.1094 4.4062l36.422 9.75c2.3906 0.65625 4.6875 0.14062 6.6094-1.3125 1.9688-1.4531 3.0938-3.5156 3.1406-5.9531l1.3125-43.922c0.046875-2.1562-0.70312-4.1719-2.1094-5.625l16.125-60.141zm-110.53 697.26c14.25 14.109 23.062 33.609 23.203 55.172v0.09375c-0.14062 21.516-9 41.062-23.203 55.172-14.25 14.109-33.797 22.922-55.219 22.922h-586.92v-0.046875c-1.9688 0-3.9844-0.42188-5.9062-1.4062l-48.281-24.141c-0.75-0.32812-1.5-0.70312-2.2031-1.125l-79.172-39.562c-2.4844-1.2188-4.6406-3.2812-5.9062-5.9062-3.2812-6.5625-0.65625-14.531 5.9062-17.766l79.172-39.609c0.70312-0.42188 1.4531-0.79688 2.2031-1.125l47.203-23.531c2.0625-1.3125 4.4062-2.0625 7.0312-2.0625h586.92c21.422 0 41.016 8.7656 55.219 22.969zm-704.86 36.516-37.406 18.703 37.406 18.656zm561.98 32.016h-486v38.203h486zm0-64.875h-486v38.25h486zm139.6 51.562c-0.09375-14.156-5.9531-27.047-15.422-36.422-8.3438-8.3438-19.547-13.828-32.016-14.906v102.66c12.422-1.0781 23.672-6.5625 32.016-14.906 9.4219-9.3281 15.281-22.219 15.422-36.375z"/>
</svg>
