<?xml version="1.0" encoding="UTF-8"?>
<svg width="1200pt" height="1200pt" version="1.1" viewBox="0 0 1200 1200" xmlns="http://www.w3.org/2000/svg">
 <path d="m1157.2 1080.1-77.113 77.113h-0.003906c-3.3867 3.3398-7.9453 5.2266-12.699 5.2617-4.8125-0.035156-9.4258-1.918-12.883-5.2617l-341.3-341.48 102.52-102.52 341.48 341.3c3.3945 3.3906 5.3047 7.9922 5.3047 12.789 0 4.8008-1.9102 9.4023-5.3047 12.793zm-484.63-661.55c0 67.371-26.762 131.98-74.402 179.62-47.637 47.641-112.25 74.402-179.62 74.402-67.371 0-131.98-26.762-179.62-74.398-47.637-47.637-74.402-112.25-74.402-179.62s26.762-131.98 74.398-179.62c47.637-47.637 112.25-74.402 179.62-74.406 67.348 0.074219 131.92 26.859 179.54 74.484 47.625 47.621 74.41 112.19 74.484 179.54zm-306.65-193.42c-1.6758-4.4883-5.0586-8.1289-9.4102-10.137-4.3477-2.0039-9.3125-2.207-13.812-0.57031-29.379 10.852-56.059 27.934-78.203 50.082-22.145 22.145-39.23 48.824-50.082 78.199-1.6602 4.5273-1.4688 9.5234 0.53516 13.91 2.0078 4.3828 5.6641 7.7969 10.172 9.4961 2.043 0.71484 4.1875 1.082 6.3516 1.0898 3.7305 0.007813 7.3711-1.1406 10.426-3.2852s5.3711-5.1797 6.6367-8.6914c9.0898-24.395 23.32-46.547 41.73-64.953 18.406-18.41 40.562-32.641 64.957-41.734 4.5469-1.6523 8.2383-5.0625 10.25-9.4609 2.0117-4.4023 2.1719-9.4258 0.44922-13.945zm366.52 520.2-25.766 25.582-53.16-53.168c-66.828 52.305-149.22 80.77-234.08 80.871-84.859 0.10547-167.32-28.16-234.28-80.297-66.957-52.141-114.56-125.16-135.25-207.46-20.695-82.301-13.285-169.16 21.051-246.76 34.332-77.605 93.621-141.51 168.44-181.55 74.82-40.043 160.88-53.93 244.5-39.453 83.617 14.477 160 56.488 217 119.36 57.004 62.867 91.359 142.98 97.602 227.61 0.72656 9.2539 1.0859 18.688 1.0859 28.488 0 9.7969-0.36328 19.23-1.0859 28.668v-0.003906c-5.75 75.312-33.934 147.17-80.914 206.31l53.344 53.164-25.594 25.762 0.36328 0.36328-12.883 12.883zm-23.586-326.78c0-57.418-17.027-113.55-48.926-161.29-31.898-47.742-77.238-84.949-130.29-106.93-53.047-21.973-111.42-27.723-167.73-16.52-56.312 11.203-108.04 38.852-148.64 79.453-40.602 40.602-68.25 92.328-79.453 148.64-11.199 56.316-5.4492 114.69 16.523 167.73 21.973 53.047 59.184 98.387 106.93 130.29 47.738 31.898 103.87 48.926 161.29 48.926 76.961-0.10156 150.75-30.723 205.16-85.145 54.422-54.422 85.043-128.2 85.145-205.17z"/>
</svg>
