<?xml version="1.0" encoding="UTF-8"?>
<svg width="1200pt" height="1200pt" version="1.1" viewBox="0 0 1200 1200" xmlns="http://www.w3.org/2000/svg">
 <path d="m1017 739.82v-279.48c42.781-6.4336 75.824-42.957 75.824-87.477 0-49.043-39.824-88.871-88.871-88.871-25.391 0-49.395 10.957-65.914 29.738l-254.6-147.13c3.4766-9.5664 5.2148-19.652 5.2148-30.086 0-48.871-39.652-88.695-88.695-88.695-48.871 0-88.699 39.824-88.699 88.695 0 10.609 1.9141 20.523 5.3906 30.086l-254.61 146.96c-16.695-18.609-40.52-29.566-66.086-29.566-48.871 0-88.699 39.828-88.699 88.871 0 44.523 33.043 81.043 75.652 87.477v279.48c-42.605 6.2617-75.648 42.957-75.648 87.305 0 49.043 39.828 88.871 88.699 88.871 25.566 0 49.391-10.781 66.086-29.566l254.61 147.13c-3.4766 9.3906-5.3906 19.477-5.3906 29.914 0 48.871 39.828 88.695 88.699 88.695 49.043 0 88.695-39.828 88.695-88.695 0-10.434-1.7383-20.523-5.2148-29.914l254.6-147.13c16.695 18.609 40.523 29.566 65.914 29.566 49.043 0 88.871-39.824 88.871-88.871-0.003906-44.348-33.047-81.043-75.828-87.305zm-404-515.48c23.305-3.3047 44.176-16 58.086-34.781l252.52 145.91c-9.9141 21.219-11.48 45.914-1.9141 70.086l-89.219 51.477c-49.914-80.172-132-125.39-219.48-129.39zm77.566 184c21.043-10.957 17.391-9.2188 10.957-18.262 0.52344-0.17578 2.4336-0.87109 4.3477-1.3906-3.6523-10.781-12.348-6.7812-20-7.1289 0.87109-2.6094 1.5664-4.1758 2.4336-6.0859-6.7812-4.3477-13.562-8.5234-20.348-12.871 35.305 10.086 67.656 28 95.477 52.871-31.477 3.1328-14.953 74.262-65.91 2.4336-1.2188-1.9141-0.52344-5.2188-0.69922-8.1758-1.2148-0.34766-2.7812-0.69531-6.2578-1.3906zm-36.176-31.652c1.5664 2.0859 11.48 2.4336 8.6953 9.2188-0.34766 1.2148-11.477-0.69531-12.695-1.043-0.34766 0.51953-0.86719 1.043-1.2148 1.5664 2.7812 2.0859 5.3906 4 8.8711 6.7812-16.523 2.2617-18.609-12.348-43.828-13.738 21.395-17.914 18.434-15.133 5.7383-25.566 11.133 1.043 22.262 2.7812 33.219 5.043 4.1719 3.8281 14.781 7.6523 19.477 9.9141-7.1289 14.086-11.824 5.3906-19.129-1.043-3.3086 3.9961-2.4375 6.6055 0.86719 8.8672zm-125.39-187.13c13.914 18.781 34.609 31.305 57.914 34.781v102.96c-92 4.3477-173.21 54.086-219.3 129.91l-89.391-51.652c9.3906-22.785 8.1719-48.695-1.7422-70.262zm-320 550.26v-279.48c22.609-3.4766 42.258-15.305 56-32.348l89.91 51.824c-38.781 78.262-37.91 171.48 4.8711 250.09l-88.348 51.129c-13.391-21.91-35.996-37.387-62.434-41.215zm377.91 235.83c-23.305 3.4766-44.176 16-57.914 34.781l-252.52-145.74c5.3906-11.652 8.1758-24.348 8.1758-37.566 0-7.6523-1.2148-14.785-2.957-21.914l91.652-53.039c47.824 71.305 127.65 116.35 213.57 120.52zm10.086-270.26c-2.0859-3.4766-1.5664-7.1328-1.5664-11.305 0.17578-12.871 6.2617-22.609 12.348-33.219 5.3906-9.5664-0.69531-16.871-11.477-15.828-21.391 2.0859-20.695-23.305-41.219-23.305-7.4766 0-10.434-14.086-22.957-10.086-2.7812 0.87109-6.4336 1.2188-8.8711 0-45.043-22.781-18.781-7.6523-63.305-62.434-1.5664-1.9141-4.5234-2.6094-8-4.5195 2.0859 14.262 13.391 22.086 18.781 33.914-1.3906-0.34766-2.0859-0.17578-2.2617-0.69531-9.2188-12.523-17.914-25.043-27.133-37.566-10.953-14.785-39.301-20.871-29.043-67.652 2.0859-12.348-4.3477-16.695-8.3477-22.434 56-74.434 130.61-86.781 131.3-88.52v-0.17578c8-2.6094 31.652-7.4766 58.258-8.1719-0.51953 1.3906-1.043 2.2617-1.3867 3.8242-4.5234 21.738-20.695 2.7812-25.566 18.609-2.4336 8.8711-51.133 26.781-23.652 41.043 33.043 18.086 49.914 12.348 47.477 26.434-0.17578 1.9141 2.0859 5.5664 4 6.0859 2.6094 0.87109 5.9141-0.34766 8.8711-1.043 0.34766 0 0.52344-3.8242-0.34766-5.3906-8-14.957 15.305-8.3477 8.5234-24.871-4.6953-11.824-10.086-27.48 2.4375-25.738 30.953 4 23.648 12.348 34.262 19.652 8.8711 7.4766 7.8242-6.4336 16.172-7.6523 2.0859 0 5.3906 3.1289 6.0898 5.3906 9.043 25.391 39.305 33.219 24.348 41.219-29.738 15.305-48.695-4-53.391 19.652 19.305-10.609 13.219-7.3047 22.609-8.5234 0 8.5234-0.34766 14.957 7.3047 14.609 13.91-1.2188 13.391-6.6094 26.781-22.957 12.348 13.738 8.6953 8 13.914 17.914-46.086 0-34.781 19.652-57.914 14.609 3.4805-2.4336 6.6094-4.3477 9.5625-6.4336 0-0.51953-0.17578-1.043-0.17578-1.5664-13.219 1.9141-35.824 22.262-39.305 27.305-0.69531 0.87109-0.69531 2.0859-1.3867 2.7812-3.1328 5.9141-11.656 9.2188-8.6953 18.262 0 4.6953-25.219 9.9141-18.262 28.695 1.5664 4 4.3477 9.5664-1.7422 14.957-15.129-22.086-12.695-24.348-49.562-16.523-16.523 3.3047-27.48 20.871-21.914 35.48 5.7344 14.957 25.215 16.695 32.172 5.5625 4.6953-6.7812 18.438-9.2188 14.09 0.34766-4.8672 10.262-11.129 15.828-0.69531 18.086 4.8711 0.34766 19.133-2.4336 14.957 10.785-4.6953 16.52 10.434 18.086 27.996 17.562 8.3477-0.69531 11.656-14.086 23.652-7.6523 1.3906 0.69531 4-0.17188 5.7383-1.3906 4-2.4336 7.3047-1.5664 11.305 0.34766 3.6523 1.7383 8 1.9141 11.824 3.3047 31.133 10.434 28.871 16.523 43.828 18.434 3.4766 0.52344 6.957 2.7812 9.9141 5.043 10.086 8 7.4766 10.957 1.2148 23.305 4.5234-0.87109 8.3477-1.3906 13.566-2.2617-2.4336 1.9141-3.8281 2.957-5.5625 4.3477 1.3906 1.043 2.6055 2.0859 4.3477 3.3047 2.7812-7.1289 6.9531-5.7383 12.695-3.3047 6.2617 2.957 13.219 3.6523 20 5.7383 13.738 4.1719 31.48 7.4766 25.566 20.348-9.043 17.391-20.52 20.348-19.301 36.176 1.043 16.348-10.262 24.176-26.262 31.652-11.828 5.3906-17.043 26.609-33.914 42.434-3.3047 1.5664-6.6094 2.957-9.9141 4.3477-1.7422 0.17578-3.4766 0.34766-5.5664 0 0.34766 0.87109 0 1.3906 0.17578 2.2617-21.219 8.8711-44.348 15.305-66.609 17.391 0-12.348 4 0.87109 10.434-58.781 2.4336-20 6.6094-32.348-6.2617-39.824-16.52-9.7383-25.215-26.086-34.953-41.391zm74.086 305.04c-13.91-18.781-34.781-31.305-58.086-34.781v-103.3c86.434-2.6094 166.09-49.219 213.22-120.17l92.176 53.219c-1.9141 6.957-3.1328 14.262-3.1328 21.738 0 13.219 2.9609 25.914 8.3477 37.391zm319.83-270.61c-26.434 3.8242-48.871 19.305-62.262 41.219l-88.691-51.129c22.086-40.176 33.215-84.172 33.215-129.91 0-42.609-10.09-83.305-28.176-120l90.086-52c13.566 17.043 33.215 28.867 55.824 32.348z"/>
</svg>
