<?xml version="1.0" encoding="UTF-8"?>
<svg width="1200pt" height="1200pt" version="1.1" viewBox="0 0 1200 1200" xmlns="http://www.w3.org/2000/svg">
 <path d="m1100 150h-75v75c-0.058594 19.875-7.9766 38.918-22.031 52.969-14.051 14.055-33.094 21.973-52.969 22.031h-50c-19.875-0.058594-38.918-7.9766-52.969-22.031-14.055-14.051-21.973-33.094-22.031-52.969v-75h-450v75c-0.058594 19.875-7.9766 38.918-22.031 52.969-14.051 14.055-33.094 21.973-52.969 22.031h-50c-19.875-0.058594-38.918-7.9766-52.969-22.031-14.055-14.051-21.973-33.094-22.031-52.969v-75h-75c-19.898-0.027344-38.992 7.8672-53.062 21.938s-21.965 33.164-21.938 53.062v175h1150v-175c0.027344-19.898-7.8672-38.992-21.938-53.062s-33.164-21.965-53.062-21.938z"/>
 <path d="m550 900h100v100h-100z"/>
 <path d="m550 600h100v100h-100z"/>
 <path d="m225 600h100v100h-100z"/>
 <path d="m225 900h100v100h-100z"/>
 <path d="m875 600h100v100h-100z"/>
 <path d="m1e3 1125 150-150h-150z"/>
 <path d="m25 1075c-0.027344 19.898 7.8672 38.992 21.938 53.062s33.164 21.965 53.062 21.938h850v-200c0.019531-6.625 2.6602-12.973 7.3438-17.656s11.031-7.3242 17.656-7.3438h200v-475h-1150zm800-500c0.019531-6.625 2.6602-12.973 7.3438-17.656s11.031-7.3242 17.656-7.3438h150c6.625 0.019531 12.973 2.6602 17.656 7.3438s7.3242 11.031 7.3438 17.656v150c-0.019531 6.625-2.6602 12.973-7.3438 17.656s-11.031 7.3242-17.656 7.3438h-150c-6.625-0.019531-12.973-2.6602-17.656-7.3438s-7.3242-11.031-7.3438-17.656zm-325 0c0.019531-6.625 2.6602-12.973 7.3438-17.656s11.031-7.3242 17.656-7.3438h150c6.625 0.019531 12.973 2.6602 17.656 7.3438s7.3242 11.031 7.3438 17.656v150c-0.019531 6.625-2.6602 12.973-7.3438 17.656s-11.031 7.3242-17.656 7.3438h-150c-6.625-0.019531-12.973-2.6602-17.656-7.3438s-7.3242-11.031-7.3438-17.656zm0 300c0.019531-6.625 2.6602-12.973 7.3438-17.656s11.031-7.3242 17.656-7.3438h150c6.625 0.019531 12.973 2.6602 17.656 7.3438s7.3242 11.031 7.3438 17.656v150c-0.019531 6.625-2.6602 12.973-7.3438 17.656s-11.031 7.3242-17.656 7.3438h-150c-6.625-0.019531-12.973-2.6602-17.656-7.3438s-7.3242-11.031-7.3438-17.656zm-325-300c0.019531-6.625 2.6602-12.973 7.3438-17.656s11.031-7.3242 17.656-7.3438h150c6.625 0.019531 12.973 2.6602 17.656 7.3438s7.3242 11.031 7.3438 17.656v150c-0.019531 6.625-2.6602 12.973-7.3438 17.656s-11.031 7.3242-17.656 7.3438h-150c-6.625-0.019531-12.973-2.6602-17.656-7.3438s-7.3242-11.031-7.3438-17.656zm0 300c0.019531-6.625 2.6602-12.973 7.3438-17.656s11.031-7.3242 17.656-7.3438h150c6.625 0.019531 12.973 2.6602 17.656 7.3438s7.3242 11.031 7.3438 17.656v150c-0.019531 6.625-2.6602 12.973-7.3438 17.656s-11.031 7.3242-17.656 7.3438h-150c-6.625-0.019531-12.973-2.6602-17.656-7.3438s-7.3242-11.031-7.3438-17.656z"/>
 <path d="m250 250h50c6.625-0.019531 12.973-2.6602 17.656-7.3438s7.3242-11.031 7.3438-17.656v-125c0-17.863-9.5312-34.371-25-43.301-15.469-8.9336-34.531-8.9336-50 0-15.469 8.9297-25 25.438-25 43.301v125c0.019531 6.625 2.6602 12.973 7.3438 17.656s11.031 7.3242 17.656 7.3438z"/>
 <path d="m900 250h50c6.625-0.019531 12.973-2.6602 17.656-7.3438s7.3242-11.031 7.3438-17.656v-125c0-17.863-9.5312-34.371-25-43.301-15.469-8.9336-34.531-8.9336-50 0-15.469 8.9297-25 25.438-25 43.301v125c0.019531 6.625 2.6602 12.973 7.3438 17.656s11.031 7.3242 17.656 7.3438z"/>
</svg>
