<?xml version="1.0" encoding="UTF-8"?>
<svg width="1200pt" height="1200pt" version="1.1" viewBox="0 0 1200 1200" xmlns="http://www.w3.org/2000/svg">
 <path d="m576.19 225h-402.38c-26.207 0.003906-51.336 10.414-69.867 28.945s-28.941 43.66-28.945 69.867v289.88c0.003906 26.207 10.414 51.336 28.945 69.867s43.66 28.941 69.867 28.945h126.19v131.25c0.019531 3.875 1.2383 7.6484 3.4844 10.805 2.25 3.1562 5.4219 5.5391 9.0781 6.8203 1.9805 0.73438 4.0742 1.1172 6.1875 1.125 5.7227 0.058594 11.141-2.582 14.625-7.125l114.38-142.88h128.44c26.207-0.003906 51.336-10.414 69.867-28.945s28.941-43.66 28.945-69.867v-289.88c-0.003906-26.207-10.414-51.336-28.945-69.867s-43.66-28.941-69.867-28.945zm-201.19 393.75c-4.9727 0-9.7422-1.9766-13.258-5.4922-3.5156-3.5156-5.4922-8.2852-5.4922-13.258s1.9766-9.7422 5.4922-13.258c3.5156-3.5156 8.2852-5.4922 13.258-5.4922s9.7422 1.9766 13.258 5.4922c3.5156 3.5156 5.4922 8.2852 5.4922 13.258-0.015625 4.9688-1.9961 9.7305-5.5078 13.242-3.5117 3.5117-8.2734 5.4922-13.242 5.5078zm36-119.62c-5.1289 2.1016-9.5117 5.6875-12.586 10.297-3.0703 4.6133-4.6953 10.035-4.6641 15.578 0 6.6992-3.5742 12.887-9.375 16.238-5.8008 3.3477-12.949 3.3477-18.75 0-5.8008-3.3516-9.375-9.5391-9.375-16.238 0-12.945 3.8281-25.602 11-36.375 7.1719-10.777 17.371-19.191 29.312-24.188 14.723-6.0781 26.18-18.105 31.531-33.105 5.3555-15 4.1016-31.566-3.4453-45.59-7.5469-14.027-20.68-24.195-36.148-27.992-16.812-4.1211-34.582-0.28516-48.199 10.398-13.617 10.688-21.562 27.043-21.551 44.352 0 6.6992-3.5742 12.887-9.375 16.238-5.8008 3.3477-12.949 3.3477-18.75 0-5.8008-3.3516-9.375-9.5391-9.375-16.238-0.011719-22.766 8.2539-44.758 23.254-61.879s35.715-28.207 58.285-31.188c22.566-2.9805 45.449 2.3438 64.383 14.984s32.625 31.73 38.523 53.719c5.8984 21.988 3.6016 45.367-6.4609 65.789-10.062 20.418-27.203 36.484-48.234 45.199z"/>
 <path d="m918.75 1050c-5.6953-0.003906-11.078-2.5898-14.641-7.0312l-114.36-142.97h-165.98c-26.184-0.027344-51.293-10.441-69.809-28.957-18.52-18.52-28.934-43.625-28.965-69.809v-32.484c0-6.6992 3.5742-12.887 9.375-16.238 5.8008-3.3477 12.949-3.3477 18.75 0 5.8008 3.3516 9.375 9.5391 9.375 16.238v32.484c0.019531 16.242 6.4805 31.816 17.965 43.301s27.059 17.945 43.301 17.965h174.98c5.6953-0.003906 11.082 2.582 14.641 7.0312l86.609 108.27v-96.551c0-4.9727 1.9766-9.7422 5.4922-13.258 3.5156-3.5156 8.2852-5.4922 13.258-5.4922h107.48c16.242-0.019531 31.816-6.4805 43.301-17.965s17.945-27.059 17.965-43.301v-289.97c-0.015625-15.578-5.957-30.566-16.617-41.926-10.664-11.355-25.25-18.23-40.797-19.23-1.1875-0.070313-2.5156-0.10938-3.8516-0.10938l-88.703 0.14453-206.28-0.14453c-6.6992 0-12.887-3.5742-16.238-9.375-3.3477-5.8008-3.3477-12.949 0-18.75 3.3516-5.8008 9.5391-9.375 16.238-9.375h0.007812l206.25 0.14453 88.699-0.14453c2.0625 0 4.082 0.074219 6.0781 0.1875 25.086 1.5781 48.633 12.645 65.852 30.953 17.223 18.312 26.828 42.492 26.863 67.625v289.97c-0.03125 26.184-10.445 51.289-28.961 69.805-18.516 18.516-43.621 28.93-69.805 28.961h-88.734v131.25c-0.003906 4.9727-1.9805 9.7383-5.4961 13.254s-8.2812 5.4922-13.254 5.4961z"/>
 <path d="m1031.2 562.5h-300c-6.6992 0-12.887-3.5742-16.238-9.375-3.3477-5.8008-3.3477-12.949 0-18.75 3.3516-5.8008 9.5391-9.375 16.238-9.375h300c6.6992 0 12.887 3.5742 16.238 9.375 3.3477 5.8008 3.3477 12.949 0 18.75-3.3516 5.8008-9.5391 9.375-16.238 9.375z"/>
 <path d="m1031.2 637.5h-300c-6.6992 0-12.887-3.5742-16.238-9.375-3.3477-5.8008-3.3477-12.949 0-18.75 3.3516-5.8008 9.5391-9.375 16.238-9.375h300c6.6992 0 12.887 3.5742 16.238 9.375 3.3477 5.8008 3.3477 12.949 0 18.75-3.3516 5.8008-9.5391 9.375-16.238 9.375z"/>
 <path d="m1031.2 712.5h-300c-6.6992 0-12.887-3.5742-16.238-9.375-3.3477-5.8008-3.3477-12.949 0-18.75 3.3516-5.8008 9.5391-9.375 16.238-9.375h300c6.6992 0 12.887 3.5742 16.238 9.375 3.3477 5.8008 3.3477 12.949 0 18.75-3.3516 5.8008-9.5391 9.375-16.238 9.375z"/>
 <path d="m825 787.5h-93.75c-6.6992 0-12.887-3.5742-16.238-9.375-3.3477-5.8008-3.3477-12.949 0-18.75 3.3516-5.8008 9.5391-9.375 16.238-9.375h93.75c6.6992 0 12.887 3.5742 16.238 9.375 3.3477 5.8008 3.3477 12.949 0 18.75-3.3516 5.8008-9.5391 9.375-16.238 9.375z"/>
 <path d="m932.06 192.94-46.875-46.875c-3.5391-3.5117-8.3242-5.4844-13.312-5.4844s-9.7734 1.9727-13.312 5.4844l-46.875 46.875c-3.5117 3.5391-5.4844 8.3242-5.4844 13.312s1.9727 9.7734 5.4844 13.312l46.875 46.875c3.5547 3.4844 8.3359 5.4375 13.312 5.4375s9.7578-1.9531 13.312-5.4375l46.875-46.875c3.5117-3.5391 5.4844-8.3242 5.4844-13.312s-1.9727-9.7734-5.4844-13.312zm-60.188 33.75-20.438-20.438 20.438-20.438 20.438 20.438z"/>
 <path d="m1012.5 318.75c0 10.355-8.3945 18.75-18.75 18.75s-18.75-8.3945-18.75-18.75 8.3945-18.75 18.75-18.75 18.75 8.3945 18.75 18.75z"/>
 <path d="m750 93.75c0 10.355-8.3945 18.75-18.75 18.75s-18.75-8.3945-18.75-18.75 8.3945-18.75 18.75-18.75 18.75 8.3945 18.75 18.75z"/>
 <path d="m262.5 993.75c-14.918 0-29.227 5.9258-39.773 16.477-10.551 10.547-16.477 24.855-16.477 39.773s5.9258 29.227 16.477 39.773c10.547 10.551 24.855 16.477 39.773 16.477s29.227-5.9258 39.773-16.477c10.551-10.547 16.477-24.855 16.477-39.773-0.042969-14.906-5.9844-29.188-16.523-39.727-10.539-10.539-24.82-16.48-39.727-16.523zm0 75c-4.9727 0-9.7422-1.9766-13.258-5.4922-3.5156-3.5156-5.4922-8.2852-5.4922-13.258s1.9766-9.7422 5.4922-13.258c3.5156-3.5156 8.2852-5.4922 13.258-5.4922s9.7422 1.9766 13.258 5.4922c3.5156 3.5156 5.4922 8.2852 5.4922 13.258-0.015625 4.9688-1.9961 9.7305-5.5078 13.242-3.5117 3.5117-8.2734 5.4922-13.242 5.5078z"/>
 <path d="m525 956.25c0 10.355-8.3945 18.75-18.75 18.75s-18.75-8.3945-18.75-18.75 8.3945-18.75 18.75-18.75 18.75 8.3945 18.75 18.75z"/>
 <path d="m150 881.25c0 10.355-8.3945 18.75-18.75 18.75s-18.75-8.3945-18.75-18.75 8.3945-18.75 18.75-18.75 18.75 8.3945 18.75 18.75z"/>
</svg>
