<?xml version="1.0" encoding="UTF-8"?>
<svg width="1200pt" height="1200pt" version="1.1" viewBox="0 0 1200 1200" xmlns="http://www.w3.org/2000/svg">
 <path d="m1162.5 262.25v725.88c-109.86-49.926-229.14-75.766-349.81-75.773-14.031 0-28.266 0.19922-42.297 1l-60.141 3c3-1.2031 5.8125-2.4023 8.8125-3.4102 6.8164-2.4062 13.832-4.8086 20.648-7.0156 8.8125-2.8125 17.641-5.6133 26.66-8.0195 7.0195-2.0039 14.031-4.0078 21.25-5.6133 8.8125-2.2031 17.641-4.2109 26.664-6.0156 7.2188-1.6016 14.434-3.0039 21.652-4.2109 9.0195-1.6055 18.043-3 27.262-4.2109 7.0156-0.80078 14.234-1.8047 21.449-2.6055 9.2188-1.0039 18.645-1.6016 28.062-2.2031l21.051-1.2031c9.8203-0.19922 19.645-0.19922 29.668 0 6.4141 0 13.031 0 19.445 0.19922 11.027 0.40234 22.051 1.4062 33.078 2.4062 5.4141 0.40234 10.824 0.60156 16.238 1.2031 16.438 1.8047 32.875 4.2109 49.312 7.0156l-0.003906 0.007812c5.6484 1.1875 11.523-0.375 15.836-4.2109 4.4492-3.6406 7.0234-9.0859 7.0156-14.836v-601.38zm-242.36 19.445v-0.003906c2.043 0.042969 4.0664 0.37891 6.0156 1.0039l32.676 10.824-0.003906-81.387h-3.6094c-23.453 0-46.5 1.2031-69.762 3.4102l0.003907-0.003907c-1.3945 0.23438-2.8008 0.36719-4.2109 0.40234v77.578l32.676-10.824c2.0078-0.64062 4.1055-0.98047 6.2148-1.0039zm-255.59 610.8-45.102 19.25v-617.23l60.539-26.062c6.0156-2.6055 12.031-5.0117 18.441-7.6172 46.453-18.406 94.789-31.648 144.13-39.492v99.031c-0.0625 6.2461 2.9062 12.133 7.9648 15.797 5.0586 3.6641 11.582 4.6523 17.496 2.6445l52.125-17.242 51.922 17.242c1.9883 0.72266 4.0977 1.0625 6.2148 1.0039 4.0898 0.003906 8.0781-1.2539 11.426-3.6094 5.0742-3.6719 8.0625-9.5703 8.0195-15.836v-106.85c22.762 1.0898 45.449 3.4297 67.953 7.0156v620.23c-135.92-20.371-274.82-2.4648-401.13 51.715zm23.656-412.55c1.25 3.9062 3.7109 7.3164 7.0273 9.7305 3.3164 2.4141 7.3125 3.7109 11.414 3.6992 2.043-0.039062 4.0703-0.375 6.0156-1 85.539-28.145 175.17-41.832 265.21-40.5h0.40234c6.8867-0.023438 13.246-3.6836 16.723-9.625 3.4766-5.9453 3.5547-13.281 0.19922-19.297-3.3516-6.0117-9.6367-9.8047-16.52-9.9688-94.391-1.2539-188.34 13.105-278.04 42.5-4.8672 1.6289-8.9023 5.1094-11.227 9.6875s-2.7578 9.8867-1.2031 14.781zm0 116.27c1.25 3.9062 3.7109 7.3164 7.0273 9.7305 3.3164 2.4141 7.3125 3.7109 11.414 3.6992 2.0352 0.03125 4.0625-0.23828 6.0156-0.80078 85.539-28.145 175.17-41.832 265.21-40.5h0.40234c6.8867-0.023438 13.246-3.6836 16.723-9.6289 3.4766-5.9414 3.5547-13.281 0.19922-19.293-3.3516-6.0117-9.6367-9.8047-16.52-9.9688-94.398-1.3555-188.36 13.004-278.04 42.5-4.8438 1.6016-8.8633 5.043-11.188 9.5859-2.3242 4.5391-2.7734 9.8125-1.2422 14.68zm24.457 128.9v-0.003906c85.586-27.949 175.18-41.633 265.21-40.5h0.40234c6.7773-0.125 12.988-3.793 16.383-9.6562 3.3906-5.8672 3.4648-13.082 0.19531-19.02-3.2695-5.9336-9.4062-9.7266-16.176-9.9961-94.379-1.3281-188.33 12.965-278.04 42.297-4.8516 1.6484-8.8672 5.1289-11.191 9.6992-2.3203 4.5703-2.7656 9.8633-1.2383 14.758 1.25 3.9062 3.7109 7.3164 7.0273 9.7305 3.3164 2.4141 7.3125 3.7109 11.414 3.6992 2.0508 0.058594 4.0938-0.28125 6.0156-1.0039zm-252.38 180.82c-8.8125-2.8125-17.641-5.6133-26.66-8.0195-7.0195-2.0039-14.031-3.8086-21.047-5.6133-9.0195-2.2031-18.043-4.2109-27.062-6.2148-7.0156-1.4023-14.23-2.8125-21.25-4.0078-9.2188-1.6055-18.441-3.0078-27.664-4.2109-7.0156-0.80078-14.031-1.8047-21.047-2.6055-9.6211-1.0039-19.043-1.6016-28.465-2.2031-7.0195-0.40234-13.832-0.80078-20.648-1.2031-10.023-0.19922-20.047-0.19922-30.07 0-6.4141 0-12.828 0-19.242 0.19922-11.027 0.40234-22.254 1.4062-33.277 2.4062-5.4141 0.40234-10.824 0.60156-16.035 1.2031-16.438 1.8047-32.875 4.2109-49.312 7.0156l-0.007812-0.003907c-5.6445 0.99609-11.441-0.54688-15.848-4.2148-4.4023-3.6719-6.9648-9.0977-7.0039-14.828v-601.38h-58.145v725.88c122.84-55.926 257.3-81.566 392.11-74.773l60.141 3c-3-1.2031-5.8125-2.4023-8.8125-3.4102-6.8242-2.3945-13.84-4.8008-20.656-7.0039zm59.934-637.47 60.34 26.062-0.003906 617.23-45.102-19.438c-14.234-6.0156-28.668-11.43-43.102-16.641-4.2109-1.4062-8.2188-2.8125-12.426-4.2109-11.227-3.8086-22.453-7.2188-33.879-10.426-3.8086-1.2031-7.6172-2.4062-11.426-3.4062-14.625-3.8086-29.469-7.418-44.301-10.426-2.6055-0.40234-5.2109-0.80078-7.8164-1.4023-12.43-2.4062-24.859-4.4102-37.488-6.0156-4.6094-0.80078-9.2227-1.2031-13.832-1.8047-11.828-1.4062-23.855-2.6055-35.684-3.4102-3.6094-0.19922-7.0156-0.60156-10.426-0.80078-13.633-0.80078-27.062-1.2031-40.688-1.2031-1.2031 0-2.4062 0.19922-3.6094 0.19922-12.23 0-24.457 0.60156-36.688 1.4023-5.4141 0.19922-11.023 0.19922-16.438 0.60156-17.84 1.4062-35.484 3.4102-53.32 6.0156v-620.23c123.88-19.699 250.78-5.7812 367.45 40.293 6.207 2.6055 12.223 5.0117 18.441 7.6172zm-20.852 419.77c-89.711-29.344-183.66-43.637-278.04-42.293-6.8672 0.13672-13.148 3.9023-16.504 9.8945-3.3516 5.9961-3.2773 13.32 0.20313 19.242 3.4766 5.9258 9.832 9.5586 16.703 9.5508h0.40234c90.027-1.1328 179.62 12.551 265.21 40.5 1.9219 0.72266 3.9648 1.0625 6.0156 1.0039 4.1016 0.011719 8.0977-1.2852 11.414-3.6992 3.3164-2.4141 5.7773-5.8242 7.0273-9.7305 1.5312-4.8945 1.0859-10.191-1.2344-14.766-2.3242-4.5703-6.3398-8.0508-11.195-9.7031zm0-116.27c-89.68-29.508-183.64-43.871-278.04-42.5-6.8828 0.16406-13.168 3.957-16.52 9.9688-3.3555 6.0156-3.2773 13.352 0.19922 19.297 3.4766 5.9414 9.8359 9.6016 16.723 9.625h0.40234c90.031-1.2305 179.65 12.453 265.21 40.5 1.9531 0.5625 3.9805 0.83203 6.0156 0.80078 6.1914 0.023438 12.02-2.9258 15.668-7.9297 3.6523-5 4.6797-11.453 2.7695-17.344-1.9141-5.8906-6.5352-10.508-12.426-12.414zm0-116.47c-89.723-29.312-183.66-43.672-278.04-42.5-6.8828 0.16406-13.168 3.957-16.52 9.9688-3.3555 6.0156-3.2773 13.352 0.19922 19.297 3.4766 5.9414 9.8359 9.6016 16.723 9.625h0.40234c90.031-1.2344 179.65 12.453 265.21 40.5 1.9453 0.625 3.9727 0.96094 6.0156 1 4.1016 0.011719 8.0977-1.2852 11.414-3.6992 3.3164-2.4141 5.7773-5.8242 7.0273-9.7305 1.5508-4.8945 1.1172-10.199-1.207-14.777-2.3242-4.5742-6.3555-8.0547-11.223-9.6836z"/>
</svg>
