<?xml version="1.0" encoding="UTF-8"?>
<svg width="1200pt" height="1200pt" version="1.1" viewBox="0 0 1200 1200" xmlns="http://www.w3.org/2000/svg">
 <path d="m202.65 600.07c0 219.1 178.25 397.35 397.35 397.35s397.35-178.25 397.35-397.35c0-219.1-178.25-397.34-397.35-397.34s-397.35 178.24-397.35 397.34zm762.22-0.042969c0 199.89-162.63 362.52-362.53 362.52s-362.52-162.63-362.52-362.52 162.63-362.53 362.52-362.53 362.53 162.63 362.53 362.53z"/>
 <path d="m907.73 745.26c0.19531 0.32422 0.34766 0.66406 0.50781 1v0.003906c21.844-45.645 33.184-95.605 33.188-146.21 0.003906-50.602-11.328-100.56-33.16-146.21-0.17969 0.39453-0.38281 0.77734-0.60156 1.1484l-87.641 143.22z"/>
 <path d="m294.32 458.34c-20.473 44.449-31.074 92.809-31.062 141.75 0.007813 48.941 10.621 97.297 31.109 141.74l85.602-139.89z"/>
 <path d="m305.06 762.99c27.484 50.055 67.145 92.371 115.32 123.03 48.172 30.664 103.3 48.68 160.29 52.387l-104.63-175.42z"/>
 <path d="m503.32 762.99 92.996 155.91 95.406-155.91z"/>
 <path d="m719.2 762.99-107.7 176.02c59.25-1.6484 117.04-18.785 167.61-49.699 50.57-30.914 92.164-74.531 120.64-126.52-0.68359 0.13281-1.3789 0.20313-2.0742 0.21094z"/>
 <path d="m696.68 437.16-92.992-155.91-95.41 155.91z"/>
 <path d="m480.8 437.16 107.65-175.92v0.003906c-58.395 2.4414-115.16 19.918-164.82 50.738-49.656 30.816-90.516 73.938-118.62 125.18z"/>
 <path d="m897.67 437.16c0.71875 0.007813 1.4297 0.082032 2.1328 0.22266-27.855-50.875-68.281-93.762-117.42-124.57-49.137-30.816-105.35-48.523-163.28-51.441l104.86 175.81z"/>
 <path d="m393.79 579.35 72.668-118.75h-143.5z"/>
 <path d="m1007.4 494.69c8.8789 3.3477 29.629 9.1406 49.785 0.023438 21.742-9.8438 37.684-34.219 47.387-72.473l0.003906 0.003907c2.5469-8.7031 6.0234-17.105 10.375-25.059-9.0508-3.1602-17.625-7.5586-25.473-13.07-33.414-21.328-61.836-28.188-84.477-20.359-21.184 7.3203-32.133 25.781-36.125 34.074v0.003906c16.832 30.551 29.773 63.09 38.523 96.855z"/>
 <path d="m323.24 739.55h138.82l-68.52-114.88z"/>
 <path d="m598.94 521.97c-21.219 0-41.566 8.4297-56.574 23.434-15.004 15.004-23.434 35.352-23.434 56.574 0 21.219 8.4297 41.57 23.434 56.574 15.004 15.004 35.355 23.434 56.574 23.434s41.57-8.4297 56.574-23.434c15.004-15.004 23.434-35.352 23.438-56.574-0.027344-21.211-8.4648-41.547-23.461-56.547-15-15-35.336-23.438-56.551-23.461z"/>
 <path d="m737.95 460.6 68.523 114.88 70.297-114.88z"/>
 <path d="m493.93 460.6-86.586 141.49 81.992 137.46h216.72l86.578-141.48-81.988-137.46zm105.01 244.82c-27.434 0-53.746-10.898-73.145-30.301-19.402-19.398-30.301-45.711-30.301-73.145 0-27.438 10.898-53.75 30.301-73.148 19.398-19.398 45.711-30.301 73.148-30.297 27.434 0 53.746 10.898 73.145 30.297 19.402 19.402 30.301 45.715 30.301 73.148-0.03125 27.426-10.941 53.723-30.336 73.113-19.391 19.395-45.688 30.301-73.113 30.332z"/>
 <path d="m877.04 739.55-70.828-118.75-72.668 118.75z"/>
 <path d="m963.52 207.48c-39.008-6.2969-67.812-1.3359-85.602 14.734-16.465 14.875-19.496 36.18-19.996 45.625v-0.003906c28.004 21.789 53.164 47 74.895 75.051 9.3594-0.59766 30.285-3.8242 44.98-20.234 16.102-17.98 21.059-46.973 14.738-86.176h-0.003906c-1.1172-8.9961-1.2617-18.09-0.42578-27.117-9.5703 0.69531-19.191 0.0625-28.586-1.8789z"/>
 <path d="m182.38 651.7c-4.2344-34.336-4.2305-69.062 0.015626-103.4-7.0156-6.4219-24.227-19.602-46.406-18.594-23.781 1.1055-47.535 17.855-70.598 49.789-5.5703 7.1523-11.898 13.684-18.871 19.477 7.2539 6.2734 13.605 13.52 18.871 21.531 23.078 31.953 46.84 48.711 70.617 49.809 22.191 0.96875 39.402-12.234 46.371-18.613z"/>
 <path d="m600 1020.9c-17.285 0-34.551-1.0625-51.707-3.1758-6.4492 7.0312-19.594 24.219-18.57 46.336 1.0977 23.773 17.844 47.516 49.773 70.578 7.1523 5.5703 13.684 11.895 19.477 18.867 6.2734-7.25 13.52-13.602 21.531-18.867 32.109-23.188 48.93-47.082 49.988-71.016 0.98047-22.117-11.785-38.973-18.16-45.965-17.359 2.1641-34.84 3.2461-52.332 3.2422z"/>
 <path d="m268.16 858.52c-9.375 0.41016-30.957 3.2188-45.965 19.723-16.043 17.645-20.992 46.336-14.711 85.281 1.1172 8.9961 1.2617 18.09 0.42578 27.117 9.5664-0.69531 19.18-0.066407 28.57 1.875 39.016 6.2969 67.715 1.2891 85.312-14.863 16.523-15.18 19.203-36.582 19.543-45.918v-0.003907c-27.289-21.328-51.863-45.914-73.176-73.211z"/>
 <path d="m231 802.14c-16.68-30.316-29.531-62.586-38.258-96.07-8.9062-3.4414-29.844-9.4961-50.125-0.39453-21.66 9.7188-37.543 33.969-47.211 72.086l-0.003906-0.003907c-2.5469 8.7031-6.0234 17.102-10.375 25.055 9.0547 3.1641 17.625 7.5625 25.473 13.074 33.363 21.301 61.75 28.125 84.375 20.305 21.07-7.293 32.043-25.602 36.125-34.051z"/>
 <path d="m389.26 964.18c-8.5586 3.9844-27.215 14.711-34.832 35.508-8.2188 22.445-1.9961 50.953 18.492 84.73v-0.003906c4.4219 7.918 7.9727 16.289 10.594 24.965 8.6016-4.2383 17.754-7.2656 27.188-8.9922 38.512-8.832 63.199-24.242 73.383-45.801 9.5234-20.156 4.0234-40.871 0.80078-49.727h-0.003907c-33.441-9.5312-65.562-23.199-95.621-40.68z"/>
 <path d="m1053.7 719.61c-19.902-9.75-40.859-4.5352-49.809-1.457-9.7617 33.316-23.633 65.289-41.293 95.184 3.8555 8.6172 14.414 27.605 35.238 35.477 22.297 8.4219 50.773 2.4688 84.652-17.695v-0.003906c7.9531-4.3516 16.352-7.832 25.055-10.379-4.168-8.6367-7.1172-17.809-8.7734-27.254-8.4961-38.527-23.66-63.379-45.07-73.871z"/>
 <path d="m1134.6 579.5c-23.098-31.984-46.902-48.781-70.754-49.938-22.062-1.0273-39.215 11.902-46.297 18.301v0.003906c4.3047 34.535 4.3203 69.469 0.050781 104.01 7.0156 6.3906 24.207 19.492 46.336 18.488 23.809-1.1211 47.578-17.898 70.664-49.859v0.003906c5.5703-7.1523 11.898-13.684 18.871-19.477-7.2539-6.2734-13.602-13.52-18.871-21.531z"/>
 <path d="m932.21 858.05c-21.391 27.484-46.086 52.23-73.52 73.684 0.39844 9.4375 3.1953 31.059 19.688 46.074 17.605 16.039 46.258 20.992 85.145 14.715v0.003907c9-1.1211 18.09-1.2656 27.117-0.42969-0.69531-9.5625-0.0625-19.176 1.875-28.566 6.3125-39.141 1.3086-67.984-14.879-85.723-15.027-16.477-36.105-19.34-45.426-19.758z"/>
 <path d="m808.89 965.25c-30.242 17.371-62.539 30.891-96.137 40.246-3.2305 8.9453-8.75 29.836 0.70313 49.855 10.168 21.531 34.777 37.02 73.145 46.039 8.7461 2.3906 17.207 5.7227 25.234 9.9336 3-9.1094 7.25-17.758 12.621-25.699 20.746-33.781 27.098-62.344 18.883-84.879-7.6172-20.883-25.957-31.539-34.449-35.496z"/>
 <path d="m117.5 368.89c-7.9531 4.3516-16.352 7.832-25.055 10.379 4.168 8.6367 7.1172 17.809 8.7734 27.254 8.4922 38.488 23.648 63.32 45.051 73.805 19.922 9.7539 40.91 4.5312 49.902 1.4336h-0.003906c9.8438-33.504 23.836-65.645 41.656-95.676-3.8477-8.4648-14.441-27.262-35.266-35.055-22.434-8.3945-51.051-2.3828-85.059 17.859z"/>
 <path d="m529.55 136.39c-0.98828 22.176 11.809 39.102 18.219 46.133v0.003906c34.605-4.3086 69.609-4.3203 104.21-0.027344 6.4414-7.1016 19.453-24.297 18.387-46.406-1.1445-23.84-17.922-47.625-49.871-70.695v-0.003907c-7.1523-5.5703-13.684-11.895-19.477-18.867-6.2734 7.25-13.52 13.602-21.531 18.867-32.07 23.168-48.871 47.055-49.941 70.996z"/>
 <path d="m816.48 90.625c-8.6016 4.2383-17.754 7.2656-27.188 8.9922-38.438 8.8203-63.191 24.203-73.551 45.73-9.5859 19.922-4.332 40.781-1.1875 49.797h0.003906c33.488 9.4961 65.664 23.137 95.773 40.602 8.582-3.9414 27.461-14.691 35.156-35.598 8.2305-22.395 2.0352-50.844-18.418-84.559h0.003906c-4.4219-7.918-7.9727-16.289-10.594-24.965z"/>
 <path d="m222.37 322.27c15.039 16.504 36.125 19.398 45.43 19.832h0.003906c21.594-27.746 46.559-52.703 74.309-74.297-0.51172-9.4648-3.5664-30.738-20.02-45.594-17.797-16.07-46.602-21.035-85.613-14.738l0.003907 0.003906c-9 1.1172-18.09 1.2617-27.117 0.42578 0.69531 9.5625 0.0625 19.176-1.875 28.566-6.3203 39.172-1.3125 68.039 14.879 85.801z"/>
 <path d="m356.62 198.96c7.5 20.859 26.117 31.75 34.715 35.809 30.238-17.344 62.531-30.844 96.121-40.176 3.1953-8.9062 8.7031-29.828-0.80078-49.891-10.215-21.562-34.863-37.07-73.262-46.098-8.7461-2.3906-17.207-5.7227-25.234-9.9336-3.0039 9.1094-7.25 17.758-12.621 25.703-20.648 33.625-27.016 62.082-18.918 84.586z"/>
</svg>
