<?xml version="1.0" encoding="UTF-8"?>
<svg width="1200pt" height="1200pt" version="1.1" viewBox="0 0 1200 1200" xmlns="http://www.w3.org/2000/svg">
 <path d="m47.297 1170c-9.5156 0-17.25-7.7344-17.25-17.25v-257.44c0-50.484 41.25-91.688 91.734-91.688h260.68l58.641-55.641c35.484-33.656 88.5-11.953 106.17 26.766 9.2812 20.391 8.3906 44.109-10.453 63.984l-95.297 100.73c-3.375 3.5625-7.9219 5.3906-12.469 5.3906h-89.812v207.89c0 9.5625-7.7344 17.25-17.297 17.25zm346.22 0h413.02c9.5156 0 17.25-7.7344 17.25-17.25v-58.922c0-9.5625-7.7344-17.25-17.25-17.25h-413.02c-9.5625 0-17.297 7.7344-17.297 17.25v58.922c0 9.5625 7.7344 17.25 17.297 17.25zm-60.281-448.13 18.703 11.297c8.1562 4.9219 18.75 2.2969 23.672-5.8594s2.2969-18.75-5.8594-23.672l-18.703-11.297c-8.1562-4.9219-18.75-2.2969-23.672 5.8594s-2.2969 18.75 5.8594 23.672zm19.031-95.531c-8.3438 4.5938-18.844 1.5469-23.391-6.7969-4.5938-8.3438-1.5469-18.844 6.7969-23.391l19.125-10.547c8.3438-4.5938 18.844-1.5469 23.391 6.7969 4.5938 8.3438 1.5469 18.844-6.7969 23.391zm3.375 50.25c-9.5156-0.14062-17.062-7.9688-16.922-17.484s7.9688-17.109 17.484-16.922l21.844 0.42188c9.5156 0.14062 17.062 7.9688 16.922 17.484s-7.9688 17.062-17.484 16.922zm-24.844-115.64 96-30.516c51 19.969 102.56 21.234 149.72 8.5781 78.516-21.047 144.05-80.344 175.45-155.21 21.234-50.578 26.719-106.73 11.391-165.32-18.562-69.281-65.812-123.19-124.92-155.26-101.72-55.219-228.19-42.141-307.78 42.281-89.812 95.203-96.703 253.31-2.25 350.11l-19.547 85.078c-2.9062 12.797 9.1875 24.281 21.984 20.25zm353.26-290.58c9.5156 0 17.297 7.7344 17.297 17.297s-7.7344 17.25-17.297 17.25h-335.53c-9.5156 0-17.297-7.7344-17.297-17.25 0-9.5625 7.7344-17.297 17.297-17.297zm0 72c9.5156 0 17.297 7.7344 17.297 17.297s-7.7344 17.297-17.297 17.297h-169.92c-9.5625 0-17.297-7.7344-17.297-17.297s7.7344-17.297 17.297-17.297zm-184.87-143.95c9.5156 0 17.25 7.7344 17.25 17.297s-7.7344 17.297-17.25 17.297h-150.66c-9.5156 0-17.297-7.7344-17.297-17.297s7.7344-17.297 17.297-17.297zm184.87 0c9.5156 0 17.297 7.7344 17.297 17.297s-7.7344 17.297-17.297 17.297h-103.45c-9.5625 0-17.297-7.7344-17.297-17.297s7.7344-17.297 17.297-17.297zm-257.76 143.95c9.5156 0 17.25 7.7344 17.25 17.297s-7.7344 17.297-17.25 17.297h-77.766c-9.5156 0-17.297-7.7344-17.297-17.297s7.7344-17.297 17.297-17.297zm-241.6 194.9c-67.312 0-121.92 54.609-121.92 121.92 0 67.359 54.609 121.92 121.92 121.92 67.309 0 121.92-54.609 121.92-121.92 0-67.359-54.609-121.92-121.92-121.92zm830.81 0c67.312 0 121.92 54.609 121.92 121.92 0 67.359-54.609 121.92-121.92 121.92-67.309 0-121.92-54.609-121.92-121.92 0-67.359 54.609-121.92 121.92-121.92zm-286.64 504.74c-47.719 0.75-62.531-52.359-51.469-89.484 6.9844-23.438 24.516-42.516 51.328-42.516h132.19v-23.859c0-45.938 37.547-83.438 83.438-83.438h142.26c45.938 0 83.438 37.5 83.438 83.438v266.53c0 9.5625-7.7344 17.25-17.25 17.25h-274.64c-9.5625 0-17.297-7.7344-17.297-17.25v-76.125l124.08 0.046875c7.1719 0 13.359-4.4062 15.938-10.641l36.375-88.688c3.6094-8.8125-0.60938-18.844-9.375-22.453-8.8125-3.6094-18.844 0.60938-22.453 9.375l-32.016 78.047-244.6-0.1875zm21.656-335.29c-1.875-5.2031-6.6094-8.5312-12.188-8.5312h-61.641c-5.9062 0-10.219 5.8125-8.1094 11.578l60.422 165.71h83.062z" fill-rule="evenodd"/>
</svg>
