<?xml version="1.0" encoding="UTF-8"?>
<svg width="1200pt" height="1200pt" version="1.1" viewBox="0 0 1200 1200" xmlns="http://www.w3.org/2000/svg">
 <path d="m824.64 441.03c-94.152 0-170.76 76.605-170.76 170.77s76.605 170.77 170.76 170.77 170.76-76.605 170.76-170.77-76.605-170.77-170.76-170.77zm0 313.63c-78.766 0-142.86-64.094-142.86-142.87 0-78.777 64.094-142.87 142.86-142.87s142.86 64.09 142.86 142.87c0 78.781-64.09 142.87-142.86 142.87z"/>
 <path d="m824.64 298.75c-85.703 0-168.07 37.059-226.02 101.69-5.1406 5.7305-4.668 14.547 1.0703 19.695 5.7383 5.1289 14.547 4.6953 19.707-1.082 52.652-58.727 127.46-92.406 205.25-92.406 77.859 0 152.7 33.715 205.34 92.496 2.7422 3.0781 6.5547 4.6484 10.391 4.6484 3.3242 0 6.6484-1.1719 9.2969-3.5586 5.7383-5.1289 6.2305-13.949 1.0898-19.695-57.898-64.68-140.32-101.79-226.11-101.79z"/>
 <path d="m1096.4 371.3c3.3242 0 6.6641-1.1797 9.3359-3.5859 5.7227-5.1484 6.1953-13.973 1.0352-19.695-72.355-80.34-175.21-126.41-282.18-126.41-106.88 0-209.7 46.039-282.07 126.3-5.1562 5.7227-4.7031 14.547 1.0156 19.707 5.7031 5.1289 14.531 4.7109 19.688-1.0156 67.105-74.418 162.37-117.1 261.36-117.1 99.07 0 194.37 42.715 261.44 117.19 2.7656 3.0547 6.5625 4.6094 10.375 4.6094z"/>
 <path d="m516.51 322.77c79.059-87.738 191.37-138.05 308.13-138.05 116.8 0 229.14 50.363 308.24 138.16 2.7617 3.0586 6.5547 4.6133 10.371 4.6133 3.3242 0 6.6641-1.1797 9.3359-3.5859 5.7227-5.1484 6.1953-13.977 1.0352-19.695-84.379-93.668-204.28-147.39-328.98-147.39-124.64 0-244.51 53.676-328.87 147.28-5.1406 5.7227-4.6875 14.539 1.0352 19.695 5.7344 5.1758 14.543 4.7148 19.703-1.0273z"/>
 <path d="m1157.9 533.98h-113.26c-31.801-92.988-118.28-160.12-220.01-160.12-101.73 0-188.21 67.141-220.01 160.12h-252.93v-49.098c0-7.8125-6.3242-13.949-13.949-13.949h-194.16c-7.625 0-13.949 6.1367-13.949 13.949v49.098h-87.594c-7.625 0-13.949 6.3203-13.949 13.949v394.82c0 7.625 6.3242 13.949 13.949 13.949h87.594v35.895c0 27.895 22.688 50.586 50.77 50.586h62.488c27.895 0 50.586-22.688 50.586-50.586v-35.895h612.98v35.895c0 27.895 22.688 50.586 50.586 50.586h62.488c28.082 0 50.77-22.688 50.77-50.586v-35.895h87.594c7.625 0 13.949-6.3242 13.949-13.949v-394.82c0-7.6289-6.3242-13.949-13.949-13.949zm-791.7 91.684c16.18 0 29.199 13.02 29.199 29.199 0 15.992-13.02 29.012-29.199 29.012-15.992 0-29.012-13.02-29.012-29.012 0-16.18 13.02-29.199 29.012-29.199zm-208.66-126.84h166.26v35.152h-166.26zm29.012 126.84c16.18 0 29.199 13.02 29.199 29.199 0 15.992-13.02 29.012-29.199 29.012-15.996 0-29.012-13.02-29.012-29.012 0-16.18 13.016-29.199 29.012-29.199zm-33.848 129.07h370.09c7.8125 0 13.949 6.1367 13.949 13.949 0 7.625-6.1367 13.949-13.949 13.949h-370.09c-7.8125 0-13.949-6.3242-13.949-13.949 0-7.8086 6.1367-13.949 13.949-13.949zm112.89 237.86c0 12.461-10.23 22.688-22.688 22.688h-62.492c-12.645 0-22.875-10.227-22.875-22.688v-35.895h108.05zm316.9-124.23h-429.79c-7.8125 0-13.949-6.1367-13.949-13.949 0-7.625 6.1367-13.949 13.949-13.949h429.79c7.8125 0 13.949 6.3242 13.949 13.949-0.003906 7.8125-6.1406 13.949-13.949 13.949zm242.14-46.492c-113.07 0-205.13-94.289-205.13-210.15 0-115.68 92.059-209.97 205.13-209.97 113.07 0 205.13 94.289 205.13 209.97 0 115.86-92.059 210.15-205.13 210.15zm217.77 170.72c0 12.461-10.23 22.688-22.875 22.688h-62.488c-12.461 0-22.688-10.227-22.688-22.688v-35.895h108.05z"/>
</svg>
