<?xml version="1.0" encoding="UTF-8"?>
<svg width="1200pt" height="1200pt" version="1.1" viewBox="0 0 1200 1200" xmlns="http://www.w3.org/2000/svg">
 <path d="m1011.6 764.63v-453.74c0-29.25-24.375-53.062-54.375-53.062h-716.44c-28.875 0-52.312 23.062-52.312 51.562v455.26c0 28.5 23.438 51.562 52.312 51.562h718.5c28.875-0.1875 52.312-23.25 52.312-51.562zm-52.312 16.125h-341.06v-226.13h357.19v209.81c0 9-7.3125 16.312-16.125 16.312zm-162.56-313.5c30.562 0 55.688 22.875 58.875 51.938h-117.56c3.1875-29.062 28.125-51.938 58.688-51.938zm-38.062-72.562c0-20.438 17.062-37.125 38.062-37.125s38.062 16.688 38.062 37.125-17.062 37.125-38.062 37.125c-21 0.1875-38.062-16.5-38.062-37.125zm216.74-83.812v208.31h-83.625c-2.0625-30.375-18.75-56.812-43.5-72.375 14.062-13.125 22.875-31.688 22.875-52.125 0-40.125-33.375-72.562-74.438-72.562s-74.438 32.625-74.438 72.562c0 20.438 8.8125 39 22.875 52.125-24.75 15.562-41.438 42-43.5 72.375h-83.625v-225.94h339.19c10.125 0 18.188 7.875 18.188 17.625zm-734.63-17.625h341.06v226.13h-83.625c-2.0625-30.375-18.75-56.812-43.5-72.375 14.062-13.125 22.875-31.688 22.875-52.125 0-40.125-33.375-72.562-74.438-72.562s-74.438 32.625-74.438 72.562c0 20.438 8.8125 39 22.875 52.125-24.75 15.562-41.438 42-43.5 72.375h-83.625v-210c0.1875-9 7.5-16.125 16.312-16.125zm162.56 174c30.562 0 55.688 22.875 58.875 51.938h-117.56c3-29.062 27.938-51.938 58.688-51.938zm-38.25-72.562c0-20.438 17.062-37.125 38.062-37.125s38.062 16.688 38.062 37.125-17.062 37.125-38.062 37.125c-20.812 0.1875-38.062-16.5-38.062-37.125zm-140.44 369.94v-210h357.19v226.13h-83.625c-2.0625-30.375-18.75-56.812-43.5-72.375 14.062-13.125 22.875-31.688 22.875-52.125 0-40.125-33.375-72.562-74.438-72.562s-74.438 32.625-74.438 72.562c0 20.438 8.8125 39 22.875 52.125-24.75 15.562-41.438 42-43.5 72.375h-67.5c-8.625 0-15.938-7.3125-15.938-16.125zm178.69-35.812c30.562 0 55.688 22.875 58.875 51.938h-117.56c3-29.062 27.938-51.938 58.688-51.938zm-38.25-72.562c0-20.438 17.062-37.125 38.062-37.125s38.062 16.688 38.062 37.125-17.062 37.125-38.062 37.125c-20.812 0-38.062-16.688-38.062-37.125z"/>
 <path d="m740.44 656.26h112.5c9.9375 0 18.188-7.875 18.188-17.625s-8.0625-17.625-18.188-17.625h-112.5c-9.9375 0-18.188 7.875-18.188 17.625 0.1875 9.5625 8.25 17.625 18.188 17.625z"/>
 <path d="m905.81 691.5h-218.06c-9.9375 0-18.188 7.875-18.188 17.625s8.0625 17.625 18.188 17.625h218.06c9.9375 0 18.188-7.875 18.188-17.625 0-9.5625-8.25-17.625-18.188-17.625z"/>
 <path d="m1125.6 848.44h-45.562v-607.87c0-14.25-5.625-27.562-15.938-37.688s-24.562-15.375-38.625-15.562l-853.13 2.8125c-28.875 0-52.312 23.438-52.312 52.125v606.19h-45.562c-10.125 0-18.188 7.875-18.188 17.625v52.875c0 51.562 39.562 93.562 88.125 93.562h911.26c48.562 0 88.125-42 88.125-93.562v-52.875c0-9.75-8.0625-17.625-18.188-17.625zm-969.37-606.37c0-9.1875 7.3125-16.688 16.125-16.688l853.5-2.625c5.0625 0.375 9.375 1.875 12.938 5.25 3.375 3.375 5.25 7.875 5.25 12.562v607.87h-887.81zm377.81 641.81h156l-1.6875 28.875h-154.31zm573.56 35.062c0 32.062-23.25 58.125-51.938 58.125h-911.26c-28.688 0-51.938-26.062-51.938-58.125v-35.062h405.19v28.875c0 19.5 16.312 35.438 36.188 35.438h154.69c16.5 0 30.75-10.875 35.062-26.25 0.375-1.125 0.5625-2.4375 0.5625-3.5625l1.875-34.5h381.19v35.062z"/>
</svg>
