<?xml version="1.0" encoding="UTF-8"?>
<svg width="1200pt" height="1200pt" version="1.1" viewBox="0 0 1200 1200" xmlns="http://www.w3.org/2000/svg">
 <path d="m229.69 386.76c-7.7656 0-14.062 6.2969-14.062 14.062v6.3281c0 7.7656 6.2969 14.062 14.062 14.062s14.062-6.2969 14.062-14.062v-6.3281c0-7.7656-6.2969-14.062-14.062-14.062z"/>
 <path d="m229.69 438.46c-7.7656 0-14.062 6.2969-14.062 14.062v203.23c0 7.7656 6.2969 14.062 14.062 14.062s14.062-6.2969 14.062-14.062v-203.23c0-7.7656-6.2969-14.062-14.062-14.062z"/>
 <path d="m1149.7 111.56c-3.6602 0.71094-6.8906 2.8477-8.9766 5.9414-2.0859 3.0898-2.8555 6.8867-2.1445 10.547 2.1094 10.93 3.1367 22.043 3.0625 33.176-45.625 11.359-127.36 25.488-221.48 13.27-121.67-15.797-228.48-70.023-317.47-161.18-2.6484-2.7109-6.2734-4.2383-10.062-4.2383-3.7891 0-7.4141 1.5273-10.062 4.2383-193.38 198.07-423.73 173.8-524.28 150.26-0.23828-11.918 0.78516-23.824 3.0469-35.523 1.4844-7.625-3.4961-15.008-11.121-16.488-7.6211-1.4844-15.004 3.4961-16.488 11.117-5.582 28.609-4.7461 58.102 2.4531 86.348 7.1953 28.246 20.574 54.539 39.168 76.988 24.461 29.766 57.039 51.789 93.781 63.395v734.83h-4.2734c-13.77 0.015624-26.977 5.4922-36.715 15.234-9.7383 9.7383-15.215 22.941-15.23 36.715v33.66c0.003907 5.5859 2.2266 10.941 6.1758 14.891 3.9531 3.9531 9.3086 6.1758 14.895 6.1797h207.82c5.5859-0.003906 10.941-2.2266 14.895-6.1758 3.9492-3.9531 6.1719-9.3086 6.1758-14.895v-33.66c-0.015625-13.773-5.4922-26.977-15.234-36.715-9.7383-9.7383-22.941-15.219-36.715-15.234h-4.2812v-584.71h280.86v38.672c-15.277 3.2539-28.973 11.652-38.805 23.785-9.832 12.137-15.203 27.277-15.219 42.898v5.7852-0.003906c-21.637 12.051-39.66 29.66-52.215 51.008-12.551 21.344-19.18 45.656-19.191 70.422v96.055 0.54297c1.3008 34.125-4.9531 62.68-11.953 70.562h-9.8047c-7.7656 0-14.062 6.2969-14.062 14.062s6.2969 14.062 14.062 14.062h322.45c7.7695 0 14.062-6.2969 14.062-14.062s-6.293-14.062-14.062-14.062h-9.7812c-6.9922-7.8828-13.246-36.438-11.953-70.547v-0.54688-96.059c-0.058593-24.703-6.707-48.945-19.262-70.219-12.551-21.277-30.551-38.82-52.145-50.82v-6.1758c-0.011718-15.617-5.3828-30.758-15.215-42.895-9.832-12.133-23.531-20.531-38.805-23.785v-38.672h277.68v584.7h-4.2812c-13.773 0.015624-26.977 5.4961-36.715 15.234-9.7422 9.7383-15.219 22.941-15.234 36.715v33.66c0.003906 5.5859 2.2266 10.941 6.1758 14.895 3.9531 3.9492 9.3086 6.1719 14.895 6.1758h207.82c5.5859-0.003906 10.941-2.2266 14.895-6.1797 3.9492-3.9492 6.1719-9.3047 6.1758-14.891v-33.66c-0.015626-13.773-5.4922-26.977-15.23-36.715-9.7383-9.7422-22.945-15.219-36.715-15.234h-4.2812l-0.003906-734.83c36.742-11.605 69.32-33.629 93.781-63.395 18.594-22.449 31.973-48.742 39.168-76.988 7.1992-28.246 8.0352-57.738 2.4531-86.348-1.4844-7.6211-8.8633-12.602-16.488-11.117zm-659.5 667.43h222.73v37.5h-222.73zm-8.6484 120.27c6.4766-17.359 8.3672-38.785 8.75-54.648h222.53c0.38281 15.863 2.2773 37.293 8.75 54.648zm231.38-167.16v18.75h-222.73v-18.75c0.011719-29.371 11.672-57.539 32.426-78.324 20.754-20.781 48.902-32.484 78.273-32.535 61.777 0.003906 112.04 49.734 112.04 110.86zm-71.898-133.14c-13.023-3.875-26.543-5.8398-40.137-5.8398-13.117 0.003906-26.172 1.875-38.766 5.5547 1.957-12.691 9.9062-23.668 21.355-29.488 11.449-5.8164 25-5.7695 36.406 0.13281 11.41 5.9023 19.277 16.934 21.141 29.641zm-48.402-555.92c91.48 89.719 200.38 143.3 323.91 159.34 2.9102 0.37891 5.7969 0.71875 8.6719 1.0469-9.7344 36.441-31.227 68.648-61.137 91.621-29.91 22.977-66.57 35.438-104.29 35.445h-343.11c-37.57 0.11328-74.125-12.184-103.99-34.973-29.863-22.789-51.375-54.805-61.188-91.066 105.1-10.23 228.55-50.992 341.13-161.41zm-281.71 1069.3c6.3164 0.007812 12.371 2.5195 16.84 6.9844 4.4648 4.4688 6.9766 10.523 6.9844 16.84v26.605h-193.71v-26.605c0.007813-6.3164 2.5195-12.371 6.9844-16.84 4.4648-4.4648 10.52-6.9766 16.836-6.9844zm-113.67-28.125v-728.18c10.559 1.7031 21.234 2.5625 31.93 2.5625h49.336v725.62zm31.93-753.74c-39.531 0.003906-77.84-13.684-108.43-38.727-30.582-25.047-51.551-59.91-59.34-98.664 43.434 9.375 87.734 14.117 132.17 14.145 9.5977 0 19.422-0.24219 29.473-0.72266v0.003906c6.168 25.711 17.422 49.926 33.098 71.215 15.676 21.293 35.461 39.23 58.18 52.75zm77.453 140.91v-50.285h50.75c7.7656 0 14.062-6.2969 14.062-14.062s-6.2969-14.062-14.062-14.062h-50.742v-34.375h586.64v34.375h-442.15c-7.7656 0-14.062 6.2969-14.062 14.062s6.2969 14.062 14.062 14.062h442.15v50.285zm728.44 640.96c6.3164 0.007812 12.371 2.5195 16.84 6.9844 4.4648 4.4688 6.9766 10.523 6.9844 16.84v26.605h-193.72v-26.605c0.007812-6.3164 2.5195-12.371 6.9844-16.84 4.4688-4.4648 10.523-6.9766 16.84-6.9844zm-113.67-28.125v-725.62h49.344c10.695-0.003907 21.371-0.85938 31.926-2.5625v728.19zm181.46-816.12c-16.035 19.527-36.203 35.254-59.051 46.039-22.848 10.789-47.805 16.367-73.07 16.336h-108.89c22.812-13.594 42.676-31.613 58.422-52.996 15.746-21.383 27.059-45.703 33.266-71.52 13.828 0.91016 27.324 1.3398 40.395 1.3398v-0.003907c48.785-0.050781 97.414-5.5898 144.96-16.512-5.2266 28.422-17.629 55.035-36.031 77.316z"/>
</svg>
