<?xml version="1.0" encoding="UTF-8"?>
<svg width="1200pt" height="1200pt" version="1.1" viewBox="0 0 1200 1200" xmlns="http://www.w3.org/2000/svg">
 <path d="m1011.6 346.8c0-150-70.801-316.8-192-316.8-121.2 0-192 166.8-192 316.8 0 120 55.199 193.2 130.8 217.2l-38.398 498c-4.8008 58.801 42 108 100.8 108 58.801 0 104.4-50.398 100.8-108l-40.805-498c75.598-25.199 130.8-98.398 130.8-217.2z"/>
 <path d="m501.6 63.602h-3.6016c-19.199 0-33.602 15.602-33.602 34.801l8.3984 264c1.1992 19.199-14.398 34.801-33.602 34.801-18 0-33.602-14.398-33.602-32.398l-2.3945-268.8c0-18-15.602-32.398-33.602-32.398h-4.8008c-18 0-33.602 14.398-33.602 32.398l-3.6016 267.6c0 18-15.602 32.398-33.602 32.398-19.199 0-33.602-15.602-33.602-34.801l8.3984-264c1.1992-19.199-14.398-34.801-33.602-34.801h-3.6016c-18 0-32.398 14.398-33.602 32.398l-10.801 273.6c-3.6016 80.398 46.801 148.8 118.8 175.2l-40.801 517.2c-4.8008 58.801 42 108 100.8 108s104.4-50.398 100.8-108l-40.801-517.2c70.801-25.199 121.2-94.801 118.8-175.2l-9.5859-272.4c-1.1992-18-15.598-32.398-33.598-32.398z"/>
</svg>
