<?xml version="1.0" encoding="UTF-8"?>
<svg width="1200pt" height="1200pt" version="1.1" viewBox="0 0 1200 1200" xmlns="http://www.w3.org/2000/svg">
 <path d="m1162.5 262.25v725.88c-109.86-49.926-229.14-75.766-349.81-75.773-14.031 0-28.266 0.40234-42.297 1l-60.141 3c2.8125-1 5.6133-2.2031 8.625-3.4102 7.0156-2.4062 14.031-4.8086 21.25-7.0156 8.625-2.8125 17.238-5.6133 26.062-8.0195 7.0195-2.0039 14.234-4.0078 21.652-5.8125 8.625-2.0039 17.438-4.0117 26.262-5.8125 7.2188-1.6016 14.625-3 21.852-4.2109 9.0195-1.6055 18.043-2.8125 26.859-4.0078 7.418-1.0039 14.633-2.0039 22.051-2.8125 9.0195-1.0039 18.242-1.6016 27.465-2.0039 7.2188-0.60156 14.438-1.0039 21.449-1.4062 9.6211-0.19922 19.242 0 28.867 0 6.8164 0 13.633 0 20.438 0.19922 10.625 0.40234 21.449 1.4062 32.074 2.2031 5.8125 0.60156 11.426 0.80078 17.238 1.4062 16.438 1.8047 32.875 4.2109 49.113 7.0156v0.007813c5.6484 1.1641 11.516-0.39453 15.836-4.2109 4.4492-3.6406 7.0273-9.0859 7.0195-14.836v-601.38zm-702.42 643.69c-8.625-2.8125-17.438-5.6133-26.258-8.0195-7.2188-2.0039-14.234-4.0078-21.449-5.6133-8.8203-2.2031-17.641-4.2109-26.461-6.0156-7.2188-1.6016-14.625-3-21.852-4.2109-9.0195-1.6055-18.043-3-26.859-4.2109-7.418-0.80078-14.625-1.8047-21.852-2.6055-9.2188-1.0039-18.441-1.6016-27.664-2.2031-7.2188-0.40234-14.23-1.0039-21.449-1.2031-9.6211-0.19922-19.242-0.19922-29.062 0-6.6133 0-13.43 0-20.25 0.19922-10.625 0.40234-21.449 1.4062-32.074 2.2031-5.8125 0.60156-11.426 0.80078-17.238 1.4062-16.438 1.8047-32.875 4.2109-49.113 7.0156l-0.007813 0.003906c-5.6484 0.99609-11.445-0.54688-15.848-4.2188-4.4062-3.6719-6.9688-9.0938-7.0078-14.828v-601.39h-58.133v725.88c122.89-55.754 257.32-81.387 392.11-74.773l60.141 3c-2.8125-1-5.8125-2.4023-8.8125-3.4102-6.8242-2.3945-13.84-4.8008-20.855-7.0039zm60.141-637.48 60.34 26.062-0.003906 617.23-45.102-19.25c-14.234-6.2148-28.465-11.625-42.898-16.84-4.4102-1.4062-8.625-2.8125-12.828-4.2109-11.023-3.8086-22.051-7.2188-33.277-10.426-4.0078-1-8.0156-2.2031-12.027-3.4062-14.625-3.8086-29.266-7.418-43.902-10.426-2.8125-0.40234-5.6133-0.80078-8.418-1.4023-12.23-2.4062-24.656-4.4102-36.887-6.0156-4.8086-0.60156-9.4219-1.2031-14.23-1.8047-11.625-1.4062-23.453-2.6055-35.281-3.4102-3.6094-0.19922-7.2188-0.60156-10.824-0.80078-13.434-0.60156-27.062-1.2031-40.5-1.2031-1.2031 0-2.4062 0.19922-3.4062 0.19922-12.43 0-24.656 0.60156-36.887 1.4023-5.6133 0.19922-11.023 0.19922-16.438 0.60156-17.84 1.4062-35.484 3.4102-53.32 6.0156l-0.007813-620.22c123.88-19.699 250.78-5.7812 367.45 40.293 6.0234 2.6055 12.234 5.0117 18.453 7.6172zm-20.852 400.32v0.003906c-89.711-29.348-183.66-43.641-278.04-42.301-5.1289 0.10938-10.008 2.25-13.559 5.9531-3.5547 3.7031-5.4883 8.6641-5.3828 13.793 0.10547 5.1328 2.2461 10.008 5.9492 13.562 3.7031 3.5508 8.6641 5.4883 13.797 5.3828 90.043-1.168 179.66 12.578 265.21 40.688 1.9531 0.55859 3.9805 0.82812 6.0156 0.80078 4.1016 0.007812 8.0977-1.2891 11.414-3.7031 3.3164-2.4141 5.7773-5.8203 7.0273-9.7305 1.5234-4.8906 1.0781-10.184-1.2422-14.75-2.3242-4.5664-6.3359-8.0469-11.188-9.6953zm0-116.27v0.003906c-89.723-29.312-183.66-43.672-278.04-42.5-5.1562 0.11328-10.059 2.2656-13.629 5.9883-3.5703 3.7227-5.5195 8.7109-5.4141 13.867 0.17969 5.1328 2.3555 9.9922 6.0586 13.547 3.707 3.5586 8.6523 5.5273 13.789 5.4961 90.047-1.4297 179.7 12.262 265.21 40.5 1.9453 0.625 3.9727 0.96484 6.0156 1.0039 4.1016 0.011719 8.0977-1.2852 11.414-3.6992 3.3164-2.418 5.7773-5.8242 7.0273-9.7344 1.5547-4.8906 1.1211-10.203-1.2031-14.781s-6.3594-8.0586-11.227-9.6875zm0-116.47v0.003906c-89.711-29.348-183.66-43.641-278.04-42.301-5.125 0.097656-10 2.2188-13.566 5.8984-3.5664 3.6797-5.5352 8.6211-5.4766 13.746 0.21484 5.1211 2.3984 9.9609 6.0977 13.512 3.6953 3.5469 8.625 5.5312 13.75 5.5312 90.031-1.2305 179.65 12.453 265.21 40.5 1.9219 0.72266 3.9648 1.0625 6.0156 1.0039 4.1016 0.011719 8.0977-1.2852 11.414-3.6992 3.3164-2.4141 5.7773-5.8242 7.0273-9.7305 1.5273-4.8945 1.0859-10.191-1.2383-14.762-2.3203-4.5703-6.3398-8.0508-11.191-9.6992zm165.18 456.45-45.102 19.25v-617.23l60.539-26.062c6.0156-2.6055 12.23-5.0117 18.441-7.6172 88.875-35.023 183.97-51.531 279.45-48.512 29.422 0.71484 58.762 3.4609 87.805 8.2148v620.24c-135.92-20.359-274.82-2.4492-401.13 51.715zm23.656-432c1.25 3.9062 3.7109 7.3164 7.0273 9.7305 3.3164 2.4141 7.3125 3.7109 11.414 3.6992 2.0508 0.058593 4.0938-0.28125 6.0156-1.0039 85.59-27.922 175.19-41.602 265.21-40.5 5.1172-0.035156 10.023-2.0273 13.715-5.5703 3.6914-3.543 5.8867-8.3633 6.1328-13.473 0.058594-5.1211-1.9141-10.059-5.4805-13.738-3.5664-3.6758-8.4414-5.7969-13.562-5.8945-94.387-1.4258-188.35 12.871-278.04 42.301-4.8516 1.6484-8.8633 5.1289-11.188 9.6953-2.3203 4.5703-2.7656 9.8633-1.2422 14.754zm0 116.47c1.25 3.9062 3.7109 7.3125 7.0273 9.7305 3.3164 2.4141 7.3125 3.7109 11.414 3.6992 2.043-0.039063 4.0703-0.375 6.0156-1 85.547-28.117 175.17-41.805 265.21-40.5 5.1133-0.035157 10.02-2.0273 13.707-5.5664 3.6914-3.5352 5.8906-8.3516 6.1406-13.457 0.10156-5.1562-1.8477-10.141-5.418-13.859-3.5703-3.7227-8.4688-5.875-13.625-5.9844-94.383-1.1562-188.32 13.199-278.04 42.496-4.8633 1.6328-8.8906 5.1094-11.215 9.6797-2.3281 4.5742-2.7617 9.8789-1.2148 14.77zm24.457 128.9c85.559-28.078 175.17-41.828 265.21-40.688 5.1367 0.03125 10.086-1.9375 13.789-5.4922 3.707-3.5586 5.8828-8.418 6.0586-13.555 0.058594-5.1211-1.9102-10.062-5.4766-13.742-3.5664-3.6797-8.4414-5.8008-13.566-5.9023-94.379-1.3242-188.33 12.965-278.04 42.301-4.8516 1.6484-8.8672 5.1289-11.191 9.6992-2.3203 4.5664-2.7656 9.8633-1.2383 14.754 1.25 3.9102 3.7109 7.3164 7.0273 9.7305 3.3164 2.4141 7.3125 3.7109 11.414 3.7031 2.0352 0.027344 4.0625-0.24219 6.0156-0.80078z"/>
</svg>
