<?xml version="1.0" encoding="UTF-8"?>
<svg width="1200pt" height="1200pt" version="1.1" viewBox="0 0 1200 1200" xmlns="http://www.w3.org/2000/svg">
 <path d="m1185 765.47-65.391-148.36 3.5156-2.8125c1.875-1.6406 3.5156-3.75 4.9219-5.8594 1.4062-2.3438 2.3438-4.6875 2.8125-7.2656l25.781-138.52c5.625-1.1719 11.25-2.1094 16.875-3.2812 6.0938-1.1719 10.547-6.5625 9.8438-12.656-0.70312-7.0312-7.2656-11.719-14.062-10.312-175.08 34.922-343.12 43.594-499.22 26.25-124.69-13.828-242.34-44.531-349.45-90.938-182.58-79.453-272.58-178.59-273.28-179.53-4.4531-4.6875-11.953-4.9219-16.641-0.46875-4.4531 4.2188-4.9219 11.25-0.9375 16.172 0.70312 0.9375 5.3906 6.0938 14.062 14.297l-29.531 134.77c-0.70312 3.5156 0 7.0312 2.3438 9.8438s5.625 4.4531 9.1406 4.2188l35.391-0.46875 31.641 15c3.5156 1.6406 7.9688 1.875 11.25-0.23438 3.0469-1.6406 4.9219-4.4531 5.625-7.7344l18.984-86.484c9.1406 6.3281 18.984 13.125 29.297 19.922l-25.781 117.89c-0.70312 3.5156 0 7.0312 2.3438 9.8438s5.625 4.4531 9.1406 4.2188l35.391-0.46875 31.641 15c3.5156 1.6406 7.7344 1.875 11.25-0.23438 3.0469-1.6406 4.9219-4.4531 5.625-7.7344l19.219-87.422c9.8438 4.9219 19.922 10.078 30.469 15l-20.391 92.812c-0.70312 3.5156 0 7.0312 2.3438 9.8438s5.625 4.4531 9.1406 4.2188l35.391-0.46875 31.641 15c3.5156 1.6406 7.7344 1.6406 11.25-0.23438 3.0469-1.6406 4.9219-4.4531 5.625-7.7344l16.406-75.234c10.312 3.75 20.859 7.5 31.406 11.016l-18.516 84.375c-0.70312 3.5156 0 7.0312 2.3438 9.8438s5.625 4.4531 9.1406 4.2188l35.391-0.46875 31.641 15c3.5156 1.6406 7.9688 1.875 11.25-0.23438 3.0469-1.6406 4.9219-4.4531 5.625-7.7344l17.109-77.812c10.547 2.5781 21.328 5.1562 32.109 7.7344l-18.281 83.672c-0.70312 3.5156 0 7.0312 2.3438 9.8438s5.625 4.4531 9.1406 4.2188l35.391-0.46875 31.641 15c3.5156 1.6406 7.7344 1.6406 11.25-0.23438 3.0469-1.6406 4.9219-4.4531 5.625-7.7344l18.984-86.953c10.781 1.6406 21.797 3.0469 32.812 4.2188l-16.641 75.938c-0.9375 4.6875 0.70312 9.8438 4.6875 12.656 1.875 1.4062 4.2188 2.1094 6.5625 2.1094h0.23438l35.391-0.46875 31.641 15c3.5156 1.6406 7.9688 1.6406 11.25-0.23438 3.0469-1.6406 4.9219-4.4531 5.625-7.7344l19.453-89.062c11.016 0.46875 22.266 0.9375 33.516 1.4062l-17.344 79.219c-1.4062 6.3281 2.5781 12.656 8.9062 14.062 0.9375 0.23438 1.875 0.23438 2.5781 0.23438l35.391-0.46875 31.641 15c3.5156 1.6406 7.7344 1.875 11.25-0.23438 3.0469-1.6406 4.9219-4.4531 5.625-7.7344l22.031-100.55c11.25-0.46875 22.734-0.9375 33.984-1.6406l-19.922 91.406c-0.70312 3.5156 0 7.0312 2.3438 9.8438s5.625 4.4531 9.1406 4.2188l35.391-0.46875 31.641 15c3.5156 1.6406 7.7344 1.875 11.25-0.23438 3.0469-1.6406 4.9219-4.4531 5.625-7.7344l26.484-121.17c11.484-1.4062 22.969-2.8125 34.688-4.4531l-23.203 105.94c-0.70312 3.5156 0 7.0312 2.3438 9.8438s5.625 4.4531 9.1406 4.2188l35.391-0.46875 15.703 7.5c-131.02 110.86-266.72 197.58-403.83 257.81-113.44 49.922-227.81 81.797-340.31 94.922-191.02 22.5-311.72-17.578-313.36-18.281-6.0938-2.1094-12.891 1.1719-15 7.2656s1.1719 12.891 7.2656 15c1.1719 0.46875 7.7344 2.5781 19.453 5.625l40.781 131.72c1.875 6.0938 8.4375 9.6094 14.766 7.7344 0.9375-0.23438 1.6406-0.70312 2.3438-1.1719l30.469-17.812 34.688-2.5781c4.9219-0.46875 9.375-3.5156 11.016-8.2031 0.70312-2.3438 0.70312-4.6875 0-7.0312l-26.484-85.312c11.016 0.9375 22.734 1.6406 35.156 2.3438l36.094 116.72c1.875 6.0938 8.4375 9.6094 14.766 7.7344 0.9375-0.23438 1.6406-0.70312 2.3438-1.1719l30.469-17.812 34.922-2.5781c3.5156-0.23438 6.7969-1.875 8.9062-4.6875 2.3438-3.2812 3.0469-7.0312 1.875-10.547l-27.422-88.594c11.016-0.70312 22.266-1.4062 33.75-2.5781l29.297 94.688c1.875 6.0938 8.4375 9.6094 14.766 7.7344 0.9375-0.23438 1.6406-0.70312 2.3438-1.1719l30.469-17.812 34.688-2.5781c4.9219-0.46875 9.375-3.5156 11.016-8.2031 0.70312-2.3438 0.70312-4.6875 0-7.0312l-24.609-79.453c10.781-2.1094 21.562-4.2188 32.578-6.5625l27.422 88.828c1.1719 3.75 3.9844 7.0312 7.7344 8.2031 3.2812 0.9375 6.5625 0.46875 9.375-1.1719l30.469-17.812 34.688-2.5781c4.9219-0.46875 9.375-3.5156 10.781-8.2031 0.70312-2.3438 0.70312-4.6875 0-7.0312l-26.25-85.078c10.547-3.2812 20.859-6.5625 31.406-10.078l28.359 91.172c1.1719 3.75 3.9844 7.0312 7.7344 8.2031 3.2812 0.9375 6.5625 0.46875 9.375-0.9375l30.469-17.812 34.688-2.5781c4.9219-0.46875 9.375-3.5156 11.016-8.2031 0.70312-2.3438 0.70312-4.6875 0-7.0312l-29.062-94.453c7.9688-3.2812 15.703-6.5625 23.438-10.078 2.3438-0.9375 4.6875-2.1094 6.7969-3.0469l26.953 87.188c1.1719 3.75 3.9844 7.0312 7.7344 8.2031 3.2812 0.9375 6.5625 0.46875 9.375-1.1719l30.469-17.812 34.688-2.5781c4.9219-0.46875 9.375-3.5156 11.016-8.2031 0.70312-2.3438 0.70312-4.6875 0-7.0312l-31.641-101.95c8.4375-4.4531 16.875-9.1406 25.312-13.828l33.047 91.172c1.1719 3.0469 3.5156 5.8594 6.5625 7.0312 3.5156 1.4062 7.5 1.1719 10.547-0.70312l30.469-17.812 34.688-2.5781c4.9219-0.46875 9.6094-3.5156 11.016-8.4375 0.70312-2.3438 0.70312-4.9219-0.23438-7.0312l-38.672-113.2c7.7344-4.9219 15.234-9.8438 22.969-14.766l43.125 102.66c2.5781 5.8594 9.375 8.6719 15.234 6.3281l1.4062-0.70312 30.469-17.812 35.391-2.5781c6.5625-0.46875 11.25-6.0938 10.781-12.422 0-1.1719-0.23438-2.1094-0.70312-3.2812l-48.516-133.83c7.0312-5.3906 14.297-10.781 21.328-16.172l51.328 116.02c2.5781 5.8594 9.6094 8.6719 15.469 6.0938 0.46875-0.23438 0.70312-0.46875 1.1719-0.70312l30.469-17.812 34.688-2.5781c5.1562-0.46875 9.8438-3.75 11.016-8.9062 0.70312-2.5781 0.46875-5.1562-0.46875-7.5z"/>
 <path d="m151.88 622.03-21.562 2.3438c-6.3281 0.70312-11.016 6.5625-10.312 13.125 0.70312 6.3281 6.5625 11.016 12.891 10.312l21.562-2.3438c6.3281-0.70312 11.016-6.5625 10.312-12.891-0.70312-6.5625-6.5625-11.25-12.891-10.547z"/>
 <path d="m218.2 638.2c6.3281-0.70312 11.016-6.5625 10.312-13.125-0.70312-6.3281-6.5625-11.016-12.891-10.312l-21.562 2.3438c-6.3281 0.70312-11.016 6.5625-10.312 12.891 0.70312 5.8594 5.625 10.547 11.719 10.547h1.4062z"/>
 <path d="m181.17 587.34c-0.70312-6.3281-6.5625-11.016-12.891-10.312s-11.016 6.5625-10.312 12.891l2.3438 21.562c0.70312 6.3281 6.5625 11.016 12.891 10.312s11.016-6.5625 10.312-12.891z"/>
 <path d="m175.31 640.78c-6.3281 0.70312-11.016 6.5625-10.312 12.891l2.3438 21.562c0.70312 6.3281 6.5625 11.016 12.891 10.312s11.016-6.5625 10.312-12.891l-2.3438-21.562c-0.70312-6.3281-6.3281-11.016-12.891-10.312z"/>
 <path d="m735 679.22c-6.0938-2.3438-12.891 0.70312-15 6.7969l-7.5 20.156c-2.3438 6.0938 0.70312 12.891 6.5625 15.234 6.0938 2.3438 12.891-0.70312 15.234-6.5625 0-0.23438 0-0.23438 0.23438-0.46875l7.5-20.156c2.1094-6.0938-0.9375-12.656-7.0312-15z"/>
 <path d="m697.5 746.25-7.5 20.156c-2.3438 6.0938 0.70312 12.891 6.7969 15s12.891-0.70312 15-6.7969l7.5-20.156c2.3438-6.0938-0.70312-12.891-6.7969-15s-12.656 0.70312-15 6.7969z"/>
 <path d="m724.92 733.59c-2.3438 6.0938 0.9375 12.891 6.7969 15l20.156 7.5c6.0938 2.1094 12.891-0.9375 15-7.0312 2.1094-5.8594-0.9375-12.656-6.7969-14.766l-20.156-7.5c-6.0938-2.3438-12.891 0.70312-15 6.7969z"/>
 <path d="m700.31 712.03s-0.23438 0-0.23438-0.23438l-20.156-7.5c-6.0938-2.3438-12.891 0.70312-15.234 6.7969s0.70312 12.891 6.7969 15.234h0.23438l20.156 7.5c6.0938 2.3438 12.891-0.70312 15.234-6.5625 2.3438-6.0938-0.70312-12.891-6.7969-15.234z"/>
 <path d="m821.02 268.36c6.0938 2.3438 12.891-0.70312 15.234-6.7969v-0.23438l7.5-20.156c2.3438-6.0938-0.70312-12.891-6.5625-15.234-6.0938-2.3438-12.891 0.70312-15.234 6.5625 0 0.23438 0 0.23438-0.23438 0.46875l-7.5 20.156c-2.1094 6.0938 0.9375 12.891 6.7969 15.234z"/>
 <path d="m799.45 292.97-7.5 20.156c-2.3438 6.0938 0.70312 12.891 6.7969 15 6.0938 2.3438 12.891-0.70312 15-6.7969l7.5-20.156c2.1094-6.0938-0.9375-12.891-7.0312-15-5.8594-2.1094-12.422 0.9375-14.766 6.7969z"/>
 <path d="m826.88 280.55c-2.3438 6.0938 0.9375 12.891 6.7969 15l20.156 7.5c6.0938 2.3438 12.891-0.9375 15-6.7969 2.3438-6.0938-0.9375-12.891-6.7969-15l-20.156-7.5c-6.0938-2.3438-12.656 0.70312-15 6.7969z"/>
 <path d="m773.67 273.28 20.156 7.5c1.4062 0.46875 2.8125 0.70312 4.2188 0.70312 6.5625 0 11.719-5.1562 11.719-11.719 0-4.9219-3.0469-9.375-7.7344-11.016l-20.156-7.5c-6.0938-2.3438-12.891 0.70312-15 6.7969-2.3438 6.0938 0.70312 12.891 6.7969 15.234z"/>
 <path d="m177.66 129.38c6.0938 2.3438 12.891-0.70312 15-6.7969l7.5-20.156c2.3438-6.0938-0.70312-12.891-6.7969-15.234s-12.891 0.70312-15.234 6.7969v0.23438l-7.5 20.156c-2.1094 6.0938 0.9375 12.656 7.0312 15z"/>
 <path d="m156.09 153.98c-0.23438 0-0.23438 0 0 0l-7.7344 20.391c-2.3438 6.0938 0.70312 12.891 6.7969 15.234s12.891-0.70312 15.234-6.7969v-0.23438l7.5-20.156c2.3438-6.0938-0.70312-12.891-6.7969-15.234s-12.891 0.70312-15 6.7969z"/>
 <path d="m183.28 141.8c-2.1094 6.0938 0.9375 12.656 6.7969 15l20.156 7.5c6.0938 2.3438 12.891-0.9375 15-6.7969 2.3438-6.0938-0.9375-12.891-6.7969-15l-20.156-7.5c-6.0938-2.3438-12.656 0.70312-15 6.7969z"/>
 <path d="m130.08 134.3 20.156 7.5c6.0938 2.3438 12.891-0.9375 15-6.7969s-0.9375-12.891-6.7969-15l-20.156-7.7344c-6.0938-2.3438-12.891 0.9375-15 6.7969s0.70312 12.891 6.7969 15.234z"/>
 <path d="m917.58 1041.1c0.9375 5.625 5.8594 9.6094 11.484 9.6094 0.70312 0 1.4062 0 2.1094-0.23438 6.3281-1.1719 10.547-7.2656 9.375-13.594l-3.9844-21.328c-1.1719-6.3281-7.2656-10.547-13.594-9.375s-10.547 7.2656-9.375 13.594v0.23438z"/>
 <path d="m952.5 1099.7-3.9844-21.328c-1.1719-6.3281-7.2656-10.547-13.594-9.375s-10.547 7.2656-9.375 13.594v0.23438l3.9844 21.328c0.9375 5.625 5.8594 9.6094 11.484 9.6094 0.70312 0 1.4062 0 2.1094-0.23438 6.5625-1.4062 10.547-7.5 9.375-13.828z"/>
 <path d="m973.12 1040.4-21.328 3.9844c-6.3281 1.1719-10.547 7.2656-9.375 13.594 0.9375 5.625 5.8594 9.6094 11.484 9.6094 0.70312 0 1.4062 0 2.1094-0.23438l21.328-3.9844c6.3281-1.1719 10.547-7.5 9.1406-13.828-1.1719-6.3281-7.2656-10.312-13.359-9.1406z"/>
 <path d="m909.84 1052.3-21.328 3.9844c-6.3281 1.1719-10.547 7.2656-9.375 13.594 0.9375 5.625 5.8594 9.6094 11.484 9.6094 0.70312 0 1.4062 0 2.1094-0.23438l21.328-3.9844c6.3281-1.1719 10.547-7.5 9.1406-13.828-0.9375-6.3281-7.0312-10.312-13.359-9.1406z"/>
</svg>
