<?xml version="1.0" encoding="UTF-8"?>
<svg width="1200pt" height="1200pt" version="1.1" viewBox="0 0 1200 1200" xmlns="http://www.w3.org/2000/svg">
 <path d="m226.99 1081.3c0.019531 17.293 6.8984 33.871 19.125 46.098 12.227 12.227 28.805 19.105 46.098 19.125h627.71c14.074-0.019531 27.57-5.6172 37.523-15.57 9.9531-9.9531 15.551-23.445 15.566-37.523v-54.027h-746.02zm92.152-12.891h203.23c6.4727 0 11.719 5.2461 11.719 11.719s-5.2461 11.719-11.719 11.719h-203.23c-6.4727 0-11.719-5.2461-11.719-11.719s5.2461-11.719 11.719-11.719zm-51.703 0h6.3281c6.4727 0 11.719 5.2461 11.719 11.719s-5.2461 11.719-11.719 11.719h-6.3281c-6.4727 0-11.719-5.2461-11.719-11.719s5.2461-11.719 11.719-11.719z"/>
 <path d="m613.14 573.52c-0.007813-4.0781-3.3125-7.3828-7.3906-7.3906h-101.72v-72.824c21.746-12.32 36.133-29.469 43.719-52.086 22.223-66.258-21.453-158.39-40.945-194.43-7.8984 28.387-23.051 68.992-50.418 101.34-25.574 30.234-35.391 58.387-29.168 83.703 7.3281 29.809 35.23 50.41 53.375 60.98v73.312h-108.49c-4.082 0.007813-7.3867 3.3125-7.3945 7.3906v238.62c-0.003906 5.043 1.9922 9.8828 5.5508 13.457 3.5586 3.5781 8.3906 5.5938 13.434 5.6133 5.6055-0.019531 10.973-2.2578 14.93-6.2305 3.9531-3.9688 6.1719-9.3477 6.1641-14.949v-56.859c-0.085937-12.734 4.9102-24.98 13.883-34.016 8.9727-9.0352 21.184-14.117 33.918-14.117 12.734 0 24.945 5.082 33.918 14.117 8.9766 9.0352 13.973 21.281 13.883 34.016v21.977c-0.003907 5.043 1.9883 9.8828 5.5508 13.461 3.5586 3.5742 8.3867 5.5898 13.434 5.6094 5.082-0.011719 9.9453-2.0547 13.512-5.6758 3.5664-3.6172 5.5352-8.5156 5.4727-13.594l-0.64844-67.266c-0.16797-11.867 3.9492-23.398 11.598-32.477 7.6484-9.0742 18.312-15.09 30.035-16.938 11.727-1.8477 23.723 0.59766 33.793 6.8828z"/>
 <path d="m807.91 247.95c22.219-66.25-21.449-158.38-40.945-194.43-7.8945 28.387-23.055 68.992-50.418 101.34-25.578 30.234-35.391 58.387-29.168 83.707 7.3281 29.809 35.23 50.41 53.375 60.98v73.312l-113.32-0.003906c-1.9805 0-3.8789 0.79688-5.2695 2.2109-1.3906 1.4102-2.1523 3.3242-2.1211 5.3047l2.7695 167.49c8.5938 5.707 13.758 15.336 13.766 25.652v3.7148c4.9297-2.5898 10.406-3.9688 15.973-4.0234h0.75391c22.082 0 41.449 17.902 41.449 38.309v36.488c-0.050781 4.1758 1.5742 8.2031 4.5078 11.176 2.9375 2.9727 6.9453 4.6484 11.121 4.6484 4.1797 0 8.1875-1.6758 11.125-4.6484 2.9336-2.9727 4.5586-7 4.5078-11.176v-94.543c0-14.781 7.8867-28.438 20.688-35.828s28.574-7.3906 41.375 0 20.688 21.047 20.688 35.828v33.223c-0.011719 7.8555 6.3398 14.238 14.195 14.266 3.7969-0.007812 7.4375-1.5391 10.102-4.2461 2.6641-2.7031 4.1367-6.3633 4.0898-10.164l-0.78906-77c-0.16406-12.887 6.1758-24.988 16.867-32.188 10.688-7.1953 24.285-8.5234 36.164-3.5234v-93.578c-0.007812-4.0781-3.3125-7.3828-7.3906-7.3906h-117.81v-72.812c21.746-12.32 36.133-29.469 43.719-52.086z"/>
 <path d="m653.3 596.63h-0.75391c-7.6133 0-15.977 9.4531-15.977 18.062l0.003906 401.23h252.82v-506.79c0.003907-3.9336-1.5508-7.707-4.3242-10.496-2.7734-2.7852-6.543-4.3594-10.473-4.375-3.9609 0.007812-7.7539 1.6016-10.535 4.4258-2.7773 2.8203-4.3125 6.6367-4.2617 10.598l0.78906 77c0.15234 10.043-3.7188 19.73-10.75 26.906-7.0312 7.1758-16.641 11.242-26.684 11.293-10.047 0.050781-19.695-3.9141-26.801-11.016s-11.074-16.75-11.027-26.797v-33.223c0-6.4062-3.418-12.328-8.9688-15.531s-12.387-3.2031-17.938 0-8.9688 9.125-8.9688 15.531v94.543c0.082031 10.414-4 20.43-11.336 27.82-7.3359 7.3945-17.316 11.551-27.734 11.551-10.414 0-20.395-4.1562-27.73-11.551-7.3359-7.3906-11.418-17.406-11.336-27.82v-36.488c0-7.3672-9.0898-14.871-18.012-14.871z"/>
 <path d="m452.59 728.7c-6.4727 0.019531-12.672 2.6055-17.238 7.1914-4.5703 4.5859-7.1289 10.793-7.125 17.266v56.859c0 11.816-4.6914 23.152-13.039 31.516s-19.676 13.078-31.492 13.102c-6.5977-0.007812-13.102-1.5664-18.984-4.5508v165.84h248.44v-308.74c0.003906-6.9062-2.7305-13.531-7.6055-18.422s-11.492-7.6484-18.398-7.668c-6.9531 0.011719-13.609 2.8047-18.492 7.7539-4.8828 4.9492-7.5859 11.645-7.5039 18.594l0.64844 67.266h0.003906c0.074219 15.156-7.9414 29.203-21.027 36.848-13.086 7.6445-29.258 7.7266-42.422 0.21484-13.164-7.5117-21.32-21.477-21.395-36.633v-21.977c0.003907-6.4727-2.5547-12.684-7.125-17.27-4.5664-4.5859-10.77-7.1719-17.242-7.1914z"/>
</svg>
