<?xml version="1.0" encoding="UTF-8"?>
<svg width="1200pt" height="1200pt" version="1.1" viewBox="0 0 1200 1200" xmlns="http://www.w3.org/2000/svg">
 <path d="m1139.5 546.42c-1.5-5.8789-6.2266-10.391-12.156-11.641l-7.2617-1.5117v-101.53l11.844-10.129c4.6797-3.9844 6.6367-10.32 5.0273-16.246-1.6094-5.9297-6.4922-10.402-12.539-11.496l-66.539-12.07 0.023437-85.488-0.023437-1.7656 12.254-10.465c4.668-3.9961 6.6367-10.332 5.0273-16.246-1.6094-5.9414-6.4922-10.414-12.539-11.508l-537.8-97.043c-4.1758-0.76953-8.4609 0.17969-11.93 2.6055l-416.72 290.62c-7.8711 4.3672-36.695 24.156-36.156 79.152 0.61328 59.723 35.953 86.844 37.465 87.973 0.20312 0.15625 0.43359 0.25391 0.64844 0.39453 0.35938 0.25391 0.71875 0.48047 1.0938 0.69531 0.39453 0.22656 0.80469 0.42188 1.2227 0.61328 0.37109 0.17969 0.74219 0.33594 1.1523 0.48047 0.45703 0.16797 0.91016 0.28906 1.3789 0.40625 0.26562 0.085938 0.51562 0.19141 0.78125 0.25391l24.613 5.1602c-3.9961 10.859-6.707 24.469-6.5273 41.566 0.30078 29.594 9.1211 51.168 18.133 65.555l-19.066 13.285c-7.9219 4.4141-36.695 24.238-36.133 79.152 0.60156 59.723 35.93 86.902 37.477 87.973 1.332 0.91016 3.9961 2.3164 6.2539 2.832l564.17 118.38c0.058594 0.011719 0.12109 0.035156 0.17969 0.046875l20.148 4.2227c1.0781 0.22656 2.1836 0.33594 3.2656 0.33594 3.7422 0 7.4141-1.332 10.32-3.8047l370.79-316.73c4.6211-3.9492 6.5898-10.176 5.0898-16.043-1.5117-5.8789-6.2266-10.391-12.168-11.641l-6.625-1.3789v-85.57l50.746-43.344c4.6211-3.9609 6.6016-10.188 5.0898-16.055zm-450.5 58.211c3.7578 0 7.4297-1.332 10.332-3.8164l326.93-279.25v101.11l-340.2 289.34-0.003907-107.7c0.99609 0.17969 1.9688 0.3125 2.9414 0.3125zm-568.21-118.89 533.4 111.93v107.64l-533.4-111.7zm24.754 403.29v-107.79l533.39 111.95v107.79zm37.32-157.86v-92.102l485.05 101.77c0.058594 0.011719 0.10938 0.035156 0.16797 0.046875l20.148 4.2227c1.0938 0.22656 2.1836 0.33594 3.2656 0.33594 3.7422 0 7.4297-1.332 10.332-3.8047l8.8203-7.5469 5.3281 1.1172v107.75zm868.97-13.691-340.91 290.22-0.10937-107.84c0.97266 0.19141 1.957 0.30078 2.9414 0.30078 3.7422 0 7.4141-1.3203 10.32-3.8047l17.988-15.359 7.957 1.668c1.0781 0.22656 2.1836 0.33594 3.2539 0.33594 3.7578 0 7.4297-1.332 10.332-3.8047l288.23-246.31zm37.008-157.93-340.86 290.12-0.12109-107.8c0.98438 0.17969 1.957 0.30078 2.9297 0.30078 3.7578 0 7.4297-1.332 10.332-3.8047l327.77-279.98z"/>
</svg>
