<?xml version="1.0" encoding="UTF-8"?>
<svg width="1200pt" height="1200pt" version="1.1" viewBox="0 0 1200 1200" xmlns="http://www.w3.org/2000/svg">
 <path d="m339.23 1093v59.633c-0.023437 11.875 5.8828 22.977 15.738 29.594 9.8555 6.6211 22.367 7.8867 33.348 3.375 10.984-4.5117 18.992-14.203 21.348-25.84h380.68c2.3555 11.637 10.363 21.328 21.348 25.84 10.98 4.5117 23.492 3.2461 33.348-3.375 9.8555-6.6172 15.762-17.719 15.738-29.594v-59.633c45.406-7.3281 84.73-35.57 106.18-76.254 21.453-40.688 22.543-89.086 2.9453-130.7-19.602-41.609-57.613-71.594-102.64-80.961-24.992-4.8359-48.402-15.781-68.145-31.855-71.422-59.801-71.277-130.82-68.191-157.5h85.566c11.848-0.011718 23.203-4.7227 31.582-13.102 8.375-8.375 13.086-19.73 13.102-31.578v-0.85156c-0.015625-11.848-4.7266-23.203-13.102-31.582-8.3789-8.375-19.734-13.086-31.582-13.102h-95.953l57.863-191.25c1.4922 0.11719 2.9805 0.18359 4.4688 0.18359 12.414-0.035156 24.492-4.0586 34.449-11.477 9.957-7.4141 17.27-17.832 20.863-29.719l56.77-187.62c4.4414-14.707 2.8711-30.57-4.3594-44.125-7.2305-13.555-19.535-23.691-34.223-28.191l-2.9062-0.88281c-14.703-4.4609-30.574-2.8906-44.121 4.3633-13.543 7.2539-23.645 19.598-28.078 34.309l-56.766 187.62c-3.8047 12.625-3.207 26.164 1.6992 38.402 4.9062 12.238 13.828 22.445 25.297 28.945l-60.344 199.45h-74.188v-203.38c12.895-3.0664 24.383-10.387 32.609-20.781 8.2227-10.395 12.707-23.258 12.727-36.512v-194.27c-0.015625-15.613-6.2266-30.582-17.266-41.621-11.039-11.043-26.008-17.25-41.621-17.27h-1.0234c-15.613 0.019531-30.582 6.2266-41.621 17.27-11.039 11.039-17.25 26.008-17.266 41.621v194.27c0.015625 13.254 4.5 26.117 12.727 36.512 8.2227 10.395 19.711 17.715 32.609 20.781v203.36h-74.191l-60.344-199.44v-0.003906c11.473-6.4961 20.391-16.703 25.297-28.941 4.9062-12.238 5.5039-25.777 1.6992-38.402l-56.766-187.63c-4.4336-14.707-14.535-27.047-28.074-34.301-13.543-7.2539-29.414-8.8281-44.113-4.3711l-2.9102 0.88281v0.003906c-14.688 4.5-26.992 14.637-34.223 28.191-7.2305 13.551-8.8008 29.418-4.3594 44.125l56.77 187.62c3.5938 11.887 10.906 22.301 20.863 29.719 9.957 7.4141 22.035 11.438 34.449 11.477 1.4883 0 2.9766-0.066406 4.4688-0.18359l57.863 191.25h-99.375c-11.848 0.011719-23.203 4.7266-31.578 13.102-8.3789 8.375-13.09 19.734-13.102 31.578v0.85547c0.011718 11.844 4.7227 23.199 13.102 31.578 8.375 8.375 19.73 13.09 31.578 13.102h83.129c1.5469 14.871 1.0977 29.887-1.3359 44.641-7.0469 43.691-29.516 81.664-66.797 112.87-19.742 16.074-43.152 27.016-68.148 31.852-45.031 9.3672-83.043 39.352-102.64 80.961-19.602 41.609-18.512 90.012 2.9453 130.7 21.453 40.684 60.777 68.926 106.18 76.254zm412.18-826.13 56.777-187.62c2.2695-7.5664 7.4609-13.914 14.418-17.648 6.9609-3.7344 15.121-4.5469 22.68-2.2539l2.9062 0.88281c7.5664 2.3242 13.902 7.5508 17.621 14.535s4.5195 15.156 2.2266 22.73l-56.77 187.62h-0.003906c-2.2695 7.5664-7.457 13.918-14.418 17.652-6.9609 3.7344-15.121 4.543-22.68 2.2539l-2.9062-0.88281v-0.003906c-7.5664-2.3203-13.902-7.5469-17.625-14.531-3.7188-6.9844-4.5195-15.16-2.2266-22.734zm-179.79-2.0078v-194.27c0.007812-8.1602 3.2539-15.98 9.0234-21.746 5.7656-5.7695 13.59-9.0117 21.746-9.0195h1.0234c8.1562 0.007812 15.977 3.2539 21.742 9.0195 5.7656 5.7695 9.0117 13.59 9.0195 21.746v194.27c-0.007813 8.1523-3.2539 15.973-9.0195 21.738-5.7656 5.7695-13.586 9.0117-21.742 9.0234h-1.0234c-8.1562-0.011719-15.977-3.2539-21.742-9.0234-5.7656-5.7656-9.0117-13.586-9.0195-21.738zm-137.09 39.27-2.9062 0.88672v-0.003906c-7.5586 2.293-15.719 1.4805-22.68-2.2539-6.9609-3.7344-12.148-10.086-14.418-17.648l-56.766-187.63c-2.293-7.5742-1.4922-15.746 2.2266-22.73s10.051-12.211 17.617-14.535l2.9102-0.88672h-0.003906c2.8125-0.85547 5.7344-1.293 8.6719-1.2969 6.3867 0.023438 12.598 2.0938 17.719 5.9102 5.1172 3.8164 8.875 9.1797 10.719 15.293l56.77 187.62h-0.003906c2.2969 7.5742 1.4961 15.75-2.2266 22.738-3.7227 6.9844-10.062 12.211-17.629 14.535zm-52.266 848.5c0 4.1133-3.3359 7.4492-7.4492 7.4492-4.1172 0-7.4531-3.3359-7.4531-7.4492v-57.812h14.902zm407.37-20.996h-379.24v-36.816h379.24zm43.027 20.996c0 4.1133-3.3359 7.4492-7.4531 7.4492-4.1133 0-7.4492-3.3359-7.4492-7.4492v-57.812h14.902zm-47.547-354.55c22.496 17.258 48.676 29.086 76.492 34.559 15.922 3.2734 30.98 9.8438 44.211 19.285h-71.328l-51.91-53.844zm-293.63 0h74.262l-39.609 51.355zm2.4102 53.844h-88.543l54.105-51.027zm104.73-50.422 41.082 50.426h-79.965zm33.488-3.4219h80.605l-39.195 50.828zm114.02 2.7227 49.289 51.125-88.711-0.003906zm-360.25-213.2c-4.3867-0.003906-8.5977-1.75-11.699-4.8555-3.1055-3.1016-4.8477-7.3125-4.8555-11.699v-0.85547c0.007812-4.3867 1.75-8.5977 4.8555-11.699 3.1016-3.1055 7.3125-4.8516 11.699-4.8555h430.61c4.3906 0.003906 8.6016 1.75 11.703 4.8516 3.1055 3.1055 4.8516 7.3125 4.8555 11.703v0.85547c-0.003906 4.3867-1.75 8.5977-4.8555 11.699-3.1055 3.1055-7.3125 4.8516-11.703 4.8555zm111.44 28.125h205.36c-1.4453 15.859-0.95703 31.836 1.4531 47.578h-208.27c2.4141-15.742 2.9023-31.719 1.457-47.578zm213.18 75.703c3.457 11.387 7.918 22.438 13.34 33.031h-247.69c5.4219-10.594 9.8828-21.645 13.34-33.031zm-251.72 61.156h282.42c4.2422 5.8125 8.9336 11.602 14.078 17.375h-310.57c5.1641-5.7656 9.8359-11.566 14.078-17.379zm-120.39 80.055c27.82-5.4727 54-17.301 76.496-34.559h6.5625l-57.09 53.848h-70.176c13.23-9.4414 28.289-16.016 44.207-19.289zm-92.254 94.941h58.633-0.003906c7.7695 0 14.062-6.293 14.062-14.062 0-7.7656-6.293-14.062-14.062-14.062h-49.82c3.1133-6.8047 6.8633-13.301 11.195-19.406h667.72c4.332 6.1055 8.082 12.602 11.195 19.406h-546.54c-7.7656 0-14.062 6.2969-14.062 14.062 0 7.7695 6.2969 14.062 14.062 14.062h555.35c6.1953 34.402-3.1602 69.785-25.547 96.629-22.387 26.844-55.512 42.398-90.469 42.484h-475.69c-34.953-0.085938-68.078-15.641-90.469-42.484-22.387-26.844-31.742-62.227-25.547-96.629z"/>
 <path d="m338.3 1036c11.02 0.019531 21.594-4.3438 29.395-12.125 7.8047-7.7812 12.195-18.344 12.207-29.363 0.011718-11.02-4.3516-21.594-12.137-29.391-7.7852-7.8008-18.352-12.188-29.371-12.191-11.02-0.007812-21.59 4.3633-29.387 12.152-7.793 7.7891-12.176 18.355-12.176 29.375 0 11.004 4.3672 21.559 12.141 29.348 7.7773 7.7891 18.32 12.172 29.328 12.195zm0-54.945c5.4297-0.027343 10.34 3.2227 12.438 8.2305 2.0977 5.0078 0.96484 10.789-2.8633 14.637-3.832 3.8516-9.6055 5.0117-14.625 2.9375-5.0195-2.0703-8.293-6.9648-8.293-12.395-0.011719-7.3867 5.957-13.383 13.344-13.41z"/>
 <path d="m468.68 1036c11.02 0.019531 21.594-4.3438 29.398-12.125 7.8008-7.7812 12.191-18.344 12.203-29.363 0.015625-11.02-4.3516-21.594-12.137-29.391-7.7852-7.8008-18.352-12.188-29.371-12.191-11.02-0.007812-21.59 4.3633-29.383 12.152-7.7969 7.7891-12.18 18.355-12.18 29.375 0 11.004 4.3672 21.559 12.145 29.348 7.7734 7.7891 18.32 12.172 29.324 12.195zm0-54.945c5.4297-0.027343 10.34 3.2227 12.438 8.2305 2.0977 5.0078 0.96875 10.789-2.8633 14.637-3.832 3.8516-9.6055 5.0117-14.625 2.9375-5.0195-2.0703-8.293-6.9648-8.293-12.395-0.011719-7.3867 5.957-13.383 13.344-13.41z"/>
 <path d="m599.06 1036c11.02 0.015625 21.59-4.3516 29.391-12.133 7.8008-7.7852 12.188-18.348 12.195-29.367 0.011718-11.02-4.3594-21.59-12.145-29.387s-18.348-12.18-29.367-12.184c-11.02-0.007812-21.59 4.3633-29.383 12.152-7.793 7.7891-12.176 18.355-12.176 29.375 0 11.008 4.3711 21.562 12.148 29.352 7.7773 7.7891 18.328 12.176 29.336 12.191zm0-54.945c5.4297-0.023437 10.336 3.2344 12.426 8.2422 2.0938 5.0117 0.95703 10.789-2.875 14.633-3.832 3.8477-9.6055 5.0039-14.625 2.9258-5.0156-2.0742-8.2891-6.9688-8.2852-12.398-0.007813-7.3867 5.9727-13.387 13.359-13.402z"/>
 <path d="m729.43 1036c11.02 0.019531 21.598-4.3438 29.398-12.125 7.8047-7.7812 12.195-18.344 12.207-29.363 0.011719-11.02-4.3555-21.594-12.141-29.391-7.7852-7.8008-18.348-12.188-29.367-12.191-11.02-0.007812-21.59 4.3633-29.387 12.152-7.793 7.7891-12.176 18.355-12.176 29.375 0 11.004 4.3672 21.559 12.141 29.348 7.7734 7.7891 18.32 12.176 29.324 12.195zm0-54.945c5.4336-0.027343 10.344 3.2227 12.441 8.2305s0.96484 10.789-2.8633 14.637c-3.832 3.8516-9.6055 5.0117-14.625 2.9375-5.0195-2.0703-8.293-6.9648-8.293-12.395-0.011719-7.3867 5.957-13.387 13.34-13.41z"/>
 <path d="m859.81 1036c11.02 0.019531 21.594-4.3438 29.395-12.125 7.8047-7.7812 12.195-18.344 12.207-29.363 0.011719-11.02-4.3516-21.594-12.137-29.391-7.7852-7.8008-18.352-12.188-29.371-12.191-11.02-0.007812-21.59 4.3633-29.387 12.152-7.793 7.7891-12.176 18.355-12.176 29.375 0 11.004 4.3672 21.559 12.141 29.348 7.7773 7.7891 18.32 12.172 29.328 12.195zm0-54.945c5.4297-0.027343 10.34 3.2227 12.438 8.2305s0.96484 10.789-2.8633 14.637c-3.832 3.8516-9.6055 5.0117-14.625 2.9375-5.0195-2.0703-8.293-6.9648-8.293-12.395-0.011719-7.3867 5.957-13.383 13.344-13.41z"/>
</svg>
