<?xml version="1.0" encoding="UTF-8"?>
<svg width="1200pt" height="1200pt" version="1.1" viewBox="0 0 1200 1200" xmlns="http://www.w3.org/2000/svg">
 <path d="m834.05 1101c0 4.9688-4.0312 9-9 9h-450.1c-4.9688 0-9-4.0312-9-9v-29.297c0-18.609 14.203-34.078 32.766-35.812 23.719-2.25 54.797-6.8438 73.828-15.844 33.984-16.125 37.688-51.422 37.453-72v-63h180v63c-0.23438 20.578 3.4688 55.875 37.453 72 19.031 9.0469 50.109 13.594 73.828 15.844 18.562 1.7812 32.719 17.203 32.766 35.812z"/>
 <path d="m341.06 392.26c-2.7656-6.8906 0.5625-14.766 7.5-17.578 3.4688-1.4062 85.547-34.172 125.72-34.172h0.046875c24.938 0 37.078 6.1406 48.797 12.047 3.1406 1.5938 6.3281 3.2344 9.9844 4.7812 6.8438 2.9062 10.078 10.828 7.1719 17.672s-10.781 10.078-17.672 7.1719c-4.2656-1.7812-7.9688-3.7031-11.625-5.5312-10.5-5.2969-18.094-9.1406-36.609-9.1406h-0.046875c-29.016 0-93.328 23.25-115.64 32.25-1.6406 0.65625-3.3281 0.98438-5.0156 0.98438-5.3438 0-10.406-3.1875-12.516-8.4844z"/>
 <path d="m540.24 442.87c-2.8125 6.8906-10.688 10.219-17.625 7.4062-4.4531-1.8281-7.875-3.6094-10.969-5.2969-6.4219-3.4219-9.9375-5.2969-23.344-5.2969h-0.046875c-29.203 0-99.281 23.25-123.84 32.203-1.5469 0.5625-3.0938 0.79688-4.6406 0.79688-5.5312 0-10.688-3.375-12.703-8.8594-2.5781-7.0312 1.0781-14.766 8.0625-17.297 3.7969-1.3594 93.141-33.797 133.08-33.797h0.046874c18.703 0 26.391 3.3281 36 8.4375 2.4375 1.3125 5.0625 2.7188 8.5312 4.125 6.8906 2.8125 10.219 10.688 7.4062 17.625z"/>
 <path d="m966.19 389.16-32.906-14.484 4.1719-37.125c0.65625-5.6719-2.3438-11.109-7.4531-13.641-6.1406-3-150.66-73.359-221.95-73.359-58.547 0-91.781 33.703-108 57.562-16.219-23.859-49.453-57.562-108-57.562-71.297 0-215.81 70.359-221.95 73.359-5.1094 2.5312-8.1094 7.9688-7.4531 13.641l4.1719 37.125-32.906 14.484c-7.0312 3.0938-11.25 10.406-10.406 18.047l21.703 199.18c1.0781 9.75 9.8438 16.734 19.594 15.609l281.16-33.047s18.375 35.109 54.234 35.109c35.812 0 54.234-35.109 54.234-35.109l281.16 33.047c9.7031 1.125 18.516-5.8594 19.594-15.609l21.703-199.18c0.84375-7.6406-3.375-14.906-10.406-18.047zm-258.19-111.66c55.828 0 169.5 51.516 201.52 66.562l-21.516 192.71c-39.469-9.7031-145.4-34.453-198.05-34.453-3.7031 0-7.125 0.14063-10.219 0.375-28.922 2.3438-51.094 12.234-66.234 21.609v-185.53c4.875-10.922 30.891-61.266 94.5-61.266zm-216 0c63.609 0 89.625 50.344 94.5 61.266v185.53c-15.141-9.375-37.312-19.266-66.234-21.609-47.906-3.8906-166.03 23.719-208.26 34.078l-21.516-192.71c32.016-15.047 145.69-66.562 201.52-66.562z"/>
 <path d="m659.76 375c-2.9062-6.8438 0.28125-14.812 7.1719-17.672 3.6562-1.5469 6.8438-3.1875 9.9844-4.7812 11.719-5.9062 23.812-12.047 48.797-12.047h0.046875c40.172 0 122.26 32.812 125.72 34.172 6.9375 2.7656 10.266 10.641 7.5 17.578-2.1094 5.25-7.1719 8.4844-12.516 8.4844-1.6875 0-3.375-0.32812-5.0156-0.98438-22.312-8.9531-86.625-32.25-115.64-32.25h-0.046875c-18.516 0-26.109 3.8438-36.609 9.1406-3.6562 1.8281-7.4062 3.75-11.625 5.5312-6.8906 2.9062-14.812-0.28125-17.672-7.1719z"/>
 <path d="m852.89 463.82c-1.9688 5.4844-7.1719 8.8594-12.703 8.8594-1.5469 0-3.0938-0.28125-4.6406-0.79688-24.562-8.9531-94.641-32.156-123.79-32.203h-0.046875c-13.359 0-16.922 1.875-23.344 5.2969-3.1406 1.6406-6.5156 3.4688-10.969 5.2969-6.8906 2.8125-14.766-0.51562-17.625-7.4062-2.8125-6.8906 0.46875-14.766 7.4062-17.625 3.4688-1.4062 6.0938-2.8125 8.5312-4.125 9.6094-5.1094 17.297-8.4375 36-8.4375h0.046875c39.938 0 129.28 32.438 133.08 33.797 7.0312 2.5781 10.641 10.312 8.0625 17.297z"/>
 <path d="m1068 84h-936c-29.812 0-54 24.188-54 54v666c0 29.812 24.188 54 54 54h936c29.812 0 54-24.188 54-54v-666c0-29.812-24.188-54-54-54zm-18 666h-900v-594h900z"/>
</svg>
