<?xml version="1.0" encoding="UTF-8"?>
<svg width="1200pt" height="1200pt" version="1.1" viewBox="0 0 1200 1200" xmlns="http://www.w3.org/2000/svg">
 <path d="m433.63 785.12h332.73c4.9688-0.003907 9.7383-1.9844 13.254-5.4961 3.5117-3.5156 5.4922-8.2852 5.4961-13.254v-332.73c-0.003907-4.9688-1.9844-9.7383-5.4961-13.254-3.5156-3.5117-8.2852-5.4922-13.254-5.4961h-332.73c-4.9688 0.007813-9.7344 1.9844-13.25 5.5-3.5156 3.5156-5.4922 8.2812-5.5 13.25v332.73c0.007813 4.9688 1.9844 9.7344 5.5 13.25 3.5156 3.5156 8.2812 5.4922 13.25 5.5zm9.375-342.11h313.98v313.98h-313.98z"/>
 <path d="m600 509.71c-23.945 0-46.91 9.5117-63.84 26.445-16.934 16.93-26.445 39.895-26.445 63.84s9.5117 46.91 26.445 63.84c16.93 16.934 39.895 26.445 63.84 26.445s46.91-9.5117 63.84-26.445c16.934-16.93 26.445-39.895 26.445-63.84-0.027344-23.938-9.5469-46.887-26.473-63.812s-39.875-26.445-63.812-26.473zm0 152.44v0.003906c-16.484 0-32.297-6.5508-43.953-18.207s-18.207-27.469-18.207-43.953 6.5508-32.297 18.207-43.953 27.469-18.207 43.953-18.207 32.297 6.5508 43.953 18.207 18.207 27.469 18.207 43.953c-0.019531 16.48-6.5742 32.277-18.227 43.934-11.656 11.652-27.453 18.207-43.934 18.227z"/>
 <path d="m597.73 266.11c-13.402 0.015625-26.246 5.3477-35.723 14.82-9.4727 9.4766-14.805 22.324-14.816 35.723v31.566h-167.09c-9.9414 0.011719-19.473 3.9648-26.504 10.996s-10.984 16.562-10.996 26.504v163.74h-25.949c-18.059 0-34.742 9.6328-43.77 25.27-9.0312 15.637-9.0312 34.902 0 50.539 9.0273 15.637 25.711 25.27 43.77 25.27h25.953v163.74h-0.003906c0.011719 9.9414 3.9648 19.473 10.996 26.504s16.562 10.984 26.504 10.996h167.08v31.566h0.003906c0 18.055 9.6328 34.742 25.27 43.77 15.637 9.0273 34.902 9.0273 50.539 0 15.641-9.0273 25.273-25.715 25.273-43.77v-31.566h171.62c9.9414-0.011719 19.473-3.9648 26.504-10.996s10.984-16.562 10.996-26.504v-163.74h25.953-0.003906c18.059 0 34.742-9.6328 43.77-25.27 9.0312-15.637 9.0312-34.902 0-50.539-9.0273-15.637-25.711-25.27-43.77-25.27h-25.949v-163.74c-0.011719-9.9414-3.9648-19.473-10.996-26.504s-16.562-10.984-26.504-10.996h-171.61v-31.566c-0.015625-13.402-5.3477-26.25-14.824-35.727-9.4766-9.4727-22.328-14.805-35.727-14.816zm-255.12 356.3h-25.949c-8.0117 0-15.41-4.2695-19.414-11.207-4.0039-6.9336-4.0039-15.48 0-22.414 4.0039-6.9375 11.402-11.207 19.414-11.207h25.953zm514.79-44.832h25.953v0.003907c8.0117 0 15.41 4.2695 19.414 11.207 4.0039 6.9336 4.0039 15.48 0 22.414-4.0039 6.9375-11.402 11.207-19.414 11.207h-25.949zm-282.07-260.93c0-8.0078 4.2734-15.406 11.207-19.41 6.9336-4.0039 15.48-4.0039 22.414 0 6.9375 4.0039 11.211 11.402 11.211 19.41v31.566h-44.832zm44.84 566.69c0 8.0078-4.2734 15.406-11.207 19.41-6.9375 4.0039-15.48 4.0039-22.418 0-6.9336-4.0039-11.207-11.402-11.207-19.41v-31.566h44.832zm199.75-507c2.4883 0 4.8711 0.98828 6.6289 2.7461s2.7461 4.1406 2.7461 6.6289v428.55c0 2.4883-0.98828 4.8711-2.7461 6.6289s-4.1406 2.7461-6.6289 2.7461h-439.8c-5.1758 0-9.375-4.1992-9.375-9.375v-428.55c0-5.1758 4.1992-9.375 9.375-9.375z"/>
 <path d="m236.86 492.86c10.711 0 20.984-4.2578 28.555-11.832 7.5742-7.5703 11.832-17.844 11.832-28.555 0-10.711-4.2578-20.984-11.832-28.555-7.5703-7.5742-17.844-11.832-28.555-11.832s-20.984 4.2578-28.555 11.832c-7.5742 7.5703-11.832 17.844-11.832 28.555 0.015625 10.707 4.2734 20.973 11.844 28.543 7.5703 7.5703 17.836 11.828 28.543 11.844zm0-52.645c4.957 0 9.4297 2.9883 11.328 7.5703 1.8984 4.582 0.84766 9.8555-2.6602 13.359-3.5078 3.5078-8.7812 4.5547-13.363 2.6562-4.5781-1.8984-7.5664-6.3711-7.5664-11.328 0.007813-6.7656 5.4961-12.25 12.262-12.258z"/>
 <path d="m463.83 274.97c10.711 0 20.984-4.2539 28.559-11.828s11.828-17.848 11.828-28.559c0-10.711-4.2539-20.984-11.828-28.555-7.5742-7.5742-17.848-11.832-28.559-11.832s-20.98 4.2578-28.555 11.832c-7.5742 7.5742-11.828 17.848-11.828 28.559 0.011719 10.703 4.2695 20.969 11.84 28.539 7.5742 7.5703 17.836 11.828 28.543 11.844zm0-52.645c4.957 0 9.4297 2.9844 11.328 7.5664s0.85156 9.8555-2.6562 13.363c-3.5039 3.5039-8.7773 4.5547-13.359 2.6562-4.582-1.8945-7.5703-6.3672-7.5703-11.324 0.007813-6.7695 5.4922-12.254 12.258-12.262z"/>
 <path d="m758.88 274.97c10.711 0 20.984-4.2539 28.559-11.828 7.5742-7.5742 11.828-17.844 11.828-28.555 0.003906-10.711-4.2539-20.984-11.824-28.559-7.5742-7.5742-17.848-11.832-28.559-11.832-10.711 0-20.984 4.2578-28.559 11.832-7.5742 7.5742-11.828 17.848-11.828 28.559 0.011718 10.703 4.2695 20.969 11.84 28.539 7.5703 7.5703 17.836 11.828 28.543 11.844zm0-52.645c4.957 0 9.4297 2.9844 11.328 7.5664 1.8984 4.5781 0.85156 9.8555-2.6523 13.363-3.5078 3.5039-8.7812 4.5547-13.363 2.6562-4.582-1.8945-7.5703-6.3672-7.5703-11.324 0.007812-6.7695 5.4883-12.25 12.258-12.262z"/>
 <path d="m963.14 492.86c10.711 0 20.984-4.2539 28.559-11.828s11.828-17.848 11.828-28.559c0-10.711-4.2539-20.98-11.828-28.555s-17.844-11.832-28.555-11.832c-10.711 0-20.984 4.2578-28.559 11.828-7.5742 7.5742-11.828 17.848-11.828 28.559 0.011719 10.707 4.2695 20.973 11.84 28.543 7.5703 7.5703 17.836 11.828 28.543 11.844zm0-52.645c4.9609 0 9.4297 2.9844 11.328 7.5664s0.85156 9.8555-2.6562 13.363c-3.5078 3.5078-8.7812 4.5547-13.363 2.6562-4.582-1.8984-7.5664-6.3672-7.5664-11.328 0.007813-6.7656 5.4922-12.25 12.258-12.258z"/>
 <path d="m963.14 707.14c-10.711 0-20.984 4.2578-28.555 11.832-7.5742 7.5703-11.832 17.844-11.832 28.555 0 10.711 4.2578 20.984 11.832 28.555 7.5703 7.5742 17.844 11.832 28.555 11.832s20.984-4.2578 28.555-11.832c7.5742-7.5703 11.832-17.844 11.832-28.555-0.015625-10.707-4.2734-20.973-11.844-28.543-7.5703-7.5703-17.836-11.828-28.543-11.844zm0 52.645c-4.957 0-9.4297-2.9883-11.328-7.5703-1.8984-4.582-0.84766-9.8555 2.6602-13.359 3.5078-3.5078 8.7812-4.5547 13.363-2.6562 4.5781 1.8984 7.5664 6.3711 7.5664 11.328-0.007813 6.7656-5.4961 12.25-12.262 12.258z"/>
 <path d="m236.86 707.14c-10.711 0-20.984 4.2539-28.559 11.828s-11.828 17.848-11.828 28.559c0 10.711 4.2539 20.98 11.828 28.555s17.844 11.832 28.555 11.832c10.711 0 20.984-4.2578 28.559-11.828 7.5742-7.5742 11.828-17.848 11.828-28.559-0.011719-10.707-4.2695-20.973-11.84-28.543-7.5703-7.5703-17.836-11.828-28.543-11.844zm0 52.645c-4.9609 0-9.4297-2.9844-11.328-7.5664s-0.85156-9.8555 2.6562-13.363c3.5078-3.5078 8.7812-4.5547 13.363-2.6562 4.582 1.8984 7.5664 6.3672 7.5664 11.328-0.007813 6.7656-5.4922 12.25-12.258 12.258z"/>
 <path d="m463.83 925.03c-10.711 0-20.984 4.2578-28.559 11.832-7.5703 7.5703-11.828 17.844-11.828 28.555 0 10.711 4.2578 20.984 11.832 28.559 7.5742 7.5742 17.844 11.828 28.555 11.828 10.711-0.003906 20.984-4.2578 28.559-11.832s11.828-17.848 11.828-28.559c-0.011719-10.707-4.2734-20.969-11.844-28.543-7.5703-7.5703-17.836-11.828-28.543-11.84zm0 52.645c-4.957 0-9.4297-2.9883-11.328-7.5703-1.8945-4.5781-0.84766-9.8516 2.6602-13.359 3.5039-3.5078 8.7773-4.5547 13.359-2.6562 4.582 1.8984 7.5703 6.3672 7.5703 11.324-0.007813 6.7695-5.4922 12.254-12.262 12.262z"/>
 <path d="m758.88 925.03c-10.711 0-20.984 4.2578-28.559 11.832-7.5742 7.5703-11.828 17.844-11.828 28.555 0 10.711 4.2539 20.984 11.828 28.559 7.5742 7.5742 17.848 11.828 28.559 11.828 10.711-0.003906 20.984-4.2578 28.555-11.832 7.5742-7.5742 11.828-17.848 11.828-28.559-0.011718-10.707-4.2695-20.969-11.84-28.543-7.5742-7.5703-17.836-11.828-28.543-11.84zm0 52.645c-4.9609 0-9.4297-2.9883-11.328-7.5703-1.8984-4.5781-0.84766-9.8516 2.6562-13.359 3.5078-3.5078 8.7812-4.5547 13.363-2.6562 4.582 1.8984 7.5664 6.3672 7.5664 11.324-0.003906 6.7695-5.4922 12.254-12.258 12.262z"/>
 <path d="m600 451.43c-39.402 0-77.191 15.652-105.05 43.512-27.859 27.863-43.512 65.652-43.512 105.05s15.652 77.191 43.512 105.05c27.863 27.859 65.652 43.512 105.05 43.512s77.191-15.652 105.05-43.512c27.859-27.863 43.512-65.652 43.512-105.05-0.042968-39.391-15.711-77.152-43.562-105-27.852-27.852-65.613-43.52-105-43.562zm0 269.01v-0.003906c-31.945 0-62.578-12.688-85.168-35.273-22.586-22.59-35.273-53.223-35.273-85.168s12.688-62.578 35.273-85.168c22.59-22.586 53.223-35.273 85.168-35.273s62.578 12.688 85.168 35.273c22.586 22.59 35.273 53.223 35.273 85.168-0.035156 31.934-12.734 62.547-35.316 85.125-22.578 22.582-53.191 35.281-85.125 35.316z"/>
 <path d="m998.77 600c-0.03125-25.312-9.75-49.652-27.164-68.02-17.414-18.371-41.199-29.375-66.473-30.758v-178.51c0-9.75-3.8711-19.098-10.766-25.992-6.8945-6.8945-16.242-10.766-25.992-10.766h-170.47c-4.5938-31.637-24.191-59.105-52.613-73.742-28.422-14.637-62.164-14.637-90.586 0-28.422 14.637-48.02 42.105-52.613 73.742h-184.54c-9.75 0-19.102 3.8711-25.992 10.766-6.8945 6.8945-10.766 16.242-10.766 25.992v37.816c0 7.7656 6.2969 14.062 14.062 14.062s14.062-6.2969 14.062-14.062v-37.816c0-2.2891 0.90625-4.4844 2.5273-6.1055 1.6172-1.6211 3.8125-2.5273 6.1055-2.5273h194.1-0.003906c4.5625 0 8.9453-1.7695 12.23-4.9336 3.2852-3.1602 5.2188-7.4766 5.3906-12.031 0.99219-24.59 14.684-46.902 36.16-58.918 21.477-12.02 47.652-12.02 69.129 0 21.477 12.016 35.168 34.328 36.16 58.918 0.17188 4.5547 2.1055 8.8672 5.3906 12.027 3.2852 3.1641 7.668 4.9297 12.227 4.9297h180.03c2.2891 0 4.4883 0.91016 6.1055 2.5273 1.6172 1.6211 2.5273 3.8164 2.5273 6.1055v189.03c0 4.8516 1.9961 9.4883 5.5234 12.816 3.5273 3.332 8.2734 5.0586 13.117 4.7812 3.6289-0.21875 7.2734-0.15234 10.895 0.19531 24.422 2.2656 45.934 17.012 56.852 38.977 10.914 21.969 9.6797 48.02-3.2617 68.855-12.945 20.836-35.754 33.484-60.281 33.43-1.4062 0-2.8047-0.042968-4.1992-0.125-4.8438-0.28125-9.5898 1.4453-13.117 4.7773-3.5312 3.3281-5.5273 7.9648-5.5273 12.82v185.27c0 4.7656-3.8633 8.6328-8.6328 8.6328h-180c-4.6797 0.011719-9.1602 1.8828-12.461 5.1992-3.3008 3.3164-5.1484 7.8086-5.1367 12.488-0.070313 25.289-13.629 48.621-35.566 61.207-21.938 12.582-48.926 12.504-70.793-0.20312-21.867-12.707-35.293-36.113-35.219-61.406-0.046875-4.625-1.9258-9.0391-5.2266-12.281-3.2969-3.2383-7.7461-5.0391-12.371-5.0039h-194.06c-4.7695 0-8.6328-3.8672-8.6328-8.6328v-185.57c0.003906-4.3828-1.6289-8.6094-4.5742-11.852-2.9492-3.2461-7-5.2734-11.363-5.6914-23.461-2.3906-44.188-16.312-55.277-37.121-11.09-20.809-11.09-45.777 0-66.586 11.09-20.809 31.816-34.73 55.277-37.121 4.3633-0.41797 8.4141-2.4453 11.363-5.6914 2.9453-3.2422 4.5781-7.4688 4.5742-11.852v-57.766c0-7.7656-6.2969-14.062-14.062-14.062s-14.062 6.2969-14.062 14.062v48.711c-30.145 6.0156-55.785 25.703-69.375 53.277-13.59 27.57-13.59 59.898 0 87.469 13.59 27.574 39.23 47.262 69.375 53.277v176.52c0 9.7461 3.8711 19.098 10.766 25.992 6.8945 6.8906 16.242 10.766 25.992 10.766h184.07c3.4648 32.68 22.934 61.5 51.953 76.918 29.02 15.418 63.801 15.418 92.824 0 29.02-15.418 48.488-44.238 51.953-76.918h170.01c9.75 0 19.102-3.875 25.992-10.766 6.8945-6.8945 10.766-16.246 10.766-25.992v-174.75c25.277-1.375 49.07-12.379 66.484-30.75 17.418-18.371 27.141-42.711 27.172-68.027z"/>
 <path d="m600 11.719c-156.02 0-305.65 61.98-415.98 172.3-110.32 110.32-172.3 259.96-172.3 415.98 0 156.02 61.98 305.65 172.3 415.98 72.973 73.242 163.96 125.96 263.79 152.84 99.832 26.883 204.98 26.977 304.87 0.28125 99.879-26.699 190.96-79.246 264.07-152.36 73.105-73.105 125.66-164.19 152.35-264.07 26.695-99.883 26.598-205.04-0.28125-304.87-26.883-99.832-79.598-190.82-152.84-263.79-54.5-54.801-119.33-98.246-190.73-127.82-71.402-29.578-147.96-44.695-225.25-44.484zm410.97 258.32c0.26953 15.004-3.918 29.746-12.023 42.371-30.762-42.539-68.074-79.926-110.55-110.77 12.605-8.0938 27.328-12.27 42.305-11.996 21.094 0.67969 41.137 9.375 56.051 24.309 14.91 14.934 23.574 34.988 24.223 56.082zm52.906 329.96c0 255.78-208.09 463.87-463.88 463.87s-463.88-208.09-463.88-463.87 208.09-463.87 463.88-463.87 463.88 208.09 463.88 463.87zm-112.31-436.14c-6.6992-1.4297-13.52-2.2148-20.367-2.3438-24.547-0.46094-48.461 7.7891-67.5 23.285-47.871-30.535-100.69-52.504-156.09-64.922-3.3047-31.594-20.914-59.926-47.781-76.875 106.91 11.164 208.26 53.152 291.74 120.86zm-351.56-109.82c38.805 0 70.328 25.352 78.191 60.195-51.797-8.3164-104.59-8.3164-156.38 0 7.8633-34.844 39.387-60.195 78.191-60.195zm-59.832-11.016c-26.863 16.949-44.473 45.281-47.777 76.875-55.234 12.383-107.9 34.258-155.66 64.652-18.996-15.5-42.902-23.715-67.414-23.164-7.0508 0.14453-14.066 0.99219-20.949 2.5273 83.492-67.73 184.87-109.73 291.8-120.9zm-326.21 170.92c14.777-15.09 34.836-23.852 55.949-24.441 14.898-0.3125 29.555 3.8086 42.105 11.844-42.504 30.797-79.852 68.145-110.65 110.64-8.0469-12.543-12.168-27.203-11.848-42.105 0.58594-21.109 9.3516-41.168 24.441-55.941zm-50.031 34.418c-1.5312 6.8828-2.3789 13.898-2.5273 20.945-0.54688 24.508 7.6641 48.406 23.156 67.406-30.402 47.762-52.281 100.43-64.664 155.68-31.594 3.3008-59.926 20.91-76.875 47.777 11.168-106.93 53.176-208.31 120.91-291.8zm-49.688 429.8c-34.844-7.8594-60.191-39.375-60.191-78.172s25.352-70.312 60.195-78.188c-8.3164 51.789-8.3164 104.57 0 156.36zm50.418 274.38c-68.16-83.668-110.43-185.4-121.64-292.73 16.953 26.859 45.281 44.461 76.871 47.766 12.406 55.352 34.348 108.12 64.836 155.96-20.168 24.934-27.582 57.832-20.066 89.008zm36.91-64.25c30.855 42.516 68.27 79.863 110.84 110.65-30.109 19.023-70.301 14.582-97.777-12.891-27.508-27.52-32.016-67.703-13.062-97.758zm46.707 147.71c7.8477 1.8398 15.879 2.7773 23.938 2.793 23.668 0.019531 46.617-8.1211 64.984-23.051 47.633 30.242 100.14 52.02 155.19 64.363 3.3047 31.594 20.914 59.926 47.781 76.875-106.96-11.176-208.38-53.207-291.88-120.98zm351.73 109.95c-38.805 0-70.312-25.352-78.184-60.195 51.785 8.3125 104.56 8.3125 156.35 0-7.8555 34.848-39.375 60.195-78.168 60.195zm59.816 11.016c26.859-16.949 44.469-45.281 47.77-76.875 55.281-12.391 107.99-34.289 155.78-64.719 18.414 15.031 41.465 23.23 65.234 23.203 0.70312 0 1.4062 0 2.1094-0.019531 7.0469-0.14453 14.059-0.98438 20.934-2.5156-83.496 67.75-184.88 109.77-291.82 120.94zm326.23-170.93h-0.003906c-14.758 15.078-34.801 23.832-55.891 24.406-14.895 0.3125-29.543-3.8242-42.078-11.875 42.453-30.77 79.758-68.074 110.53-110.52 19.219 30.234 14.914 70.531-12.559 98.004zm50.07-34.473c7.0156-31.039-0.61328-63.578-20.688-88.27 30.406-47.766 52.297-100.45 64.688-155.7 31.59-3.3047 59.926-20.914 76.875-47.777-11.168 106.91-53.164 208.27-120.88 291.76zm49.641-429.77c34.848 7.8672 60.195 39.387 60.195 78.191 0 38.805-25.352 70.328-60.195 78.191 8.3164-51.797 8.3164-104.59 0-156.38zm71.223 18.359c-16.949-26.863-45.285-44.473-76.875-47.777-12.352-55.07-34.133-107.59-64.391-155.23 15.535-19.055 23.816-43 23.363-67.578-0.11328-6.832-0.87891-13.633-2.2891-20.32 67.316 83.332 109.06 184.37 120.19 290.91z"/>
</svg>
