<?xml version="1.0" encoding="UTF-8"?>
<svg width="1200pt" height="1200pt" version="1.1" viewBox="0 0 1200 1200" xmlns="http://www.w3.org/2000/svg">
 <path d="m421.93 1126.5c18.742-0.054688 36.219-9.4688 46.57-25.09 10.355-15.621 12.219-35.383 4.9688-52.668-7.25-17.281-22.656-29.797-41.059-33.355v-314.39h401.11c0.12891-0.003907 0.25-0.058594 0.33594-0.15234 0.085937-0.09375 0.12891-0.21875 0.12109-0.34766v-48.594c0.007813-0.125-0.035156-0.25-0.12109-0.34375-0.085938-0.097657-0.20703-0.15234-0.33594-0.15234h-431.12c-0.12891 0-0.25391 0.050781-0.34375 0.14453-0.085938 0.097656-0.13281 0.22266-0.125 0.35156v48.594c-0.007813 0.12891 0.039062 0.25781 0.125 0.35156 0.089843 0.09375 0.21484 0.14844 0.34375 0.14844h6.5625v314.92c-17.93 4.3164-32.586 17.176-39.207 34.387-6.6172 17.215-4.3477 36.582 6.0703 51.797s27.652 24.336 46.094 24.395z"/>
 <path d="m686.22 774.51v-50.082h-136.52v50.082c-0.007812 0.67969 0.53125 1.2422 1.2109 1.2578h134.11c0.67969-0.015625 1.2188-0.57812 1.207-1.2578z"/>
 <path d="m431.16 232.29h373.6v54.594h-373.6z"/>
 <path d="m642.63 1137.7v-338.48h-49.34v338.48c-0.066406 6.5859 2.5039 12.922 7.1406 17.602 4.6328 4.6797 10.945 7.3125 17.531 7.3125 6.582 0 12.895-2.6328 17.527-7.3125 4.6367-4.6797 7.207-11.016 7.1406-17.602z"/>
 <path d="m617.96 63.176c5.2031 0.035157 9.9102-3.0703 11.922-7.8672 2.0156-4.793 0.9375-10.332-2.7266-14.02-3.668-3.6914-9.1953-4.8047-14.004-2.8203-4.8086 1.9805-7.9453 6.668-7.9453 11.867-0.015625 7.0664 5.6914 12.809 12.754 12.84z"/>
 <path d="m718.25 129.71c0.011719-11.398-4.5-22.34-12.543-30.422-8.043-8.0781-18.965-12.637-30.367-12.676h-114.76c-11.402 0.039063-22.324 4.5977-30.367 12.676-8.0469 8.082-12.559 19.02-12.547 30.422v6.1133h200.59z"/>
 <path d="m626.98 310.32v234.35h112.03v-234.35h-44.297v105.47c0 6.4727-5.2461 11.719-11.719 11.719s-11.719-5.2461-11.719-11.719v-105.47z"/>
 <path d="m431.16 568.11h373.6v59.852h-373.6z"/>
 <path d="m762.44 310.32h42.316v234.35h-42.316z"/>
 <path d="m402.4 208.86h431.12c0.26172-0.011719 0.46875-0.23438 0.45703-0.5v-48.59c0.007813-0.12891-0.035156-0.25391-0.12109-0.34766-0.085938-0.09375-0.20703-0.14844-0.33594-0.15234h-431.12c-0.12891 0-0.25391 0.050781-0.34375 0.14844-0.085938 0.09375-0.13281 0.21875-0.125 0.35156v48.594c-0.003907 0.12891 0.042968 0.25391 0.13281 0.34375 0.085938 0.09375 0.20703 0.14844 0.33594 0.15234z"/>
 <path d="m431.16 310.32h36.93v234.35h-36.93z"/>
 <path d="m603.54 544.67v-234.35h-112.02v234.35h44.297v-128.89c0-6.4727 5.2461-11.719 11.719-11.719 6.4727 0 11.719 5.2461 11.719 11.719v128.89z"/>
 <path d="m688.56 838.52v6.3281c0 6.4727 5.2461 11.719 11.719 11.719s11.719-5.2461 11.719-11.719v-6.3281c0-6.4688-5.2461-11.719-11.719-11.719s-11.719 5.25-11.719 11.719z"/>
 <path d="m712 1093.4v-203.23c0-6.4727-5.2461-11.719-11.719-11.719s-11.719 5.2461-11.719 11.719v203.23c0 6.4727 5.2461 11.719 11.719 11.719s11.719-5.2461 11.719-11.719z"/>
</svg>
