<?xml version="1.0" encoding="UTF-8"?>
<svg width="1200pt" height="1200pt" version="1.1" viewBox="0 0 1200 1200" xmlns="http://www.w3.org/2000/svg">
 <path d="m1031.2 93.75h-75v-18.75c0-41.438-33.562-75-75-75s-75 33.562-75 75v75c0 14.25 8.0625 26.438 19.688 32.812 2.0625-8.0625 9.1875-14.062 17.812-14.062 10.312 0 18.75 8.4375 18.75 18.75v37.5c0 10.312-8.4375 18.75-18.75 18.75s-18.75-8.4375-18.75-18.75v-2.625c-32.25-8.4375-56.25-37.5-56.25-72.375v-56.25h-393.75v-18.75c0-41.438-33.562-75-75-75s-75 33.562-75 75v75c0 14.25 8.0625 26.438 19.688 32.812 2.0625-8.0625 9.1875-14.062 17.812-14.062 10.312 0 18.75 8.4375 18.75 18.75v37.5c0 10.312-8.4375 18.75-18.75 18.75s-18.75-8.4375-18.75-18.75v-2.625c-32.25-8.4375-56.25-37.5-56.25-72.375v-56.25h-112.5c-41.438 0-75 33.562-75 75v862.5c0 41.438 33.562 75 75 75h956.25c41.438 0 75-33.562 75-75v-862.5c0-41.438-33.562-75-75-75zm-187.5 0v-18.75c0-20.625 16.875-37.5 37.5-37.5s37.5 16.875 37.5 37.5v18.75zm-581.25 0v-18.75c0-20.625 16.875-37.5 37.5-37.5s37.5 16.875 37.5 37.5v18.75zm806.25 937.5c0 20.625-16.875 37.5-37.5 37.5h-956.25c-20.625 0-37.5-16.875-37.5-37.5v-712.5h1031.2z"/>
 <path d="m112.5 393.75h150c10.355 0 18.75 10.355 18.75 18.75v112.5c0 10.355-8.3945 18.75-18.75 18.75h-150c-10.355 0-18.75-10.355-18.75-18.75v-112.5c0-10.355 8.3945-18.75 18.75-18.75z"/>
 <path d="m600 393.75h150c10.355 0 18.75 10.355 18.75 18.75v112.5c0 10.355-8.3945 18.75-18.75 18.75h-150c-10.355 0-18.75-10.355-18.75-18.75v-112.5c0-10.355 8.3945-18.75 18.75-18.75z"/>
 <path d="m843.75 393.75h150c10.355 0 18.75 10.355 18.75 18.75v112.5c0 10.355-8.3945 18.75-18.75 18.75h-150c-10.355 0-18.75-10.355-18.75-18.75v-112.5c0-10.355 8.3945-18.75 18.75-18.75z"/>
 <path d="m112.5 618.75h150c10.355 0 18.75 10.355 18.75 18.75v112.5c0 10.355-8.3945 18.75-18.75 18.75h-150c-10.355 0-18.75-10.355-18.75-18.75v-112.5c0-10.355 8.3945-18.75 18.75-18.75z"/>
 <path d="m356.25 618.75h150c10.355 0 18.75 10.355 18.75 18.75v112.5c0 10.355-8.3945 18.75-18.75 18.75h-150c-10.355 0-18.75-10.355-18.75-18.75v-112.5c0-10.355 8.3945-18.75 18.75-18.75z"/>
 <path d="m600 618.75h150c10.355 0 18.75 10.355 18.75 18.75v112.5c0 10.355-8.3945 18.75-18.75 18.75h-150c-10.355 0-18.75-10.355-18.75-18.75v-112.5c0-10.355 8.3945-18.75 18.75-18.75z"/>
 <path d="m843.75 618.75h150c10.355 0 18.75 10.355 18.75 18.75v112.5c0 10.355-8.3945 18.75-18.75 18.75h-150c-10.355 0-18.75-10.355-18.75-18.75v-112.5c0-10.355 8.3945-18.75 18.75-18.75z"/>
 <path d="m112.5 843.75h150c10.355 0 18.75 10.355 18.75 18.75v112.5c0 10.355-8.3945 18.75-18.75 18.75h-150c-10.355 0-18.75-10.355-18.75-18.75v-112.5c0-10.355 8.3945-18.75 18.75-18.75z"/>
 <path d="m356.25 843.75h150c10.355 0 18.75 10.355 18.75 18.75v112.5c0 10.355-8.3945 18.75-18.75 18.75h-150c-10.355 0-18.75-10.355-18.75-18.75v-112.5c0-10.355 8.3945-18.75 18.75-18.75z"/>
 <path d="m600 843.75h150c10.355 0 18.75 10.355 18.75 18.75v112.5c0 10.355-8.3945 18.75-18.75 18.75h-150c-10.355 0-18.75-10.355-18.75-18.75v-112.5c0-10.355 8.3945-18.75 18.75-18.75z"/>
 <path d="m843.75 843.75h150c10.355 0 18.75 10.355 18.75 18.75v112.5c0 10.355-8.3945 18.75-18.75 18.75h-150c-10.355 0-18.75-10.355-18.75-18.75v-112.5c0-10.355 8.3945-18.75 18.75-18.75z"/>
 <path d="m399.24 538.26c3.5234 3.5234 8.2969 5.4922 13.258 5.4922l0.85156-0.019531c5.2656-0.23828 10.18-2.6836 13.551-6.7305l93.75-112.5c6.6289-7.957 5.5586-19.777-2.3984-26.402-7.957-6.6367-19.785-5.5586-26.402 2.3984l-80.613 96.727-41.73-41.73c-7.3242-7.3242-19.188-7.3242-26.516 0-7.3242 7.3242-7.3242 19.188 0 26.516z"/>
 <path d="m1143.8 171.19v185.06h56.25v-112.5c0-34.875-23.812-64.312-56.25-72.562z"/>
 <path d="m1143.8 1031.2c0 62.062-50.438 112.5-112.5 112.5h-916.31c8.25 32.438 37.688 56.25 72.562 56.25h937.5c41.438 0 75-33.562 75-75v-731.25h-56.25z"/>
</svg>
