<?xml version="1.0" encoding="UTF-8"?>
<svg width="1200pt" height="1200pt" version="1.1" viewBox="0 0 1200 1200" xmlns="http://www.w3.org/2000/svg">
 <path d="m103.84 545.6c-10.617-0.007812-20.98 3.2227-29.711 9.2656-14.223 9.7891-22.672 25.984-22.562 43.25s8.7656 33.355 23.109 42.961l0.26562 0.17969h0.003906c9.9922 6.6562 21.969 9.6953 33.926 8.6016 11.961-1.0898 23.188-6.2422 31.812-14.598l37.543-36.652-37.23-37.512c-9.8008-9.9453-23.191-15.531-37.156-15.496z"/>
 <path d="m462.94 578.5 106.93-106.77-92.867-92.73-108.13 105.56z"/>
 <path d="m440.51 342.57-39.688-39.629c-13.965-14.035-32.961-21.906-52.762-21.859-2.2227 0-4.4727 0.10156-6.6875 0.29688-18.773 1.7109-36.207 10.445-48.816 24.457-12.609 14.012-19.465 32.27-19.191 51.117l0.054688 2.8125c0.31641 19.277 8.1445 37.672 21.816 51.27l37.141 37.09z"/>
 <path d="m426.45 614.93-94.484-94.348-80.52 78.602 94.945 95.684z"/>
 <path d="m689.92 351.86-91.508-91.375-84.512 82.504 92.453 92.312z"/>
 <path d="m598.83 188.03 36.668-35.801c8.1562-8.1289 13.281-18.809 14.531-30.254 1.25-11.449-1.457-22.98-7.668-32.676l-0.25-0.39453c-6.4883-10.137-16.348-17.656-27.84-21.234-11.488-3.5781-23.875-2.9883-34.973 1.6719s-20.191 13.09-25.684 23.797c-4.9102 9.5742-6.6484 20.461-4.9648 31.086 1.6875 10.625 6.707 20.441 14.34 28.023z"/>
 <path d="m919.23 359.67c2.5312-17.578-2.6992-35.391-14.34-48.805-11.637-13.418-28.531-21.113-46.293-21.086h-8.1484c-16.258-0.046875-31.859 6.4062-43.336 17.922l-44.227 44.16 90.852 90.703 48.133-48.371c9.3398-9.3477 15.426-21.449 17.359-34.523z"/>
 <path d="m499.43 614.93 91.73 91.594 106.57-107.12-91.375-91.238z"/>
 <path d="m734.09 562.85 83.289-83.723-90.973-90.836-83.566 83.445z"/>
 <path d="m863.35 691.91 82.961-84.051-92.441-92.305-83.289 83.723z"/>
 <path d="m803.47 918.52c14.043 14.098 33.133 21.996 53.027 21.941h1.9375c19.848 0 38.887-7.8789 52.938-21.898 14.051-14.023 21.965-33.047 22.008-52.895 0.054688-19.836-7.8398-38.871-21.914-52.848l-47.852-47.777-106.15 107.54z"/>
 <path d="m1127.3 567.4-2.5625-1.9141c-10.246-7.6016-22.883-11.262-35.605-10.305-12.723 0.95312-24.676 6.457-33.668 15.504l-36.438 36.914 39.266 39.207-0.003906 0.003906c9.0977 9.0352 21.16 14.469 33.953 15.293 12.797 0.82422 25.457-3.0156 35.637-10.809 13.066-10.035 20.676-25.613 20.562-42.09-0.11328-16.477-7.9375-31.949-21.141-41.805z"/>
 <path d="m284.39 829.64c-12.727 12.738-19.453 30.277-18.512 48.258 0.94141 17.98 9.4609 34.719 23.445 46.059 13.984 11.344 32.121 16.223 49.91 13.434l5.625-0.87109c13.438-2.0508 25.863-8.375 35.43-18.031l57.754-58.047-91.828-92.531z"/>
 <path d="m734.21 635.84-106.57 107.12 93.336 93.191 106.15-107.54z"/>
 <path d="m604.08 954.58 80.672-81.727-93.477-93.34-80.555 80.977z"/>
 <path d="m462.94 651.36-80.23 80.109 91.695 92.414 80.391-80.805z"/>
 <path d="m565.4 1112.6c7.6836 13.426 21.863 21.82 37.332 22.094 15.469 0.27734 29.938-7.6094 38.09-20.758l0.59375-0.95703c5.207-8.3672 7.418-18.254 6.2734-28.043-1.1445-9.7891-5.582-18.898-12.578-25.836l-0.046875-0.046876-30.887-31.125-32.035 32.457h-0.003906c-6.625 6.7969-10.867 15.566-12.082 24.98-1.2148 9.418 0.66016 18.977 5.3438 27.234z"/>
 <path d="m1149.7 537.36-2.5586-1.9141h0.003906c-17.512-13-39.121-19.254-60.867-17.621-21.746 1.6328-42.18 11.047-57.551 26.512l-46.172 46.77-112.24-112.07 58.07-58.359c18.508-18.5 28.906-43.602 28.902-69.777-0.007813-26.172-10.414-51.27-28.934-69.766-18.516-18.492-43.625-28.871-69.801-28.844h-8.1406c-26.203-0.078124-51.352 10.324-69.844 28.887l-54.215 54.141-111.1-110.96 46.492-45.383-0.003906-0.003906c14.277-14.125 23.281-32.715 25.516-52.672 2.2383-19.961-2.4336-40.082-13.234-57.016l-0.125-0.20312v0.003906c-13.418-21.309-35.281-35.891-60.109-40.094-24.832-4.1992-50.273 2.3789-69.957 18.086-19.684 15.707-31.738 39.059-33.148 64.203-1.4141 25.141 7.957 49.695 25.758 67.504l45.453 45.383-104.64 102.15-49.977-49.906-0.003906 0.003906c-21.195-21.18-49.984-33-79.949-32.824-29.965 0.17578-58.613 12.336-79.559 33.766-20.945 21.43-32.445 50.348-31.938 80.309l0.050781 2.8125c0.48047 28.996 12.25 56.66 32.812 77.109l46.754 46.684-100.52 98.129-47.344-47.723c-17.82-18.043-42.445-27.703-67.777-26.59-25.336 1.1172-49.016 12.898-65.184 32.438-16.168 19.539-23.312 45.008-19.664 70.102 3.6484 25.098 17.746 47.477 38.805 61.605l0.26562 0.17969h0.003907c17.152 11.426 37.699 16.629 58.227 14.754 20.523-1.875 39.785-10.723 54.586-25.066l47.828-46.691 115.05 115.95-71.863 71.75v0.003907c-18.949 18.953-29.594 44.656-29.598 71.461 0 26.801 10.641 52.508 29.59 71.465 18.945 18.957 44.648 29.613 71.449 29.625 5.2344 0 10.461-0.40625 15.633-1.2109l5.625-0.87109c21.348-3.2578 41.078-13.297 56.273-28.637l67.5-67.844 113.28 114.16-42.211 42.766v-0.003906c-12.344 12.637-20.246 28.941-22.52 46.461-2.2695 17.516 1.2109 35.297 9.9219 50.668 14.125 25.02 40.496 40.637 69.227 40.996 0.5 0 1 0.015625 1.5039 0.015625 28.195 0.12891 54.414-14.48 69.141-38.527l0.58203-0.9375c9.6836-15.543 13.809-33.914 11.691-52.105-2.1133-18.191-10.344-35.125-23.336-48.031l-41.016-41.348 100.55-101.87 55.801 55.719v0.003906c21.059 21.141 49.691 32.988 79.527 32.906h1.9375c29.797 0.042968 58.391-11.762 79.48-32.812 21.09-21.055 32.941-49.625 32.949-79.426 0.007813-29.797-11.832-58.379-32.91-79.441l-57.957-57.867 102.72-104.06 49.062 48.984h0.003906c15.547 15.445 36.164 24.738 58.035 26.148 21.867 1.4102 43.508-5.1523 60.91-18.473 22.371-17.191 35.398-43.863 35.203-72.074-0.19531-28.211-13.59-54.699-36.191-71.582zm-999.23 107.96c-10.941 10.602-25.184 17.137-40.355 18.523s-30.363-2.4648-43.043-10.91l-0.26562-0.17969h-0.003906c-18.211-12.203-29.199-32.633-29.336-54.551-0.14062-21.922 10.59-42.488 28.645-54.918 12.82-8.8516 28.34-12.91 43.852-11.465 15.508 1.4414 30.016 8.2969 40.98 19.355l47.219 47.578zm646.68-347.58c14.105-14.156 33.285-22.09 53.27-22.031h8.1484c19.969-0.042969 39.129 7.8594 53.262 21.965 14.133 14.105 22.074 33.25 22.07 53.219-0.003906 19.965-7.9492 39.109-22.09 53.211l-58.066 58.359-110.79-110.62zm40.078 181.34-103.12 103.66-111.19-111.02 103.47-103.32zm-119.66 120.28-126.4 127.06-111.67-111.49 126.83-126.64zm-164.56-437.18c-11.957-11.945-18.785-28.082-19.035-44.98-0.25391-16.898 6.0898-33.23 17.684-45.527 11.594-12.297 27.523-19.59 44.406-20.336 1.0391-0.046875 2.0742-0.070312 3.1094-0.070312 22.32-0.10938 43.105 11.363 54.91 30.305l0.125 0.20312c7.9297 12.418 11.371 27.18 9.7461 41.828-1.625 14.645-8.2148 28.293-18.672 38.676l-46.613 45.504zm45.469 78.531 111.3 111.13-103.46 103.32-112.47-112.3zm-8.7578 231.01-126.82 126.65-114.09-113.92 128.26-125.21zm-304.46-50.73c-16.254-16.168-25.562-38.035-25.941-60.957l-0.050781-2.8125c-0.33203-22.402 7.8125-44.105 22.797-60.766 14.984-16.656 35.707-27.043 58.02-29.082 2.6562-0.23438 5.3008-0.35547 7.9375-0.35547v0.003906c23.52-0.007813 46.074 9.3359 62.699 25.973l49.766 49.688-128.26 125.21zm-53.82 178.04 100.6-98.203 114.28 114.11-100.01 99.859zm158.79 329.38c-11.68 11.789-26.844 19.504-43.246 22.008l-5.625 0.875c-21.73 3.4258-43.895-2.5312-60.98-16.387-17.086-13.855-27.488-34.309-28.625-56.277-1.1367-21.969 7.1016-43.391 22.668-58.934l71.809-71.703 111.59 112.46zm-27.41-196.98 100.08-99.938 111.72 111.56-100.27 100.78zm282.19 317.68v-0.003907c9.25 9.1797 15.113 21.227 16.625 34.172 1.5117 12.941-1.418 26.016-8.3086 37.078l-0.58203 0.9375c-8.6289 14.039-22.832 23.734-39.051 26.656-16.215 2.9219-32.91-1.207-45.895-11.355-12.984-10.145-21.027-25.344-22.117-41.785-1.0859-16.441 4.8867-32.57 16.422-44.336l42.02-42.57zm-40.938-74.531-113.2-114.09 100.34-100.87 113.34 113.17zm116.94-118.47-113.27-113.11 126.41-127.06 112.78 112.61zm200.35-53.227v-0.003906c16.676 16.668 26.043 39.285 26.031 62.867s-9.3984 46.191-26.094 62.844c-16.691 16.656-39.324 25.988-62.902 25.941h-1.9375c-23.625 0.066406-46.293-9.3164-62.965-26.051l-55.898-55.816 125.91-127.56zm-57.98-91.012-112.71-112.55 103.12-103.66 112.3 112.14zm273.03-49.418-0.003906-0.003906c-12.887 9.8633-28.914 14.727-45.113 13.68-16.195-1.043-31.469-7.9219-42.98-19.363l-49.152-49.086 46.262-46.875c11.387-11.453 26.52-18.426 42.625-19.633 16.105-1.2109 32.105 3.4219 45.078 13.047l2.5586 1.9141c16.73 12.488 26.641 32.094 26.785 52.969 0.14453 20.879-9.4961 40.617-26.051 53.336z"/>
</svg>
