<?xml version="1.0" encoding="UTF-8"?>
<svg width="1200pt" height="1200pt" version="1.1" viewBox="0 0 1200 1200" xmlns="http://www.w3.org/2000/svg">
 <path d="m912.82 310.92h45.617v32.832h-45.617z"/>
 <path d="m846.91 480.36h177.45v237.42h-177.45z"/>
 <path d="m815.02 790.62h241.21v39.672h-241.21z"/>
 <path d="m846.91 430.3h177.45v26.617h-177.45z"/>
 <path d="m846.91 741.21h177.45v25.965h-177.45z"/>
 <path d="m124.47 367.19h241.21v39.672h-241.21z"/>
 <path d="m469.75 790.62h241.21v39.672h-241.21z"/>
 <path d="m222.27 310.92h45.617v32.832h-45.617z"/>
 <path d="m39.844 912.52h1120.3c1.293 0 2.3438 1.293 2.3438 2.3438v51.215c0 1.293-1.0508 2.3438-2.3438 2.3438h-1120.3c-1.293 0-2.3438-1.293-2.3438-2.3438v-51.215c0-1.293 1.0508-2.3438 2.3438-2.3438z"/>
 <path d="m469.75 367.19h241.21v39.672h-241.21z"/>
 <path d="m567.55 310.92h45.617v32.832h-45.617z"/>
 <path d="m815.02 367.19h241.21v39.672h-241.21z"/>
 <path d="m912.82 853.73h45.617v35.352h-45.617z"/>
 <path d="m124.47 790.62h241.21v39.672h-241.21z"/>
 <path d="m156.36 430.3h177.45v26.617h-177.45z"/>
 <path d="m156.36 741.21h177.45v25.965h-177.45z"/>
 <path d="m222.27 853.73h45.617v35.352h-45.617z"/>
 <path d="m333.8 480.36h-177.45v237.42h177.45zm-134.59 189.46c0 6.4727-5.2461 11.719-11.719 11.719s-11.719-5.2461-11.719-11.719v-111.82c0-6.4727 5.2461-11.719 11.719-11.719s11.719 5.2461 11.719 11.719zm0-152.52c0 6.4727-5.2461 11.719-11.719 11.719s-11.719-5.2461-11.719-11.719v-6.3281c0-6.4727 5.2461-11.719 11.719-11.719s11.719 5.2461 11.719 11.719z"/>
 <path d="m39.844 231.59h1120.3c1.293 0 2.3438 1.293 2.3438 2.3438v51.211c0 1.293-1.0508 2.3438-2.3438 2.3438h-1120.3c-1.293 0-2.3438-1.293-2.3438-2.3438v-51.211c0-1.293 1.0508-2.3438 2.3438-2.3438z"/>
 <path d="m501.63 741.21h177.45v25.965h-177.45z"/>
 <path d="m501.63 430.3h177.45v26.617h-177.45z"/>
 <path d="m567.55 853.73h45.617v35.352h-45.617z"/>
 <path d="m501.63 480.36h177.45v237.42h-177.45z"/>
</svg>
