<?xml version="1.0" encoding="UTF-8"?>
<svg width="1200pt" height="1200pt" version="1.1" viewBox="0 0 1200 1200" xmlns="http://www.w3.org/2000/svg">
 <path d="m882.28 422.81c12-9.1406 25.219-16.734 39-22.781 61.359-26.859 58.594 1.7812 52.781 7.7344-18.656 19.125-54.234 2.8125-120.61 77.016-3.8438 4.3125-9 6.4219-13.078 10.125-9.0938 8.3906-16.5-27.562 41.906-72.094zm-265.69 151.03 88.078-60.375c40.5-32.719 115.03-91.594 81.328-151.5-30.703-54.656-91.453-22.406-130.36 2.1094-9 5.5781-17.766 11.812-24.797 19.594-38.344-46.922-105.42-56.672-139.87-21.375-23.25 23.766-22.5 64.172-13.219 93.797 19.969 64.078 79.688 97.312 138.84 117.75zm-356.53-132c0.23437 36.141 42.422 18.328 95.156 49.406 2.6719 1.5938 40.875 27.516 37.641 14.016-3.3281-14.109-1.875-17.812-16.453-31.781-33.141-31.734-68.344-29.578-103.59-41.297-6.1875-2.0625-12.75 3.4219-12.75 9.6562zm351.32 164.29c-7.9219-0.9375-12.562-6.7969-11.531-13.922-29.906-4.5469-63.188-20.25-87.234-37.781l-149.9 45.281c100.03 14.297 201 35.484 294.32 74.859 69.562-43.781 165.74-79.266 243.71-104.72l-94.547-11.391-89.578-16.781c-15 11.812-86.344 66.703-105.23 64.453zm-361.45-280.4c9.9375-30.656 53.812-108.42 31.031-141.19-18.891-27.141-67.031-3.2812-68.484 36.656-60-36.938-74.766 27.562-67.359 46.359 10.594 26.859 54.891 37.359 80.859 48 8.1562 3.375 15.938 7.0312 23.953 10.172zm548.16 307.92-115.5 48.094c26.906 21.094 50.203 47.859 69.891 75.609 92.156-47.203 158.53-69.047 253.03-100.5-24.984-26.672-35.062-35.391-55.453-70.359-61.969 18.234-85.5 22.125-151.97 47.156zm-220.97 84.422c9.8438-12.422 20.719-24.422 32.438-35.391-107.44-39.703-187.31-49.266-293.39-70.219-4.6406-0.89062-9.2812-1.875-13.828-2.9062-16.266 23.156-56.859 65.438-76.312 85.734 107.62 19.172 171.89 30.281 289.55 60.047 43.312 10.922 21 13.641 61.547-37.266zm477.61-521.58c-7.4531-15.328-33.141-17.062-50.391-10.266-5.1562 2.0156-10.078 5.0625-15.234 7.3125 0.1875-11.25 1.8281-28.125-10.078-33.891-14.859-7.3125-31.078 6.0938-36.703 19.219-12.609 29.672-6.6094 61.922 2.2969 92.109 35.859-5.6719 126.14-41.578 110.11-74.484zm-299.95 587.48c-6.2344 2.9062-13.078 1.5938-16.922-4.4531-25.875-40.688-44.062-57.234-74.156-89.484-2.1562 0.9375-4.3594 1.8281-6.5156 2.625l0.375 66.609-3.2344 258.98c0 3.5625 0.09375 7.3594 0.28125 11.297l289.36-114.84c31.922-12.469 26.109-0.75 26.297-62.062l0.60938-156.79c-71.906 24.047-147.79 56.25-216.1 88.125zm-171.24-30.984c-7.4531 10.875-13.266 25.266-25.266 31.828-14.578 7.9219-33.094-0.1875-47.672-3.8906l-223.78-52.453 18.375 196.03c2.625 9.75 11.062 13.031 19.875 16.453 96.328 37.125 184.64 43.5 280.55 97.547 6.8906 3.8906 10.594 5.0625 17.766 2.7656l4.0781-76.781c2.5781-56.672 6.0469-225.84 11.719-270.24l-1.4062-0.5625c-19.453 16.781-39.422 37.688-54.234 59.297z"/>
</svg>
