<?xml version="1.0" encoding="UTF-8"?>
<svg width="1200pt" height="1200pt" version="1.1" viewBox="0 0 1200 1200" xmlns="http://www.w3.org/2000/svg">
 <path d="m1143.8 56.25h-487.5v-56.25h-112.5v56.25h-487.5c-10.312 0-18.75 8.4375-18.75 18.75v712.5c0 10.312 8.4375 18.75 18.75 18.75h206.25v56.25c0 10.312 8.4375 18.75 18.75 18.75h86.625l-105.38 281.25h112.5l105.38-281.25h63.375v318.75h112.5v-318.75h63.375l105.38 281.25h112.5l-105.38-281.25h86.625c10.312 0 18.75-8.4375 18.75-18.75v-56.25h206.25c10.312 0 18.75-8.4375 18.75-18.75v-712.5c0-10.312-8.4375-18.75-18.75-18.75zm-900 712.5v-56.25h187.5v56.25zm0-93.75v-18.75c0-10.312 8.4375-18.75 18.75-18.75h150c10.312 0 18.75 8.4375 18.75 18.75v18.75zm656.25 168.75h-600v-37.5h600zm225-75h-656.25v-37.5h600c10.312 0 18.75-8.4375 18.75-18.75v-562.5c0-10.312-8.4375-18.75-18.75-18.75h-937.5c-10.312 0-18.75 8.4375-18.75 18.75v562.5c0 10.312 8.4375 18.75 18.75 18.75h75v37.5h-131.25v-675h1050z"/>
</svg>
