<?xml version="1.0" encoding="UTF-8"?>
<svg width="1200pt" height="1200pt" version="1.1" viewBox="0 0 1200 1200" xmlns="http://www.w3.org/2000/svg">
 <path d="m1038.1 275.48c-31.031 9.5898-60.602 18.938-92.605 27.527 0.22656-11.172-0.32422-27.098 0-34.656-82.691-9.5898-176.27-19.223-261.68-27.961-12.949-1.332-27.371-0.55078-38.027-3.3477-7.8711-2.0898-14.387-10.344-23.473-13.441-23.125-7.8125-76.715-3.4453-77.172 19.02-0.44531 21.551 40.895 27.133 67.105 22.355 10.453-1.8828 18.637-8.9141 26.832-10.043 9.5625-1.332 24.059 2.1367 36.91 3.3477 81.277 7.7773 169.74 18.527 250.48 25.703v25.754c-97.57 27.719-195.93 58.285-295.22 88.332-13.645 4.1172-31.691 11.953-42.492 12.301-13.766 0.44531-38.219-11.508-54.805-16.789-124.51-39.434-249.89-80.352-373.5-119.63v-45.863c140.95-38.34 285.93-74.051 424.93-111.83 14.711-3.9961 43.934 7.3086 62.629 12.301 126.66 33.926 263.64 70.789 390.27 103.99z" fill-rule="evenodd"/>
 <path d="m943.25 318.49h2.2422v79.379c19.211 6.3125 31.523 37.621 14.531 54.781 30.828 9.4062 15.266 65.219 19.008 101.73-24.742 10.512-62.734 9.9258-88.355 0 3.707-36.191-11.641-91.391 19.02-100.62-15.336-17.664-5.8672-52.199 16.777-54.793v-74.914c4.9219-2.543 11.715-3.1914 16.777-5.5664z" fill-rule="evenodd"/>
 <path d="m843.74 368.99c-87.121 23.965-171.49 50.676-257.22 76.031-87.84-28.812-176.38-56.953-265.03-84.984-1.2969 0.17969-1.2109 1.7773-1.1055 3.3477-0.046875 74.914 0.085937 146.41 0 219.13 95.305 85.332 343.79 103.82 474.14 34.68 14.387-7.6328 47.734-25.152 49.223-36.91l0.003906-211.3z" fill-rule="evenodd"/>
 <path d="m598.81 1088c-182.64-85.715-367.44-169.31-551.32-253.84-39.254-38.398-41.879-143.47-8.9414-191.24 81.684-37.969 163.46-75.828 246.02-112.91 1.0195 21.852-4.332 47.387 0 68.184 2.9648 14.172 44.508 33.938 58.152 41.398 62.172 33.898 149.43 57.035 239.3 57.035 134.36 0 234.59-34.055 297.46-97.297v-15.648c41.242 16.547 104.03 8.1133 136.43-10.066v-80.496c54.047 29.074 107 59.242 161.03 88.32-198 97.621-397.64 193.55-596.03 290.75-170.75-71.16-340.08-143.77-509.92-215.83-31.512 30.805-31.285 117.39-4.4766 153.2 162.96 74.074 519.54 240.37 525.57 240.42 6.8867 0.046875 26.594-12.445 36.91-17.879 175.86-92.867 356.27-185.27 532.29-277.33 4.2969-1.2969 1.3906-9.7812 2.2578-14.555 5.9766 4.8477 13.871 7.7539 18.984 13.441 0.875 8.6992-1.7031 13.957-1.1172 22.367z" fill-rule="evenodd"/>
 <path d="m581.64 923.47-502.75-222.5-1.2812-9.3359 502.74 222.5z" fill-rule="evenodd"/>
 <path d="m585.7 970.79-502.74-222.5-1.2852-9.3242 502.74 222.49z" fill-rule="evenodd"/>
 <path d="m588.39 1015.1-502.74-222.49-1.2852-9.3359 502.74 222.49z" fill-rule="evenodd"/>
</svg>
