<?xml version="1.0" encoding="UTF-8"?>
<svg width="1200pt" height="1200pt" version="1.1" viewBox="0 0 1200 1200" xmlns="http://www.w3.org/2000/svg">
 <path d="m427.36 779.36h-13.297c-22.336 17.309-48.41 29.156-76.137 34.605-18.582 3.8203-35.977 12.023-50.746 23.93h78.113z"/>
 <path d="m745.94 780.84-43.992 57.051h98.992z"/>
 <path d="m374.8 1146.1c5.4141-0.027344 9.793-4.4258 9.793-9.8438v-60.156h-19.59v60.156c0 5.418 4.3789 9.8164 9.7969 9.8438z"/>
 <path d="m935.06 861.33h-670.12c-5.4258 7.4883-9.9766 15.574-13.566 24.094h697.27c-3.5938-8.5195-8.1484-16.605-13.578-24.094z"/>
 <path d="m439.38 755.92h321.23c-6.5352-6.957-12.621-14.328-18.215-22.062h-284.8c-5.5938 7.7344-11.68 15.105-18.215 22.062z"/>
 <path d="m408.04 1076.1h383.93v41.5h-383.93z"/>
 <path d="m717.48 779.36h-90.301l46.391 56.945z"/>
 <path d="m498.3 837.89-38.449-56.965-60.406 56.965z"/>
 <path d="m570.52 779.36h-83.441l38.941 57.703z"/>
 <path d="m598.57 781.35-43.602 56.535h89.668z"/>
 <path d="m362.16 1052.7h475.68c36-0.054688 70.09-16.215 92.922-44.051 22.832-27.84 32.012-64.43 25.02-99.75h-711.56c-6.9922 35.32 2.1875 71.914 25.02 99.75 22.832 27.836 56.926 43.996 92.926 44.051zm497.64-113.79h0.003906c10.398-0.019531 20.375 4.0938 27.738 11.438 7.3672 7.3438 11.508 17.312 11.52 27.711 0.011719 10.398-4.1094 20.375-11.457 27.734s-17.316 11.496-27.715 11.5c-10.398 0.003906-20.375-4.125-27.73-11.477-7.3516-7.3516-11.484-17.324-11.48-27.723 0.003906-10.379 4.125-20.336 11.461-27.68 7.332-7.3477 17.281-11.484 27.664-11.504zm-130.38 0c10.398-0.019531 20.379 4.0938 27.742 11.438s11.508 17.312 11.52 27.711c0.011719 10.398-4.1094 20.375-11.457 27.734s-17.32 11.496-27.719 11.5-20.371-4.125-27.727-11.477c-7.3516-7.3516-11.484-17.324-11.48-27.723 0.003906-10.379 4.125-20.336 11.457-27.684 7.3359-7.3438 17.285-11.48 27.664-11.5zm-130.38 0h0.003907c10.398-0.019531 20.375 4.0977 27.738 11.441 7.3594 7.3438 11.504 17.312 11.512 27.711 0.011718 10.398-4.1094 20.375-11.457 27.73-7.3477 7.3594-17.32 11.496-27.719 11.5-10.398 0.003906-20.371-4.125-27.727-11.477-7.3516-7.3516-11.48-17.324-11.48-27.723 0.003906-10.383 4.1289-20.34 11.469-27.688 7.3359-7.3438 17.289-11.48 27.672-11.496zm-130.38 0h0.003906c10.398-0.019531 20.379 4.0938 27.742 11.438s11.504 17.312 11.516 27.711c0.011718 10.398-4.1094 20.375-11.457 27.734-7.3477 7.3594-17.316 11.496-27.715 11.5-10.398 0.003906-20.375-4.125-27.727-11.477-7.3555-7.3516-11.484-17.324-11.484-27.723 0.003907-10.379 4.125-20.336 11.461-27.68 7.3359-7.3477 17.281-11.484 27.664-11.504zm-130.38 0h0.003906c10.398-0.019531 20.375 4.0938 27.738 11.438 7.3672 7.3438 11.508 17.312 11.52 27.711 0.011718 10.398-4.1094 20.375-11.457 27.734-7.3477 7.3594-17.316 11.496-27.715 11.5-10.398 0.003906-20.375-4.125-27.73-11.477-7.3516-7.3516-11.484-17.324-11.48-27.723 0.003907-10.379 4.125-20.336 11.461-27.68 7.332-7.3477 17.281-11.484 27.664-11.504z"/>
 <path d="m729.43 993.81c4.1836 0.019531 8.2031-1.6289 11.168-4.5742 2.9688-2.9453 4.6445-6.9531 4.6562-11.137 0.011719-4.1797-1.6406-8.1953-4.5898-11.16-2.9531-2.9648-6.9609-4.6328-11.141-4.6367-4.1836-0.007812-8.1953 1.6484-11.156 4.6055-2.9609 2.9531-4.6211 6.9648-4.6211 11.148-0.007813 4.168 1.6406 8.168 4.582 11.121s6.9336 4.6211 11.102 4.6328z"/>
 <path d="m825.2 1146.1c5.418-0.027344 9.7969-4.4258 9.7969-9.8438v-60.156h-19.59v60.156c0 5.418 4.3789 9.8164 9.793 9.8438z"/>
 <path d="m859.81 993.81c4.1797 0.019531 8.1992-1.6289 11.168-4.5742 2.9648-2.9453 4.6406-6.9531 4.6523-11.137 0.011719-4.1797-1.6367-8.1953-4.5898-11.16-2.9492-2.9648-6.9609-4.6328-11.141-4.6367-4.1836-0.007812-8.1953 1.6484-11.156 4.6055-2.957 2.9531-4.6211 6.9648-4.6211 11.148-0.003906 4.168 1.6445 8.168 4.5859 11.121 2.9414 2.9531 6.9336 4.6211 11.102 4.6328z"/>
 <path d="m912.82 837.89c-14.766-11.906-32.164-20.109-50.742-23.926-27.727-5.4492-53.801-17.301-76.137-34.605h-8.8789l56.43 58.531z"/>
 <path d="m472.28 710.42h255.44c-6.4414-12.008-11.633-24.645-15.484-37.719h-224.47c-3.8516 13.074-9.043 25.711-15.484 37.719z"/>
 <path d="m706.86 649.26c-2.8984-17.266-3.4375-34.852-1.5938-52.266h-210.53c1.8438 17.414 1.3047 35-1.5938 52.266z"/>
 <path d="m599.06 993.81c4.1797 0.015625 8.1953-1.6367 11.16-4.582 2.9648-2.9492 4.6367-6.9531 4.6445-11.137 0.011718-4.1797-1.6406-8.1953-4.5938-11.156-2.9492-2.9609-6.957-4.6289-11.137-4.6328-4.1836-0.007812-8.1953 1.6484-11.152 4.6016-2.9609 2.9531-4.625 6.9648-4.625 11.145-0.007813 4.1719 1.6445 8.1758 4.5898 11.133 2.9453 2.9531 6.9414 4.6211 11.113 4.6289z"/>
 <path d="m353.98 978.05c0 8.6992-7.0234 15.754-15.684 15.754-8.6641 0-15.688-7.0547-15.688-15.754 0-8.7031 7.0234-15.754 15.688-15.754 8.6602 0 15.684 7.0508 15.684 15.754z"/>
 <path d="m468.68 993.81c4.1797 0.019531 8.1992-1.6289 11.168-4.5742s4.6406-6.9531 4.6523-11.137c0.011718-4.1797-1.6367-8.1953-4.5898-11.16-2.9492-2.9648-6.957-4.6328-11.141-4.6367-4.1836-0.007812-8.1953 1.6484-11.156 4.6055-2.957 2.9531-4.6211 6.9648-4.6211 11.148-0.003906 4.168 1.6445 8.168 4.5859 11.121 2.9414 2.9531 6.9336 4.6211 11.102 4.6328z"/>
 <path d="m396.98 302.22c1.9492 6.4961 5.9141 12.211 11.316 16.312 5.4062 4.1055 11.973 6.3867 18.758 6.5195l63.496 209.86h-104.67c-5.0117 0.003906-9.8125 1.9961-13.355 5.543-3.543 3.543-5.5352 8.3438-5.543 13.355v0.85547c0.007812 5.0078 2 9.8125 5.543 13.355 3.543 3.543 8.3477 5.5352 13.355 5.543h430.61c5.0117-0.007812 9.8164-2 13.359-5.543 3.543-3.543 5.5352-8.3477 5.543-13.355v-0.85547c-0.007813-5.0117-2-9.8125-5.543-13.355-3.543-3.5469-8.3477-5.5391-13.359-5.543h-101.25l62.789-207.49c6.9062 0.003906 13.633-2.2148 19.18-6.3359 5.5469-4.1172 9.6172-9.9141 11.613-16.527l56.77-187.62c2.4688-8.168 1.6055-16.98-2.4062-24.512-4.0117-7.5312-10.844-13.164-19-15.672l-2.9062-0.88281c-8.1523-2.4727-16.957-1.5977-24.465 2.4297s-13.105 10.875-15.559 19.035l-56.77 187.62v0.003907c-1.8945 6.2891-1.8281 13.008 0.19531 19.258 2.0234 6.2461 5.9023 11.73 11.125 15.719l-65.039 214.97h-76.148v-222.51c6.4023-2.3086 11.941-6.5312 15.859-12.098 3.918-5.5664 6.0273-12.207 6.0391-19.012v-194.27c-0.011719-8.7773-3.5-17.195-9.707-23.402-6.207-6.2031-14.621-9.6953-23.398-9.707h-1.0234c-8.7773 0.011719-17.191 3.5-23.398 9.707s-9.6992 14.625-9.707 23.402v194.27c0.011719 6.8047 2.1211 13.445 6.0391 19.012 3.918 5.5664 9.4531 9.7891 15.859 12.098v222.51h-76.148l-65.625-216.88v-0.003906c5.4102-3.9414 9.457-9.4688 11.59-15.812 2.1328-6.3438 2.2383-13.195 0.30859-19.602l-56.762-187.62c-2.4297-8.1758-8.0273-15.039-15.543-19.07-7.5117-4.0312-16.328-4.8945-24.48-2.3945l-2.9102 0.88281c-8.1562 2.5039-14.988 8.1406-19 15.672-4.0078 7.5312-4.875 16.344-2.4023 24.512z"/>
</svg>
