<?xml version="1.0" encoding="UTF-8"?>
<svg width="1200pt" height="1200pt" version="1.1" viewBox="0 0 1200 1200" xmlns="http://www.w3.org/2000/svg">
 <path d="m722.53 457.45h-36.75c-50.625 0-92.203 39.234-96 88.875h36.75c50.625 0 92.203-39.234 96-88.875z"/>
 <path d="m765.1 835.82 185.63-173.48c0.32813-0.32812 0.65625-0.60938 0.98438-0.9375-19.219-8.0156-41.953-4.0312-57.422 11.438l-0.28125 0.28125-143.76 134.34c6.9844 8.0625 12.188 17.719 14.859 28.359z"/>
 <path d="m530.26 546.32h36.75c-3.7969-49.641-45.422-88.875-96-88.875h-36.75c3.75 49.641 45.375 88.875 96 88.875z"/>
 <path d="m863.76 671.02c-18.281-5.7188-38.906-1.125-53.016 12.984l-0.28125 0.28125-106.31 99.375c10.5 0.98438 20.297 4.3594 28.969 9.5156z"/>
 <path d="m143.86 912.71 164.68 164.68 73.031-34.359-183.98-184.03z"/>
 <path d="m1003.5 662.81c-9.5625 0-18.75 2.5312-26.766 7.3125 0 0-0.046875 0-0.046875 0.046875-3.75 2.2031-7.2188 4.9219-10.359 8.0625l-0.28125 0.28125-199.87 186.79c-2.3438 13.125-8.3906 25.453-17.719 35.438-13.219 14.156-31.688 22.125-50.953 22.125-1.0312 0-2.0156 0-3.0469-0.046876l-225.47-9.8906c-6.1406-0.28125-10.875-5.4375-10.594-11.578 0.28125-6.1406 5.4844-10.828 11.578-10.594l225.47 9.8906c13.875 0.60937 27.281-4.875 36.797-15.047 6.9375-7.4531 11.25-16.781 12.469-26.719v-11.625c-2.7656-22.219-20.812-39.656-43.125-41.531-0.09375 0-0.1875 0-0.28125-0.046874l-320.53-35.203c-54.188-5.9531-107.34 12.75-145.87 51.281l-21.562 21.562 192.05 192.05 294.84 7.875c30.703 1.1719 60.656-10.594 82.266-32.25l258.28-258.32c20.531-20.531 20.531-53.906 0-74.438-9.9844-9.9375-23.203-15.422-37.266-15.422z"/>
 <path d="m702.1 246.32c0-68.203-55.5-123.71-123.71-123.71-68.203 0-123.71 55.5-123.71 123.71s55.5 123.71 123.71 123.71c68.203 0 123.71-55.5 123.71-123.71zm-134.81 66.656v-11.109h-11.109c-6.1406 0-11.109-4.9688-11.109-11.109s4.9688-11.109 11.109-11.109h33.328v-22.219h-33.328c-6.1406 0-11.109-4.9688-11.109-11.109v-44.438c0-6.1406 4.9688-11.109 11.109-11.109h11.109v-11.109c0-6.1406 4.9688-11.109 11.109-11.109 6.1406 0 11.109 4.9688 11.109 11.109v11.109h11.109c6.1406 0 11.109 4.9688 11.109 11.109s-4.9688 11.109-11.109 11.109h-33.328v22.219h33.328c6.1406 0 11.109 4.9688 11.109 11.109v44.438c0 6.1406-4.9688 11.109-11.109 11.109h-11.109v11.109c0 6.1406-4.9688 11.109-11.109 11.109-6.1406 0-11.109-4.9688-11.109-11.109z"/>
 <path d="m567 390.42h22.781v221.76h-22.781z"/>
</svg>
