<?xml version="1.0" encoding="UTF-8"?>
<svg width="1200pt" height="1200pt" version="1.1" viewBox="0 0 1200 1200" xmlns="http://www.w3.org/2000/svg">
 <path d="m99.551 1059.3 87-160.07v0.003906c2.2734 6.1758 7.6445 10.691 14.121 11.863 6.7773 1.3125 13.559 2.4375 20.527 3.3867l-88.504 162.89c-1.6406 2.9609-4.043 5.4297-6.957 7.1523-2.9102 1.7188-6.2305 2.6328-9.6172 2.6406-3.1484-0.007813-6.25-0.78125-9.0391-2.25-4.3672-2.4258-7.6055-6.4688-9.0156-11.262-1.4102-4.7969-0.87891-9.9492 1.4844-14.355zm122.97-226.36c15.441-28.059 32.953-58 52.539-89.074 0.5625-0.9375 1.125-1.875 1.6875-2.6367 38.742-60.992 80.605-119.95 125.42-176.64-0.49219-1.2695-0.80469-2.6016-0.9375-3.957l-5.0859-159.5c-0.21484-4.9961 1.5703-9.875 4.9648-13.551 3.3945-3.6797 8.1133-5.8477 13.113-6.0312 5.0703-0.37109 10.062 1.3906 13.777 4.8594 3.7188 3.4648 5.8203 8.3242 5.8086 13.406l3.7656 120.71c165.91-200.56 388.69-399.61 627.29-483.03-185.86 15.629-568.15 81.352-739.52 355.35-127.69 204.51-121.84 380.4-111.11 455.35zm320.51-133.14-238.41 68.168c-18.266 29-34.84 57.059-48.961 83.047l-15.254 28.246c201.88 26.93 449.13-28.625 525.59-273.43 59.133-189.07 244.06-428.61 336.71-541.03-160.45 50.281-316.56 158.75-452.71 286.24l128.62-38.98v-0.003906c6.4297-1.8594 13.367-0.17188 18.227 4.4258 4.8633 4.6016 6.9258 11.434 5.4258 17.957-1.5039 6.5234-6.3438 11.766-12.73 13.777l-197.92 59.695c-94.316 96.066-179.78 200.44-255.36 311.85l196.61-56.305c6.4922-1.8164 13.461-0.03125 18.281 4.6797 4.8164 4.7148 6.7578 11.645 5.082 18.176-1.6719 6.5312-6.7031 11.672-13.195 13.488zm251.03 425.03h-677.94c-5.0273-0.050782-9.8633 1.9141-13.438 5.4492-3.5703 3.5391-5.582 8.3555-5.582 13.383 0 5.0273 2.0117 9.8477 5.582 13.383 3.5742 3.5391 8.4102 5.5 13.438 5.4492h677.94c5.0273 0.050781 9.8672-1.9102 13.438-5.4492 3.5742-3.5352 5.582-8.3555 5.582-13.383 0-5.0273-2.0078-9.8438-5.582-13.383-3.5703-3.5352-8.4102-5.5-13.438-5.4492z"/>
</svg>
