<?xml version="1.0" encoding="UTF-8"?>
<svg width="1200pt" height="1200pt" version="1.1" viewBox="0 0 1200 1200" xmlns="http://www.w3.org/2000/svg">
 <path d="m951.09 883.59c0-40.078-35.625-77.109-100.31-104.77-6.0938-2.3438-12.891 0.46875-15.234 6.3281s0.23438 12.656 6.0938 15.234c54.844 23.203 86.25 53.672 86.25 83.203 0 60.938-135.47 126.33-337.03 126.33s-337.27-65.391-337.27-126.33c0-34.219 42.188-69.141 112.73-93.281 6.0938-2.1094 9.375-8.6719 7.5-14.766-2.1094-6.0938-8.6719-9.375-14.766-7.5h-0.23438c-82.969 28.359-128.67 69.375-128.67 115.55 0 41.953 38.906 80.625 109.45 108.52 67.266 26.484 156.33 41.25 250.78 41.25s183.75-14.766 250.78-41.25c71.016-27.891 109.92-66.562 109.92-108.52z"/>
 <path d="m393.28 1126.6h-0.23438c-212.58-38.438-355.55-132.89-355.55-235.08 0-95.859 125.16-185.16 318.75-227.58 6.3281-1.4062 10.312-7.5 8.9062-13.828s-7.5-10.312-13.828-8.9062c-98.203 21.562-181.64 55.312-240.94 97.734-62.812 45-96.094 97.734-96.094 152.81 0 115.78 147.19 217.03 375 258.05 6.3281 1.1719 12.422-3.0469 13.594-9.375 0.9375-6.5625-3.0469-12.656-9.6094-13.828z"/>
 <path d="m1098.8 745.31c-53.672-41.016-130.08-74.531-220.31-97.5-6.3281-1.6406-12.656 2.1094-14.297 8.4375s2.1094 12.656 8.4375 14.297c178.83 45.234 289.92 129.84 289.92 220.78 0 97.969-128.67 187.97-327.89 229.69-6.3281 1.4062-10.312 7.5-9.1406 13.828 1.4062 6.3281 7.5 10.312 13.828 9.1406 100.78-21.094 186.33-54.844 247.5-97.734 64.688-45.469 99.141-98.906 99.141-154.69 0-52.266-30.234-102.89-87.188-146.25z"/>
 <path d="m502.03 835.31c61.875 30.234 134.06 30.234 195.94 0 46.875-22.734 75.938-57.188 86.484-102.42 33.75-145.55-127.73-367.03-178.12-431.48-2.3438-3.5156-7.2656-4.2188-10.547-1.875-0.70312 0.46875-1.1719 1.1719-1.875 1.875-50.391 64.453-211.88 285.94-178.12 431.48 10.312 45.234 39.375 79.688 86.25 102.42zm116.95-49.219c52.969 0 95.859-42.891 95.859-95.859 0-6.5625 5.1562-11.719 11.719-11.719s11.719 5.1562 11.719 11.719c0 65.859-53.438 119.3-119.3 119.3-6.5625 0-11.719-5.1562-11.719-11.719s5.3906-11.719 11.719-11.719z"/>
 <path d="m693.28 227.34c20.391 9.8438 44.062 9.8438 64.453 0 15-7.2656 23.906-17.812 27.188-32.109 2.8125-12.188 6.7969-58.594-59.297-145.08-66.094 86.484-62.344 132.89-59.297 145.08 2.8125 14.297 11.719 24.844 26.953 32.109z"/>
</svg>
