<?xml version="1.0" encoding="UTF-8"?>
<svg width="1200pt" height="1200pt" version="1.1" viewBox="0 0 1200 1200" xmlns="http://www.w3.org/2000/svg">
 <path d="m1166.4 494.39c-21.609-45.609-44.391-92.391-66-138-10.781-24-22.781-49.219-33.609-73.219-7.2188-15.609-19.219-19.219-33.609-9.6094-27.609 19.219-112.78 78-160.78 78-25.219 0-50.391-3.6094-75.609-9.6094-15.609-4.7812-31.219-9.6094-46.781-15.609-24-9.6094-48-19.219-69.609-20.391-16.781 0-26.391 1.2188-36 9.6094l-2.3906 2.3906-19.219 18-75.609 68.391c-1.2188 1.2188-2.3906 2.3906-3.6094 4.7812-1.2188 1.2188-3.6094 2.3906-4.7812 3.6094l-75.562 67.266-6 6c-2.3906 2.3906-3.6094 6-4.7812 9.6094-4.7812 22.781 19.219 55.219 42 58.781 30 4.7812 57.609 0 81.609-18 14.391-10.781 31.219-22.781 46.781-34.781 4.7812-3.6094 9.6094-7.2188 13.219-10.781 0 0 1.2188 0 1.2188-1.2188 4.7812-3.6094 8.3906-7.2188 13.219-9.6094 13.219-8.3906 27.609-12 43.219-12 7.2188 0 14.391 1.2188 21.609 2.3906 10.781 2.3906 21.609 8.3906 30 15.609l1.2188 1.2188c1.2188 1.2188 2.3906 2.3906 4.7812 3.6094l1.2188 1.2188c3.6094 2.3906 7.2188 6 10.781 9.6094 9.6094 9.6094 19.219 19.219 27.609 28.781l33.609 33.609c1.2188 1.2188 2.3906 2.3906 3.6094 4.7812 1.2188 1.2188 2.3906 2.3906 4.7812 3.6094l103.22 103.22c9.6094 4.7812 19.219 3.6094 28.781-4.7812 15.609-13.219 39.609-31.219 55.219-44.391 22.781-18 115.22-84 138-102 11.859-7.2656 14.25-16.875 8.25-30.094z"/>
 <path d="m350.39 608.39c-15.609-15.609-42-15.609-57.609 0l-72 72c-15.609 15.609-15.609 42 0 57.609s42 15.609 57.609 0l72-72c15.609-15.609 15.609-40.781 0-57.609z"/>
 <path d="m435.61 673.22c-15.609-15.609-42-15.609-57.609 0l-72 72c-15.609 15.609-15.609 42 0 57.609s42 15.609 57.609 0l72-72c15.609-14.438 15.609-40.828 0-57.609z"/>
 <path d="m525.61 727.22c-15.609-15.609-42-15.609-57.609 0l-72 72c-15.609 15.609-15.609 42 0 57.609s42 15.609 57.609 0l72-72c15.609-15.609 15.609-42.047 0-57.609z"/>
 <path d="m618 842.39c8.3906-12 9.6094-27.609 3.6094-42-2.3906-3.6094-4.7812-7.2188-8.3906-10.781-3.6094-3.6094-7.2188-6-10.781-8.3906-12-6-27.609-6-39.609 2.3906-2.3906 1.2188-4.7812 3.6094-7.2188 6l-72 72c-15.609 15.609-15.609 42 0 57.609s42 15.609 57.609 0l72-72c1.1719-1.2188 3.5625-3.6094 4.7812-4.8281z"/>
 <path d="m828 603.61c-1.2188-1.2188-1.2188-2.3906-2.3906-2.3906l-18-18-22.781-24-49.219-49.219c-3.6094-3.6094-7.2188-6-12-8.3906-4.7812-3.6094-10.781-4.7812-16.781-6-3.6094-1.2188-8.3906-1.2188-12-1.2188-9.6094 0-20.391 2.3906-28.781 7.2188-2.3906 1.2188-3.6094 2.3906-6 3.6094s-3.6094 3.6094-6 4.7812c0 0-1.2188 0-1.2188 1.2188-4.7812 4.7812-10.781 8.3906-15.609 13.219-4.7812 3.6094-10.781 8.3906-15.609 12-3.6094 2.3906-6 4.7812-9.6094 7.2188-14.391 10.781-31.219 20.391-46.781 27.609-52.781 26.391-106.78 14.391-138-40.781-1.2188-2.3906-2.3906-4.7812-3.6094-6-1.2188-2.3906-2.3906-6-2.3906-8.3906-2.3906-16.781 3.6094-36 15.609-46.781 33.609-32.391 68.391-64.781 102-96 13.219-12 25.219-24 38.391-36l9.6094-9.6094c-9.6094-8.3906-20.391-9.6094-31.219-10.781h-3.6094c-42-1.2188-81.609 7.2188-122.39 16.781-1.2188 0-3.6094 1.2188-4.7812 1.2188-1.2188 0-2.3906 0-2.3906 1.2188-4.7812 2.3906-10.781 3.6094-15.609 4.7812-2.3906 0-3.6094 1.2188-6 1.2188-10.781 3.6094-22.781 6-33.609 8.3906-16.781 2.3906-32.391 2.3906-42 1.2188-19.219-1.2188-43.219-9.6094-68.391-21.609-38.391-19.219-75.609-44.391-92.391-56.391-7.2188-4.7812-13.219-6-18-4.7812-6 1.2188-10.781 6-14.391 14.391-10.781 24-21.609 49.219-33.609 73.219-21.609 45.609-44.391 92.391-66 138-6 13.219-3.6094 22.781 7.2188 31.219 24 18 115.22 84 138 102 3.6094 2.3906 7.2188 6 12 9.6094l1.2188 1.2188c7.2188 6 14.391 10.781 19.219 14.391l62.391-62.391c12-12 28.781-19.219 46.781-19.219 13.219 0 25.219 3.6094 37.219 10.781 3.6094 2.3906 7.2188 4.7812 10.781 8.3906 1.2188 1.2188 2.3906 2.3906 3.6094 4.7812 1.2188 1.2188 1.2188 2.3906 2.3906 3.6094 1.2188 1.2188 1.2188 2.3906 2.3906 3.6094 1.2188 1.2188 1.2188 3.6094 2.3906 4.7812 0 0 0 1.2188 1.2188 1.2188 0 1.2188 1.2188 2.3906 1.2188 3.6094s1.2188 2.3906 1.2188 3.6094 1.2188 2.3906 1.2188 2.3906c1.2188 1.2188 1.2188 3.6094 1.2188 4.7812 0 1.2188 1.2188 2.3906 1.2188 4.7812s0 3.6094 1.2188 6v6h1.2188c1.2188 0 3.6094-1.2188 4.7812-1.2188 1.2188 0 3.6094-1.2188 4.7812-1.2188h15.609c3.6094 0 7.2188 1.2188 12 2.3906 4.7812 1.2188 10.781 3.6094 15.609 7.2188 1.2188 1.2188 2.3906 1.2188 3.6094 2.3906 1.2188 1.2188 2.3906 1.2188 3.6094 2.3906l6 6c1.2188 1.2188 2.3906 2.3906 3.6094 4.7812 0 1.2188 1.2188 1.2188 1.2188 2.3906 1.2188 1.2188 2.3906 2.3906 2.3906 3.6094 1.2188 1.2188 2.3906 3.6094 2.3906 4.7812 2.3906 3.6094 3.6094 8.3906 4.7812 12 0 1.2188 1.2188 3.6094 1.2188 4.7812 0 1.2188 1.2188 3.6094 1.2188 4.7812 7.2188-2.3906 15.609-4.7812 24-4.7812 18 0 34.781 7.2188 46.781 19.219 8.3906 8.3906 13.219 16.781 16.781 27.609 1.2188 4.7812 2.3906 9.6094 2.3906 13.219v6c2.3906-1.2188 6-1.2188 8.3906-2.3906 1.2188 0 3.6094 0 4.7812-1.2188h10.828c16.781 1.2188 31.219 7.2188 43.219 19.219 13.219 13.219 19.219 30 19.219 46.781v12c0 2.3906-1.2188 4.7812-1.2188 7.2188 0 1.2188-1.2188 3.6094-1.2188 4.7812 0 1.2188 0 1.2188-1.2188 2.3906 0 1.2188-1.2188 2.3906-1.2188 2.3906 0 1.2188-1.2188 1.2188-1.2188 2.3906-1.2188 3.6094-3.6094 6-6 8.3906l-1.2188 1.2188c0 1.2188-1.2188 1.2188-1.2188 2.3906l-62.391 62.391c8.3906 4.7812 18 7.2188 27.609 7.2188 13.219 0 25.219-4.7812 36-13.219h1.2188l3.6094-3.6094c6-6 9.6094-12 13.219-19.219 2.3906-6 3.6094-12 3.6094-19.219 8.3906 4.7812 18 7.2188 27.609 7.2188 15.609 0 28.781-6 39.609-16.781 13.219-13.219 18-32.391 15.609-49.219 9.6094 8.3906 22.781 13.219 36 13.219 15.609 0 28.781-6 39.609-16.781 14.391-14.391 19.219-33.609 15.609-51.609 8.3906 4.7812 18 8.3906 28.781 8.3906 15.609 0 30-6 39.609-16.781 21.609-21.609 21.609-57.609 0-79.219z"/>
</svg>
