<?xml version="1.0" encoding="UTF-8"?>
<svg width="1200pt" height="1200pt" version="1.1" viewBox="0 0 1200 1200" xmlns="http://www.w3.org/2000/svg">
 <path d="m416.89 1063.6c-40.613 0-74.23 34.688-79.27 79.414 33.32 0.10938 91.797 0.18359 158.61 0.21875-5.0625-44.855-38.699-79.633-79.336-79.633z"/>
 <path d="m402.31 1041.4c-1.8164-13.645-2.2695-27.438-1.3516-41.176-2.1523-25.18-13.969-83.488-74.98-130.23-76.98 58.73-63.602 115.65-54.715 153.45 0.35938 1.5195 0.70312 2.9922 1.0352 4.4375 18.723 25.43 34.98 59.008 43.477 103.02 8.9414-46.57 43.52-82.742 86.535-89.5z"/>
 <path d="m513.42 602.93h-0.60547c-4.8672 0-10.414 6.4805-10.414 12.168h-0.039063l1.6133 231.35c1.9648 0.66016 3.8125 1.6289 5.4727 2.8672 39.766 29.621 61.582 64.922 73.199 98.113 11.484-31.133 33.578-66.816 75.602-98.117 3.3281-2.5078 7.3867-3.8633 11.555-3.8633 4.1719 0 8.2266 1.3555 11.559 3.8633 6.6133 4.9258 12.75 9.9766 18.406 15.156v-334.03c0.03125-5.2695-4.207-9.5664-9.4766-9.6094-2.5156-0.003907-4.9258 1.0117-6.6875 2.8125-1.8203 1.832-2.8242 4.3203-2.7852 6.9023l0.63281 61.758c0.10156 8.6367-3.2461 16.961-9.3047 23.121-6.0547 6.1602-14.32 9.6484-22.961 9.6953-8.6367 0.042969-16.938-3.3633-23.059-9.4609-6.1172-6.0977-9.5508-14.387-9.5352-23.027v-26.648c0-6.6211-5.3672-11.988-11.988-11.988-6.6172 0-11.984 5.3672-11.984 11.988v181.91c0 11.996-6.3984 23.082-16.789 29.082-10.391 5.9961-23.191 5.9961-33.578 0-10.391-6-16.789-17.086-16.789-29.082v-135.36c0.007812-4.668-6.1914-9.6094-12.043-9.6094z"/>
 <path d="m207.61 997.31c-19.57-13.41-41.406-23.168-64.453-28.801-6.1328 19.062-17.09 65.969 6.957 105.59 22.809 37.586 71.156 60.266 143.81 67.512-10.797-63.902-39.781-112.41-86.312-144.3z"/>
 <path d="m569.96 1045.9c3.7891-29.43 6.8867-115.38-72.074-175.98-53.801 41.141-70.418 89.699-73.594 127.92 0.085937 0.95703 0.15625 1.875 0.21875 2.7461l-0.42578 0.03125v0.003906c-0.89453 13.359-0.30078 26.777 1.7656 40.004 36.664 3.5156 67.91 28.309 83.629 63.195 12.281-27.215 34.035-48.289 60.48-57.914z"/>
 <path d="m699.77 303.7c0.011719-1.9766-1.5781-3.5898-3.5547-3.6055h-87.125v-55.969c14.355-8.7422 25.109-22.324 30.328-38.301 8.0703-24.062 6.0273-55.355-6.0938-93.016v0.003906c-6.3359-19.324-14.27-38.086-23.715-56.094-6.7461 22.52-18.75 52.367-39.156 76.574-19.977 23.691-27.656 45.637-22.805 65.223 4.4297 17.898 18.73 31.496 29.945 39.754 2.7852 2.0508 5.4961 3.8594 8.0547 5.4609l-0.003907 56.363h-81.891c-1.3125 0.074219-2.5664 0.56641-3.582 1.4062l1.9531 280.08h0.003906c3.3984-1.3555 7.0234-2.0664 10.688-2.0938h0.60156c18.902 0 35.48 15.441 35.48 33.047v135.36c0 5.6016 4.543 10.141 10.141 10.141 5.6016 0 10.145-4.5391 10.145-10.141v-181.91c0-12.656 6.75-24.352 17.711-30.68 10.961-6.3281 24.461-6.3281 35.422 0 10.961 6.3281 17.711 18.023 17.711 30.68v26.645c-0.027344 5 3.9961 9.0781 8.9961 9.1211 2.3828 0.003906 4.6719-0.95703 6.3438-2.6602 1.7266-1.7422 2.6836-4.1055 2.6484-6.5625l-0.63281-61.754c-0.16797-10.492 4.6914-20.438 13.07-26.754 8.3789-6.3203 19.27-8.2578 29.316-5.2188zm-146.68 179.8h-0.003906c0 6.4727-5.2461 11.719-11.719 11.719-6.4688 0-11.719-5.2461-11.719-11.719v-97.758c0-6.4688 5.25-11.719 11.719-11.719 6.4727 0 11.719 5.25 11.719 11.719zm0-143.14-0.003906 0.003906c0 6.4688-5.2461 11.719-11.719 11.719-6.4688 0-11.719-5.25-11.719-11.719v-6.3281c0-6.4727 5.25-11.719 11.719-11.719 6.4727 0 11.719 5.2461 11.719 11.719z"/>
 <path d="m992.24 997.34c-47.109 31.727-76.449 79.906-87.445 143.3 75.371-12.266 124.77-38.672 146.94-78.602 20.598-37.105 11.859-76.641 6.4336-93.578h-0.003907c-23.523 5.6055-45.855 15.387-65.922 28.883z"/>
 <path d="m841.71 869.95c-60.863 46.629-72.977 105.02-75.34 128.67 1.2812 14.703 1.1133 29.496-0.51172 44.168 7.1445-1.7266 14.469-2.5977 21.816-2.6055 45.406 0 84.031 32.656 97.84 77.879v0.003906c5.6484-24.23 14.832-47.492 27.254-69.047 5.8828-26.992 15.875-112.6-71.059-179.07z"/>
 <path d="m740.71 1052.8c5.1914-27.582 14.195-117.64-70.918-182.86-61.754 47.242-73.785 104.43-75.422 134.55h-0.078125 0.003906c0.86328 12.02 0.78906 24.086-0.22266 36.094 2.7109-0.23438 5.4414-0.39062 8.2031-0.39062 40.648 0 75.875 26.234 92.727 64.254h0.003907c9.3438-21.645 25.359-39.742 45.703-51.648z"/>
 <path d="m602.28 1063.6c-40.781 0-74.531 34.789-79.59 79.648 51.848 0.019531 107.19 0.019531 158.78 0-5.043-44.863-38.621-79.648-79.191-79.648z"/>
 <path d="m787.68 1063.6c-40.531 0-74.078 34.777-79.121 79.629 68.285-0.039062 127.18-0.12109 158.29-0.23437-5.0312-44.719-38.605-79.395-79.168-79.395z"/>
</svg>
