<?xml version="1.0" encoding="UTF-8"?>
<svg width="1200pt" height="1200pt" version="1.1" viewBox="0 0 1200 1200" xmlns="http://www.w3.org/2000/svg">
 <path d="m1045.6 1045.3 9.3984 27.309c13.516-3.207 29.242-3.1836 42.715 0l9.3906-27.297 0.003906-827.34h-61.504z"/>
 <path d="m1063.9 1101 12.48 42.703 12.512-42.805c-7.457-1.2695-16.996-1.3711-24.992 0.10156z"/>
 <path d="m1045.6 150.94h61.504v43.488h-61.504z"/>
 <path d="m1076.4 56.25c-16.961 0-30.758 13.789-30.758 30.746v40.32h61.504l0.003906-40.32c0-16.957-13.789-30.746-30.75-30.746z"/>
 <path d="m818.22 162.73h-608.72c-12.977 0-23.645 10.668-23.645 23.645v790.94c0 13.156 10.668 23.645 23.645 23.645h608.72c12.977 0 23.645-10.488 23.645-23.645v-790.94c0-12.98-10.668-23.645-23.645-23.645z"/>
 <path d="m858.18 56.25h-688.63c-42.27 0-76.648 34.379-76.648 76.652v934.2c0 42.273 34.379 76.652 76.648 76.652h688.63c42.273 0 76.652-34.379 76.652-76.652v-934.2c0-42.273-34.379-76.652-76.652-76.652zm-389.22 22.273h89.805c8.418 0 15.258 6.8398 15.258 15.262 0 8.418-6.8398 15.258-15.258 15.258h-89.805c-8.418 0-15.258-6.8398-15.258-15.258 0-8.418 6.8398-15.262 15.258-15.262zm44.902 1043.3c-17.367 0-31.57-14.031-31.57-31.57 0-17.367 14.207-31.574 31.57-31.574 17.367 0 31.57 14.207 31.57 31.574 0.003906 17.539-14.203 31.57-31.57 31.57zm359.58-149.8c0 32.801-26.66 59.285-59.285 59.285l-600.58 0.003906c-32.625 0-59.285-26.484-59.285-59.285v-780.37c0-32.625 26.66-59.285 59.285-59.285h600.58c32.625 0 59.285 26.664 59.285 59.285z"/>
</svg>
