<?xml version="1.0" encoding="UTF-8"?>
<svg width="1200pt" height="1200pt" version="1.1" viewBox="0 0 1200 1200" xmlns="http://www.w3.org/2000/svg">
 <path d="m360.84 655.09c66.094 81.051 142.71 101.63 145.68 102.4 20.195 2.5547 40.793 4.2734 61.801 5.1562-32.305-44.914-89.531-128.85-111.33-236.93-16.43-81.445-9.4336-160.31 20.727-235.89-35.477-45.039-89.516-74.562-129.38-91.555h-0.003906c-22.922-9.7617-46.52-17.863-70.609-24.234-18.551 114.02-18.484 215.34 0.20703 301.32 15.348 70.629 43.238 131.1 82.898 179.72z"/>
 <path d="m738.15 526.95c-21.797 108.12-80.473 194.14-110.86 236.4 31.844-0.28906 61.965-1.3672 90.641-3.7656v0.003907c14.93-9.5742 29.113-20.27 42.422-31.992 35.027-30.613 65.582-65.988 90.773-105.09 36.215-56.449 61.246-119.33 73.734-185.23 15.691-80.91 14.371-169.38-3.9062-263.15h0.003906c-25.824 7.1211-51.145 15.941-75.801 26.402-41.078 17.52-95.836 46.988-128.02 89.113 30.438 76 37.535 155.33 21.016 237.31z"/>
 <path d="m419.8 740.89c-29.016-19.797-54.996-43.707-77.129-70.98-42.012-51.512-71.5-115.29-87.645-189.55v-0.003906c-9.9297-47.402-14.805-95.727-14.547-144.16-94.727-65.48-176.33-64.219-202.88-61.578-1.7383 124.69 29.039 192.39 85.781 272.06 67.434 94.672 171.13 161.61 296.42 194.22zm-290.21-281.46c5.4922-3.4219 12.719-1.7422 16.141 3.75 7.1875 11.547 15.211 23.523 24.531 36.605 19.539 27.363 42.047 52.484 67.109 74.902 4.8203 4.3203 5.2305 11.727 0.91016 16.547s-11.727 5.2266-16.547 0.91016c-26.352-23.57-50.016-49.98-70.562-78.75-9.6094-13.484-17.891-25.855-25.34-37.82-1.6406-2.6367-2.168-5.8242-1.4648-8.8516 0.70312-3.0273 2.582-5.6523 5.2227-7.293zm-14.609-15.074c-4.418 0.003906-8.4609-2.4766-10.461-6.418-1.4492-2.8516-2.8555-5.7109-4.2188-8.5781-1.3867-2.8047-1.5938-6.0547-0.57031-9.0117 1.0234-2.9609 3.1875-5.3906 6.0117-6.7461 2.8242-1.3516 6.0742-1.5195 9.0234-0.46094 2.9453 1.0586 5.3477 3.25 6.668 6.0898 1.2969 2.7109 2.6328 5.4102 4 8.1016 1.8438 3.6328 1.668 7.9609-0.46094 11.434-2.1289 3.4688-5.9102 5.5859-9.9805 5.5898z"/>
 <path d="m479.97 521.08c22.266 110.41 83.906 195.51 113.54 236.41 1.5156 2.0938 2.9375 4.0547 4.2617 5.8984h0.55078c1.2695-1.7578 2.6211-3.6289 4.0742-5.625 29.367-40.512 90.469-124.81 112.77-235.44 26.891-133.44-12.723-259.92-117.73-376.07-104.75 115.87-144.27 241.94-117.46 374.84z"/>
 <path d="m648.84 786.45c-13.559 0.29688-27.426 0.4375-41.598 0.42578-2.3438 0-4.6875 0-7.0469-0.011719-25.156-0.070312-49.828-1.2852-74.016-3.6484-12.223 26.777-18.988 55.719-19.902 85.141-2.0352 68.586 27.719 130.91 88.48 185.4 59.68-54.125 86.816-115.46 80.688-182.45l-0.003906-0.003906c-2.8594-29.828-11.922-58.734-26.602-84.859z"/>
 <path d="m765.29 754.15c40.504-6.0625 78.16-15.73 113.91-30.793 86.328-36.383 155.5-102.48 217.68-208 45-76.34 64.285-146.68 65.594-240.49-27.344-1.9844-109.6-1.2109-203.57 63.801v-0.003906c-0.83203 34.887-4.5781 69.645-11.195 103.91-13.18 68.945-39.52 134.71-77.578 193.69-28.648 44.477-64.016 84.242-104.84 117.89z"/>
 <path d="m777.16 776.02c-33.82 5.2734-67.93 8.4883-102.14 9.6367 12.793 25.82 20.812 53.742 23.672 82.418 1.2852 13.375 1.3203 26.844 0.10156 40.227 130.38 93.254 316.66 40.844 369.22 23.16-100.78-134.05-235.23-153.52-290.86-155.44z"/>
 <path d="m501.7 780.49c-18.547-2.3945-36.75-5.4414-54.609-9.1406-8.2969-0.48047-53.453-2.0586-111.33 15.469-56.137 17-135.7 55.902-202.3 144.81 37.887 13.176 76.984 22.566 116.72 28.043 65.785 8.8867 159.52 9.0352 237.2-39.102v-0.003906c-3.6133-17.785-5.1289-35.93-4.5117-54.07 1.043-29.566 7.418-58.703 18.824-86.004z"/>
</svg>
