<?xml version="1.0" encoding="UTF-8"?>
<svg width="1200pt" height="1200pt" version="1.1" viewBox="0 0 1200 1200" xmlns="http://www.w3.org/2000/svg">
 <path d="m289.25 1110.8c-3.8164 17.18 1.1797 35.133 13.324 47.875 12.141 12.742 29.836 18.594 47.18 15.609s32.062-14.418 39.246-30.484l5.75-12.75c-34.477-15.496-67.031-34.961-97-58z"/>
 <path d="m902.25 1073c-29.969 23.039-62.523 42.504-97 58l5.75 12.75c7.1836 16.066 21.902 27.5 39.246 30.484s35.039-2.8672 47.18-15.609c12.145-12.742 17.141-30.695 13.324-47.875z"/>
 <path d="m410.75 212.25c-30.684-18.574-65.883-28.348-101.75-28.25-26.258-0.035156-52.266 5.1406-76.512 15.227-24.242 10.086-46.25 24.879-64.738 43.523-18.273 18.066-32.801 39.559-42.75 63.25-12.32 28.797-17.633 60.102-15.5 91.348 2.1289 31.25 11.641 61.543 27.75 88.402 25.258-61.398 62.43-117.18 109.38-164.12s102.73-84.117 164.12-109.38z"/>
 <path d="m192.25 163c-12.426-8.543-27.168-13.082-42.25-13-18.234 0.011719-35.84 6.6719-49.52 18.73-13.676 12.059-22.492 28.688-24.789 46.777-2.2969 18.09 2.0781 36.398 12.309 51.492 11.828-21.914 26.824-41.961 44.5-59.5 17.578-17.738 37.719-32.738 59.75-44.5z"/>
 <path d="m1032.2 242.75c-18.488-18.645-40.496-33.438-64.738-43.523-24.246-10.086-50.254-15.262-76.512-15.227-35.867-0.097656-71.066 9.6758-101.75 28.25 61.398 25.258 117.18 62.43 164.12 109.38s84.117 102.73 109.38 164.12c16.109-26.859 25.621-57.152 27.75-88.402 2.1328-31.246-3.1797-62.551-15.5-91.348-9.9492-23.691-24.477-45.184-42.75-63.25z"/>
 <path d="m1103 172c-14.039-14.09-33.109-22.004-53-22-15.082-0.082031-29.824 4.457-42.25 13 44.23 23.562 80.438 59.77 104 104 9.8438-14.371 14.355-31.73 12.758-49.078-1.5977-17.348-9.207-33.59-21.508-45.922z"/>
 <path d="m351.25 137.75c2.8867-17.492 11.883-33.395 25.383-44.883 13.504-11.488 30.641-17.816 48.367-17.867h350c17.727 0.050781 34.863 6.3789 48.367 17.867 13.5 11.488 22.496 27.391 25.383 44.883 13.945-2.5 28.082-3.7539 42.25-3.75 2.5 0 5.25 0 7.75 0.25-3.75-30.172-18.402-57.93-41.191-78.051-22.793-20.121-52.156-31.219-82.559-31.199h-350c-30.402-0.019531-59.766 11.078-82.559 31.199-22.789 20.121-37.441 47.879-41.191 78.051 2.5-0.25 5.25-0.25 7.75-0.25 14.168-0.003906 28.305 1.25 42.25 3.75z"/>
 <path d="m875 650h48.734c-5.2344-68.703-32.281-133.93-77.199-186.18l-16.727 16.727c-4.6641 4.7852-11.055 7.5039-17.742 7.5469-6.6836 0.042968-13.105-2.5938-17.836-7.3203-4.7266-4.7305-7.3633-11.152-7.3203-17.836 0.042969-6.6875 2.7617-13.078 7.5469-17.742l16.727-16.727v-0.003906c-52.246-44.914-117.48-71.961-186.18-77.195v48.734c0 8.9297-4.7656 17.184-12.5 21.652-7.7344 4.4648-17.266 4.4648-25 0-7.7344-4.4688-12.5-12.723-12.5-21.652v-48.734c-68.703 5.2344-133.94 32.281-186.18 77.195l16.727 16.727v0.003906c4.7852 4.6641 7.5039 11.055 7.5469 17.742 0.042968 6.6836-2.5938 13.105-7.3203 17.836-4.7305 4.7266-11.152 7.3633-17.836 7.3203-6.6875-0.042969-13.078-2.7617-17.742-7.5469l-16.727-16.727c-44.918 52.25-71.965 117.48-77.199 186.18h48.734c8.9297 0 17.184 4.7656 21.652 12.5 4.4648 7.7344 4.4648 17.266 0 25-4.4688 7.7344-12.723 12.5-21.652 12.5h-48.734c5.2344 68.703 32.281 133.93 77.199 186.18l16.727-16.727c4.6641-4.7852 11.055-7.5039 17.742-7.5469 6.6836-0.042968 13.105 2.5938 17.836 7.3203 4.7266 4.7305 7.3633 11.152 7.3203 17.836-0.042969 6.6875-2.7617 13.078-7.5469 17.742l-16.727 16.727v0.003906c52.246 44.914 117.48 71.961 186.18 77.195v-48.734c0-8.9297 4.7656-17.184 12.5-21.652 7.7344-4.4648 17.266-4.4648 25 0 7.7344 4.4688 12.5 12.723 12.5 21.652v48.734c68.703-5.2344 133.94-32.281 186.18-77.195l-16.727-16.727v-0.003906c-4.7852-4.6641-7.5039-11.055-7.5469-17.742-0.042968-6.6836 2.5938-13.105 7.3203-17.836 4.7305-4.7266 11.152-7.3633 17.836-7.3203 6.6875 0.042969 13.078 2.7617 17.742 7.5469l16.727 16.727c44.918-52.25 71.965-117.48 77.199-186.18h-48.734c-8.9297 0-17.184-4.7656-21.652-12.5-4.4648-7.7344-4.4648-17.266 0-25 4.4688-7.7344 12.723-12.5 21.652-12.5zm-168.93 131.05c-4.6875 4.6875-11.047 7.3203-17.676 7.3203s-12.988-2.6328-17.676-7.3203l-38.578-38.574v0.003906c-10.012 4.8867-20.996 7.457-32.137 7.5156-21.195 0.1875-41.484-8.6055-55.84-24.199-14.359-15.594-21.445-36.539-19.512-57.648 1.9375-21.109 12.715-40.414 29.672-53.137 16.953-12.723 38.5-17.68 59.309-13.637l52.215-90.441c4.4688-7.7383 12.723-12.504 21.652-12.504 8.9336 0 17.191 4.7656 21.656 12.5 4.4688 7.7344 4.4688 17.266 0.003906 25.004l-52.344 90.66c9.543 10.863 15.652 24.312 17.555 38.648 1.8984 14.336-0.49609 28.91-6.8789 41.887l38.578 38.57c4.6875 4.6875 7.3203 11.047 7.3203 17.676s-2.6328 12.988-7.3203 17.676z"/>
 <path d="m600 225c-119.35 0-233.81 47.41-318.2 131.8s-131.8 198.85-131.8 318.2 47.41 233.81 131.8 318.2 198.85 131.8 318.2 131.8 233.81-47.41 318.2-131.8 131.8-198.85 131.8-318.2-47.41-233.81-131.8-318.2-198.85-131.8-318.2-131.8zm265.77 714.25c-0.25 0.28125-0.33984 0.64844-0.61328 0.92188-0.27344 0.27344-0.64062 0.35938-0.92188 0.61328-70.148 69.949-165.17 109.23-264.24 109.23s-194.09-39.277-264.24-109.23c-0.28125-0.25-0.64844-0.33984-0.92188-0.61328-0.26953-0.27344-0.35938-0.64062-0.61328-0.92188-69.949-70.152-109.23-165.17-109.23-264.24 0-99.062 39.277-194.09 109.23-264.24 0.25-0.28125 0.33984-0.64844 0.61328-0.92188 0.27344-0.27344 0.64062-0.35937 0.92188-0.61328 70.148-69.945 165.17-109.23 264.24-109.23s194.09 39.281 264.24 109.23c0.28125 0.25 0.64844 0.33984 0.92188 0.61328 0.26953 0.27344 0.35938 0.64063 0.61328 0.92188 69.949 70.152 109.23 165.18 109.23 264.24 0 99.066-39.277 194.09-109.23 264.24z"/>
 <path d="m625 675c0 13.809-11.191 25-25 25s-25-11.191-25-25 11.191-25 25-25 25 11.191 25 25z"/>
</svg>
