<?xml version="1.0" encoding="UTF-8"?>
<svg width="1200pt" height="1200pt" version="1.1" viewBox="0 0 1200 1200" xmlns="http://www.w3.org/2000/svg">
 <path d="m973.08 846.12c-5.8789-1.4414-12.719 1.9219-16.559 8.1602-0.12109 7.6797-0.35938 15.121-0.48047 22.801 0 2.2812-1.8008 3.9609-4.0781 3.9609-2.2812 0-4.0781-1.8008-4.0781-4.0781 0.35938-9.4805 0.48047-18.84 0.60156-28.199 0.12109-13.078-1.1992-16.922-4.0781-20.398-2.3984-3.1211-5.1602-4.6797-8.2812-5.0391-5.0391-0.48047-10.441 2.7617-13.801 8.2812v42.359c0 2.2812-1.8008 4.0781-4.0781 4.0781-2.2812 0-4.0781-1.8008-4.0781-4.0781v-45.719c0.12109-3.7188 0.35938-8.1602-2.2812-12.359-1.1992-2.2812-4.6797-7.6797-10.441-8.1602-5.1602-0.12109-10.559 3.6016-13.32 9.4805v52.559c0 2.2812-1.9219 4.0781-4.0781 4.0781-2.2812 0-4.0781-1.8008-4.0781-4.0781v-117.96c-0.35938-1.6797-5.3984-11.762-14.16-12.238-2.2812-0.48047-6.2383 1.8008-9.2383 4.6797-2.6406 2.3984-4.1992 5.3984-4.1992 7.4414 0 0.48047 0.12109 27.719 0.12109 57.961 0.12109 30.359 0.35937 63.84 0.35937 76.68v7.8008c-0.12109 8.5195-0.60156 22.68-9.2383 25.078-0.96094 0.35937-2.1602 0.48047-3.1211 0.48047-7.3203 0-13.559-6.9609-17.762-11.879-0.83984-0.96094-1.6797-1.8008-2.3984-2.6406-4.0781-4.1992-8.0391-8.5195-11.879-12.84l-1.8008-1.9219h-39.238c2.2812 3.2383 4.4414 6.7188 6.4805 9.9609 4.5586 6.9609 11.039 16.559 18.238 27.48 34.559 51.48 60.719 91.68 60.719 103.56v39.238h114.48c-0.35938-12.602-0.96094-44.641 0.12109-51.961 0.60156-4.0781 3.9609-12 6.4805-17.879 6.9609-16.801 10.559-34.559 10.801-52.922v-81.121c0-2.8789 0-3.4805-0.12109-4.1992-0.13281-0.24609-2.293-14.168-11.535-16.445z"/>
 <path d="m844.08 751.8c0-4.4414 2.3984-9.2383 6.8398-13.32 3.6016-3.6016 9.9609-7.1992 15.359-6.9609 13.801 0.83984 21.84 15.84 21.84 20.398v52.559c4.0781-3.4805 9-5.1602 14.16-4.6797 6.4805 0.48047 12.719 4.9219 16.801 12 1.6797 2.7617 2.3984 5.7617 2.8789 8.5195 2.8789-2.3984 6.2383-4.0781 9.6016-4.6797v-162.71h-87.48c-1.0781 0-2.1602-0.48047-2.8789-1.1992-1.6797-1.6797-1.6797-4.1992 0-5.8789 13.32-13.32 13.32-35.16 0-48.719-13.078-13.078-35.879-13.078-48.84 0-13.32 13.559-13.32 35.398 0 48.719 1.6797 1.6797 1.6797 4.1992 0 5.8789-0.83984 0.83984-1.8008 1.1992-2.7617 1.1992h-0.12109-87.477v79.078c16.441-10.801 38.879-8.7617 53.281 5.7617 8.1602 8.0391 12.602 18.719 12.602 30.121 0 11.281-4.4414 21.961-12.602 30.121-8.2812 8.2812-19.199 12.359-30.121 12.359-8.0391 0-16.078-2.2812-23.16-6.8398v78.961h142.56c-0.23828-31.324-0.48047-129.96-0.48047-130.68z"/>
 <path d="m324 198.72c-6.9609 16.801-10.559 34.68-10.801 53.16v63.238c0 4.5586-0.12109 9.7188 0 17.762 0 2.8789 0 3.6016 0.12109 4.4414 0 0.48047 2.1602 14.281 11.398 16.559 5.8789 1.3203 12.719-2.1602 16.559-8.2812 0.12109-7.4414 0.12109-15.121 0.48047-22.68 0-2.2812 1.8008-4.0781 4.0781-4.0781 2.2812 0.12109 4.0781 1.9219 4.0781 4.1992-0.35937 9.4805-0.48047 18.719-0.60156 28.199-0.12109 13.078 1.1992 16.922 3.9609 20.398 3.2383 3.7188 6.3594 4.6797 8.5195 5.0391 5.0391 0.48047 10.32-2.7617 13.801-8.5195v-42.359c0-2.1602 1.8008-4.0781 3.9609-4.0781 2.2812 0 4.1992 1.9219 4.1992 4.0781v43.68l-0.12109 2.2812c0 3.6016-0.12109 8.1602 2.2812 12.359 1.3203 2.2812 4.9219 7.4414 10.441 8.0391 5.3984 0.60156 10.801-3.4805 13.559-9.4805v-52.559c0-2.1602 1.8008-4.0781 4.0781-4.0781 2.2812 0 4.0781 1.9219 4.0781 4.0781v118.08c0.35938 1.6797 5.3984 11.762 14.16 12.238 2.3984 0.12109 6.2383-1.8008 9.2383-4.6797 2.6406-2.6406 4.1992-5.3984 4.0781-7.4414 0-0.48047-0.12109-27.719-0.12109-57.961 0-30.359-0.12109-63.84-0.12109-76.68v-7.6797c0.12109-8.6406 0.48047-22.801 9.2383-25.199 8.5195-2.6406 15.961 5.7617 20.879 11.281 0.83984 0.96094 1.6797 1.9219 2.2812 2.7617 4.1992 4.0781 8.1602 8.5195 12 12.84l1.8008 1.9219h39.238c-2.2812-3.4805-4.5586-6.7188-6.4805-9.9609-4.5586-6.9609-11.039-16.559-18.238-27.359-34.559-51.602-60.719-92.039-60.719-103.8v-39.238h-114.48c0.35938 12.602 0.96094 44.641-0.12109 51.84-0.58203 3.2422-2.8633 9.2422-6.7031 17.641z"/>
 <path d="m970.32 281.52c-4.1992-0.60156-12-3.9609-17.879-6.3594-16.801-6.9609-34.68-10.801-53.16-10.922h-81c-2.8789 0.12109-3.4805 0.12109-4.4414 0.12109 0 0-14.16 1.9219-16.441 11.52-1.4414 5.8789 1.9219 12.602 8.1602 16.441 7.4414 0.12109 15.121 0.35938 22.801 0.48047 2.1602 0 3.9609 1.9219 3.9609 4.1992-0.12109 2.1602-2.1602 3.6016-4.1992 3.9609-8.0391-0.12109-15.961-0.35938-24-0.48047h-4.1992c-13.199-0.35938-16.922 0.96094-20.398 3.9609-3.7188 3.1211-4.6797 6.2383-5.0391 8.2812-0.48047 5.0391 2.7617 10.441 8.5195 13.801h42.359c2.2812 0 4.0781 1.8008 4.0781 4.0781 0 2.2812-1.8008 4.0781-4.0781 4.0781h-45.961c-3.4805-0.12109-8.1602-0.12109-12.359 2.2812-2.7617 1.6797-7.4414 5.0391-8.0391 10.441-0.48047 5.1602 3.4805 10.801 9.4805 13.559h52.559c2.2812 0 4.0781 1.8008 4.0781 4.0781 0 2.1602-1.8008 4.0781-4.0781 4.0781h-117.96c-1.8008 0.35937-11.879 5.1602-12.359 14.039-0.12109 2.3984 1.8008 6.2383 4.6797 9.2383 2.6406 2.6406 5.3984 4.1992 7.4414 4.1992 0.48047 0 27.719 0 57.961-0.12109 30.48-0.12109 63.84-0.12109 76.922-0.35938h7.6797c8.5195 0.35938 22.68 0.60156 25.199 9.2383 2.3984 8.7617-5.8789 15.961-11.398 20.879-0.96094 0.96094-1.9219 1.8008-2.7617 2.3984-4.0781 4.0781-8.5195 8.0391-12.84 12l-1.8008 1.6797v39.238c3.2383-2.1602 6.4805-4.4414 9.7188-6.4805 7.1992-4.5586 16.559-10.922 27.48-18.121 51.48-34.559 91.922-60.961 103.56-60.961h14.52c8.2812 0.12109 16.559 0.12109 24.719 0v-114.48c-12.602 0.61719-44.402 1.0977-51.48 0.015625z"/>
 <path d="m718.92 481.08c11.398 0 22.199 4.4414 30.121 12.602 8.0391 8.0391 12.602 18.719 12.602 30.121 0 8.2812-2.3984 16.32-6.9609 23.16h79.199l-0.003906-142.56c-31.441 0.12109-129.96 0.48047-130.68 0.48047h-0.12109c-4.4414 0-9.2383-2.3984-13.32-6.7188-3.6016-3.7188-7.3203-9.7188-6.9609-15.48 0.83984-13.801 15.84-21.719 20.52-21.719h52.441c-3.2383-4.1992-5.1602-9.1211-4.6797-14.16 0.60156-6.7188 4.9219-12.719 12-16.801 2.8789-1.8008 5.8789-2.6406 8.5195-2.8789-2.2812-3.1211-3.9609-6.2383-4.5586-9.6016h-162.84v87.48c0 1.1992-0.48047 2.1602-1.3203 2.7617-0.83984 0.83984-1.8008 1.3203-2.8789 1.3203-0.96094 0-2.1602-0.48047-2.8789-1.3203-1.6797-1.6797-3.4805-2.8789-5.1602-4.1992-13.199-8.5195-32.039-6.9609-43.441 4.1992-6.4805 6.4805-10.078 15.359-10.078 24.48 0 9.2383 3.6016 17.879 10.078 24.48 11.398 11.398 30.121 12.84 43.441 4.1992 1.8008-1.1992 3.6016-2.6406 5.1602-4.1992 0.83984-0.83984 1.9219-1.1992 2.8789-1.1992 1.0781 0 2.1602 0.35937 2.8789 1.1992 0.83984 0.83984 1.3203 1.8008 1.0781 2.8789h0.12109v87.48h78.961c-4.5586-6.8398-6.9609-14.879-6.9609-23.281 0-11.398 4.5586-22.199 12.602-30.121 8.0391-8.1602 18.84-12.602 30.242-12.602z"/>
 <path d="m508.44 547.08h0.12109 87.359v-79.078c-6.8398 4.4414-14.879 6.8398-23.16 6.8398-0.96094 0-1.8008-0.12109-2.7617-0.35938-1.8008 0-3.7188-0.12109-5.5195-0.48047-0.83984-0.12109-1.4414-0.48047-2.2812-0.60156-1.9219-0.48047-3.9609-0.96094-5.7617-1.8008h-0.12109c-5.0391-2.1602-9.7188-5.1602-13.801-9.2383-16.559-16.559-16.559-43.68 0-60.238 3.9609-3.9609 8.2812-6.7188 13.078-8.7617 0.35938-0.12109 0.60156-0.35938 0.96094-0.48047 1.4414-0.48047 2.8789-0.83984 4.5586-1.3203 1.1992-0.35938 2.2812-0.83984 3.4805-1.1992 0.60156 0 1.3203 0 1.9219-0.12109 2.1602-0.35938 4.1992-0.60156 6.3594-0.60156 8.2812 0 16.32 2.3984 23.16 6.9609v-78.961l-142.68 0.003906c0 31.32 0.35938 129.84 0.35938 130.68 0.12109 4.1992-2.2812 9.1211-6.7188 13.32-3.6016 3.4805-9.2383 6.9609-14.641 6.9609h-0.60156c-13.801-0.83984-21.84-15.84-21.84-20.398v-52.559c-3.7188 3.1211-8.0391 4.9219-12.602 4.9219-0.60156 0-1.0781-0.12109-1.6797-0.12109-9.4805-0.83984-14.879-8.6406-16.801-12-1.6797-2.8789-2.3984-5.7617-2.8789-8.5195-2.8789 2.3984-6.2383 3.9609-9.6016 4.5586v162.72h87.48c1.1992 0 2.1602 0.35938 2.8789 1.1992 0.83984 0.83984 1.0781 1.8008 1.0781 2.8789s-0.35938 2.1602-1.0781 2.8789c-6.4805 6.4805-10.078 15.121-10.078 24.238 0 9.2383 3.6016 17.879 10.078 24.48 13.078 13.078 35.641 13.078 48.719 0 6.4805-6.4805 10.078-15.121 10.078-24.48 0-9.1211-3.6016-17.762-10.078-24.238-0.83984-0.83984-1.0781-1.8008-1.0781-2.8789s0.35938-2.1602 1.0781-2.8789c0.84766-0.96094 2.0469-1.3242 3.0078-1.3242z"/>
 <path d="m602.88 645.6c-1.6797 1.6797-4.1992 1.6797-5.7617 0-0.83984-0.83984-1.3203-1.9219-1.3203-2.8789v-87.48h-78.961c4.5586 6.8398 6.8398 14.879 6.8398 23.16v0.12109c0 11.398-4.4414 21.961-12.359 30.121-8.1602 8.0391-18.719 12.359-30.121 12.359-11.398 0-22.199-4.4414-30.121-12.359-8.1602-8.1602-12.602-18.719-12.602-30.121v-0.12109c0-8.2812 2.3984-16.32 6.8398-23.16h-78.961v142.68c31.441-0.12109 129.96-0.48047 130.68-0.48047h0.12109c4.4414 0 9.1211 2.3984 13.32 6.7188 3.6016 3.7188 7.1992 9.7188 6.9609 15.359-0.83984 13.801-15.961 21.84-20.52 21.84h-52.68c3.4805 4.1992 5.1602 9.1211 4.9219 14.16-0.60156 6.7188-4.9219 12.602-12 16.801-2.8789 1.6797-5.8789 2.6406-8.5195 2.8789 2.2812 2.8789 3.9609 6.2383 4.5586 9.6016h162.6l0.003906-87.602c0-1.0781 0.48047-2.1602 1.0781-2.8789h0.12109c1.4414-1.4414 4.0781-1.4414 5.7617 0 13.32 13.559 35.398 13.559 48.719 0 13.559-13.32 13.559-35.398 0-48.719-13.199-13.562-35.16-13.562-48.602 0z"/>
 <path d="m417.24 775.56h-42.359c-2.2812 0-4.0781-1.9219-4.0781-4.0781 0-2.2812 1.8008-4.0781 4.0781-4.0781h45.719c3.7188 0 8.2812 0.12109 12.602-2.2812 2.7617-1.6797 7.4414-5.1602 8.0391-10.441 0.48047-5.1602-3.4805-10.801-9.4805-13.559h-52.559c-2.2812 0-4.0781-1.8008-4.0781-4.0781 0-2.2812 1.8008-4.0781 4.0781-4.0781h117.96c1.8008-0.35938 11.879-5.3984 12.359-14.039 0-2.3984-1.8008-6.3594-4.6797-9.2383-2.6406-2.6406-5.3984-4.1992-7.4414-4.1992h-0.12109c-0.48047 0-27.48 0-57.961 0.12109-30.359 0.12109-63.719 0.12109-76.68 0.35938l-7.6797-0.12109c-8.5195-0.12109-22.801-0.48047-25.199-9.1211-2.3984-8.7617 5.8789-16.078 11.398-20.879 0.96094-0.96094 1.9219-1.8008 2.6406-2.3984 4.0781-3.9609 8.1602-7.6797 12.359-11.52l2.3984-2.2812 0.003906-39.25c-3.2383 2.2812-6.4805 4.5586-9.9609 6.7188-6.9609 4.5586-16.801 10.922-27.48 18.238-51.48 34.32-91.68 60.719-103.56 60.719l-14.52-0.12109c-8.1602 0-16.441 0-24.719 0.12109v114.36c12.84-0.35938 44.762-0.96094 51.961 0.12109 4.1992 0.83984 12 3.9609 17.879 6.4805 16.801 6.9609 34.559 10.559 52.922 10.801h63.359c4.4414 0.12109 9.7188 0.12109 17.762 0 2.8789 0 3.4805 0 4.1992-0.12109 0.12109 0 14.281-1.8008 16.559-11.398 1.4414-5.8789-1.9219-12.719-8.1602-16.441-7.4414-0.12109-15.121-0.35938-22.801-0.48047-2.1602-0.12109-3.9609-1.9219-3.9609-4.1992 0-2.2812 2.2812-4.0781 4.1992-3.9609 9.2383 0.12109 18.719 0.35938 28.078 0.48047 13.199 0.12109 17.16-1.1992 20.52-3.9609 3.7188-3.1211 4.6797-6.3594 4.9219-8.5195 0.36328-5.0352-2.8789-10.195-8.5195-13.676z"/>
</svg>
