<?xml version="1.0" encoding="UTF-8"?>
<svg width="1200pt" height="1200pt" version="1.1" viewBox="0 0 1200 1200" xmlns="http://www.w3.org/2000/svg">
 <path d="m935.45 188.38v448l102.98 1.7852c0.30859 21.637 6.6914 63.359 19.969 78.629s17.75 56.883 13.426 124.83c21.473 3.9688 32.207 14.492 32.207 31.562 0 25.605 42.387-11.207 35.145 38.488-7.2422 49.695-2.9336 50.285-35.145 50.285-32.207 0-45.633 99.766-45.633 151.93-4.8828 3.9453-15.359 6.9219-24.566 14.102-45.336-55.004-55.609-113.52-69.379-122.27-13.77-8.7539-37.836-2.207-25.801-49.035 12.031-46.828-32.016-45.328-42.301-61.457-10.281-16.129 20.957-44.703-52.762-71.906-73.719-27.199-132.31-67.602-163.74-100.68-31.426-33.078-30.32-7.1328-40.836 21.129-10.516 28.266-81.227 42.625-105.73 35.445-24.5-7.1797-26.371-28.688 9.7695-56.574 36.141-27.883 0.15625-41.113-53.652-20.555-53.805 20.555-42.371 62.961-62.359 70.281-19.992 7.3164-28.414 63.508-51.715 85.773-23.297 22.262-41.551 55.77-72.562 58.742-31.012 2.9766-79.746 14.684-106.96 25.25-27.215 10.566-35.676 31.797-54.129 0-10.844-22.312-20.484-52.707 5.4453-64.793 25.93-12.086 29.375 3.8359 61.008-25.09 31.637-28.926 39.52-22.637 52.988-17.809s17.566-62.375 35.414-73.125 13.98-47.055-10.715-38.676c-24.699 8.3828-34.773 56.223-72.91 38.676-38.133-17.547-45.879-18.961-45.879-46.453 0-27.488 0.61328-38.195-37.797-19.098-38.406 19.098 26.531-52.883 5.6641-52.883-20.863 0-37.016 21.844-55.758 6.6758-18.742-15.172-31.504-23.52 0-42.43 31.504-18.91 44.434-34.75 50.094-71.484 5.6641-36.73 39.281-64.621 66.574-43.996 27.289 20.621 73.367 21.883 90.012-8.1172 16.645-30 24.875-58.461-32.57-29.23-57.441 29.23-69.77-58.98-57.441-99.254 12.324-40.273 10.812-28.867 57.441-45.031 46.629-16.164 54.258 18.277 62.469 37.465 8.2109 19.184 62.316-15.832 56.875-37.465-5.4375-21.637-34.766-1.5664-42.398-44.738-7.6328-43.172-38.785-49.09-44.375-71.688-5.5938-22.598 37.25-49.074 68.211-43.133 30.957 5.9375 72.281-33.676 88.359-33.676 16.074 0 58.316-10.09 84.328-30.949 26.012-20.859 67.191-23.656 95.312 30.949 28.117 54.605-5.8594-30.77 134.23 45.738 26.426 14.434 81.371 3.707 103.68 23.609 10.141 9.0508 35.312 9.7969 75.512 2.2383z" fill-rule="evenodd"/>
</svg>
