<?xml version="1.0" encoding="UTF-8"?>
<svg width="1200pt" height="1200pt" version="1.1" viewBox="0 0 1200 1200" xmlns="http://www.w3.org/2000/svg">
 <path d="m836.93 560.16c1.1523-1.0938 2.1016-2.3633 2.9023-3.707 41.629-52.297 66.59-118.41 66.59-190.29 0-50.941-12.77-101.4-36.938-145.96-53.688-98.809-156.84-160.2-269.21-160.2-112.95 0-216.35 61.836-269.88 161.41-6.5039 12.18-12.215 24.805-16.98 37.523-3.8398 10.262-7.1992 21-9.9609 31.945-3.2031 12.672-5.543 25.57-7.1055 38.605-0.011718 0.16797-0.023437 0.32422-0.035156 0.49219-1.4141 11.988-2.1719 24.059-2.1719 36.18 0 168.82 137.33 306.16 306.14 306.16 95.242 0 180.45-43.727 236.64-112.16zm0.91016-322.77c21.312 39.277 32.578 83.809 32.578 128.77 0 52.559-15.145 101.64-41.219 143.18l-3.0586-7.8828-4.3203-51.191c-0.20312-2.3516-0.86328-4.6562-1.957-6.7578l-13.055-25.234c-3.3711-6.5391-10.379-10.402-17.746-9.6484l-23.555 2.3047-14.867-0.28906-5.1719-5.1836-4.7148-28.32 9.457-40.309 14.566-13.934 33.77 1.668c6.1328 0.26562 11.652-2.375 15.254-7.1172 3.5898-4.7383 4.6094-10.957 2.7109-16.598l-12-35.723c-0.79297-2.3867-2.1016-4.5859-3.793-6.4453l-9.9609-10.848c-3.9609-4.3203-9.8164-6.4688-15.59-5.6758l-25.801 3.3594-8.0625-1.8828-1.5234-1.5-1.1875-14.016 25.477-7.5586c8.4844-2.5195 13.871-10.836 12.73-19.609l-4.7266-35.844 1.7656-5.8438c25.602 21.484 47.5 47.738 64 78.121zm-137.87-122.17-3.2656 2.7461-21.086-2.0273c-0.69531-0.070312-1.3789-0.12109-2.0742-0.070312l-20.605 0.40625c-6.8867 0.13281-13.094 4.1875-15.984 10.441l-3.1211 6.7422c-1.1055-0.20313-2.2188-0.3125-3.3242-0.3125h-8.125l-11.219-6.8984c-4.4141-2.7109-9.7695-3.3828-14.746-1.8711l-5.3633 1.6562-10.441-15.48c-0.48047-1.6211-1.0938-3.2266-2.0508-4.7266-2.5781-4.0312-6.5156-6.6602-10.836-7.7266 10.727-1.2969 21.562-2.0625 32.543-2.0625 34.766-0.015624 68.473 6.7656 99.699 19.184zm-352.84 156.36c4.2109-11.242 9.2539-22.402 15-33.133 39.816-74.074 110.99-124.34 192.06-138.32-0.15625 0.085938-0.32422 0.14453-0.48047 0.23828l-21.129 13.512-12.324 1.0547c-4.5 0.39453-8.7109 2.4727-11.746 5.8086l-17.566 19.273c-3.5391 3.8867-5.207 9.1328-4.5586 14.352s3.5508 9.8984 7.9453 12.793l43.43 28.68 12.133 11.363-22.141 1.6445c-5.1602 0.38281-9.9102 2.9766-13.02 7.0938l-16.391 21.672-27.18 15.875c-4.9805 2.9141-8.2578 8.0391-8.8203 13.777l-2.4258 24.707c-0.16797 1.7031-0.097656 3.4336 0.22656 5.1133l4.3203 22.727 0.046875 0.33594h-16.441c-0.60156 0-1.1992 0.023437-1.7891 0.085937l-19.031 1.9062c-3.7695 0.38281-7.3203 1.9336-10.152 4.4531l-21.887 19.402c-5.2422 4.6445-7.3086 11.902-5.3047 18.613l7.6328 25.598c1.7891 6 6.5742 10.645 12.637 12.254l32.93 8.7344 16.812 9.5156c3.2148 1.8242 6.9258 2.5938 10.609 2.2578l39.898-3.875h61.812l25.848 8.9297 4.6797 20.113c1.5469 6.6367 6.707 11.832 13.332 13.414l25.621 6.1445-27.898 45.828-24.961 20.531c-4.1523 3.4219-6.5625 8.5078-6.5625 13.895v26.219c0 3.7188 1.1523 7.332 3.2891 10.367l2.5664 3.6367-4.9805-0.046875-9.7305-8.1133-25.32-45.254c-0.26562-0.46875-0.55078-0.9375-0.86328-1.3789l-17.762-25.621c-0.96094-1.3789-2.1016-2.6172-3.4062-3.6836l-37.766-30.852-4.5469-23.496c-0.82812-4.3203-3.2266-8.1836-6.707-10.859l-16.488-12.66c-2.5312-1.957-5.543-3.1914-8.7227-3.5898l-25.02-3.1445-26.207-7.1875-19.766-23.375-15.625-36.539c-1.1523-2.6758-2.9141-5.0273-5.1719-6.8633l-26.496-21.613c1.2734-8.1367 2.7969-16.223 4.8008-24.191 2.4219-9.6289 5.375-19.094 8.7578-28.117zm253.14 364.74c-148.48 0-269.32-120.42-270.11-268.71l3.6836 3 14.941 34.957c0.70703 1.6445 1.6562 3.1797 2.8086 4.5352l25.105 29.699c2.3516 2.7734 5.4844 4.7773 8.9883 5.7461l32.832 9c0.82812 0.22656 1.668 0.39453 2.5195 0.50391l21.457 2.6875 7.1992 5.5312 4.4883 23.195c0.79297 4.1406 3.0234 7.8594 6.2773 10.523l40.848 33.371 15.852 22.871 26.316 47.09c1.0781 1.9805 2.5312 3.7305 4.2617 5.1719l17.293 14.41c3.1914 2.6641 7.2109 4.1406 11.363 4.1758l29.09 0.26562h0.16797c7.7383 0 14.629-4.957 17.074-12.312l5.543-16.668c1.8008-5.4258 0.9375-11.375-2.3633-16.055l-7.6445-10.836v-12.012l20.746-17.062c1.5586-1.2734 2.8906-2.8203 3.9375-4.5352l38.855-63.852c2.832-4.6562 3.4062-10.344 1.5586-15.469l-2.5781-7.1406c-2.0625-5.6992-6.8398-9.9844-12.742-11.387l-32.773-7.8594-4.4141-18.973c-1.4023-6.0234-5.7969-10.906-11.652-12.938l-38.113-13.164c-1.8828-0.64844-3.875-0.98438-5.8789-0.98438l-65.695 0.003906c-0.57422 0-1.1641 0.023438-1.7383 0.085938l-35.102 3.4062-13.871-7.8594c-1.332-0.75781-2.7617-1.3438-4.2461-1.7383l-25.414-6.7422-1.4766-4.9336 8.9531-7.9336 12.336-1.2344h36.781c5.293 0 10.309-2.3281 13.738-6.3594 3.4219-4.0312 4.8828-9.3711 4.0195-14.594l-7.5234-42.277 1.2734-12.996 22.309-13.008c2.0508-1.1992 3.8633-2.7969 5.293-4.7031l13.668-18.059 21.324-1.5859c3.3945-0.25391 6.6367-1.4648 9.3711-3.4805l10.465-7.7383c3.7305-2.7461 6.2539-6.8398 7.0312-11.41l2.4492-14.16c1.0312-5.9766-1.0078-12.059-5.4375-16.211l-22.477-21.059c-0.74219-0.69531-1.5352-1.3203-2.3867-1.8828l-25.309-16.715 6.5391-0.5625c2.9023-0.25391 5.6992-1.1992 8.1602-2.7734l9.2773-5.9414 11.172 16.547c4.4414 6.5742 12.648 9.4805 20.219 7.1289l10.332-3.1797 8.6172 5.293c2.832 1.7539 6.1094 2.6758 9.4336 2.6758h11.449l11.965 2.3867c1.1875 0.23828 2.3516 0.34766 3.5273 0.34766 6.8984 0 13.332-3.9844 16.32-10.441l4.3438-9.3828 8.293-0.16797 27.59 2.6523c4.7891 0.46875 9.625-1.0312 13.32-4.1523l20.461-17.258c0.30078-0.25391 0.57422-0.51563 0.85156-0.79297 2.5547 1.4766 5.0625 3.0117 7.5703 4.5703l-6.5039 21.527c-0.74219 2.4492-0.94922 5.0156-0.625 7.5469l3.2266 24.457-24.805 7.3672c-8.1953 2.4375-13.535 10.273-12.805 18.781l3 35.258c0.35938 4.2734 2.2422 8.2812 5.293 11.293l9.8633 9.7188c2.3516 2.3281 5.3047 3.9609 8.5312 4.7031l16.176 3.7812c2.1133 0.50391 4.2734 0.58984 6.4219 0.32422l19.777-2.5664 1.0547 1.1523 2.375 7.0781-15.156-0.75781c-5.1602-0.35938-9.7578 1.5469-13.32 4.9688l-24.023 22.969c-2.5312 2.4102-4.2852 5.4961-5.0898 8.8906l-11.508 49.02c-0.55078 2.3164-0.63672 4.7266-0.23828 7.0664l6.2539 37.57c0.61328 3.6953 2.3633 7.1055 5.0156 9.7578l14.363 14.387c3.2891 3.3008 7.7266 5.1953 12.383 5.2812l23.184 0.45703c0.70703 0.023438 1.4023-0.011719 2.1133-0.085937l12.469-1.2227 5.7969 11.219 4.2461 50.195c0.15625 1.7031 0.53906 3.3828 1.1641 4.9922l12.18 31.43c-49.543 56.891-122.38 92.902-203.53 92.902z"/>
 <path d="m1160.8 459c-8.7461-11.746-21.527-19.379-36.012-21.492-29.438-4.2852-56.965 15.793-61.934 44.953l-37.211 129.18c-6.1328-18.574-22.262-33.098-42.863-36.109-20.293-2.9883-40.402 6-51.852 22.906-35.594 37.859-95.23 97.285-116.7 108.97-29.293 15.961-68.605 24.383-69 24.469-2.1016 0.44531-4.043 1.2461-5.7969 2.3281-18.059 4.2109-34.488 14.09-46.895 28.309-0.32422 0.33594-0.66016 0.69531-0.96094 1.0547-5.6289 6.6719-10.273 14.172-13.824 22.309-11.762 21.684-26.891 64.141-34.535 96.828l-13.355 50.484c-0.16797 0.625-0.28906 1.2461-0.38281 1.8828l-6.9375 45.348c-0.14453 0.86328-0.21484 1.7539-0.21484 2.6523l-0.58984 138.85c-0.046875 9.9375 7.9805 18.023 17.93 18.07h0.070312c9.8984 0 17.953-8.0039 18-17.93l0.58984-137.52 6.5898-43.094 13.246-50.051c7.1055-30.383 21.254-70.273 31.559-88.945 0.28906-0.53906 0.5625-1.0938 0.80469-1.6562 2.0273-4.7891 4.668-9.2148 7.8242-13.141 0.30078-0.30078 0.58984-0.625 0.86328-0.94922 8.3281-9.8398 19.801-16.309 32.27-18.227 2.6758-0.39453 5.1367-1.3789 7.2734-2.8203 13.332-3.2266 45.816-12.023 72.695-26.676 33.66-18.312 117.37-107.04 126.8-117.1 0.79297-0.85156 1.5117-1.7656 2.1367-2.7617 3.6719-5.8555 10.355-8.9766 17.195-8.0156 9.3945 1.3789 15.926 10.188 14.566 19.523-0.27734 1.8125-0.85156 3.6016-1.7031 5.3047-0.66016 1.332-1.1523 2.7461-1.4648 4.1875-6.9961 32.473-29.531 64.152-35.652 72.289-1.1523 1.0781-2.2305 2.2578-3.0977 3.6836-14.305 23.316-29.855 47.363-45.66 70.703-0.14453 0.17969-13.68 17.879-34.078 33.758-7.8477 6.1094-9.2539 17.41-3.1562 25.246 3.5508 4.5586 8.8438 6.9492 14.219 6.9492 3.8633 0 7.7539-1.2461 11.039-3.793 24.086-18.742 39.984-39.516 41.207-41.184 16.02-23.605 31.211-47.137 45.336-70.031 0.070313-0.070312 0.16797-0.10938 0.22656-0.17969 19.402-22.129 39.91-41.902 60.973-58.812 2.8906-2.3281 4.9922-5.4844 6.0234-9.0586l51.395-178.37c0.22656-0.78125 0.39453-1.5859 0.51562-2.3867 1.4883-10.223 11.004-17.363 21.324-15.852 4.957 0.71875 9.3242 3.3359 12.336 7.3672 3 4.0195 4.2461 8.9766 3.5391 13.859l-29.062 194.84c-1.2344 3.5039-3.0977 6.8047-5.9023 10.223l-150.49 197.17c-0.45703 0.61328-0.88672 1.2461-1.2617 1.8945-2.1133 3.6484-4.6914 7.0664-7.6797 10.211-0.16797 0.15625-0.32422 0.30078-0.48047 0.46875-6.9961 7.1406-15.684 12.324-25.129 15-0.66016 0.19141-1.2969 0.40625-1.9336 0.67188-2.0625 0.85156-50.844 21.395-84.758 79.043-1.6562 2.7969-2.5078 6-2.4844 9.2539l0.73047 109.05c0.070313 9.8984 8.1133 17.879 18 17.879h0.12109c9.9492-0.070312 17.953-8.1836 17.879-18.121l-0.69531-103.96c25.285-40.367 59.113-57.18 64.234-59.555 14.941-4.4766 28.668-12.77 39.84-24.156 4.9688-5.0898 9.2891-10.703 12.875-16.703l149.4-195.77c5.7109-6.8984 9.9258-14.723 12.516-23.242 0.25391-0.83984 0.45703-1.7148 0.58984-2.5938l29.293-196.31c2.1328-14.453-1.5273-28.879-10.273-40.625z"/>
 <path d="m578.06 980.44-6.9258-45.348c-0.097657-0.63672-0.22656-1.2617-0.39453-1.8828l-13.246-49.98c-7.7656-33.215-22.895-75.684-34.645-97.344-3.5625-8.1367-8.207-15.637-13.824-22.285-0.33594-0.39453-0.68359-0.76953-1.043-1.1406l-0.14453-0.14453c-12.359-14.113-28.715-23.902-46.691-28.105-1.7539-1.0938-3.7188-1.8828-5.8203-2.3281-0.39453-0.085937-39.562-8.4375-68.988-24.469-21.445-11.676-81.086-71.102-116.7-108.97-11.449-16.906-31.559-25.871-51.828-22.906-14.09 2.0508-26.52 9.4805-35.016 20.902-3.4688 4.668-6.1211 9.7812-7.8828 15.168l-37.211-129.12c-4.9688-29.148-32.426-49.246-61.957-44.953-14.473 2.1133-27.254 9.7422-36 21.492-8.7461 11.746-12.395 26.172-10.273 40.68l29.281 196.26c0.13281 0.88672 0.32422 1.7539 0.58984 2.6289 2.6055 8.4844 6.8164 16.273 12.086 22.656l149.83 196.33c3.5508 5.9648 7.8711 11.578 12.852 16.703 0.25391 0.25391 0.50391 0.49219 0.76953 0.74219 10.945 10.957 24.406 19.031 39.086 23.426 5.3281 2.4727 39.023 19.285 64.246 59.555l-0.68359 103.96c-0.058594 9.9375 7.9453 18.047 17.879 18.121h0.12109c9.8867 0 17.941-7.9805 18-17.879l0.71875-109.05c0.023438-3.2539-0.83984-6.4453-2.4844-9.2539-33.91-57.648-82.703-78.203-84.77-79.043-0.625-0.25391-1.2734-0.48047-1.9336-0.67187-9.4453-2.6758-18.133-7.8477-25.129-14.988-0.097656-0.097656-0.19141-0.20312-0.30078-0.28906-3.0703-3.2148-5.7109-6.6953-7.8242-10.367-0.38281-0.67188-0.81641-1.2969-1.2852-1.9219l-150.89-197.77c-2.4102-2.9297-4.2617-6.2031-5.4844-9.7188l-29.051-194.7c-0.73047-4.9453 0.52734-9.8867 3.5273-13.922 3-4.0195 7.3789-6.6484 12.301-7.3672 10.332-1.5 19.859 5.6172 21.348 15.84 0.12109 0.80469 0.28906 1.6094 0.51562 2.3867l51.395 178.37c1.0312 3.5742 3.1328 6.7422 6.0234 9.0586 21 16.859 41.52 36.648 60.984 58.812 0.058594 0.070313 0.15625 0.10938 0.22656 0.17969 14.113 22.859 29.305 46.391 45.324 70.031 0.058594 0.085938 0.13281 0.14453 0.19141 0.22656 0.13281 0.19141 0.25391 0.37109 0.37109 0.5625 0.66016 0.875 16.559 21.66 40.645 40.391 3.2891 2.5547 7.1758 3.793 11.039 3.793 5.3633 0 10.668-2.3867 14.219-6.9492 6.1094-7.8359 4.7031-19.152-3.1445-25.246-19.812-15.422-33.395-32.855-33.516-32.965v-0.011719c-4.5703-6.7578-8.9141-13.43-13.344-20.148-11.449-17.328-22.57-34.559-32.867-51.336-0.86328-1.4141-1.9453-2.6055-3.1094-3.6836-6.1094-8.1602-28.645-39.828-35.652-72.289-0.3125-1.4297-0.79297-2.8203-1.4414-4.1406-0.86328-1.7656-1.4414-3.5508-1.6914-5.2422-0.67187-4.5977 0.48047-9.1797 3.2266-12.875 2.7461-3.6953 6.7695-6.0977 11.328-6.7578 6.7695-0.94922 13.5 2.1602 17.172 8.0156 0.625 0.98438 1.332 1.9062 2.1367 2.7617 9.4336 10.055 93.168 98.773 126.82 117.1 26.879 14.652 59.352 23.449 72.695 26.676 2.1367 1.4414 4.6094 2.4258 7.2734 2.8203 12.492 1.9062 23.953 8.375 32.281 18.227 0.27734 0.32422 0.57422 0.66016 0.88672 0.97266 3.1562 3.9375 5.7969 8.3398 7.8359 13.141 0.23828 0.55078 0.50391 1.1055 0.79297 1.6328 10.285 18.648 24.445 58.547 31.668 89.449l13.117 49.547 6.5742 43.094 0.58984 137.53c0.035156 9.9102 8.0898 17.914 18 17.914h0.070312c9.9492-0.046875 17.965-8.1367 17.93-18.086l-0.60156-138.85c0.019531-0.88281-0.042969-1.7695-0.17578-2.6445z"/>
</svg>
