<?xml version="1.0" encoding="UTF-8"?>
<svg width="1200pt" height="1200pt" version="1.1" viewBox="0 0 1200 1200" xmlns="http://www.w3.org/2000/svg">
 <path d="m1087.2 510c20.398 1.1992 18-49.199 18-52.801 0-3.6016 3.6016-30 10.801-40.801 7.1992-9.6016 15.602-56.398 15.602-56.398s33.602-43.199 22.801-50.398c-10.801-7.1992-32.398-8.3984-49.199-14.398s-28.801-2.3984-38.398-6c-9.6016-3.6016-28.801-2.3984-39.602-12-9.6016-9.6016-24-24-39.602-28.801-15.602-4.8008-43.199-13.199-51.602-12-9.6016 1.1992-16.801-12-26.398-20.398-9.6016-7.1992-25.199-14.398-30-19.199-4.8008-4.8008-2.3984-28.801-4.8008-34.801-2.3984-7.1992-15.602 13.199-18 14.398-2.3984 1.1992-14.398 4.8008-27.602 3.6016-13.199-1.1992-8.3984-16.801-8.3984-33.602 0-16.801-28.801-16.801-36-15.602s-4.8008-12-7.1992-18c-2.3984-6-18-3.6016-25.199-7.1992-7.1992-2.3984-8.3984-32.398-12-34.801-3.6016-2.3984-21.602 9.6016-28.801 4.8008-7.1992-4.8008-16.801-42-19.199-44.398-2.3984-2.3984-66 12-78 20.398-12 8.3984-9.6016 66-18 92.398-7.1992 26.398-78 37.199-102 49.199s-24 39.602-24 39.602-1.1992 8.3984-9.6016 13.199c-8.3984 4.8008-19.199 4.8008-27.602-2.3984-9.6016-8.3984-26.398-6-34.801-7.1992-8.3984-1.1992-12-10.801-20.398-6-8.3984 3.6016-8.3984 9.6016-15.602-8.3984-6-18 2.3984-9.6016 1.1992-26.398-1.1992-16.801-24-4.8008-28.801-3.6016-3.6016 2.3984-14.398-8.3984-26.398-10.801-12-2.3984 4.8008 8.3984 2.3984 18-2.3984 9.6016 1.1992 19.199 7.1992 33.602 6 14.398 6 30 8.3984 36 2.3984 6-7.1992 20.398 0 42 8.3984 21.602 0 14.398-14.398 16.801-14.398 2.3984-12-13.199-14.398-15.602-2.3984-2.3984-6-1.1992-10.801 3.6016s-20.398 0-30-4.8008c-9.6016-4.8008-28.801 18-32.398 18-3.6016 1.1992-8.3984-14.398-9.6016-19.199-2.3984-4.8008-9.6016-14.398-16.801-24-7.1992-8.3984-1.1992-3.6016-26.398-4.8008-24-1.1992-9.6016 2.3984-16.801 10.801-7.1992 8.3984-15.602 3.6016-20.398 1.1992-4.8008-2.3984-7.1992 3.6016-12 4.8008-4.8008 0-3.6016-7.1992-9.6016-8.3984s-19.199 3.6016-26.398 3.6016c-7.1992-0.007813-15.598 7.1914-27.598 5.9922s-12 10.801-14.398 24c-2.3984 12 32.398 21.602 38.398 30 6 8.3984-12 8.3984-28.801 10.801-16.801 2.3984-1.1992 7.1992 3.6016 8.3984 3.5977 2.3984 14.398 15.602 14.398 22.801s15.602 3.6016 22.801 2.3984c7.1992-1.1992 14.398-1.1992 16.801 6 1.1992 7.1992 13.199 3.6016 16.801 6 3.6016 3.6016 13.199 10.801 21.602 13.199 8.3984 1.1992 24 14.398 34.801 22.801 10.801 8.3984 38.398 8.3984 43.199 9.6016 3.6016 1.1992 4.8008 7.1992-3.6016 24-8.3984 16.801 26.398 16.801 25.199 24-2.3984 7.1992 16.801 16.801 16.801 20.398 0 3.6016-7.1992 13.199-10.801 25.199-3.6016 12 16.801 33.602 19.199 44.398 2.3984 10.801 36 30 48 33.602 12 3.6016 7.1992 13.199 6 19.199s6 22.801 7.1992 30c1.1992 7.1992-6 20.398-9.6016 18-3.6016-2.3984-8.3984 4.8008-8.3984 8.3984 0 3.6016 25.199 25.199 31.199 30 4.8008 4.8008 12 14.398 12 40.801 0 26.398-4.8008 16.801-7.1992-2.3984-2.3984-19.199-18-33.602-21.602-38.398-3.6016-4.8008-4.8008-6-7.1992-2.3984-2.3984 3.6016-7.1992 39.602-8.3984 43.199-1.1992 3.6016-2.3984 21.602-9.6016 46.801-7.1992 25.199-3.6016 21.602 0 18 3.6016-4.8008 2.3984-18 9.6016-9.6016 21.602 24 0 16.801-6 18-4.8008 1.1992-4.8008 4.8008-8.3984 10.801-3.6016 6-2.3984 28.801-6 36-4.8008 7.1992-12 44.398-20.398 72-8.3984 26.398-28.801 36-28.801 36-26.398 10.801 7.1992 13.199 16.801 18 10.801 4.8008 6 8.3984 1.1992 19.199-4.8008 12 3.6016 9.6016 9.6016 9.6016 7.1992 1.1992 21.602 1.1992 24 9.6016 3.6016 8.3984 9.6016 7.1992 15.602 7.1992s10.801 1.1992 12 7.1992 13.199 14.398 15.602 18c2.3984 3.6016 22.801-4.8008 31.199 2.3984 8.3984 6 26.398 14.398 33.602 15.602 7.1992 0 43.199 7.1992 52.801 6 9.6016-2.3984-1.1992-18 14.398-18 15.602 0 30 20.398 40.801 20.398 10.801 0 13.199 13.199 20.398 13.199s16.801-1.1992 20.398 2.3984c3.6016 2.3984 0 10.801 6 15.602 6 6 22.801 19.199 36 13.199 13.199-7.1992 44.398 14.398 50.398 10.801 6-3.6016 14.398-14.398 37.199-9.6016 22.801 4.8008 8.3984-10.801 4.8008-13.199-6.0039-4.7969-6.0039-6-6.0039-34.797 0-28.801 7.1992-34.801 13.199-45.602s32.398-16.801 40.801-27.602c8.3984-10.801 48-28.801 48-28.801 16.801 0 0 14.398 14.398 19.199 27.602 7.1992 16.801-7.1992 28.801-12s8.3984 10.801 8.3984 16.801c1.1992 6 19.199 20.398 16.801 10.801-1.1992-9.6016 12-10.801 14.398-7.1992 2.3984 4.8008-1.1992 12 15.602 9.6016 18-2.3984 16.801 2.3984 16.801 12 0 9.6016 27.602 9.6016 37.199 13.199 9.6016 4.8008 28.801 9.6016 36 10.801 7.1992 0 34.801-6 43.199-12 8.3984-6 10.801-14.398 9.6016-16.801-1.1992-2.3984 4.8008-15.602 14.398-15.602 9.6016 0 13.199-9.6016 19.199-15.602s26.398-21.602 40.801-26.398c14.398-6 2.3984-21.602 8.3984-26.398 6-4.8008 13.199-21.602 7.1992-27.602s-15.602 6-34.801 3.6016c-18-2.3984-26.398-14.398-30-20.398-4.8008-6-3.6016-21.602-8.3984-31.199-4.8008-9.6016 6-13.199 12-22.801 4.8008-10.801 0-15.602-15.602-24-15.602-7.1992-4.8008-9.6016-10.801-16.801-7.1992-7.1992-9.6016-20.398 2.3984-19.199 12 1.1992 6-4.8008 22.801-7.1992 16.801-2.3984 13.199-8.3984 13.199-19.199s-13.199-28.801-16.801-37.199c-3.6016-8.3984-18-18-2.3984-30 15.602-12 3.6016-22.801-2.3984-27.602-6-4.8008-6-10.801-6-31.199s-24-12-31.199-12c-7.1992 0-20.398 4.8008-20.398 9.6016 0 4.8008 8.3984 15.602-15.602 16.801-22.801 1.1992-8.3984-7.1992-4.8008-13.199 3.6016-6 1.1992-12 1.1992-15.602 0-3.6016 18-37.199 28.801-43.199s4.8008-30 18-31.199c14.398-1.1992 28.801-30 37.199-39.602 8.3984-9.6016-7.1992-12-2.3984-21.602 4.8047-9.6016 15.605-2.4023 36.004-1.2031z"/>
</svg>
