<?xml version="1.0" encoding="UTF-8"?>
<svg width="1200pt" height="1200pt" version="1.1" viewBox="0 0 1200 1200" xmlns="http://www.w3.org/2000/svg">
 <path d="m1111.2 728.95c-10.816-13.32-26.871-20.949-43.949-20.949-8.9961 0-17.992 2.1641-25.961 6.2617-5.6914 2.9609-12.523 4.668-20.949 5.4648-9.5664 0.79688-17.762 0-24.707-2.6172v-134.81c0-2.3906-1.9375-4.3281-4.3281-4.3281h-143.47c0.22656-5.4648 1.0234-10.363 2.6172-14.801l1.5938-1.5938h140.85v-148.48l-3.4141-0.68359h-0.68359-0.57031c-6.1484-1.2539-12.98-1.5938-20.266-0.91016-9.5664 0.79688-17.422 2.9609-24.254 6.375-6.832 3.5312-14.234 5.3516-21.977 5.3516-13.664 0-26.418-5.9219-35.523-16.055l68.547-69.91c2.9609 0.79688 5.9219 1.5938 8.8828 1.9375 9.793 1.2539 18.219 1.0234 25.848-0.57031l3.4141-0.79687v-153.14h-142.44c-2.6172-7.6289-3.3008-16.738-1.9375-27.555 0.79688-5.9219 2.6172-12.07 5.5781-17.992 5.2383-10.477 6.9453-22.316 5.0117-34.047-3.6445-22.66-21.18-40.992-43.723-45.66-2.9609-0.57031-5.9219-0.91016-8.8828-1.0234h-0.33984c-14.004-0.68359-27.781 3.6445-38.715 12.523-13.207 10.703-20.723 26.645-20.723 43.496 0 1.4805 0.11328 2.8477 0.22656 4.2148v0.22656c0.57031 7.4023 2.6172 14.801 6.0352 21.406 2.9609 5.6914 4.7812 12.523 5.4648 20.836 0.79688 9.1094 0 16.852-2.2773 23.684h-142.55v143.7c-7.8555 2.9609-17.309 3.6445-28.695 2.1641-0.57031 0-1.1367-0.22656-1.707-0.33984v-142.21c0-2.3906-1.9375-4.3281-4.3281-4.3281h-138.12c-2.6172-7.6289-3.3008-16.738-1.9375-27.555 0.79688-6.0352 2.6172-12.07 5.5781-17.992 5.125-10.477 6.9453-22.316 5.0117-34.047-3.6445-22.66-21.18-40.992-43.723-45.66-17.191-3.5312-34.613 0.68359-47.824 11.5-13.207 10.703-20.723 26.645-20.723 43.496 0 8.9961 2.1641 17.875 6.2617 25.848 2.9609 5.6914 4.7812 12.523 5.4648 20.836 0.79687 9.1094 0 16.852-2.2773 23.684h-138.12c-2.3906 0-4.3281 1.9375-4.3281 4.3281v139.37c-7.8555 2.9609-17.309 3.6445-28.695 2.1641-6.0352-0.79688-12.07-2.6172-18.105-5.5781-10.59-5.125-22.316-6.832-34.16-5.0117-22.773 3.6445-41.219 21.066-45.887 43.496-3.5312 16.965 0.57031 34.16 11.273 47.367 10.816 13.32 26.871 20.949 43.949 20.949 8.9961 0 17.992-2.1641 25.961-6.2617 5.6914-2.9609 12.523-4.7812 20.949-5.4648 9.5664-0.79688 17.762 0 24.707 2.6172v134.81c0 2.3906 1.9375 4.3281 4.3281 4.3281h141.42c1.707 0 3.3008-1.0234 3.9844-2.7344 0-0.11328 0-0.22656 0.11328-0.33984 0.22656 7.6289-0.79688 14.348-3.0742 20.266h-141.87v148.48l3.4141 0.68359c6.4883 1.3672 13.777 1.8203 21.52 1.1367 9.5664-0.79688 17.535-2.9609 24.254-6.375 6.832-3.5312 14.234-5.3516 21.977-5.3516 14.574 0 28.125 6.4883 37.234 17.648 6.7188 8.3125 10.363 18.559 10.59 29.148-0.11328 0.79688-0.22656 1.5938-0.22656 2.3906v0.33984c0 2.7344-0.22656 5.4648-0.79688 8.3125-3.8711 18.559-19.812 33.703-38.828 36.664-10.133 1.5938-20.152 0.11328-29.035-4.2148-6.832-3.3008-13.891-5.4648-20.836-6.375-9.793-1.2539-18.219-1.0234-25.848 0.57031l-3.4141 0.68359v153.14h142.44c2.6172 7.6289 3.3008 16.738 1.9375 27.555-0.79688 5.9219-2.6172 12.07-5.5781 17.992-5.125 10.477-6.9453 22.316-5.0117 34.047 3.6445 22.66 21.18 40.992 43.723 45.66 3.9844 0.79688 7.9688 1.2539 11.957 1.2539 13.094 0 25.734-4.4414 35.867-12.641 13.207-10.703 20.723-26.645 20.723-43.496 0-8.9961-2.1641-17.875-6.2617-25.848-2.9609-5.6914-4.7812-12.523-5.4648-20.836-0.79688-9.1094 0-16.965 2.2773-23.684h142.44v-143.7c7.8555-2.9609 17.191-3.6445 28.352-2.2773v141.76c0 2.3906 1.9375 4.3281 4.3281 4.3281h138.12c2.6172 7.6289 3.3008 16.738 1.9375 27.555-0.79688 5.9219-2.6172 11.957-5.5781 17.992-5.2383 10.477-6.9453 22.316-5.0117 34.047 3.6445 22.66 21.18 40.992 43.723 45.66 3.9844 0.79688 7.9688 1.2539 11.957 1.2539 13.094 0 25.734-4.4414 35.867-12.641 13.207-10.703 20.723-26.645 20.723-43.496 0-8.9961-2.1641-17.875-6.2617-25.848-2.9609-5.6914-4.7812-12.523-5.4648-20.836-0.79688-9.1094 0-16.965 2.2773-23.684h138.12c2.3906 0 4.3281-1.9375 4.3281-4.3281v-139.37c7.8555-2.9609 17.309-3.6445 28.695-2.1641 6.0352 0.79687 12.07 2.6172 18.105 5.5781 10.59 5.125 22.316 6.9453 34.16 5.0117 22.773-3.6445 41.219-21.066 45.887-43.496 3.5312-16.965-0.57031-34.16-11.273-47.367zm-272.02-147.11v0.45703c0 0.22656 0 0.45703 0.11328 0.68359 0 1.5938 0 3.0742 0.11328 4.668 0.79688 9.5664 2.9609 17.422 6.375 24.141 0.45703 0.79688 0.79688 1.707 1.1367 2.6172l-61.941 63.195c-10.477-4.3281-19.355-12.523-24.48-22.66l78.906-80.5c-0.22656 2.3906-0.22656 4.8945-0.22656 7.4023zm144.95-47.48-18.219 18.559h-46.684l64.902-66.152zm-132.99 99.176c0 14.348-6.375 27.781-17.535 36.891-10.816 8.8828-25.051 12.297-39.055 9.793l55.566-56.59c0.68359 3.1875 1.1367 6.6055 1.1367 9.9062zm-59.891 54.996c3.9844 0.79688 7.9688 1.2539 11.957 1.2539 13.094 0 25.734-4.4414 35.867-12.641 6.375-5.125 11.387-11.5 14.918-18.672 0 1.8203-0.22656 3.7578-0.57031 5.6914-3.0742 18.902-18.219 34.727-36.891 38.598-13.777 2.8477-27.441-0.45703-38.371-9.3359-6.375-5.125-11.16-11.957-14.348-19.469 7.4023 7.2891 16.852 12.523 27.328 14.688zm193-261.66v47.594l-76.973 78.566h-46.684l123.66-126.05zm-6.0352 126.05 6.0352-6.1484v6.1484zm-30.516-127.64c5.6914-2.9609 12.641-4.668 20.949-5.4648 3.6445-0.33984 7.0586-0.22656 10.363 0l-130.6 133.22h-2.9609l-1.1367 2.5039c-0.45703 0.91016-0.68359 1.9375-1.1367 2.9609l-85.965 87.559c-0.45703-1.4805-0.79688-2.9609-1.1367-4.4414-1.5938-10.02-0.11328-19.926 4.2148-28.809 3.4141-6.832 5.4648-13.777 6.375-20.723 0.11328-1.2539 0.11328-2.3906 0.22656-3.5312l153.83-156.9h0.91016c8.9961 0 17.992-2.1641 25.961-6.2617zm-330.89 157.02v136.75c-1.2539 0.11328-2.3906 0.33984-3.6445 0.45703-9.6797 0.79688-17.762 0-24.707-2.6172v-139.14h-141.87c-1.9375-5.0117-2.9609-10.703-3.0742-17.191h135.72c2.3906 0 4.3281-1.9375 4.3281-4.3281v-135.5c1.9375-0.33984 3.6445-0.79688 5.6914-0.91016 9.5664-0.79687 17.762 0 24.707 2.6172v139.14h141.87c1.9375 4.7812 2.8477 10.246 3.0742 16.395h-137.77c-2.3906 0-4.3281 1.9375-4.3281 4.3281zm290.69-389.18-284.88 291.15v-48.277l238.2-242.87zm58.867 0-343.75 344.78v-41.219l296.95-303.56zm-56.25 237.18-142.67 145.4c-0.45703-7.5156-1.9375-14.348-4.7812-20.266l-1.1367-2.5039h-18.332l137.09-139.82c7.9688 8.7656 18.445 14.688 29.832 17.078zm-229.89 122.63 186.05-187.3c-2.3906 14.348 0.68359 28.809 8.5391 40.648l-143.81 146.66zm194.93-187.88c1.0234-4.8945 2.8477-9.4492 5.4648-13.664l16.395-16.512c5.125-3.1875 10.93-5.4648 16.965-6.4883 10.02-1.5938 20.152-0.11328 29.035 4.2148 1.0234 0.45703 2.0508 0.79688 2.9609 1.2539l-64.789 66.039c-6.2617-10.246-8.6523-22.543-6.0352-34.727zm109.31-70.48-31.883 32.449c-1.9375-0.68359-3.8711-1.3672-5.8086-2.2773-10.59-5.125-22.43-6.832-34.16-5.0117-0.33984 0-0.57031 0.11328-0.91016 0.22656l72.758-73.215v47.707zm-19.586 35.754c-0.91016-0.11328-1.8203-0.45703-2.8477-0.57031l22.316-22.773v23.57c-5.8086 0.79688-12.184 0.79688-19.586-0.11328zm19.586-95.758-92.684 93.254c-7.4023 4.668-13.551 10.816-18.105 18.219l-205.64 206.89h-45.316v-2.7344l355.93-357.07h5.8086zm-135.72-41.445-226.02 230.46v-6.832l-2.5039-1.1367c-8.8828-3.9844-19.242-5.4648-31.539-4.4414h-0.57031l252.55-257.45c0 0.68359-0.33984 1.2539-0.45703 1.9375-1.707 13.664-0.57031 25.051 3.5312 34.727l1.1367 2.6172h3.8711zm-75.492-115.8c6.4883-5.2383 14.117-8.4258 22.203-9.793l-39.055 39.852c1.707-11.727 7.4023-22.43 16.738-29.945zm-17.191 42.699 51.922-52.945c1.9375 0.22656 3.8711 0.11328 5.8086 0.57031 9.9062 2.0508 18.789 7.6289 25.504 15.145l-72.531 73.898c-1.0234-7.9688-2.8477-14.918-5.8086-20.723-2.6172-5.0117-4.2148-10.363-4.8945-15.941zm-133.33 136.07 61.715-62.965h46.684l-108.4 110.56zm49.645-62.965-49.645 50.555v-50.555zm-52.148 141.87 2.5039-1.1367v-17.762l120.58-122.97h19.129l1.1367-2.6172c2.8477-6.6055 4.2148-14.004 4.3281-22.316l76.742-78.336c3.0742 5.0117 5.2383 10.477 6.2617 16.395 1.5938 10.02 0.11328 19.926-4.2148 28.809 0 0.22656-0.11328 0.33984-0.22656 0.57031l-273.38 278.73c-2.9609 0.91016-5.9219 1.9375-8.5391 3.1875-11.613 6.0352-25.504 6.9453-37.918 2.6172-1.4805-0.45703-2.7344-1.2539-4.0977-1.8203l77.312-78.793c7.5156-0.33984 14.348-1.8203 20.383-4.4414zm-125.48 39.281c0-3.0742 0.33984-6.1484 1.0234-9.2227 3.8711-18.559 19.812-33.59 38.828-36.664 1.9375-0.33984 3.7578-0.33984 5.6914-0.45703l-45.547 46.457zm-7.4023-11.043c-4.8945 23.344 4.8945 46 23.684 58.527-13.551-0.57031-26.871-6.832-35.641-17.648-9.1094-11.16-12.523-25.734-9.5664-40.195 3.8711-18.559 19.812-33.59 38.828-36.664 3.1875-0.45703 6.2617-0.68359 9.4492-0.57031-13.438 7.8555-23.57 20.949-26.758 36.438zm100.66-24.023-73.215 74.695c-9.6797-6.832-16.281-16.965-18.789-28.465l55.68-56.703c4.0977 0.79688 8.1992 2.0508 11.957 3.8711 6.832 3.3008 13.891 5.4648 20.836 6.375 1.2539 0.11328 2.3906 0.11328 3.5312 0.22656zm-374.61 212.7v-133.33c0-1.707-1.0234-3.3008-2.5039-3.9844-8.8828-3.9844-19.242-5.4648-31.539-4.4414-9.5664 0.79688-17.422 2.9609-24.254 6.375-6.832 3.5312-14.234 5.2383-21.977 5.2383-14.574 0-28.125-6.4883-37.234-17.762-9.1094-11.16-12.523-25.734-9.5664-40.195 3.8711-18.559 19.812-33.59 38.828-36.664 10.02-1.5938 20.039-0.11328 29.035 4.2148 6.832 3.3008 13.891 5.4648 20.836 6.375 14.234 1.8203 25.961 0.45703 35.867-3.9844 1.5938-0.68359 2.5039-2.2773 2.5039-3.9844v-137.89h136.75c1.707 0 3.3008-1.0234 3.9844-2.6172 3.6445-8.6523 5.0117-18.559 3.9844-30.402-0.79688-9.4492-2.9609-17.422-6.375-24.141-3.5312-6.832-5.3516-14.117-5.3516-21.863 0-14.348 6.375-27.781 17.535-36.777 11.273-9.2227 26.074-12.754 40.648-9.6797 18.672 3.8711 33.816 19.699 36.891 38.598 1.5938 10.02 0.11328 19.926-4.2148 28.809-3.4141 6.832-5.4648 13.777-6.375 20.723-1.707 13.664-0.57031 25.051 3.5312 34.727 0.68359 1.5938 2.2773 2.6172 3.9844 2.6172h136.75v135.72c-2.6172-0.91016-5.125-1.8203-7.7422-3.0742-5.4648-2.6172-11.273-4.3281-17.191-5.125-5.5781-0.79687-11.273-0.68359-16.965 0.22656-1.2539 0.22656-2.3906 0.57031-3.5312 0.79688-8.5391-2.6172-17.309-3.3008-26.301-1.8203-22.773 3.6445-41.219 21.066-45.887 43.496-3.5312 16.965 0.57031 34.16 11.273 47.367 10.816 13.32 26.871 20.949 43.949 20.949 4.5547 0 8.9961-0.57031 13.32-1.5938 13.891 4.2148 29.492 3.0742 42.473-3.6445 2.0508-1.0234 4.3281-1.707 6.6055-2.5039v129.12h-131.05c0-1.1367 0.11328-2.1641 0.22656-3.4141 0.79688-5.9219 2.6172-12.07 5.5781-17.992 5.125-10.477 6.9453-22.316 5.0117-34.047-0.79688-4.7812-2.2773-9.3359-4.2148-13.664v-0.45703c0-16.965-7.5156-32.793-20.723-43.496-13.32-10.816-30.629-15.031-47.824-11.5-22.43 4.668-39.965 23-43.723 45.66-1.707 10.816-0.45703 21.633 3.7578 31.426 0 0.22656 0.22656 0.22656 0.33984 0.45703v0.79688c0 8.9961 2.1641 17.875 6.2617 25.848 0.33984 0.57031 0.45703 1.3672 0.79688 1.9375 0.22656 6.832-0.45703 12.98-2.2773 18.332h-134.13zm133.22-66.609c-0.22656-3.5312-0.11328-7.1719 0.45703-10.816 3.0742-18.902 18.219-34.727 36.891-38.598 14.574-2.9609 29.375 0.57031 40.648 9.6797 6.6055 5.3516 11.273 12.41 14.234 20.152-7.5156-7.2891-16.965-12.641-27.555-14.918-17.191-3.5312-34.613 0.57031-47.824 11.5-7.6289 6.1484-13.32 14.117-16.738 23zm93.711 460.92-1.1367 2.6172c-3.6445 8.6523-5.0117 18.559-3.9844 30.402 0.79688 9.5664 2.9609 17.422 6.375 24.141 3.5312 6.7188 5.3516 14.117 5.3516 21.863 0 14.348-6.375 27.781-17.535 36.777-11.273 9.2227-26.074 12.641-40.648 9.6797-18.672-3.8711-33.816-19.699-36.891-38.598-1.5938-10.02-0.11328-19.926 4.2148-28.809 3.4141-6.832 5.4648-13.777 6.375-20.723 1.707-13.664 0.57031-25.051-3.5312-34.727l-1.1367-2.6172h-139.6v-137.32c5.8086-0.91016 12.297-0.79688 19.586 0.11328 6.0352 0.79688 12.07 2.6172 18.105 5.5781 10.59 5.125 22.316 6.832 34.16 5.0117 21.633-3.5312 39.281-19.469 44.977-40.195 2.9609 2.2773 6.6055 3.6445 10.59 3.6445 9.5664 0 17.309-7.7422 17.309-17.191s-7.7422-17.191-17.309-17.191c-3.6445 0-7.0586 1.1367-9.793 3.0742-1.9375-8.3125-5.5781-16.055-11.043-22.887-10.816-13.32-26.758-20.949-43.949-20.949-8.9961 0-17.992 2.1641-25.961 6.2617-5.6914 2.9609-12.523 4.668-20.949 5.4648-5.5781 0.45703-10.816 0.33984-15.598-0.33984v-132.77h138.8l1.1367-2.5039c4.3281-8.9961 5.9219-19.586 4.7812-32.223-0.68359-7.5156-2.3906-13.777-4.668-19.469 0-0.91016-0.45703-1.707-1.0234-2.3906-0.33984-0.68359-0.45703-1.3672-0.79688-2.0508-3.5312-6.832-5.3516-14.117-5.3516-21.863 0-14.348 6.375-27.781 17.535-36.777 11.273-9.2227 26.074-12.754 40.648-9.6797 18.672 3.8711 33.816 19.699 36.891 38.598 1.5938 10.02 0.11328 19.926-4.2148 28.809-3.4141 6.832-5.5781 13.777-6.375 20.723-0.33984 2.8477-0.45703 5.5781-0.57031 8.1992v0.57031 0.22656c-0.33984 10.59 1.2539 19.586 5.0117 27.441l1.1367 2.5039h138.8v136.18l2.5039 1.1367c8.8828 3.9844 19.242 5.4648 31.539 4.4414 2.2773-0.22656 4.5547-0.57031 6.832-0.91016h0.45703c0.79688 0 1.3672-0.22656 2.0508-0.57031 5.4648-1.1367 10.59-2.7344 14.918-5.0117 6.832-3.5312 14.234-5.3516 21.977-5.3516 14.574 0 28.125 6.4883 37.234 17.762 9.1094 11.16 12.523 25.734 9.5664 40.078-3.8711 18.559-19.812 33.703-38.828 36.664-10.02 1.5938-20.039 0.11328-29.035-4.2148-6.832-3.3008-13.891-5.4648-20.836-6.375-2.6172-0.33984-5.125-0.45703-7.6289-0.57031 1.4805-2.5039 2.3906-5.4648 2.3906-8.5391 0-9.4492-7.7422-17.191-17.309-17.191-9.5664 0-17.309 7.7422-17.309 17.191 0 4.8945 2.1641 9.3359 5.4648 12.523-0.45703 0.22656-1.0234 0.33984-1.4805 0.57031l-2.5039 1.1367v111.7c-3.0742-3.0742-7.4023-4.8945-12.07-4.8945-9.5664 0-17.309 7.7422-17.309 17.191 0 8.0859 5.5781 14.801 13.094 16.625zm263.93-217.48c-3.7578-4.668-8.3125-8.6523-13.207-11.84 13.207 0.91016 25.848 7.0586 34.387 17.422 9.1094 11.16 12.523 25.734 9.5664 40.195-3.8711 18.559-19.812 33.59-38.828 36.664-1.9375 0.33984-3.7578 0.22656-5.5781 0.33984 12.523-7.8555 21.863-20.496 25.051-35.41 3.5312-16.965-0.57031-34.16-11.273-47.367zm-132.08 217.48c2.9609-0.79688 5.6914-2.2773 7.7422-4.3281v4.3281zm542.21-171.71c-3.8711 18.559-19.812 33.59-38.828 36.664-10.02 1.5938-20.039 0.11328-29.035-4.2148-6.832-3.3008-13.891-5.4648-20.836-6.375-14.234-1.8203-25.961-0.57031-35.867 3.9844-1.5938 0.68359-2.5039 2.2773-2.5039 3.9844v137.89h-136.86c-1.707 0-3.3008 1.0234-3.9844 2.6172-3.6445 8.6523-5.0117 18.559-3.9844 30.402 0.79688 9.4492 2.9609 17.422 6.375 24.141 3.5312 6.832 5.3516 14.117 5.3516 21.863 0 14.348-6.375 27.781-17.535 36.891-11.273 9.2227-26.074 12.754-40.648 9.6797-18.672-3.8711-33.816-19.699-36.891-38.598-1.5938-10.02-0.11328-19.926 4.2148-28.809 3.4141-6.832 5.5781-13.777 6.375-20.723 1.707-13.664 0.57031-25.051-3.5312-34.727-0.68359-1.5938-2.2773-2.6172-3.9844-2.6172h-136.75v-135.61c3.3008 0.91016 6.4883 2.1641 9.793 3.7578 10.59 5.125 22.316 6.832 34.16 5.0117 1.3672-0.22656 2.7344-0.68359 3.9844-1.0234 4.7812 1.2539 9.5664 1.9375 14.461 1.9375 3.0742 0 6.2617-0.22656 9.4492-0.79688 22.773-3.6445 41.219-21.066 45.887-43.496 3.5312-16.965-0.57031-34.16-11.273-47.367-13.664-16.852-36.438-24.367-57.5-19.242-4.668-1.2539-9.4492-1.9375-14.461-1.9375-9.1094 0-17.875 2.1641-25.961 6.2617-2.6172 1.3672-5.5781 2.3906-8.6523 3.1875v-130.6h133.22c-0.11328 1.3672-0.11328 2.7344-0.33984 4.2148-0.79688 5.9219-2.6172 12.07-5.5781 17.992-5.2383 10.477-6.9453 22.316-5.0117 34.047 0.68359 4.0977 1.9375 7.9688 3.4141 11.84 0.22656 17.535 8.1992 34.387 21.633 45.316 9.9062 8.0859 21.746 12.297 34.16 12.297 3.7578 0 7.6289-0.33984 11.387-1.1367 22.43-4.668 39.965-23 43.723-45.66 1.4805-9.3359 0.68359-18.902-2.3906-27.555 0-1.4805 0.22656-2.8477 0.22656-4.3281 0-8.9961-2.1641-17.875-6.2617-25.848-2.9609-5.6914-4.7812-12.523-5.4648-20.836v-0.22656h139.03v133.33c0 1.707 1.0234 3.3008 2.5039 3.9844 8.8828 3.9844 19.242 5.4648 31.539 4.4414 9.5664-0.79687 17.535-2.9609 24.254-6.375 6.832-3.5312 14.234-5.3516 21.977-5.3516 14.574 0 28.125 6.4883 37.234 17.648 9.1094 11.16 12.523 25.734 9.5664 40.195zm-595.73-150.07c0-9.4492 7.7422-17.191 17.309-17.191 9.5664 0 17.309 7.7422 17.309 17.191 0 9.4492-7.7422 17.191-17.309 17.191-9.5664 0-17.309-7.7422-17.309-17.191zm-198.69-12.41c0 9.4492-7.7422 17.191-17.309 17.191s-17.309-7.7422-17.309-17.191 7.7422-17.191 17.309-17.191 17.309 7.7422 17.309 17.191zm-59.891 0c0 9.4492-7.7422 17.191-17.309 17.191s-17.309-7.7422-17.309-17.191 7.7422-17.191 17.309-17.191 17.309 7.7422 17.309 17.191zm0 64.105c0 9.4492-7.7422 17.191-17.309 17.191s-17.309-7.7422-17.309-17.191 7.7422-17.191 17.309-17.191 17.309 7.7422 17.309 17.191zm105.55-134.81c0-9.4492 7.7422-17.191 17.309-17.191 9.5664 0 17.309 7.7422 17.309 17.191s-7.7422 17.191-17.309 17.191c-9.5664 0-17.309-7.7422-17.309-17.191zm112.72 320.64c0 9.4492-7.7422 17.191-17.309 17.191-9.5664 0-17.309-7.7422-17.309-17.191s7.7422-17.191 17.309-17.191c9.5664 0 17.309 7.7422 17.309 17.191zm-135.27-237.4c0-9.4492 7.7422-17.191 17.309-17.191s17.309 7.7422 17.309 17.191-7.7422 17.191-17.309 17.191-17.309-7.7422-17.309-17.191zm17.309 81.297c-9.5664 0-17.309-7.7422-17.309-17.191 0-9.4492 7.7422-17.191 17.309-17.191s17.309 7.7422 17.309 17.191c0 9.4492-7.7422 17.191-17.309 17.191zm25.617-216.23c0-9.4492 7.7422-17.191 17.309-17.191s17.309 7.7422 17.309 17.191c0 9.4492-7.7422 17.191-17.309 17.191s-17.309-7.7422-17.309-17.191zm47.594 89.953c0 9.4492-7.7422 17.191-17.309 17.191-9.5664 0-17.309-7.7422-17.309-17.191 0-9.4492 7.7422-17.191 17.309-17.191 9.5664 0 17.309 7.7422 17.309 17.191zm0 64.105c0 9.4492-7.7422 17.191-17.309 17.191-9.5664 0-17.309-7.7422-17.309-17.191s7.7422-17.191 17.309-17.191c9.5664 0 17.309 7.7422 17.309 17.191zm-113.64 32.449c0 9.4492-7.7422 17.191-17.309 17.191-9.5664 0-17.309-7.7422-17.309-17.191s7.7422-17.191 17.309-17.191c9.5664 0 17.309 7.7422 17.309 17.191zm173.41-44.977c0 9.4492-7.7422 17.191-17.309 17.191-9.5664 0-17.309-7.7422-17.309-17.191 0-9.4492 7.7422-17.191 17.309-17.191 9.5664 0 17.309 7.7422 17.309 17.191zm0 64.105c0 9.4492-7.7422 17.191-17.309 17.191-9.5664 0-17.309-7.7422-17.309-17.191 0-9.4492 7.7422-17.191 17.309-17.191 9.5664 0 17.309 7.7422 17.309 17.191zm25.277 0c0-9.4492 7.7422-17.191 17.309-17.191 9.5664 0 17.309 7.7422 17.309 17.191 0 9.4492-7.7422 17.191-17.309 17.191-9.5664 0-17.309-7.7422-17.309-17.191zm0 64.105c0-9.4492 7.7422-17.191 17.309-17.191 9.5664 0 17.309 7.7422 17.309 17.191s-7.7422 17.191-17.309 17.191c-9.5664 0-17.309-7.7422-17.309-17.191zm-25.277 0c0 9.4492-7.7422 17.191-17.309 17.191-9.5664 0-17.309-7.7422-17.309-17.191s7.7422-17.191 17.309-17.191c9.5664 0 17.309 7.7422 17.309 17.191zm0 64.105c0 9.4492-7.7422 17.191-17.309 17.191-9.5664 0-17.309-7.7422-17.309-17.191 0-9.4492 7.7422-17.191 17.309-17.191 9.5664 0 17.309 7.7422 17.309 17.191zm70.141-70.594c0-9.4492 7.7422-17.191 17.309-17.191s17.309 7.7422 17.309 17.191c0 9.4492-7.7422 17.191-17.309 17.191s-17.309-7.7422-17.309-17.191zm70.824-6.4883c0-9.4492 7.7422-17.191 17.309-17.191 9.5664 0 17.309 7.7422 17.309 17.191 0 9.4492-7.7422 17.191-17.309 17.191-9.5664 0-17.309-7.7422-17.309-17.191zm39.512 21.293c9.5664 0 17.309 7.7422 17.309 17.191 0 9.4492-7.7422 17.191-17.309 17.191-9.5664 0-17.309-7.7422-17.309-17.191 0-9.4492 7.7422-17.191 17.309-17.191zm-155.2 55.793c0-9.4492 7.7422-17.191 17.309-17.191 9.5664 0 17.309 7.7422 17.309 17.191s-7.7422 17.191-17.309 17.191c-9.5664 0-17.309-7.7422-17.309-17.191zm34.613 64.105c0 9.4492-7.7422 17.191-17.309 17.191-9.5664 0-17.309-7.7422-17.309-17.191s7.7422-17.191 17.309-17.191c9.5664 0 17.309 7.7422 17.309 17.191zm-250.27-25.617c0 9.4492-7.7422 17.191-17.309 17.191-9.5664 0-17.309-7.7422-17.309-17.191s7.7422-17.191 17.309-17.191c9.5664 0 17.309 7.7422 17.309 17.191zm-42.926 0c0 9.4492-7.7422 17.191-17.309 17.191s-17.309-7.7422-17.309-17.191 7.7422-17.191 17.309-17.191 17.309 7.7422 17.309 17.191zm-3.9844 48.621c0 9.4492-7.7422 17.191-17.309 17.191s-17.309-7.7422-17.309-17.191 7.7422-17.191 17.309-17.191 17.309 7.7422 17.309 17.191zm106.69-80.613c0 9.4492-7.7422 17.191-17.309 17.191s-17.309-7.7422-17.309-17.191c0-9.4492 7.7422-17.191 17.309-17.191s17.309 7.7422 17.309 17.191zm0 64.105c0 9.4492-7.7422 17.191-17.309 17.191s-17.309-7.7422-17.309-17.191c0-9.4492 7.7422-17.191 17.309-17.191s17.309 7.7422 17.309 17.191zm55.793-173.07c0 9.4492-7.7422 17.191-17.309 17.191s-17.309-7.7422-17.309-17.191 7.7422-17.191 17.309-17.191 17.309 7.7422 17.309 17.191zm0 64.105c0 9.4492-7.7422 17.191-17.309 17.191s-17.309-7.7422-17.309-17.191 7.7422-17.191 17.309-17.191 17.309 7.7422 17.309 17.191zm0 64.105c0 9.4492-7.7422 17.191-17.309 17.191s-17.309-7.7422-17.309-17.191c0-9.4492 7.7422-17.191 17.309-17.191s17.309 7.7422 17.309 17.191zm0 64.105c0 9.4492-7.7422 17.191-17.309 17.191s-17.309-7.7422-17.309-17.191c0-9.4492 7.7422-17.191 17.309-17.191s17.309 7.7422 17.309 17.191zm-115.68 12.867c0 9.4492-7.7422 17.191-17.309 17.191s-17.309-7.7422-17.309-17.191c0-9.4492 7.7422-17.191 17.309-17.191s17.309 7.7422 17.309 17.191zm175.46-15.484c0 9.4492-7.7422 17.191-17.309 17.191-9.5664 0-17.309-7.7422-17.309-17.191s7.7422-17.191 17.309-17.191c9.5664 0 17.309 7.7422 17.309 17.191zm-78.453 132.88c0.91016 4.5547 0 9.1094-2.6172 12.98-3.3008 4.8945-8.7656 7.6289-14.348 7.6289-3.3008 0-6.7188-0.91016-9.5664-2.9609-3.8711-2.5039-6.4883-6.4883-7.2891-11.043-0.79688-4.5547 0-9.1094 2.6172-12.98 5.3516-7.8555 16.055-10.02 24.023-4.668 3.8711 2.5039 6.4883 6.4883 7.2891 11.043zm18.332-66.836c0.91016 4.5547 0 9.1094-2.6172 12.98-3.3008 4.8945-8.7656 7.6289-14.348 7.6289-3.3008 0-6.7188-0.91016-9.5664-2.9609-3.8711-2.5039-6.4883-6.4883-7.2891-11.043-0.91016-4.5547 0-9.1094 2.6172-12.98 5.3516-7.8555 16.055-10.02 24.023-4.668 3.8711 2.5039 6.4883 6.4883 7.2891 11.043z"/>
</svg>
