<?xml version="1.0" encoding="UTF-8"?>
<svg width="1200pt" height="1200pt" version="1.1" viewBox="0 0 1200 1200" xmlns="http://www.w3.org/2000/svg">
 <path d="m1168.8 744c-6-26.398-14.398-60-21.602-76.801-1.1992-3.6016-2.3984-7.1992-4.8008-12-12-32.398-34.801-92.398-90-92.398h-205.2c20.398 19.199 32.398 43.199 40.801 63.602h42l7.1992 147.6c1.1992 15.602 13.199 28.801 27.602 30 14.398 1.1992 28.801 2.3984 44.398 2.3984 14.398 0 28.801-1.1992 44.398-2.3984 15.602-1.1992 27.602-15.602 27.602-31.199l2.3984-94.801c1.1992 4.8008 3.6016 9.6016 4.8008 13.199 4.8008 12 12 39.602 18 66 4.8008 19.199 25.199 30 43.199 22.801h1.1992c14.402-6.0039 21.602-21.605 18.004-36.004z"/>
 <path d="m1086 469.2c0 41.754-33.848 75.602-75.602 75.602-41.75 0-75.598-33.848-75.598-75.602 0-41.75 33.848-75.598 75.598-75.598 41.754 0 75.602 33.848 75.602 75.598z"/>
 <path d="m627.6 561.6h-327.6c20.398 19.199 32.398 44.398 40.801 63.602h36l14.398 146.4c0 15.602 12 28.801 27.602 31.199 14.398 1.1992 28.801 2.3984 43.199 2.3984s30-1.1992 44.398-2.3984c15.602-1.1992 27.602-15.602 27.602-31.199l13.199-146.4h38.398c8.4023-19.203 21.602-44.402 42.004-63.602z"/>
 <path d="m538.8 469.2c0 41.754-33.848 75.602-75.602 75.602-41.75 0-75.598-33.848-75.598-75.602 0-41.75 33.848-75.598 75.598-75.598 41.754 0 75.602 33.848 75.602 75.598z"/>
 <path d="m327.6 667.2c-1.1992-3.6016-2.3984-7.1992-4.8008-12-12-32.398-34.801-92.398-90-92.398h-86.398c-56.398 0-78 60-90 92.398-1.1992 4.8008-3.6016 8.3984-4.8008 12-7.1992 16.801-15.602 50.398-21.602 76.801-3.6016 15.602 4.8008 30 19.199 36h1.1992c18 7.1992 38.398-3.6016 43.199-22.801 6-26.398 13.199-55.199 18-66 1.1992-3.6016 3.6016-8.3984 4.8008-13.199l2.3984 94.801c0 15.602 12 28.801 27.602 31.199 14.398 1.1992 28.801 2.3984 43.199 2.3984 14.398 0 30-1.1992 43.199-2.3984 15.602-1.1992 27.602-15.602 27.602-31.199l2.3984-94.801c1.1992 4.8008 3.6016 9.6016 4.8008 13.199 4.8008 12 12 39.602 18 66 4.8008 19.199 25.199 30 43.199 22.801h1.1992c14.398-6 22.801-21.602 19.199-36-5.9961-27.602-14.395-60-21.594-76.801z"/>
 <path d="m265.2 469.2c0 41.754-33.848 75.602-75.598 75.602-41.754 0-75.602-33.848-75.602-75.602 0-41.75 33.848-75.598 75.602-75.598 41.75 0 75.598 33.848 75.598 75.598z"/>
 <path d="m874.8 667.2c-1.1992-3.6016-2.3984-7.1992-4.8008-12-12-32.398-34.801-92.398-90-92.398h-86.398c-56.398 0-78 60-90 92.398-1.1992 4.8008-3.6016 8.3984-4.8008 12-7.1992 16.801-15.602 50.398-21.602 76.801-3.6016 15.602 4.8008 30 19.199 36h1.1992c18 7.1992 38.398-3.6016 43.199-22.801 6-26.398 13.199-55.199 18-66 1.1992-3.6016 3.6016-8.3984 4.8008-13.199l2.3984 94.801c0 15.602 12 28.801 27.602 31.199 14.398 1.1992 28.801 2.3984 43.199 2.3984s30-1.1992 43.199-2.3984c15.602-1.1992 27.602-15.602 27.602-31.199l2.3984-94.801c1.1992 4.8008 3.6016 9.6016 4.8008 13.199 4.8008 12 12 39.602 18 66 4.8008 19.199 25.199 30 43.199 22.801h1.1992c14.398-6 22.801-21.602 19.199-36-5.9961-27.602-14.395-60-21.594-76.801z"/>
 <path d="m812.4 469.2c0 41.754-33.848 75.602-75.598 75.602-41.754 0-75.602-33.848-75.602-75.602 0-41.75 33.848-75.598 75.602-75.598 41.75 0 75.598 33.848 75.598 75.598z"/>
</svg>
