<?xml version="1.0" encoding="UTF-8"?>
<svg width="1200pt" height="1200pt" version="1.1" viewBox="0 0 1200 1200" xmlns="http://www.w3.org/2000/svg">
 <path d="m740.29 711.89c0-14.719-11.953-26.672-26.672-26.672h-193.87v34.219h220.55z"/>
 <path d="m1020.7 932.63h-841.31c-1.5938 0-2.8594 1.2656-2.8594 2.8594v51c0 1.5938 1.2656 2.8594 2.8594 2.8594h841.31c1.5938 0 2.8594-1.2656 2.8594-2.8594v-51c0-1.5938-1.2656-2.8594-2.8594-2.8594z"/>
 <path d="m354.19 277.31h-67.172v85.734l67.172-39.047z"/>
 <path d="m433.92 719.39c11.953 0 21.703-9.7031 21.703-21.703 0-11.953-9.7031-21.703-21.703-21.703-11.953 0-21.703 9.7031-21.703 21.703s9.75 21.703 21.703 21.703z"/>
 <path d="m347.53 602.26h-15.469c-4.0781 0-7.4062 3.3281-7.4062 7.4062v230.48h30.234v-230.48c0-4.0781-3.2812-7.4062-7.3594-7.4062z"/>
 <path d="m600 210.66-442.31 257.06v80.344l435.89-253.74c1.9688-1.1719 4.2188-1.7344 6.4219-1.7344s4.4531 0.5625 6.4219 1.7344l435.89 253.74v-80.344z"/>
 <path d="m600 320.21-368.95 214.74v372.14h737.9v-372.14zm300.89 532.69c0 7.0312-5.7188 12.75-12.75 12.75h-55.781c-7.0312 0-12.75-5.7188-12.75-12.75v-14.062h-439.18v14.062c0 7.0312-5.7188 12.75-12.75 12.75l-55.828 0.046874c-7.0312 0-12.75-5.7188-12.75-12.75v-243.28c0-18.141 14.766-32.906 32.906-32.906h15.469c18.141 0 32.906 14.766 32.906 32.906v128.68h29.719c-13.969-8.2031-23.484-23.25-23.484-40.594 0-26.016 21.188-47.203 47.203-47.203 26.062 0 47.203 21.188 47.203 47.203 0 17.344-9.5156 32.391-23.484 40.594h38.344c-1.0312-1.8281-1.7812-3.8906-1.7812-6.1406l0.09375-59.766c0-7.0312 5.7188-12.75 12.75-12.75h206.68c28.781 0 52.219 23.438 52.219 52.219v20.297c0 2.25-0.75 4.2656-1.7812 6.1406h55.547v-33.562c0-18.141 14.766-32.906 32.906-32.906h15.469c18.141 0 32.906 14.766 32.906 32.906z"/>
 <path d="m380.44 763.82h439.13v49.453h-439.13z"/>
 <path d="m867.94 697.36h-15.469c-4.0781 0-7.3594 3.3281-7.3594 7.4062v135.37h30.234v-135.37c0-4.0781-3.3281-7.4062-7.4062-7.4062z"/>
</svg>
