<?xml version="1.0" encoding="UTF-8"?>
<svg width="1200pt" height="1200pt" version="1.1" viewBox="0 0 1200 1200" xmlns="http://www.w3.org/2000/svg">
 <path d="m599.86 1027.5-33.938-13.547-45.938 1.6875-5.0625-11.766-39.938-4.4531-68.625 11.391-27.234-13.547 14.062-98.766 29.062-49.312-103.92-29.391-21.234-40.547 6.2344-27.844-22.078-17.297v-27.844l15.469-27.844-32.062-64.078 21.234-60.234-10.547-42.141 57.469-13.078v-13.453l22.547-12.938v-38.391l14.062-68.156-17.531-15.938 3.9375-29.766 63.609-22.922 29.391 24.703 34.922-34.922-13.781-40.453-3.6094-74.156 101.39 23.156 4.9219 24.703 31.078 12.703 37.219-15.703-8.5312 44.766-12 9.2344 12.844 0.84375 100.22-54.844 27.234 3.8438 81 36.375 12 34.312 13.453 65.156-15.141 31.922 38.062 31.688-5.0625 26.625 16.078 24.141-6.375 40.219 40.781 55.547-27.609 58.781-19.547-9.7031-2.8594-14.531h-5.0625l1.3125 13.781-148.92 88.781 22.922 24.375v22.312l107.06 92.391-9.6094 43.781h-18.703l-1.4531 22.219-46.219 27.703 17.297 26.062v47.062l-59.531-19.312-87.234 37.219-37.781-15.703-19.312 16.078-0.23438-0.23438z"/>
</svg>
