<?xml version="1.0" encoding="UTF-8"?>
<svg width="1200pt" height="1200pt" version="1.1" viewBox="0 0 1200 1200" xmlns="http://www.w3.org/2000/svg">
 <path d="m971.24 521.25c0-164.43-96.746-306.55-236.24-372.74-0.375-0.1875-0.5625-0.375-0.75-0.375-53.246-25.125-112.68-39.371-175.49-39.371-38.062 0-74.996 5.4375-110.06 15.188h-0.375c-173.99 48.562-302.05 208.12-302.05 397.3 0 85.871 26.438 165.56 71.434 231.55 0.375 0.75 0.75 1.3125 1.3125 1.875 74.434 108 198.93 179.05 339.74 179.05 227.43 0 412.48-185.06 412.48-412.48zm-85.875-201.75c36.562 58.684 57.938 127.68 57.938 201.74 0 43.125-7.5 84.559-20.625 123.18-10.125-9.5625-11.25-19.312-12.75-33.562-1.125-11.25-2.625-24-8.625-38.621-5.8125-13.312-18.188-16.875-25.5-18.75-2.25-0.75-5.8125-1.6875-6.75-2.625-3.9375-10.875-0.75-20.062 4.6875-33.938 3.9375-10.125 8.4375-21.562 8.4375-34.5 0-17.812-8.625-31.688-16.125-44.059-5.4375-8.4375-10.312-16.5-11.625-24.75-3.3711-20.059 7.1289-51.746 30.938-94.121zm-104.06 496.11c1.875-6.1875 7.125-11.25 13.312-17.062 7.5-6.75 15.75-14.625 19.875-26.25 5.0625-14.062 0.75-25.688-2.4375-34.125-1.3125-3.5625-2.625-6.9375-3-10.312-2.625-17.812 11.438-44.625 26.438-50.438 6.9375-2.625 8.0625-3 15.75 12.938 2.8125 6.1875 5.8125 12.375 10.312 17.809 7.125 8.4375 17.062 10.688 25.875 11.438-25.875 42.938-59.996 80.434-100.31 110.25-4.3164-3.3672-7.6875-8.0547-5.8164-14.242zm-474.92-144.56c-1.6875 3.9375-3.9375 5.0625-5.625 5.4375-3 0.75-9.75 0.375-15 0.1875-12.188-0.75-24.75-1.6875-33.934 5.0625-11.625 8.4375-18 22.312-23.438 35.062-34.125-57.371-53.996-124.12-53.996-195.55 0-17.25 1.5-34.125 3.75-50.621 7.875 14.812 19.312 28.5 36.188 35.062 7.875 3 17.25 4.6875 27.188 6.5625 13.5 2.4375 30.188 5.625 35.625 11.812 2.8125 3.1875 3.375 5.25-9.5625 20.812-8.625 10.312-18.562 21.938-16.875 36.562 2.625 25.312 22.125 32.062 35.059 36.559 8.625 3 14.062 5.0625 16.5 9.375 5.2461 9.3711 9.1836 31.68 4.1211 43.68zm215.05 87.746c-5.0625 13.5-3.75 27.375-2.4375 40.875 1.3125 13.125 2.4375 25.312-2.4375 35.625-2.625 5.4375-5.25 9.1875-7.125 11.062-7.875-3.75-12.562-23.438-15.375-35.625-1.125-4.875-2.25-9.375-3.375-12.938-2.4375-8.25-5.625-16.5-8.625-24.562-7.3125-19.688-14.062-38.062-14.062-57.184 0-17.062 4.5-34.125 9.1875-52.125 4.875-19.312 10.125-39.188 9.75-59.996-0.1875-7.125-2.25-69.934-26.625-97.496-5.8125-6.75-13.688-12.188-21.375-17.438-9.1875-6.5625-19.875-13.875-21.75-20.812-5.25-17.438-6-31.5-2.8125-44.062 0.5625-2.25 1.6875-4.6875 2.8125-7.3125 4.5-9.9375 11.062-25.125 2.4375-38.062-9-13.688-25.5-14.812-37.684-15.562-1.875 0-4.5-0.1875-6.75-0.375 0.75-8.0625 9.5625-15.938 22.688-27 14.062-11.625 29.812-24.938 31.125-43.688 0.9375-11.25-3.75-20.438-7.6875-28.688-2.625-5.25-4.8711-9.9375-5.25-13.875-2.25-27.938 21.188-72.371 45.184-99.746 31.312-8.25 63.75-12.938 97.496-12.938 53.25 0 104.06 10.875 150.37 30.562-4.5 7.6875-7.3125 14.812-9.5625 21-3.375 9-5.4375 13.875-10.5 18.188-6 5.25-31.312 8.25-47.996 10.312-14.062 1.6875-27.375 3.375-37.688 6.1875-12.562 3.375-23.812 15.938-33.938 27-2.8125 3.1875-5.4375 6.1875-7.5 8.25l-2.8125 2.625c-17.812 16.688-44.621 42-37.312 74.621 1.875 8.25 7.6875 20.062 24.75 27.938 24.562 11.438 61.496 9 79.309-0.375 4.3125-2.25 8.4375-5.0625 12.562-7.875 5.625-4.125 10.5-7.5 15.375-8.25 1.875-0.375 4.125 0.5625 6.5625 2.8125 5.4375 5.0625 8.625 13.688 8.0625 18.562-4.5 47.625-50.625 69.938-88.496 74.621-4.3125 0.375-9.75 0.1875-15.75 0.1875-20.062-0.375-45-0.75-58.684 15.375-7.5 8.8125-9.9375 20.438-7.3125 34.688 3.75 20.625 27.562 29.062 46.875 35.812 6.1875 2.0625 12.75 4.3125 15.938 6.375 3.1875 1.875 5.4375 5.4375 8.4375 10.125 3.375 5.4375 7.125 11.438 13.5 16.5 8.0625 6.375 19.875 11.438 32.625 16.875 16.125 6.9375 38.434 16.5 41.246 26.25 0.9375 3.9375-2.8125 14.25-11.25 30.75l-2.8125 5.4375c-14.062 28.688-45.188 66.188-71.062 85.496-1.875 1.3125-10.312 5.4375-16.312 8.4375-24.559 12.188-31.121 16.121-33.934 23.434z"/>
 <path d="m1052.8 521.25c-0.1875-272.24-221.8-493.86-493.48-493.86-12.188-0.5625-22.688 4.875-28.688 15.188-6.75 11.062-6.75 26.25 0 37.496 6 9.9375 16.125 15.562 28.5 15 113.62 0.1875 220.49 44.438 300.93 124.87 80.621 80.434 124.87 187.5 124.87 301.3 0 113.81-44.25 220.87-124.87 301.3-80.434 80.621-187.49 124.87-301.11 124.87h-0.1875c-60.934 0-120-12.562-174.55-37.312-10.875-5.4375-22.688-4.875-32.438 1.875-10.875 7.5-17.062 21.375-15.562 34.309 1.5 11.812 8.8125 21 19.688 25.312 32.438 14.812 66.188 25.688 100.87 32.996v63.75h-48.184c-40.121 0-72.746 32.625-72.746 72.746v15.938c0 7.6875 6.375 14.062 14.062 14.062h418.3c7.6875 0 14.062-6.375 14.062-14.062v-15.938c0-40.121-32.812-72.746-72.934-72.746h-48v-63.938c223.3-47.426 391.3-245.98 391.48-483.16zm-343.49 575.04c24.75 0 44.809 20.062 44.809 44.809v1.875l-390.36 0.003907v-1.875c0-24.75 20.25-44.809 44.809-44.809zm-150.56-107.25c-66.934 0-131.62-13.875-192.74-41.438-3-1.125-3.5625-2.8125-3.75-4.3125-0.375-3.375 1.5-7.875 4.3125-9.75 0.75-0.5625 1.5-0.9375 2.625-0.9375 0.9375 0 2.25 0.375 3.75 1.125 58.496 26.438 121.12 39.746 185.8 39.746h0.1875c120.75 0 234.18-47.059 319.68-132.37 85.496-85.496 132.37-199.12 132.37-319.86s-46.875-234.37-132.37-319.68c-85.496-85.496-198.93-132.56-319.68-132.56h-0.75c-3 0.1875-4.5-1.125-5.25-2.4375-1.6875-3-1.6875-7.6875 0-10.688 0.75-1.3125 1.875-2.8125 5.8125-2.4375 257.99 0 467.8 209.99 467.8 467.8 0 258-209.8 467.8-467.8 467.8z"/>
</svg>
