<?xml version="1.0" encoding="UTF-8"?>
<svg width="1200pt" height="1200pt" version="1.1" viewBox="0 0 1200 1200" xmlns="http://www.w3.org/2000/svg">
 <path d="m980 1140v-1080c0-5.3047-2.1055-10.391-5.8594-14.141-3.75-3.7539-8.8359-5.8594-14.141-5.8594h-166.36c-4.3203 0.09375-8.5 1.5547-11.938 4.1719-3.4375 2.6211-5.9531 6.2656-7.1836 10.406-20.121 62.082-91.898 105.42-174.52 105.42s-154.4-43.34-174.52-105.42c-1.2305-4.1406-3.7461-7.7852-7.1836-10.406-3.4375-2.6172-7.6172-4.0781-11.938-4.1719h-166.36c-5.3047 0-10.391 2.1055-14.141 5.8594-3.7539 3.75-5.8594 8.8359-5.8594 14.141v1080c0 5.3047 2.1055 10.391 5.8594 14.141 3.75 3.7539 8.8359 5.8594 14.141 5.8594h720c5.3047 0 10.391-2.1055 14.141-5.8594 3.7539-3.75 5.8594-8.8359 5.8594-14.141zm-220-920h40c7.1445 0 13.746 3.8125 17.32 10 3.5742 6.1875 3.5742 13.812 0 20-3.5742 6.1875-10.176 10-17.32 10h-40c-7.1445 0-13.746-3.8125-17.32-10-3.5742-6.1875-3.5742-13.812 0-20 3.5742-6.1875 10.176-10 17.32-10zm-120 0h40c7.1445 0 13.746 3.8125 17.32 10 3.5742 6.1875 3.5742 13.812 0 20-3.5742 6.1875-10.176 10-17.32 10h-40c-7.1445 0-13.746-3.8125-17.32-10-3.5742-6.1875-3.5742-13.812 0-20 3.5742-6.1875 10.176-10 17.32-10zm-120 0h40c7.1445 0 13.746 3.8125 17.32 10 3.5742 6.1875 3.5742 13.812 0 20-3.5742 6.1875-10.176 10-17.32 10h-40c-7.1445 0-13.746-3.8125-17.32-10-3.5742-6.1875-3.5742-13.812 0-20 3.5742-6.1875 10.176-10 17.32-10zm-120 0h40c7.1445 0 13.746 3.8125 17.32 10 3.5742 6.1875 3.5742 13.812 0 20-3.5742 6.1875-10.176 10-17.32 10h-40c-7.1445 0-13.746-3.8125-17.32-10-3.5742-6.1875-3.5742-13.812 0-20 3.5742-6.1875 10.176-10 17.32-10zm-140 20c0-5.3047 2.1055-10.391 5.8594-14.141 3.75-3.7539 8.8359-5.8594 14.141-5.8594h40c7.1445 0 13.746 3.8125 17.32 10 3.5742 6.1875 3.5742 13.812 0 20-3.5742 6.1875-10.176 10-17.32 10h-40c-5.3047 0-10.391-2.1055-14.141-5.8594-3.7539-3.75-5.8594-8.8359-5.8594-14.141zm620 620c-0.03125 26.512-10.578 51.93-29.324 70.676-18.746 18.746-44.164 29.293-70.676 29.324h-5.5391l62.898 110c2.6289 4.6055 3.3242 10.066 1.9297 15.18-1.3984 5.1172-4.7656 9.4688-9.3672 12.102-4.6055 2.6289-10.066 3.3203-15.184 1.9258-5.1133-1.3945-9.4648-4.7656-12.098-9.3672l-28.52-49.84h-348.24l-28.52 50c-3.6328 6.0234-10.16 9.6914-17.191 9.668-7.0352-0.023438-13.539-3.7383-17.129-9.7852-3.5898-6.0469-3.7422-13.535-0.39844-19.723l62.898-110.16h-5.5391c-26.512-0.03125-51.93-10.578-70.676-29.324-18.746-18.746-29.293-44.164-29.324-70.676v-440c0.03125-26.512 10.578-51.93 29.324-70.676 18.746-18.746 44.164-29.293 70.676-29.324h360c26.512 0.03125 51.93 10.578 70.676 29.324 18.746 18.746 29.293 44.164 29.324 70.676zm40-600h-40c-7.1445 0-13.746-3.8125-17.32-10-3.5742-6.1875-3.5742-13.812 0-20 3.5742-6.1875 10.176-10 17.32-10h40c7.1445 0 13.746 3.8125 17.32 10 3.5742 6.1875 3.5742 13.812 0 20-3.5742 6.1875-10.176 10-17.32 10z"/>
 <path d="m780 360h-360c-12.363 0.050781-24.414 3.9219-34.492 11.082-10.082 7.1602-17.707 17.262-21.828 28.918h472.64c-4.1211-11.656-11.746-21.758-21.828-28.918-10.078-7.1602-22.129-11.031-34.492-11.082z"/>
 <path d="m360 860c0 15.914 6.3203 31.176 17.574 42.426 11.25 11.254 26.512 17.574 42.426 17.574h360c15.914 0 31.176-6.3203 42.426-17.574 11.254-11.25 17.574-26.512 17.574-42.426v-420h-480zm120 20c-15.914 0-31.176-6.3203-42.426-17.574-11.254-11.25-17.574-26.512-17.574-42.426s6.3203-31.176 17.574-42.426c11.25-11.254 26.512-17.574 42.426-17.574s31.176 6.3203 42.426 17.574c11.254 11.25 17.574 26.512 17.574 42.426s-6.3203 31.176-17.574 42.426c-11.25 11.254-26.512 17.574-42.426 17.574zm240 0c-15.914 0-31.176-6.3203-42.426-17.574-11.254-11.25-17.574-26.512-17.574-42.426s6.3203-31.176 17.574-42.426c11.25-11.254 26.512-17.574 42.426-17.574s31.176 6.3203 42.426 17.574c11.254 11.25 17.574 26.512 17.574 42.426s-6.3203 31.176-17.574 42.426c-11.25 11.254-26.512 17.574-42.426 17.574zm-320-340c0-15.914 6.3203-31.176 17.574-42.426 11.25-11.254 26.512-17.574 42.426-17.574h280c15.914 0 31.176 6.3203 42.426 17.574 11.254 11.25 17.574 26.512 17.574 42.426v120c0 15.914-6.3203 31.176-17.574 42.426-11.25 11.254-26.512 17.574-42.426 17.574h-280c-15.914 0-31.176-6.3203-42.426-17.574-11.254-11.25-17.574-26.512-17.574-42.426z"/>
 <path d="m460 520h280c11.047 0 20 11.047 20 20v120c0 11.047-8.9531 20-20 20h-280c-11.047 0-20-11.047-20-20v-120c0-11.047 8.9531-20 20-20z"/>
 <path d="m740 820c0 11.047-8.9531 20-20 20s-20-8.9531-20-20 8.9531-20 20-20 20 8.9531 20 20z"/>
 <path d="m500 820c0 11.047-8.9531 20-20 20s-20-8.9531-20-20 8.9531-20 20-20 20 8.9531 20 20z"/>
 <path d="m471.6 960-22.863 40h302.52l-22.863-40z"/>
</svg>
